<?xml version="1.0" encoding="iso-8859-1"?>
<!-- Generator: Adobe Illustrator 18.1.1, SVG Export Plug-In . SVG Version: 6.00 Build 0)  -->
<svg version="1.1" id="Capa_1" xmlns="http://www.w3.org/2000/svg" xmlns:xlink="http://www.w3.org/1999/xlink" x="0px" y="0px"
	 viewBox="0 0 15.387 15.387" style="enable-background:new 0 0 15.387 15.387;" xml:space="preserve">
<g>
	<g>
		<path style="fill:#090509;" d="M13.198,2.492c-1.651-1.651-3.411-2.566-3.933-2.046C9.262,0.45,9.259,0.456,9.255,0.46
			C9.251,0.464,9.245,0.466,9.24,0.47L7.457,2.254l0,0L4.195,5.526C4.175,5.551,3.846,6.012,4.57,7.219l-4.357,3.581
			c-0.249,0.206-0.285,0.576-0.08,0.826c0.204,0.25,0.575,0.286,0.825,0.08l4.294-3.532C5.533,8.519,5.876,8.9,6.301,9.325
			C6.855,9.879,7.339,10.3,7.76,10.618l-3.155,3.488c-0.217,0.24-0.198,0.611,0.042,0.829c0.24,0.218,0.611,0.198,0.828-0.042
			l3.286-3.632c1.106,0.559,1.482,0.175,1.44,0.233l3.272-3.272c0.004-0.003,0.005-0.01,0.009-0.014l1.75-1.75
			c0.025-0.025,0.042-0.056,0.053-0.089C15.707,5.795,14.801,4.095,13.198,2.492z M14.737,5.857
			c-0.296,0.295-1.631-0.562-2.985-1.916c-1.353-1.353-2.21-2.689-1.916-2.984c0.296-0.296,1.631,0.562,2.984,1.916
			C14.174,4.225,15.031,5.562,14.737,5.857z"/>
	</g>
</g>
<g>
</g>
<g>
</g>
<g>
</g>
<g>
</g>
<g>
</g>
<g>
</g>
<g>
</g>
<g>
</g>
<g>
</g>
<g>
</g>
<g>
</g>
<g>
</g>
<g>
</g>
<g>
</g>
<g>
</g>
</svg>
