<svg viewBox="0 0 512.00093 512" xmlns="http://www.w3.org/2000/svg"><path d="m436.03125 76.246094h-89.289062l-25.417969-76.246094-101.882813 101.882812c-49.945312 49.945313-51.648437 127.558594-10.023437 179.480469l-42.507813 42.367188c2.164063-51.304688-17.023437-101.582031-52.953125-137.773438l-22.597656-22.757812-23.996094 259.753906-67.363281 67.140625 21.152344 21.21875 23.671875-23.59375h275.226562l-13.613281-22.6875c-32.273438-53.785156-92.308594-86.085938-156.589844-81.691406l9.242188-9.242188.066406-.335937 71.453125-71.214844c52.960937 42.390625 130.570313 38.949219 179.507813-9.988281l101.882812-101.882813-75.96875-25.324219zm-29.960938 29.960937v49.15625l-37.078124-12.359375-12.265626-36.796875zm-97.839843-50.742187 25.234375 75.699218-75.699219-25.234374zm-193.460938 180.042968c19.601563 32.671876 26.972657 72.542969 19.390625 110.472657l-2.597656 12.984375-31.058594 30.953125zm2.804688 184.480469c53.140625-17.714843 109.808593-2.195312 146.292969 37.769531h-188.441407l35.582031-35.582031zm271.355469-148.613281c-40.890626 40.886719-107.417969 40.882812-148.304688 0-39.1875-39.191406-40.515625-100.851562-6.136719-141.621094l222.046875 74.015625zm0 0"/></svg>