<?xml version="1.0" encoding="iso-8859-1"?>
<!-- Generator: Adobe Illustrator 19.0.0, SVG Export Plug-In . SVG Version: 6.00 Build 0)  -->
<svg version="1.1" id="Layer_1" xmlns="http://www.w3.org/2000/svg" xmlns:xlink="http://www.w3.org/1999/xlink" x="0px" y="0px"
	 viewBox="0 0 512.001 512.001" style="enable-background:new 0 0 512.001 512.001;" xml:space="preserve">
<path style="fill:#FFAFC3;" d="M454.196,247.538l-47.547,134.717c-1.364,3.866,0.174,8.153,3.667,10.3
	c4.123,2.535,8.651,4.529,11.804,4.529c14.839,0,29.219-16.965,43.208-33.473c10.377-12.249,22.143-26.127,31.616-29.916
	c2.583-1.031,7.032-3.928,7.846-11.766c1.532-14.737-16.509-56.263-39.402-77.352C461.756,241.23,455.839,242.88,454.196,247.538z"
	/>
<g>
	<path style="fill:#FFA5B9;" d="M115.623,328.322l-7.864-13.102c-15.439-25.731-44.644-39.621-74.329-35.427l-8.201,1.164
		c-2.742,0.392-5.139,2.044-6.48,4.462c-11.012,19.876-6.127,37.323-1.816,52.716c3.259,11.641,6.079,21.695,2.216,31.935
		c-0.97,2.574-0.672,5.496,0.78,7.834c3.005,4.824,42.346,32.982,83.503,36.931c0.28,0.025,0.561,0.039,0.841,0.039
		c2.764,0,5.389-1.298,7.062-3.531C129.591,387,131.273,354.414,115.623,328.322z"/>
	<path style="fill:#FFA5B9;" d="M211.12,28.851C184.5,7.296,138.434,9.873,132.911,11.754c-2.872,0.983-5.127,3.424-5.824,6.376
		c-1.961,8.303-8.118,17.711-14.068,26.808c-10.093,15.43-20.527,31.383-16.633,48.688c0.909,4.044,4.501,6.894,8.61,6.894
		c0.134,0,0.267-0.004,0.396-0.009l22.021-0.983c38.044-1.7,71.694-25.192,86.401-60.319l0,0
		C215.347,35.549,214.203,31.348,211.12,28.851z"/>
	<path style="fill:#FFA5B9;" d="M496.693,194.789c-14.072-57.751-79.049-81.08-81.808-82.046c-4.6-1.599-9.632,0.81-11.248,5.415
		c-0.699,1.992-17.008,49.374-7.808,95.363c9.106,45.528,41.152,89.845,42.511,91.712c1.685,2.307,4.35,3.626,7.136,3.626
		c0.595,0,1.199-0.061,1.798-0.185c3.397-0.707,6.062-3.337,6.821-6.722c2.255-10.106,16.789-42.674,27.403-66.456
		C497.736,199.093,497.659,198.769,496.693,194.789z"/>
</g>
<g>
	<path style="fill:#FF9BAF;" d="M139.749,82.685c-1.565-2.13-4.005-3.445-6.644-3.587c-37.788-2.069-104.106,60.213-111.544,67.313
		c-1.022,0.979-1.794,2.182-2.25,3.519c-1.121,3.268-27.109,80.554,0.392,132.649c10.899,20.652,28.606,34.478,52.621,41.096
		c0.771,0.215,1.561,0.319,2.345,0.319c1.543,0,3.074-0.405,4.433-1.194c2.052-1.19,3.54-3.156,4.121-5.453l57.967-227.249
		C141.845,87.535,141.314,84.815,139.749,82.685z"/>
	<path style="fill:#FF9BAF;" d="M373.392,64.637c-40.191-23.178-55.729-57.829-55.871-58.156c-1.19-2.746-3.686-4.704-6.64-5.204
		c-0.88-0.151-89-14.158-118.532,54.354c-1.733,4.023-0.258,8.705,3.467,11.007l210.913,130.406
		c1.409,0.871,3.022,1.319,4.643,1.319c0.905,0,1.811-0.138,2.691-0.418c2.461-0.789,4.453-2.613,5.45-4.992
		C432.807,161.291,432.04,98.452,373.392,64.637z"/>
	<path style="fill:#FF9BAF;" d="M399.696,397.244c-0.258-4.467-3.816-8.032-8.282-8.303l-277.822-16.857
		c-3.562-0.194-6.993,1.78-8.528,5.066c-4.881,10.404-7.502,27.843-0.22,45.58c9.313,22.691,31.848,40.772,66.986,53.738
		c17.879,6.597,30.516,12.86,41.665,18.383c13.853,6.864,25.813,12.792,41.527,15.866c4.397,0.858,8.882,1.285,13.417,1.285
		c21.359,0,43.963-9.42,64.934-27.308c4.143-3.535,10.106-7.014,16.413-10.696C371.974,461.044,402.356,443.311,399.696,397.244z"/>
</g>
<path style="fill:#FF91A5;" d="M442.697,267.967c-4.6-13.977-9.36-28.429-11.201-42.726c-3.207-24.942-12.998-43.597-29.102-55.457
	c-24.544-18.091-54.521-13.098-55.785-12.874c-2.893,0.504-5.342,2.415-6.541,5.091L222.57,424.789
	c-1.54,3.44-0.72,7.48,2.035,10.054c14.943,13.969,35.823,23.92,57.449,23.92c15.658,0,31.719-5.225,46.184-17.927
	c17.504-15.366,34.59-23.398,51.116-31.167c27.627-12.991,53.72-25.256,70.655-68.016
	C459.266,318.281,451.217,293.839,442.697,267.967z"/>
<path style="fill:#FF879B;" d="M351.507,123.493c-8.83-17.659-17.659-26.489-50.585-36.979c-19-6.053-41.454-9.549-64.364-23.031
	c-43.373-25.528-77.928-8.071-94.666,4.6c-28.459,21.54-46.076,60.127-39.277,86.012c0.996,3.786,4.359,6.462,8.269,6.584
	l228.684,7.002c0.09,0.004,0.181,0.004,0.272,0.004c1.617,0,3.207-0.444,4.591-1.289
	C353.003,161.178,361.539,143.556,351.507,123.493z"/>
<path style="fill:#FF7D91;" d="M259.171,400.469l-94.609-256.29c-0.617-1.678-1.733-3.126-3.191-4.157
	c-13.219-9.334-32.473-7.601-52.832,4.747c-36.543,22.165-73.462,65.253-66.072,119.999c3.424,25.347,14.827,38.467,25.856,51.151
	c7.33,8.429,18.702,25.139,24.734,38.234c22.147,48.089,58.984,80.77,96.136,85.292c2.983,0.366,5.937,0.543,8.864,0.543
	c22.669,0,43.622-10.779,59.73-30.951C259.718,406.617,260.243,403.37,259.171,400.469z"/>
<path style="fill:#FF7387;" d="M347.717,157.333c-18.919-17.931-39.393-24.023-57.639-17.168c-1.169,0.439-2.233,1.121-3.121,2.004
	L142.107,286.169c-0.66,0.656-1.212,1.414-1.638,2.242c-7.385,14.461-5.829,39.238,3.867,61.661
	c7.239,16.741,25.403,46.567,65.723,58.26c9.597,2.781,19.566,4.1,29.684,4.1c60.356,0,125.751-46.977,145.699-110.349
	C402.618,247.539,378.824,186.792,347.717,157.333z"/>
<path style="fill:#FF6478;" d="M256.07,121.928c-35.862-13.697-77.321-6.342-105.638,18.694
	c-19.643,17.361-48.577,57.415-47.788,96.605c0.396,19.543,8.532,36.332,23.536,48.55c18.725,15.253,37.509,20.152,53.919,20.152
	c21.867-0.004,39.523-8.705,47.201-13.202c0.927-0.436,1.794-1.043,2.548-1.816l82.55-84.434c1.866-1.909,2.773-4.562,2.458-7.213
	C310.532,162.722,289.105,134.534,256.07,121.928z"/>
<path style="fill:#FF5064;" d="M313.028,194.85c-16.422-20.902-40.772-34.206-66.805-36.504c-21.04-1.866-40.863,4.001-54.38,16.06
	c-24.506,21.876-33.478,48.783-24.614,73.829c4.535,12.826,13.559,23.799,24.368,30.732l0,0
	c-14.587,1.979-22.939,17.892-16.049,30.901c9.755,18.419,25.927,34.661,46.406,38.521c5.079,0.957,10.149,1.427,15.185,1.427
	c26.467,0,59.437-7.984,79.049-32.068C339.168,289.528,352.904,245.591,313.028,194.85z"/>
<path style="fill:#D24150;" d="M267.556,261.817c-5.239-0.377-18.004,11.504-32.7-4.001c-7.581-7.999-8.956-20.564-4.149-30.482
	c1.17-2.413,2.606-4.52,4.244-6.34c3.161-3.512,0.621-8.972-4.075-8.451c-12.464,1.383-24.289,8.45-31.238,20.861
	c-7.961,14.219-6.491,32.475,3.771,45.134c17.015,20.989,47.721,20.159,63.808,0.407c1.679-2.063,3.067-4.248,4.228-6.53
	C273.491,268.391,273.91,262.275,267.556,261.817z"/>
<g>
</g>
<g>
</g>
<g>
</g>
<g>
</g>
<g>
</g>
<g>
</g>
<g>
</g>
<g>
</g>
<g>
</g>
<g>
</g>
<g>
</g>
<g>
</g>
<g>
</g>
<g>
</g>
<g>
</g>
</svg>
