<?xml version="1.0" encoding="utf-8"?>
<!-- Generator: Adobe Illustrator 17.1.0, SVG Export Plug-In . SVG Version: 6.00 Build 0)  -->
<!DOCTYPE svg PUBLIC "-//W3C//DTD SVG 1.1//EN" "http://www.w3.org/Graphics/SVG/1.1/DTD/svg11.dtd">
<svg version="1.1" id="Facebook" xmlns="http://www.w3.org/2000/svg" xmlns:xlink="http://www.w3.org/1999/xlink" x="0px" y="0px"
	 viewBox="0 0 128 128" enable-background="new 0 0 128 128" xml:space="preserve">
<g>
	<rect id="facebook-back" fill="#929292" width="128" height="128"/>
	<path id="facebook-facebook" fill="#FFFFFF" d="M95.8838,28.1602H32.1162c-2.1855,0-3.956,1.7705-3.956,3.956v63.7676
		c0,2.1846,1.7705,3.956,3.956,3.956h34.3301V72.082h-9.3408V61.2637h9.3408v-7.9776c0-9.2588,5.6543-14.2998,13.9141-14.2998
		c3.956,0,7.3554,0.2945,8.3466,0.4263v9.6753l-5.7275,0.0024c-4.4922,0-5.3613,2.1348-5.3613,5.2666v6.9068h10.7119L86.9355,72.082
		h-9.3173v27.7578h18.2656c2.1846,0,3.956-1.7714,3.956-3.956V32.1162C99.8398,29.9307,98.0684,28.1602,95.8838,28.1602z"/>
</g>
</svg>
