<?xml version="1.0" encoding="utf-8"?>
<!-- Generator: Adobe Illustrator 17.1.0, SVG Export Plug-In . SVG Version: 6.00 Build 0)  -->
<!DOCTYPE svg PUBLIC "-//W3C//DTD SVG 1.1//EN" "http://www.w3.org/Graphics/SVG/1.1/DTD/svg11.dtd">
<svg version="1.1" id="Pinterest" xmlns="http://www.w3.org/2000/svg" xmlns:xlink="http://www.w3.org/1999/xlink" x="0px" y="0px"
	 viewBox="0 0 128 128" enable-background="new 0 0 128 128" xml:space="preserve">
<g>
	<rect id="pinterest-back" fill="#929292" width="128" height="128"/>
	<path id="pinterest-pinterest" fill="#FFFFFF" d="M91.7451,51.7451c0,16.1553-8.9746,28.2197-22.2148,28.2197
		c-4.4444,0-8.625-2.4043-10.0601-5.1347c0,0-2.3901,9.4902-2.895,11.3203c-1.7798,6.4648-7.0249,12.9394-7.4302,13.4746
		c-0.2846,0.3652-0.915,0.25-0.98-0.2344c-0.1147-0.8252-1.4497-8.9902,0.125-15.6504c0.7901-3.3398,5.295-22.435,5.295-22.435
		S52.27,58.6753,52.27,54.79c0-6.1025,3.5401-10.6572,7.94-10.6572c3.7451,0,5.5556,2.8096,5.5556,6.1797
		c0,3.7676-2.3955,9.3975-3.6352,14.6128c-1.0352,4.3696,2.1899,7.9302,6.4995,7.9302c7.7998,0,13.0498-10.0205,13.0498-21.8907
		c0-9.0224-6.0742-15.7797-17.1294-15.7797c-12.4854,0-20.2705,9.3149-20.2705,19.7202c0,3.5849,1.06,6.1172,2.7153,8.0722
		c0.7603,0.8999,0.8701,1.2627,0.5947,2.2979c-0.2045,0.7598-0.6494,2.5801-0.8447,3.3047c-0.27,1.04-1.1147,1.415-2.06,1.0303
		c-5.75-2.3506-8.4297-8.6504-8.4297-15.73c0-11.6978,9.8647-25.7202,29.4243-25.7202
		C81.4053,28.1602,91.7451,39.5327,91.7451,51.7451z"/>
</g>
</svg>
