<?xml version="1.0" encoding="utf-8"?>
<!-- Generator: Adobe Illustrator 15.0.0, SVG Export Plug-In . SVG Version: 6.00 Build 0)  -->
<!DOCTYPE svg PUBLIC "-//W3C//DTD SVG 1.1//EN" "http://www.w3.org/Graphics/SVG/1.1/DTD/svg11.dtd">
<svg version="1.1" id="Layer_1" xmlns="http://www.w3.org/2000/svg" xmlns:xlink="http://www.w3.org/1999/xlink" x="0px" y="0px"
	 width="80px" height="80px" viewBox="0 0 80 80" enable-background="new 0 0 80 80" xml:space="preserve">
<path fill="#78CFCF" d="M40.002,57.503c-0.414,0-0.795-0.214-1.031-0.553L21.884,31.564c-4.788-8.29-3.424-18.713,3.281-25.415
	C29.126,2.179,34.399,0,40.002,0c5.609,0,10.885,2.179,14.854,6.149c6.705,6.702,8.062,17.125,3.312,25.337L41.05,56.95
	C40.816,57.289,40.426,57.503,40.002,57.503z M40.002,2.499c-4.931,0-9.58,1.924-13.072,5.416
	C21.024,13.821,19.821,23,24.009,30.232l15.994,23.776l16.049-23.84C60.193,23,58.99,13.821,53.09,7.915
	C49.598,4.423,44.949,2.499,40.002,2.499z"/>
<path fill="#78CFCF" d="M40.002,32.376c-3.04,0-5.891-1.187-8.041-3.334c-2.146-2.143-3.333-5.001-3.333-8.04
	c0-3.049,1.177-5.907,3.333-8.057c2.15-2.147,5.001-3.336,8.041-3.336s5.907,1.189,8.057,3.336c2.146,2.15,3.336,5.008,3.336,8.047
	c0,3.048-1.188,5.907-3.336,8.05C45.909,31.189,43.051,32.376,40.002,32.376z M40.002,12.111c-2.367,0-4.595,0.921-6.272,2.599
	c-1.681,1.682-2.603,3.909-2.603,6.282c0,2.376,0.922,4.604,2.603,6.282c3.358,3.353,9.202,3.353,12.563,0
	c1.678-1.678,2.594-3.906,2.594-6.282c0-2.373-0.922-4.601-2.594-6.282C44.611,13.032,42.387,12.111,40.002,12.111z"/>
<path fill="#78CFCF" d="M79.045,72.13c0,0-5.383-16.103-8.539-25.644c-1.086-3.286-3.656-4.922-8.002-6.765l-3.915-1.771
	l-1.419,2.108l4.336,1.953c4.303,1.837,5.913,3.109,6.624,5.259c3.159,9.549,8.542,25.658,8.556,25.666
	c1.181,3.48,0.736,4.25,0.697,4.322c-0.148,0.178-1.125,0.279-3.859-0.974l-16.986-8.267c-0.357-0.177-0.771-0.172-1.124,0.012
	l-15.417,7.986l-16.229-7.998c-0.349-0.177-0.763-0.172-1.115,0.012L6.485,76.284c-2.945,1.433-3.87,1.177-3.876,1.177
	c-0.023-0.025-0.53-0.669,0.728-4.533c0,0,5.389-16.109,8.548-25.658c0.695-2.088,2.062-3.174,6.657-5.274l4.319-1.92l-1.422-2.112
	L17.5,39.721c-4.688,2.151-6.955,3.632-7.986,6.765C6.359,56.027,0.96,72.13,0.96,72.143c-1.148,3.537-1.258,5.566-0.375,6.785
	c0.359,0.488,1.054,1.077,2.321,1.077c1.132,0,2.615-0.469,4.694-1.474l15.629-7.995l16.227,7.995
	c0.359,0.175,0.773,0.175,1.125-0.014l15.425-7.981l16.46,8.017c1.931,0.883,3.353,1.295,4.487,1.295
	c1.352,0,2.074-0.617,2.449-1.129C80.296,77.467,80.195,75.492,79.045,72.13z"/>
</svg>
