<?xml version="1.0" encoding="utf-8"?>
<!-- Generator: Adobe Illustrator 15.0.0, SVG Export Plug-In . SVG Version: 6.00 Build 0)  -->
<!DOCTYPE svg PUBLIC "-//W3C//DTD SVG 1.1//EN" "http://www.w3.org/Graphics/SVG/1.1/DTD/svg11.dtd">
<svg version="1.1" id="Layer_1" xmlns="http://www.w3.org/2000/svg" xmlns:xlink="http://www.w3.org/1999/xlink" x="0px" y="0px"
	 width="80px" height="80px" viewBox="0 0 80 80" enable-background="new 0 0 80 80" xml:space="preserve">
<path fill="#78CFCF" d="M20,55.501c-4.828,0-8.75,3.922-8.75,8.745C11.25,69.075,15.171,73,20,73s8.751-3.925,8.751-8.754
	C28.75,59.423,24.828,55.501,20,55.501z M20,70.501c-3.444,0-6.249-2.806-6.249-6.255C13.75,60.803,16.555,58,20,58
	c3.446,0,6.251,2.803,6.251,6.246C26.25,67.695,23.446,70.501,20,70.501z"/>
<path fill="#78CFCF" d="M59.883,55.501c-4.826,0-8.75,3.922-8.75,8.745c0,4.829,3.924,8.754,8.75,8.754
	c4.82,0,8.746-3.925,8.746-8.754C68.629,59.423,64.703,55.501,59.883,55.501z M59.883,70.501c-3.453,0-6.254-2.806-6.254-6.255
	c0-3.443,2.801-6.246,6.254-6.246c3.443,0,6.25,2.803,6.25,6.246C66.133,67.695,63.326,70.501,59.883,70.501z"/>
<path fill="#78CFCF" d="M69.727,25.97c-5.504-6.876-12.031-14.211-19.961-14.211L6.406,11.775c0,0-0.226-0.032-0.593-0.032
	C3,11.742,0,13.391,0,18.007v13.274h32.617v-6.999c0.11,0,0.266,0.007,0.422,0.165l11.086,11.082
	c0.102,0.104,0.156,0.242,0.156,0.385c0,0.148-0.055,0.291-0.164,0.391L33.043,47.396c-0.112,0.112-0.262,0.174-0.427,0.158v-6.922
	H0V58c0,5.936,4.086,7.5,6.25,7.5H10v-1.254c0-5.52,4.484-9.996,9.999-9.996C25.516,54.25,30,58.729,30,64.246V65.5h19.878v-1.254
	c0-5.52,4.488-9.996,10.004-9.996c5.517,0,10,4.479,10,9.996V65.5h3.863c3.448,0,6.254-2.803,6.254-6.249v-11.25
	C80,40.462,72.588,29.539,69.727,25.97z M77.496,59.251c0,2.062-1.676,3.75-3.75,3.75H72.32c-0.637-6.313-5.969-11.25-12.438-11.25
	c-6.469,0-11.812,4.937-12.444,11.25h-15c-0.626-6.313-5.97-11.25-12.438-11.25S8.187,56.688,7.563,63.001H6.25
	c-0.148,0-3.75-0.067-3.75-5.001V43.133h27.618v5.67l0.366,0.362c1.147,1.147,3.172,1.147,4.327,0L45.883,38.08
	c0.578-0.572,0.898-1.346,0.898-2.166c0-0.815-0.32-1.594-0.898-2.156L34.806,22.672c-1.166-1.147-3.174-1.147-4.329,0.014
	l-0.358,0.361v5.735H2.5V18.007c0-3.116,1.804-3.76,3.312-3.76c0.157,0,0.265,0.003,0.438,0.01h43.516
	c2.906,0,5.674,1.252,8.291,3.178l0.061,13.594c-0.008,0.104-0.195,2.854,1.523,4.713c1,1.08,2.373,1.633,4.102,1.633h6.254
	c0.691,0,1.254-0.562,1.254-1.245c0-0.694-0.562-1.254-1.254-1.254H63.75c-1.006,0-1.75-0.274-2.266-0.821
	c-0.984-1.054-0.877-2.835-0.877-2.945l-0.045-11.603c2.568,2.357,4.978,5.231,7.211,8.025c4.039,5.053,9.723,14.733,9.723,20.47
	V59.251z"/>
</svg>
