<?xml version="1.0" ?><!DOCTYPE svg  PUBLIC '-//W3C//DTD SVG 1.1//EN'  'http://www.w3.org/Graphics/SVG/1.1/DTD/svg11.dtd'><svg height="512px" id="Layer_1" style="enable-background:new 0 0 512 512;" version="1.1" viewBox="0 0 512 512" width="512px" xml:space="preserve" xmlns="http://www.w3.org/2000/svg" xmlns:xlink="http://www.w3.org/1999/xlink"><g><polygon points="76.064,348.568 67.913,356.718 134.989,423.793 143.095,415.751  " style="fill:#141515;"/><path d="M211.954,192.416c-1.828-1.676-4.723-1.676-6.398,0l-23.309,23.308   c-1.676,1.676-1.828,4.571,0,6.398l87.293,87.293c1.828,1.828,4.722,1.828,6.398,0l23.308-23.156c1.676-1.828,1.676-4.722,0-6.398   L211.954,192.416z M184.379,221.209l26.661-26.66l3.809,3.809l-26.661,26.812L184.379,221.209z M191.844,228.826   c8.835-8.988,17.824-17.824,26.66-26.812c1.371,1.219,2.59,2.59,3.809,3.809c-8.836,8.989-17.824,17.824-26.66,26.812   C194.434,231.264,193.063,230.045,191.844,228.826z M199.309,236.291c8.836-8.989,17.824-17.825,26.66-26.812   c1.371,1.218,2.59,2.59,3.961,3.808c-8.989,8.989-17.824,17.825-26.813,26.813C201.899,238.728,200.528,237.509,199.309,236.291z    M206.774,243.756c8.836-8.988,17.825-17.824,26.661-26.812c1.371,1.371,2.59,2.59,3.96,3.809   c-8.988,8.989-17.824,17.824-26.812,26.812C209.364,246.193,207.993,244.974,206.774,243.756z M214.239,251.22   c8.835-8.988,17.824-17.824,26.66-26.812c1.371,1.371,2.59,2.59,3.961,3.808c-8.989,8.989-17.825,17.825-26.812,26.813   C216.829,253.81,215.457,252.439,214.239,251.22z M221.703,258.685c8.989-8.989,17.824-17.825,26.812-26.812   c1.219,1.371,2.438,2.59,3.809,3.808c-8.989,8.988-17.824,17.824-26.812,26.813C224.293,261.275,222.922,259.904,221.703,258.685z    M229.169,266.15c8.988-8.988,17.824-17.824,26.812-26.812c1.219,1.371,2.438,2.59,3.809,3.961   c-8.988,8.835-17.824,17.824-26.813,26.66C231.758,268.74,230.539,267.369,229.169,266.15z M236.633,273.615   c8.988-8.988,17.824-17.824,26.813-26.812c1.218,1.371,2.437,2.59,3.809,3.96c-8.989,8.836-17.825,17.825-26.813,26.66   C239.223,276.204,238.004,274.834,236.633,273.615z M244.098,281.08c8.989-8.988,17.825-17.825,26.812-26.813   c1.219,1.371,2.59,2.59,3.809,3.962c-8.988,8.835-17.824,17.824-26.812,26.66C246.688,283.669,245.469,282.298,244.098,281.08z    M251.562,288.544c8.989-8.836,17.825-17.824,26.813-26.66c1.219,1.218,2.59,2.437,3.808,3.809   c-8.835,8.836-17.824,17.824-26.66,26.66C254.153,291.134,252.934,289.763,251.562,288.544z M259.028,296.009   c8.988-8.836,17.824-17.824,26.812-26.66c1.218,1.219,2.59,2.438,3.809,3.809c-8.836,8.836-17.825,17.825-26.66,26.661   C261.617,298.599,260.398,297.38,259.028,296.009z M270.453,307.283l-3.961-3.809l26.813-26.661l3.808,3.809L270.453,307.283z" style="fill:#141515;"/><path d="M74.387,298.294c-1.371,1.371-1.371,3.809,0,5.18c1.524,1.371,3.809,1.371,5.18,0   c1.371-1.371,1.371-3.809,0-5.18C78.197,296.923,75.911,296.923,74.387,298.294z" style="fill:#141515;"/><path d="M56.563,368.067l-3.047,3.047c-3.352,3.352-3.352,8.836,0,12.187l54.843,54.845   c3.352,3.351,8.836,3.351,12.188,0l3.047-3.047l8.182-8.118l-67.139-66.987L56.563,368.067z" style="fill:#141515;"/><path d="M256.742,164.08l8.684-8.684c1.371-1.371,1.371-3.656,0-5.027l-10.664-10.664l-13.71,13.558   l10.664,10.817C253.087,165.451,255.371,165.451,256.742,164.08z" style="fill:#141515;"/><path d="M275.785,160.729c-1.371-1.371-3.656-1.371-5.028,0c-2.894,2.895-5.789,5.789-8.531,8.684   c-1.371,1.371-1.371,3.656,0,5.027c7.313,7.312,14.625,14.625,21.938,21.938c1.371,1.523,3.656,1.523,5.027,0   c2.894-2.742,5.789-5.637,8.684-8.532c1.371-1.371,1.371-3.656,0-5.027C290.563,175.506,283.098,168.193,275.785,160.729z" style="fill:#141515;"/><path d="M349.062,25.6l-33.211,33.211l116.695,116.695l33.211-33.363L349.062,25.6z M334.895,48.604   l3.961-3.961l107.859,107.859l-3.96,3.961L334.895,48.604z" style="fill:#141515;"/><rect height="7.11" style="fill:#141515;" transform="matrix(0.7071 0.7071 -0.7071 0.7071 268.8243 -46.3163)" width="128.622" x="126.01" y="297.786"/><path d="M294.524,206.888c7.312,7.313,14.777,14.625,22.089,21.937c1.371,1.371,3.657,1.371,5.028,0   c2.895-2.894,5.637-5.789,8.532-8.684c1.371-1.371,1.371-3.503,0-4.875c-7.313-7.465-14.625-14.777-21.937-22.089   c-1.371-1.371-3.656-1.371-5.027,0c-2.895,2.894-5.789,5.789-8.684,8.683C293.152,203.232,293.152,205.517,294.524,206.888z" style="fill:#141515;"/><polygon points="131.821,427.025 135.02,423.825 134.989,423.793 131.777,426.98  " style="fill:#141515;"/><polygon points="226.883,351.614 140.047,264.779 114.911,290.068 201.594,376.751  " style="fill:#141515;"/><polygon points="67.837,356.642 64.637,359.993 67.913,356.718  " style="fill:#141515;"/><path d="M259.485,138.029l9.14,9.14c2.285,2.285,2.895,5.637,1.981,8.532   c2.894-1.066,6.093-0.457,8.378,1.828c7.465,7.313,14.777,14.625,22.09,22.09c2.285,2.285,2.895,5.637,1.828,8.379   c2.895-0.914,6.246-0.305,8.532,1.98c7.312,7.313,14.625,14.625,22.089,21.938c2.285,2.285,2.895,5.637,1.828,8.532   c2.895-1.067,6.246-0.458,8.532,1.828l9.14,9.14l17.063-17.062l-93.387-93.386L259.485,138.029z" style="fill:#141515;"/><rect height="29.731" style="fill:#141515;" transform="matrix(-0.7071 -0.7071 0.7071 -0.7071 -25.7338 705.9763)" width="70.235" x="98.227" y="343.452"/><path d="M335.657,225.627l-8.684,8.531c-1.371,1.371-1.371,3.657,0,5.027l10.664,10.816l13.711-13.71   l-10.664-10.664C339.16,224.255,337.027,224.255,335.657,225.627z" style="fill:#141515;"/><path d="M321.793,234.006c-2.895,1.066-6.094,0.304-8.379-1.981c-7.465-7.312-14.777-14.625-22.089-21.937   c-2.285-2.285-2.895-5.636-1.828-8.531c-2.895,1.066-6.246,0.457-8.531-1.828c-7.313-7.312-14.625-14.777-22.09-22.089   c-2.285-2.285-2.895-5.637-1.828-8.379c-2.894,0.914-6.246,0.304-8.531-1.98l-9.14-9.141l-17.063,17.215l93.386,93.386   l17.063-17.214l-8.989-8.989C321.489,240.1,320.727,236.9,321.793,234.006z" style="fill:#141515;"/><polygon points="215.457,187.541 303.512,275.443 308.692,270.264 220.637,182.361  " style="fill:#141515;"/><polygon points="153.911,251.068 240.594,337.904 264.969,313.377 178.285,226.693  " style="fill:#141515;"/><path d="M192.911,416.818c-1.371,1.371-1.371,3.808,0,5.179c1.523,1.371,3.809,1.371,5.179,0   c1.371-1.371,1.371-3.809,0-5.179C196.719,415.446,194.434,415.446,192.911,416.818z" style="fill:#141515;"/><path d="M90.536,274.224c-5.637-5.636-14.777-5.636-20.414,0l-19.652,19.652   c-5.636,5.637-5.636,14.93,0,20.567l167.73,167.73c5.637,5.636,14.93,5.636,20.414,0l19.805-19.652   c5.637-5.637,5.637-14.777,0-20.414L90.536,274.224z M66.77,311.244c-5.789-5.789-5.789-14.93,0-20.719   c5.637-5.636,14.93-5.636,20.567,0c5.637,5.789,5.637,14.93,0,20.719C81.7,316.88,72.407,316.88,66.77,311.244z M159.09,404.782   c-2.437,2.438-6.398,2.438-8.988,0L86.88,341.56c-2.438-2.438-2.438-6.551,0-8.988l21.785-21.785c2.437-2.438,6.551-2.438,8.988,0   l63.223,63.222c2.437,2.437,2.437,6.551,0,8.988L159.09,404.782z M185.294,429.767c-5.789-5.789-5.789-14.93,0-20.719   c5.636-5.637,14.929-5.637,20.566,0c5.637,5.789,5.637,14.929,0,20.719C200.223,435.403,190.93,435.403,185.294,429.767z    M240.442,464.348c-7.313,7.313-19.043,7.313-26.355,0c-7.313-7.312-7.313-19.195,0-26.355c7.313-7.313,19.043-7.313,26.355,0   C247.754,445.153,247.754,457.036,240.442,464.348z" style="fill:#141515;"/><path d="M311.129,62.772c-0.914,3.809-1.675,7.313-2.437,10.512c-0.762,3.199-1.523,6.246-2.285,9.293   c17.063,16.91,34.125,33.972,51.035,51.035c17.063,16.911,34.124,33.973,51.035,50.883c2.895-0.609,5.941-1.371,9.141-2.133   c3.352-0.762,6.855-1.676,10.511-2.437c-19.5-19.5-38.999-39-58.5-58.5C350.129,101.924,330.629,82.424,311.129,62.772z" style="fill:#141515;"/><path d="M223.989,447.895c-1.828,1.828-1.828,4.723,0,6.551c1.828,1.828,4.722,1.828,6.551,0   c1.828-1.828,1.828-4.722,0-6.551C228.711,446.067,225.817,446.067,223.989,447.895z" style="fill:#141515;"/><path d="M276.699,112.283l102.07,102.07l25.441-25.442l-102.07-102.07L276.699,112.283z M393.089,186.779   l-16.453,16.453l-6.399-6.398l16.453-16.453L393.089,186.779z M379.227,172.916c-5.484,5.484-10.969,10.969-16.453,16.453   c-2.133-2.133-4.113-4.265-6.246-6.398c5.484-5.484,10.969-10.816,16.301-16.301C374.961,168.803,377.094,170.783,379.227,172.916z    M365.363,159.205c-5.484,5.485-10.816,10.817-16.301,16.301c-2.133-2.133-4.265-4.114-6.398-6.246   c5.484-5.484,10.969-10.969,16.453-16.453C361.25,154.939,363.383,157.072,365.363,159.205z M351.652,145.342   c-5.484,5.484-10.969,10.969-16.453,16.453c-2.133-2.133-4.265-4.266-6.398-6.399c5.484-5.484,10.969-10.968,16.453-16.453   C347.387,141.076,349.519,143.209,351.652,145.342z M337.789,131.478c-5.484,5.484-10.969,10.969-16.453,16.453   c-1.981-2.133-4.114-4.265-6.246-6.246c5.484-5.485,10.969-10.969,16.453-16.453C333.523,127.365,335.657,129.498,337.789,131.478z    M324.078,117.767c-5.484,5.484-10.969,10.969-16.453,16.301c-2.133-1.98-4.265-4.113-6.398-6.246   c5.484-5.484,10.968-10.969,16.452-16.453C319.813,113.502,321.946,115.635,324.078,117.767z M310.215,103.905l-16.453,16.453   l-6.246-6.399l16.301-16.301L310.215,103.905z" style="fill:#141515;"/></g></svg>