<svg xmlns="http://www.w3.org/2000/svg" xmlns:xlink="http://www.w3.org/1999/xlink" preserveAspectRatio="xMidYMid" width="48" height="48" viewBox="0 0 48 48">
  <defs>
    <style>
      .cls-1 {
        fill: #56acee;
      }

      .cls-2 {
        fill: #fff;
        fill-rule: evenodd;
      }
    </style>
  </defs>
  <g>
    <rect width="48" height="48" class="cls-1"/>
    <path d="M38.000,15.724 C37.007,16.186 35.939,16.498 34.819,16.638 C35.962,15.920 36.841,14.782 37.254,13.426 C36.184,14.092 34.998,14.575 33.736,14.835 C32.726,13.707 31.286,13.002 29.693,13.002 C26.634,13.002 24.154,15.601 24.154,18.807 C24.154,19.262 24.203,19.705 24.297,20.130 C19.693,19.888 15.612,17.577 12.880,14.065 C12.403,14.922 12.130,15.919 12.130,16.983 C12.130,18.997 13.108,20.774 14.594,21.815 C13.686,21.785 12.832,21.524 12.085,21.089 C12.085,21.113 12.085,21.138 12.085,21.162 C12.085,23.975 13.994,26.321 16.528,26.855 C16.063,26.987 15.574,27.059 15.069,27.059 C14.712,27.059 14.365,27.022 14.027,26.954 C14.731,29.260 16.777,30.939 19.201,30.986 C17.305,32.543 14.917,33.471 12.321,33.471 C11.874,33.471 11.433,33.443 11.000,33.390 C13.452,35.037 16.363,35.998 19.491,35.998 C29.680,35.998 35.252,27.152 35.252,19.480 C35.252,19.229 35.247,18.978 35.236,18.729 C36.318,17.911 37.257,16.888 38.000,15.724 " class="cls-2"/>
  </g>
</svg>
