<svg xmlns="http://www.w3.org/2000/svg" viewBox="0 0 240.43 299.73"><defs><style>.cls-1{fill:#010201;}.cls-2{fill:#919193;}.cls-3{fill:#7f8081;}.cls-4{fill:#bebebf;}.cls-5{fill:#bdbdbe;}.cls-6{fill:#3d3e3f;}.cls-7{fill:#b0afb0;}.cls-8{fill:#aaaaac;}.cls-9{fill:#b6b5b6;}.cls-10{fill:#b1b1b2;}.cls-11{fill:#b6b6b8;}.cls-12{fill:#666667;}.cls-13{fill:#636364;}.cls-14{fill:#c0c0c1;}.cls-15{fill:#b5b5b6;}.cls-16{fill:#7b7a7b;}.cls-17{fill:#abaaac;}.cls-18{fill:#bebdbe;}.cls-19{fill:#606061;}.cls-20{fill:#939395;}.cls-21{fill:#656465;}.cls-22{fill:#ababac;}.cls-23{fill:#b2b2b3;}.cls-24{fill:#6e6d6e;}.cls-25{fill:#b6b6b7;}.cls-26{fill:#a9a8a9;}.cls-27{fill:#6a6a6b;}.cls-28{fill:#d8d9d9;}.cls-29{fill:#c1c1c1;}.cls-30{fill:#c1c0c1;}.cls-31{fill:#fdfdfd;}.cls-32{fill:#0e0f0f;}.cls-33{fill:#fefefe;}.cls-34{fill:#f9f8f8;}.cls-35{fill:#949597;}.cls-36{fill:#acadaf;}.cls-37{fill:#efefee;}.cls-38{fill:#3e3e40;}.cls-39{fill:#f9f9f9;}.cls-40{fill:#edecec;}.cls-41{fill:#8b8a8c;}.cls-42{fill:#f7f7f7;}.cls-43{fill:#545555;}.cls-44{fill:#fbfafa;}.cls-45{fill:#717273;}.cls-46{fill:#b0b0b1;}.cls-47{fill:#9d9d9e;}.cls-48{fill:#4e4f50;}.cls-49{fill:#c7c7c8;}.cls-50{fill:#474748;}.cls-51{fill:#3d3f40;}.cls-52{fill:#38393a;}.cls-53{fill:#aeaeaf;}.cls-54{fill:#525253;}.cls-55{fill:#bbbabb;}.cls-56{fill:#afafb1;}.cls-57{fill:#bfbfc0;}.cls-58{fill:#525353;}.cls-59{fill:#c2c2c3;}.cls-60{fill:#acabad;}.cls-61{fill:#929294;}.cls-62{fill:#b3b3b4;}.cls-63{fill:#bababb;}.cls-64{fill:#a4a4a6;}.cls-65{fill:#888889;}.cls-66{fill:#4d4e4e;}.cls-67{fill:#5c5c5d;}.cls-68{fill:#b8b8b9;}.cls-69{fill:#a8a8aa;}.cls-70{fill:#8d8d8f;}.cls-71{fill:#838385;}.cls-72{fill:#9c9c9d;}.cls-73{fill:#4d4d4e;}.cls-74{fill:#646465;}.cls-75{fill:#5f5f5f;}.cls-76{fill:#3c3d3e;}.cls-77{fill:#3e3f3f;}.cls-78{fill:#505051;}.cls-79{fill:#47494a;}.cls-80{fill:#59595a;}.cls-81{fill:#afafb0;}.cls-82{fill:#5d5d5e;}.cls-83{fill:#69696a;}.cls-84{fill:#48494a;}.cls-85{fill:#595a5b;}.cls-86{fill:#767678;}.cls-87{fill:#3b3c3c;}.cls-88{fill:#454546;}.cls-89{fill:#58595a;}.cls-90{fill:#5f5e5f;}.cls-91{fill:#555556;}.cls-92{fill:#585859;}.cls-93{fill:#b4b3b4;}.cls-94{fill:#b5b4b6;}.cls-95{fill:#555;}.cls-96{fill:#a5a5a6;}.cls-97{fill:#acacad;}.cls-98{fill:#b9b9ba;}.cls-99{fill:#fff;}.cls-100{fill:#b3b4b5;}.cls-101{fill:#b7b6b7;}.cls-102{fill:#fcfcfc;}.cls-103{fill:#c1c1c2;}.cls-104{fill:#b9b8b9;}.cls-105{fill:#f8f8f8;}.cls-106{fill:#f7f6f6;}.cls-107{fill:#b4b4b5;}.cls-108{fill:#f6f6f6;}.cls-109{fill:#b3b2b4;}.cls-110{fill:#f4f3f3;}.cls-111{fill:#faf9f9;}.cls-112{fill:#9f9fa0;}.cls-113{fill:#79797a;}.cls-114{fill:#777778;}.cls-115{fill:#aeadae;}.cls-116{fill:#858688;}.cls-117{fill:#959597;}.cls-118{fill:#bbbbbc;}.cls-119{fill:#848486;}.cls-120{fill:#979799;}.cls-121{fill:#929295;}.cls-122{fill:#5c5c5c;}.cls-123{fill:#c5c5c6;}.cls-124{fill:#050506;}.cls-125{fill:#474848;}.cls-126{fill:#696869;}.cls-127{fill:#353536;}.cls-128{font-size:36px;fill:#231f20;stroke:#231f20;stroke-miterlimit:10;stroke-width:0.25px;font-family:MadreScript, Madre Script;font-style:italic;}</style></defs><title>Asset 3</title><g id="Layer_2" data-name="Layer 2"><g id="Layer_1-2" data-name="Layer 1"><path class="cls-1" d="M83,288.3c-.44.28-.89.54-1.3.86a6.47,6.47,0,0,1-4.25,1.06q-32.8,0-65.6,0c-.49,0-1,0-1.47,0a12.27,12.27,0,0,1-5.72-3,13.78,13.78,0,0,1-4.2-8A7.39,7.39,0,0,0,.19,278q0-53.52,0-107A48.77,48.77,0,0,1,2,159.24c.64-2.54,1.37-5,2.1-7.55,1.3-4,2.42-8.14,3.6-12.22.42-1.72,1-3.38,1.45-5.09A39.82,39.82,0,0,0,10.57,130c.34-1.09.69-2.18,1-3.27.58-1.92,1.25-3.83,1.71-5.79.19-.82.61-1.56.72-2.39,0-.1,0-.2,0-.3a7.76,7.76,0,0,0,.53-1.78,1,1,0,0,1,.09-.27c.17-.32,0-.68.15-1a1.51,1.51,0,0,1,.15-.26A13.23,13.23,0,0,0,16,111.47a2.7,2.7,0,0,1,.23-.92A18.37,18.37,0,0,0,17.44,107c.38-1.54.86-3.05,1.37-4.55a3.75,3.75,0,0,0,.15-1,1.21,1.21,0,0,1,.1-.3,3.4,3.4,0,0,0,.58-2,1.43,1.43,0,0,1,.12-.28c.52-.62.37-1.39.47-2.11.55-2.16,1.34-4.24,2-6.38.08-.27.15-.54.22-.81.21-.73-.07-1-.82-1-2.71-.11-3.75-1.22-3.75-3.92s.06-5.45,0-8.17c-.06-2.37.66-3.82,3.57-4.16,8.33,0,16.65,0,25,0,1.26,0,1.29,0,1.28-1.29q0-2.15,0-4.3a3.12,3.12,0,0,0-1-2.54,1.69,1.69,0,0,1-.44-2.33,1.08,1.08,0,0,0,0-1.18,2,2,0,0,1,0-2.19.92.92,0,0,0,0-1.16,1.41,1.41,0,0,1-.38-1.27c.59-1.43.36-3,1.1-4.43a10.13,10.13,0,0,0,1.3-2.26,1.42,1.42,0,0,1,1.6-.93C51,48.62,51.61,48,52.19,47c1.83-2.93,3.63-5.87,5.52-8.77.66-1.34,1.66-2.47,2.32-3.81.73-.95,1.23-2.06,2-3a2.3,2.3,0,0,0,.67-1,1.41,1.41,0,0,1,.15-.24c1.55-2.22,2.91-4.55,4.41-6.79a5.41,5.41,0,0,0,.53-1c1.37-2.08,2.67-4.21,4-6.29,1-1.6,2-3.16,2.84-4.85,1.63-2.52,3.15-5.11,4.86-7.58.73-.67,1-1.67,1.7-2.38.48-.48,1-.81,1.66-.48a1.43,1.43,0,0,1,.26.14c1.91,1.48,4,2.69,6,4.1a.88.88,0,0,1,.16.26,2.71,2.71,0,0,1,0,1.2,1.07,1.07,0,0,1-.11.27A8.44,8.44,0,0,0,87.8,9.11a18.94,18.94,0,0,1-1.13,1.67c-1,1.48-1.94,2.94-2.81,4.48a2.09,2.09,0,0,1-.15.25c-.66,1-1.38,2-1.94,3.08a1.69,1.69,0,0,1-.15.24,2.5,2.5,0,0,0-.56.95,3.32,3.32,0,0,1-.45.73,43.68,43.68,0,0,0-2.39,3.71,1.35,1.35,0,0,1-.14.24,2.25,2.25,0,0,0-.56.9,1.08,1.08,0,0,1-.14.24,14.47,14.47,0,0,0-1.12,1.73c-.11.15-.18.33-.28.49a9.92,9.92,0,0,0-1.34,2.08,1.49,1.49,0,0,1-.16.22,1.47,1.47,0,0,0-.34.56,2,2,0,0,1-.12.26c-1.7,2.61-3.42,5.22-5,7.91a5.1,5.1,0,0,1-.68.92c-1.78,2.79-3.52,5.59-5.29,8.38-1,1.65-2,3.32-3.07,5-.58.95-.27,2-.55,2.95a11.76,11.76,0,0,0-.7,4.81,9.47,9.47,0,0,0,.1,1A2.69,2.69,0,0,1,58,64.77a2.26,2.26,0,0,0-.75,1.78c0,1.57,0,3.14,0,4.72,0,1,.16,1.18,1.26,1.18,2.9,0,5.8,0,8.7,0,1.89,0,3.33.64,4,2.53a40.71,40.71,0,0,1,.11,5c0,1.61,0,3.21,0,4.82a3.3,3.3,0,0,1-3.52,3.66c-1.29.07-1.41.28-.92,1.53.33.84.42,1.75.7,2.61.61,1.91,1.18,3.84,1.69,5.79s1.09,3.59,1.62,5.39c.63,2.13,1.24,4.26,1.89,6.38.55,1.79,1,3.6,1.61,5.37.35,1.34.74,2.67,1.16,4,.59,1.85,1,3.75,1.69,5.56a13.41,13.41,0,0,0,.9,2.76c.84,3.13,1.82,6.21,2.74,9.31a5.75,5.75,0,0,1,.3,1.11,28.61,28.61,0,0,0,1.18,3.65c.7,2.69,1.67,5.31,2.23,8,.53,1.95,1.18,3.86,1.75,5.8,1.56,5.33,2.94,10.68,2.66,16.33-.14,2.9-.07,5.8,0,8.71.46,29.05.08,58.11.2,87.17a27.73,27.73,0,0,1-.17,4.5c-.23,1.46.27,2.91.18,4.38a15.33,15.33,0,0,1-.5,3.51C87.88,283.79,85.55,286.12,83,288.3Z"/><path class="cls-2" d="M88.47,280.74a21,21,0,0,0,.24-6.66c-.26-1.35.2-2.7.2-4.07,0-28,.09-56.07-.09-84.1,0-6.81.23-13.64-.37-20.44a21.81,21.81,0,0,0-1-4.89c-.56-1.72-1-3.49-1.49-5.23-.48-1.56-.84-3.16-1.39-4.7a3.84,3.84,0,0,1-.09-.93c.07-.1.15-.1.23,0l.8,2.76c.31.35.27.83.45,1.23s0,.61.18.87.2.86.45,1.23h0c.25.31-.05.74.22,1a41,41,0,0,1,2.1,9.24c.07,1.18.32,2.33.31,3.52,0,4-.06,7.91,0,11.86.46,29.65.07,59.3.21,89,0,1.19-.42,2.36-.2,3.53a14,14,0,0,1,.18,3.12,10.59,10.59,0,0,1-.49,3.07,4.58,4.58,0,0,1-.84,2.32C87.72,281.77,88.41,281.33,88.47,280.74Z"/><path class="cls-3" d="M4.31,151.48a8.16,8.16,0,0,1-.75,2.81c-.74,2.22-1.23,4.5-1.77,6.76A72,72,0,0,0,.6,169.2c-.6,5-.27,9.9-.28,14.85q-.08,46.13,0,92.26a4,4,0,0,0,.18,2c.06.83.51,1.63.22,2.5A7.77,7.77,0,0,1,0,276.58Q0,254.81,0,233q0-31,0-61.92a48.74,48.74,0,0,1,1.7-11.47,72.4,72.4,0,0,1,2.52-8.74A.5.5,0,0,1,4.31,151.48Z"/><path class="cls-4" d="M70.19,73.1c1.34.25,1.42,1.45,1.43,2.36A69.52,69.52,0,0,1,71.48,86a3,3,0,0,1-3.23,2.76c-.94,0-1.35.11-1,1.21.86,2.72,1.62,5.47,2.42,8.21q1.63,5.56,3.27,11.12c1,3.37,2,6.73,3,10.1,1.09,3.66,2.16,7.34,3.25,11,.83,2.8,1.69,5.6,2.53,8.4a11.72,11.72,0,0,1,.23,1.23.19.19,0,0,1-.28,0,9.82,9.82,0,0,1-.67-1.78,17.73,17.73,0,0,0-1-3.47c-.68-2.35-1.4-4.69-2.06-7a1.39,1.39,0,0,0-.14-.28,28.41,28.41,0,0,1-1.05-3.36c-.67-2.1-1.22-4.24-1.95-6.33a11.46,11.46,0,0,0-.78-2.58q-1-3.56-2.07-7.08c-.54-1.74-1-3.51-1.52-5.27-.37-1.26-.79-2.51-1.13-3.78s-.73-2.23-1-3.39a21.67,21.67,0,0,0-1-3.16,18.68,18.68,0,0,0-.91-3.08c-.33-.58.16-1.06,1.07-1.11a5.36,5.36,0,0,0,2-.37,2.45,2.45,0,0,0,1.52-2.2c.08-3.6.09-7.19,0-10.79a.54.54,0,0,0-.07-.19A11.74,11.74,0,0,1,70.19,73.1Z"/><path class="cls-5" d="M88.92,280.14a18.59,18.59,0,0,0,.19-6.23,18.64,18.64,0,0,1,.19-3.44c0-28.23.07-56.46-.06-84.69,0-5.66,0-11.32-.16-17a16.39,16.39,0,0,1-.18-2.7,11,11,0,0,1,.42,2.75c.05.63,0,1.26,0,1.89.34,33.2.16,66.41.15,99.61,0,2.3.11,4.59,0,6.89A5,5,0,0,1,88.92,280.14Z"/><path class="cls-6" d="M70.19,73.1c.3.47.76.85.86,1.44A.3.3,0,0,1,71,75c-.81-1.94-2.41-2.37-4.31-2.34-2.8,0-5.59,0-8.39,0-1,0-1.36-.4-1.33-1.36,0-1.57,0-3.15,0-4.72a2.53,2.53,0,0,1,.9-2.13,1.85,1.85,0,0,0,.77-1.84c-.46-2.31.2-4.51.42-6.77.29-3,2-5,3.42-7.32S65.3,44,66.77,41.78a9.06,9.06,0,0,1,1.52-2.33.4.4,0,0,1,.14.26,13.08,13.08,0,0,1-1.77,2.93,6.43,6.43,0,0,1-.9,1.42,43.75,43.75,0,0,1-2.48,4.08c-1,1.53-1.9,3.09-2.89,4.61a2.06,2.06,0,0,0-.45,1.16c.09,1.85-.79,3.52-1,5.33A7.11,7.11,0,0,0,59.17,62a2.36,2.36,0,0,1-.75,2.64,2.37,2.37,0,0,0-.86,2.21,29,29,0,0,1,0,4.4c-.06,1,0,1.09,1,1.09,3,0,6,0,9,0a4.13,4.13,0,0,1,2.62.78Z"/><path class="cls-7" d="M47.17,51.47a3.51,3.51,0,0,0-.49,2.31,1.15,1.15,0,0,1-.15.81,2.26,2.26,0,0,0,.08,3c.26.29.14.65-.1,1a1.65,1.65,0,0,0-.06,2.13.94.94,0,0,1,0,1.24A1.46,1.46,0,0,0,46.71,64a3.53,3.53,0,0,1,1.18,3c-.06,1.29,0,2.59,0,3.88,0,1.58,0,1.62-1.66,1.62h-15c-3.28,0-6.57,0-9.85-.06a2.12,2.12,0,0,1-1.37,0,2.94,2.94,0,0,1,1.73-.2c8.14,0,16.28,0,24.42,0,1,0,1.32-.21,1.22-1.28a37.19,37.19,0,0,1,0-4.61,2.15,2.15,0,0,0-.81-1.92,1.9,1.9,0,0,1-.6-2.51c.13-.27.31-.58.16-.9a2.93,2.93,0,0,1,.06-2.89c.31-.56-.56-.83-.54-1.38a1.8,1.8,0,0,1,0-1.15c0-.41.28-.68.44-1,.27-.63,0-1.31.18-1.95a3,3,0,0,1,.59-1.23A.22.22,0,0,1,47.17,51.47Z"/><path class="cls-8" d="M20,72.43l1.37,0-.9.24c-1.77.52-2.33,1.26-2.33,3.08,0,3.14.08,6.29,0,9.43-.07,2,1.1,3,3.18,3.18,1.47.12,1.58.1,1.21,1.5-.63,2.39-1.37,4.74-2.06,7.11a4.48,4.48,0,0,1-.63,2.1h0c-.2.7-.09,1.5-.63,2.1h0c-.33.29.24.93-.42,1.08a.24.24,0,0,1,0-.3c-.29-.34-.16-.66,0-1a10.12,10.12,0,0,1,.4-1.27,1.19,1.19,0,0,1,.24-.82A15.55,15.55,0,0,1,20,97c.08-.35-.13-.76.21-1.06.19-.63.51-1.22.64-1.87.44-1.43.86-2.88,1.33-4.3.25-.76,0-1-.75-1-2.54,0-3.91-1.49-3.91-4,0-2.9,0-5.8,0-8.7A3.6,3.6,0,0,1,20,72.43Z"/><path class="cls-9" d="M70.19,73.11a8.86,8.86,0,0,0-4.38-.63c-2.34,0-4.68,0-7,0-1.4,0-1.42,0-1.42-1.39s0-2.87,0-4.29a2.58,2.58,0,0,1,.89-2.23A2.25,2.25,0,0,0,59,62c-.64-2.19.36-4.25.55-6.37.31-3.5,2.78-5.81,4.32-8.63a14.36,14.36,0,0,1,1.95-3c-.13,1.24-1.06,2.06-1.64,3.05C63,49.1,61.69,51,60.47,53a1.59,1.59,0,0,0-.28.78c0,2-.87,3.93-1.06,5.93a4.87,4.87,0,0,0,.23,2.17,2.57,2.57,0,0,1-.84,3,2.11,2.11,0,0,0-.76,2,18.8,18.8,0,0,1,0,4.29c-.15,1.06.28,1.1,1.05,1.1,3.14,0,6.29,0,9.43,0A2.17,2.17,0,0,1,70.19,73.11Z"/><path class="cls-10" d="M47.17,51.47l-.33,0a6.56,6.56,0,0,0,1.05-1.8,2,2,0,0,1,2.22-1.5,1.76,1.76,0,0,0,1.82-1c1.77-2.91,3.59-5.79,5.39-8.68a1.2,1.2,0,0,1,.23-.21.21.21,0,0,1,.29.05c-1.29,2.46-2.94,4.7-4.34,7.08-.51.87-1.11,1.69-1.6,2.56a1.39,1.39,0,0,1-1.53.81,1.8,1.8,0,0,0-2.26,1.46A2.35,2.35,0,0,1,47.17,51.47Z"/><path class="cls-11" d="M66.67,42.64l1.68-2.92c1.42-2.5,3.1-4.84,4.52-7.33A16.47,16.47,0,0,0,74,30.67h0c.14-.21.2-.47.41-.64h0c.48-.77.91-1.58,1.45-2.32l.2-.43c.57-.52.75-1.32,1.29-1.86h0A2.77,2.77,0,0,1,78,24.37h0c.11-.16.2-.34.44-.25a.22.22,0,0,1,0,.26c-1.47,2.4-2.93,4.81-4.42,7.2s-3.1,4.88-4.65,7.32c-.74,1.17-1.47,2.35-2.23,3.52C67,42.54,66.82,42.57,66.67,42.64Z"/><path class="cls-12" d="M14.15,118.23a17,17,0,0,1-1,4.09c-.52,2-1.06,4-1.74,5.93s-1,4.24-2.06,6.15c-.3-.79.39-1.38.42-2.1h0c.46-1.69,1-3.35,1.46-5l2.72-9A.14.14,0,0,1,14.15,118.23Z"/><path class="cls-13" d="M.7,280.76c.11-.85-.38-1.65-.22-2.5.44.44.29,1,.39,1.57A12.87,12.87,0,0,0,9,289.64c.45.19,1.11-.15,1.37.52-1.94,0-3.43-1.05-4.89-2.13A12.51,12.51,0,0,1,.7,280.76Z"/><path class="cls-14" d="M78.41,24.38l0-.29c-.17-.54.31-.83.53-1.17.55-.84,1-1.74,1.58-2.56l.41-.65a4.82,4.82,0,0,1,.66-1h0c.65-1.15,1.44-2.21,2.1-3.36h0c1-1.42,1.73-3,2.84-4.31a.37.37,0,0,1,.28.09,60.24,60.24,0,0,1-3.23,5.25C81.85,19,80.28,21.81,78.41,24.38Z"/><path class="cls-15" d="M79.66,3.78l-4.82,7.56a.28.28,0,0,1-.39,0,42.93,42.93,0,0,1,3-4.81c.92-1.5,1.88-3,2.83-4.48a.22.22,0,0,1,.27,0A3,3,0,0,1,79.66,3.78Z"/><path class="cls-16" d="M4.31,151.48l-.08-.59,2.14-7.48A11,11,0,0,0,7,141.33H7c.14-.66.51-1.24.61-1.9h0c.08-.08.15-.08.22,0a11.86,11.86,0,0,1-.94,3.72c-.6,2.1-1.26,4.18-1.84,6.29C4.87,150.14,4.56,150.8,4.31,151.48Z"/><path class="cls-17" d="M81.78,140.06H82a66,66,0,0,1,1.91,6.46c.29,1.06.92,2,.81,3.2h-.23l-2.28-7.78C82,141.33,81.47,140.78,81.78,140.06Z"/><path class="cls-18" d="M80.5,2.1l-.24,0c.27-.84,1.06-1.26,1.57-1.91a.46.46,0,0,1,.66-.06c2.23,1.64,4.7,2.93,6.82,4.72A.49.49,0,0,1,89,5a12.06,12.06,0,0,1-2.8-1.72C85.17,2.53,84,1.85,83,1h0c-.72-.5-1.24-.24-1.76.36C81.05,1.65,80.93,2.07,80.5,2.1Z"/><path class="cls-19" d="M67.91,22.47a27.72,27.72,0,0,1-2.56,4.29,16.25,16.25,0,0,1-2.51,3.67c0-1.06.92-1.63,1.3-2.48l3.53-5.48Q67.8,22.3,67.91,22.47Z"/><path class="cls-20" d="M14.15,118.23h-.22a7.59,7.59,0,0,1,.66-2.6c.64-2.37,1.38-4.7,2.08-7.05a.19.19,0,0,1,.28.05,2.52,2.52,0,0,1-.55,2c-.25.25-.16.56-.17.86a16.61,16.61,0,0,1-1.21,3.6,1.76,1.76,0,0,0-.06.18c-.21.33,0,.74-.18,1.06h0a9,9,0,0,1-.63,1.89Z"/><path class="cls-21" d="M88.47,280.74c.12.63-.55,1.07-.39,1.71A13.1,13.1,0,0,1,83,288.3c.35-.75,1.11-1.11,1.66-1.68,1.43-1.49,2.87-3,3.33-5.08A3,3,0,0,1,88.47,280.74Z"/><path class="cls-22" d="M7.84,139.43H7.62c-.16-1,.42-1.82.68-2.7a16.83,16.83,0,0,1,1.45-4.42c.21.77-.51,1.35-.42,2.1A41.68,41.68,0,0,1,7.84,139.43Z"/><path class="cls-23" d="M64.14,27.94c-.16,1-1.11,1.53-1.3,2.48h0a5.45,5.45,0,0,1-.62,1.06c-.81.91-1.16,2.14-2.08,3a.36.36,0,0,1,0-.49A67.62,67.62,0,0,1,64.14,27.94Z"/><path class="cls-24" d="M67.91,22.47h-.23a65.55,65.55,0,0,1,4.19-6.57.24.24,0,0,1,.06.35l-3.58,5.64C68.21,22.09,68.05,22.27,67.91,22.47Z"/><path class="cls-25" d="M16.88,108.56h-.2c0-1.3.71-2.44.95-3.69a15,15,0,0,0,.54-2.09.81.81,0,0,1,.56-.79l0,.29a14.74,14.74,0,0,1-.9,3.52A3.24,3.24,0,0,0,17.6,107,2.92,2.92,0,0,1,16.88,108.56Z"/><path class="cls-26" d="M89,4.87l.26,0,.24.39a2.72,2.72,0,0,1,0,1.5l-2.76,4.39h-.22a.32.32,0,0,1,0-.41L87.64,9a18.52,18.52,0,0,1,1.47-2.31h0a2.55,2.55,0,0,0,0-1.49h0C89,5.14,89,5,89,4.87Z"/><path class="cls-4" d="M60.11,34l0,.49a21.26,21.26,0,0,1-2.31,3.75l-.29-.05C58.24,36.68,59.32,35.42,60.11,34Z"/><path class="cls-27" d="M71.92,16.24l-.06-.35a34.77,34.77,0,0,1,1.93-3.28,3.33,3.33,0,0,1,.61-1.07.44.44,0,0,0,0-.18l.39,0c-.29,1.22-1.25,2.06-1.78,3.15A15.94,15.94,0,0,1,71.92,16.24Z"/><path class="cls-22" d="M11.21,127.25a19.09,19.09,0,0,1-1.46,5A17.84,17.84,0,0,1,11.21,127.25Z"/><path class="cls-22" d="M7,141.33a3,3,0,0,1-.64,2.09A4.68,4.68,0,0,1,7,141.33Z"/><path class="cls-28" d="M20.86,94.07a3,3,0,0,1-.64,1.87A3.66,3.66,0,0,1,20.86,94.07Z"/><path class="cls-22" d="M7.62,139.42a3.3,3.3,0,0,1-.61,1.9A3.1,3.1,0,0,1,7.62,139.42Z"/><path class="cls-28" d="M20,97a4.63,4.63,0,0,1-.6,1.91A2.67,2.67,0,0,1,20,97Z"/><path class="cls-10" d="M46.25,52.65c-.05.65.22,1.33-.18,1.95C46.18,54,45.86,53.27,46.25,52.65Z"/><path class="cls-18" d="M89.53,6.73V5.23A1.3,1.3,0,0,1,89.53,6.73Z"/><path class="cls-29" d="M74.41,11.55c0,.47-.34.75-.61,1.07A1,1,0,0,1,74.41,11.55Z"/><path class="cls-28" d="M19.17,99.74a2.08,2.08,0,0,1-.4,1.27A1.39,1.39,0,0,1,19.17,99.74Z"/><path class="cls-30" d="M86.59,155.81a1.62,1.62,0,0,1-.45-1.23A1.44,1.44,0,0,1,86.59,155.81Z"/><path class="cls-30" d="M86,153.71a2.47,2.47,0,0,1-.45-1.23C86,152.77,86,153.24,86,153.71Z"/><path class="cls-10" d="M45.63,55.61v1.15A.91.91,0,0,1,45.63,55.61Z"/><path class="cls-30" d="M86.81,156.86c-.3-.3-.2-.68-.22-1C86.92,156.11,86.78,156.5,86.81,156.86Z"/><path class="cls-31" d="M81.59,283.72l.37,0a8.75,8.75,0,0,0,2.86-1.85c.26-.25.52-.54.89-.26s.15.66,0,.94A13.41,13.41,0,0,1,82.91,286a12,12,0,0,1-7.25,2.55q-30.23-.06-60.46,0a14.76,14.76,0,0,1-6.08-.77l-.33-.1c-1.76-1.24-3.55-2.43-4.67-4.36a3.05,3.05,0,0,1-.23-.35c-.15-.36-.65-.71-.25-1.1s.78.08,1.06.32a9,9,0,0,0,2,1.29l.27.16a5.25,5.25,0,0,0,2,.71,25.91,25.91,0,0,0,6.74.75c20.14,0,40.28,0,60.41,0A11.13,11.13,0,0,0,81.59,283.72Z"/><path class="cls-31" d="M55,185.11q0,4.14,0,8.29a2.32,2.32,0,0,1-1.74,2.43c-1,.36-1.93.78-2.88,1.21-1.12.51-1.46.32-1.45-.91,0-5.63.08-11.25.11-16.88,0-1.66,1.22-2.26,2.47-2.73a22.39,22.39,0,0,1,2.23-.89c1-.26,1.27,0,1.27,1Q55,180.87,55,185.11Z"/><path class="cls-32" d="M78.39,156.86c.3,1,.63,2,.95,3a29.45,29.45,0,0,0,.94,3.3,8.6,8.6,0,0,1,.94,3.45c-.08,2.53.75,4.92.75,7.41q0,44.66,0,89.31a13.77,13.77,0,0,1-2.4,8c1.15,0,1.29-1.08,1.73-1.68.85-1.16.48-2.77,1.25-4,.13-.21.05-.55.05-.83q0-46,0-91.94c0-.84-.48-1.49-.52-2.31,0-.54-.14-1.1-.14-1.66,0-2-.79-3.88-1.1-5.82-.26-1.6-1.4-3-1-4.72a.34.34,0,0,1,.33-.08,16.35,16.35,0,0,1,1,2.84,16.42,16.42,0,0,0,.8,3.45c.5,1.88.56,3.79,1,5.66a28.55,28.55,0,0,1,.39,6q0,44,0,88.07a11.2,11.2,0,0,1-2.48,7.29,1.6,1.6,0,0,1-.86.36,1.06,1.06,0,0,1-1.12-.4c-.25-.41,0-.73.25-1a9.82,9.82,0,0,0,2-6.28q0-45.57,0-91.13a27.6,27.6,0,0,0-.88-7.67c-.46-1.6-.85-3.23-1.34-4.82a5.55,5.55,0,0,0-.5-2.41A1.15,1.15,0,0,1,78.39,156.86Z"/><path class="cls-33" d="M48.95,215.56c0-2.8,0-5.59,0-8.39A2.08,2.08,0,0,1,50.39,205a29.45,29.45,0,0,0,3.37-1.37c.69-.37,1,.09,1,.82,0,3.7-.08,7.41,0,11.11,0,2.24-.39,4.45-.26,6.69.07,1.17-1,1.44-1.74,1.86a14.19,14.19,0,0,1-2.31.95c-1.3.45-1.5.3-1.5-1.13,0-2.1,0-4.19,0-6.29,0-.7,0-1.4,0-2.1Z"/><path class="cls-31" d="M49.64,75c0-2.83,0-5.67,0-8.5,0-1,.33-1.32,1.29-1.27a32,32,0,0,0,3.25,0c1,0,1.29.38,1.28,1.31,0,4.76,0,9.51,0,14.27,0,1.63-.36,2.08-2,2.72-.85.32-1.71.6-2.54,1-1,.43-1.23.32-1.24-.79C49.63,80.83,49.64,77.93,49.64,75Z"/><path class="cls-34" d="M33.82,82.9H21.33c-1.22,0-1.5-.26-1.51-1.46,0-.8,0-1.61,0-2.41s.28-1,.93-1h26c.41,0,.95-.05.94.55s-.41.79-.93.8-1.19,0-1.78,0H27.35a7.83,7.83,0,0,0-1,0,.66.66,0,0,0-.58.65.68.68,0,0,0,.47.74,4,4,0,0,0,1.45.18l18.88,0c.68,0,1.38.08,1.39.9s-.67,1-1.41,1Z"/><path class="cls-35" d="M23.37,92.81l.2-.44c.34-.36,0-.86.24-1.23h0c.15-.35.14-.76.41-1.06,0-.23,0-.49.19-.66a2.08,2.08,0,0,1,.88-1h0a3.47,3.47,0,0,1,1.61-.33c6.49,0,13,0,19.48,0,1.3,0,1.56.22,1.57,1.48s0,2.72,0,4.09c0,.82-.32,1.18-1.2,1.17-3.49,0-7,0-10.48,0a1.89,1.89,0,0,0-1.12.11c-.39.15-.71.39-.61.85s.59.39,1,.39H46.42c1.29,0,1.52.22,1.52,1.53,0,8.26.18,16.52,0,24.77-.64,23.64-.08,47.29-.31,70.93-.11,11.16.16,22.33-.14,33.48-.15,5.56,0,11.11-.23,16.66,0,.66.24,1.05.86,1.06,2.41,0,4.83,0,7.24,0a2.18,2.18,0,0,0,.6-.18.4.4,0,0,1,.08.36.68.68,0,0,1-.47.33c-2.66.09-5.31.07-8,0a.93.93,0,0,1-.66-.46,3,3,0,0,1-.28-1.53c0-4.65-.14-9.3,0-13.95.37-10.17,0-20.34.21-30.5.31-12.48.1-24.95.18-37.42,0-.52,0-1,0-1.57,0-10.18-.13-20.37,0-30.55.14-10,.17-20,.18-30,0-2.15,0-2.18-2.16-2.18H36.23c-.38,0-.77,0-1.15,0A1.12,1.12,0,0,1,33.92,96a1.38,1.38,0,0,1,.61-1.46,2.74,2.74,0,0,1,1.71-.38h9.34c1.54,0,1.61-.07,1.62-1.58,0-.84,0-1.68,0-2.52s-.36-1.15-1.15-1.11c-.21,0-.42,0-.63,0H27.36c-1.88,0-2.05.06-2.61,1.89q-1.32,4.31-2.53,8.66a6.78,6.78,0,0,1-.9,2.33.21.21,0,0,1-.32-.06,2.81,2.81,0,0,1,.3-1.79h0c.46-1.09.5-2.31,1-3.38a1,1,0,0,0,0-.19,4.33,4.33,0,0,1,.59-1.7.63.63,0,0,0,0-.18A6.19,6.19,0,0,1,23.37,92.81Z"/><path class="cls-36" d="M56,244.68l-.06-.29a3,3,0,0,0,.29-1.42c0-6.26-.17-12.53,0-18.79.64-22.1.08-44.2.32-66.3.09-7.87,0-15.74.08-23.61.18-12.16.43-24.33.28-36.49a1.22,1.22,0,0,1,1-1.38c.8-.21,1.63-.43,2.17.44a10.4,10.4,0,0,1,1.37,4.33l-.2.06c-.69-.39-.8-1.11-1-1.78a5.62,5.62,0,0,0-.66-1.76,1.05,1.05,0,0,0-1.19-.45c-.51.11-.63.49-.66.94,0,.24,0,.49,0,.73.15,16.16-.19,32.33-.26,48.49-.06,13.5,0,27-.22,40.51-.2,11,0,21.9-.15,32.85a10.21,10.21,0,0,1-.09,1.78,5.14,5.14,0,0,0-.16,1.66c0,6.43,0,12.86,0,19.3C56.73,244,56.62,244.56,56,244.68Z"/><path class="cls-37" d="M34,84.46c4.16,0,8.32,0,12.48,0,.8,0,1.29.22,1.31,1.08s-.7.88-1.32.88H21.4a2.38,2.38,0,0,1-.82-.09,1,1,0,0,1-.72-1.15c.06-.51.48-.65.92-.69a6,6,0,0,1,.63,0H34Z"/><path class="cls-31" d="M54.47,237.42c0,1.57,0,3.15,0,4.72,0,.76-.27,1.07-1.05,1-1.19,0-2.38,0-3.56,0-.67,0-1-.26-1-.92,0-2.48,0-5,0-7.45,0-1.34,1.21-1.56,2.07-1.92l2.48-1.07c.88-.39,1,0,1,.67C54.48,234.14,54.47,235.78,54.47,237.42Z"/><path class="cls-38" d="M60.78,95.11c-.87,0-1.75,0-2.62,0s-1.22-.35-1.2-1.22c0-1.57,0-3.15,0-4.72,0-1.15.28-1.38,1.45-1.38s2.45.06,3.67,0a2.78,2.78,0,0,1,2.78,1.66,11.44,11.44,0,0,1,.95,2.63c.28,1.28.82,2.5,1.1,3.77s.83,2.34,1,3.59c.14,1,.7,2,.94,3.06a38,38,0,0,0,1.21,4.28c.68,1.93,1.21,3.9,1.78,5.85a48.64,48.64,0,0,1,1.72,6,14.08,14.08,0,0,0,.72,2.34c.65,1.89,1.21,3.82,1.76,5.73s1.22,4,1.76,6.07c.45,1.68,1,3.36,1.51,5a65.91,65.91,0,0,1,1.84,6.49,18.15,18.15,0,0,0,.84,2.55c.65,1.83,1,3.74,1.64,5.57.41,1.23.75,2.52,1.09,3.8.29,1.09.62,2.19.91,3.29.44,1.67,1.32,3.26,1.12,5a10.28,10.28,0,0,0,.48,2.54,57.22,57.22,0,0,1,.16,7.12q0,50,0,99.92a7.37,7.37,0,0,1-2.52,5.38.79.79,0,0,1,.17-.95,7.57,7.57,0,0,0,1.47-3.15,7.81,7.81,0,0,0,.4-2.47q0-48.86,0-97.72a73.06,73.06,0,0,0-.76-11.9c-.09-.56-.38-1.05-.46-1.6,0-.12-.07-.24-.11-.35-.34-1.49-.82-2.94-1.23-4.41-.48-1.71-.94-3.42-1.49-5.11-.59-2.18-1.2-4.36-1.88-6.51-.56-1.76-1-3.54-1.55-5.31-.58-2-1.21-4.07-1.8-6.11s-1.19-4.15-1.83-6.21-1.23-4.21-2-6.28c-.43-2.12-1.2-4.14-1.8-6.22s-1.21-4.3-1.89-6.42c-.58-1.82-1.09-3.66-1.63-5.49s-1.14-3.8-1.68-5.71c-.71-2.52-1.57-5-2.24-7.51a2,2,0,0,0-.69-.9,1.88,1.88,0,0,0-1.49-.65c-1.26,0-2.52,0-3.77,0-.73,0-1.13.27-1.14,1,0,1.36,0,2.73,0,4.09,0,.57.28.81.84.82a9,9,0,0,1,1.88.08C60.49,94.62,60.78,94.73,60.78,95.11Z"/><path class="cls-39" d="M63.35,81c1.57,0,3.15,0,4.72,0,.89,0,1.32.28,1.29,1.19s0,1.61,0,2.41a1.71,1.71,0,0,1-1.76,1.8c-3.15,0-6.3,0-9.45,0-.61,0-.94-.21-.89-.85s.15-1.11.95-1.09c1.43,0,2.87,0,4.3,0,.61,0,1.19-.05,1.2-.81s-.62-.79-1.2-.78c-1.4,0-2.8,0-4.2,0-.61,0-1-.13-1-.84s.23-1.1,1-1.08c1.68,0,3.36,0,5,0Z"/><path class="cls-33" d="M80,6.87l.27-.56a10,10,0,0,0,1.25-1.88c.9-1.26,1-1.32,2.34-.41a4.92,4.92,0,0,0,1.51.92c1.82,1.13,1.8,1.12.62,3-1,1.55-1.89,3.15-3,4.64a1.47,1.47,0,0,1-1.51.72,19.71,19.71,0,0,1-4.19-.78c-.6-.19-.56-.53-.3-.95q.77-1.24,1.57-2.46C78.94,8.25,79.71,7.7,80,6.87Z"/><path class="cls-40" d="M33.91,76H21.42c-.24,0-.49,0-.73,0s-.68,0-.75-.43.19-.58.44-.78a1.64,1.64,0,0,1,1.11-.19H46.8c.56,0,1.15.08,1.15.77s-.64.62-1.12.62Z"/><path class="cls-15" d="M82.2,281.64a4.38,4.38,0,0,1-2.48,1.23,21.2,21.2,0,0,1-3.73.42q-31.78,0-63.56,0a10.41,10.41,0,0,1-9-5c-.58-1-1.4-2-1.39-3.27,0-.29-.2-.51-.24-.79a4.37,4.37,0,0,1,.38-3.54.31.31,0,0,1,.31.17c.36,1,0,2,.14,3a10,10,0,0,0,9.42,8.72c.45,0,.91,0,1.36,0H75.6a11.52,11.52,0,0,0,5.7-1.09,1,1,0,0,1,.81-.13A.23.23,0,0,1,82.2,281.64Z"/><path class="cls-41" d="M2.38,270.67l-.18,0a2.12,2.12,0,0,1-.12-1.23q0-42.45,0-84.91A3.09,3.09,0,0,0,2,183.31H2a14.79,14.79,0,0,1,0-5.45h0a22,22,0,0,0,.12-3.71,24.43,24.43,0,0,1,.09-3.21l0-.2a18.32,18.32,0,0,1,.6-3.8l0-1.45a14.08,14.08,0,0,1,.61-3.16A10.77,10.77,0,0,1,4.06,159c.27-.47,0-1,.19-1.48-.13-.8.56-1.35.66-2.08a.21.21,0,0,1,.31.08,1.45,1.45,0,0,1,.12.92,114,114,0,0,0-2.13,11.82c-.6,4.17-.4,8.36-.73,12.53a16.69,16.69,0,0,0,.19,2.92q0,42.28,0,84.56c0,.63,0,1.26,0,1.89A.83.83,0,0,1,2.38,270.67Z"/><path class="cls-14" d="M55.1,157.16c0,2.87,0,5.73,0,8.6a2.08,2.08,0,0,1-1.83,2.12,20.81,20.81,0,0,0-2.61,1c-1.17.43-1.4.34-1.4-.93,0-3.18-.06-6.37,0-9.55.06-2.31-.21-4.6-.3-6.9a3.08,3.08,0,0,1,1.94-3.07,26.68,26.68,0,0,1,3.33-1.21c.74-.23.93.31.94.89,0,1.33,0,2.66,0,4q0,2.52,0,5Z"/><path class="cls-42" d="M63.21,42.47c-1.3-.19-2.73-.7-4.23-.83a.54.54,0,0,1-.44-.86,8.61,8.61,0,0,1,1.62-2.29,1.36,1.36,0,0,1,.74-.37,15.24,15.24,0,0,1,5,.66.57.57,0,0,1,.27.89c-.51.83-1.06,1.63-1.64,2.42C64.27,42.45,63.82,42.49,63.21,42.47Z"/><path class="cls-43" d="M2,183.31c.32.32.2.72.2,1.1q0,43,0,86.07a2,2,0,0,0,0,.21A6.79,6.79,0,0,0,2,274.24a.15.15,0,0,1-.26,0c-.32-.31-.13-.72-.19-1.07a1.55,1.55,0,0,1,0-1.08c.86-3.67.42-7.4.43-11.1Q2,222.17,2,183.31Z"/><path class="cls-44" d="M54.06,229.54c0,.22-.23.2-.38.22a33.09,33.09,0,0,1-3.32,1.46c-1.08.38-1.36.18-1.33-.93s-.34-2.2.74-3a24.26,24.26,0,0,1,3.61-1.56c.85-.3,1.08-.17,1.07.74S54.72,228.6,54.06,229.54Z"/><path class="cls-45" d="M81.59,283.72c-.06.48-.45.59-.82.68a22.56,22.56,0,0,1-5.37.77q-29.38,0-58.77,0c-2.72,0-5.46.14-8.1-.73-.61-.16-1.13-.54-1.72-.75h0c-.2-.17-.56-.21-.44-.61a20.56,20.56,0,0,0,9.21,1.84q29.12-.07,58.24,0A27.84,27.84,0,0,0,81.59,283.72Z"/><path class="cls-46" d="M8.67,287.49a1.35,1.35,0,0,1,.92.11,14.74,14.74,0,0,0,5.78.68c19.7,0,39.41,0,59.11,0A13.26,13.26,0,0,0,83,285.61a.36.36,0,0,1,.1.26c-.3.59-.9.81-1.41,1.14l-.58.27a9.28,9.28,0,0,1-4.53,1.36q-32.26,0-64.52,0A5.35,5.35,0,0,1,8.67,287.49Z"/><path class="cls-47" d="M55.28,129c0,2.59,0,5.17,0,7.76,0,2.1-.21,2.57-2.21,3.22-.9.29-1.72.74-2.63,1s-1.23.19-1.24-.92c0-1.36,0-2.73,0-4.09q0-6.5,0-13c0-1.54.48-2.06,2-2.5a15.83,15.83,0,0,0,2.56-1.12c1.09-.55,1.54-.29,1.54.94q0,4.35,0,8.71Z"/><path class="cls-48" d="M8.67,287.49a7.83,7.83,0,0,0,3.46,1H77.2c1.44,0,2.63-.81,3.94-1.22a5.37,5.37,0,0,1-3.47,1.43c-1.74.1-3.49,0-5.24,0H12a6.17,6.17,0,0,1-4.17-1.5c.36-.22.58,0,.81.25Z"/><path class="cls-49" d="M49.56,104.77c0-2.34,0-4.68,0-7,0-.89.29-1.27,1.23-1.21a23.63,23.63,0,0,0,3.25,0c1.07-.08,1.22.49,1.21,1.35,0,3.35,0,6.71,0,10.06,0,.52,0,1.05,0,1.57a1.8,1.8,0,0,1-1.51,2.05,14.82,14.82,0,0,0-2.79,1.14c-.93.51-1.38.22-1.38-.81q0-3.56,0-7.13Z"/><path class="cls-50" d="M71,75l0-.47a2.64,2.64,0,0,1,.25,1.62c0,2.87,0,5.74,0,8.6,0,2.05-1,3.8-3.61,3.73-1.14,0-1.2.21-.87,1.32.82,2.74,1.57,5.5,2.38,8.24C69.8,100,70.45,102,71,104c.8,2.67,1.59,5.35,2.32,8a13.21,13.21,0,0,1,.86,3.22.42.42,0,0,1,0,.48,33.08,33.08,0,0,1-1.08-3.41c-.25-1.15-.62-2.27-1-3.4-.41-1.31-.82-2.61-1.18-3.94-.29-1.06-.58-2.13-1-3.18s-.77-2.22-1.06-3.35c-.53-2.07-1.1-4.12-1.83-6.13a29.31,29.31,0,0,0-.85-3c-.37-.77.42-1.06,1.1-1.09a5.35,5.35,0,0,0,2-.38A2.6,2.6,0,0,0,71,85.29C71.06,81.86,71,78.44,71,75Z"/><path class="cls-51" d="M80.11,158.32l-.24,0a31.19,31.19,0,0,1-1.3-4.37,22.58,22.58,0,0,0-.72-2.45c-.47-1.62-.85-3.29-1.43-4.86-.7-1.88-1.2-3.82-1.8-5.72-.55-1.73-1-3.49-1.53-5.25-.37-1.32-.81-2.63-1.19-3.95a28.15,28.15,0,0,1-.9-3.3A30.79,30.79,0,0,0,69.92,125c-.62-2.11-1.2-4.23-1.79-6.35a.24.24,0,0,1,.28,0c.46.61.47,1.41.89,2a1.6,1.6,0,0,1,.08.28,3.75,3.75,0,0,0,.53,1.77A1.5,1.5,0,0,1,70,123a5.73,5.73,0,0,0,.14,1c0,.09.06.18.09.27.1.38.3.73.43,1.1.77,2.6,1.55,5.19,2.29,7.79.66,2,1.16,4.1,1.88,6.11.69,2.33,1.38,4.67,2.05,7,1.08,3.77,2.25,7.51,3.32,11.29A.77.77,0,0,1,80.11,158.32Z"/><path class="cls-52" d="M62.89,33.43a46.6,46.6,0,0,1,2.71-4.54c1.5-2.5,3.11-4.93,4.67-7.4.33-.53.62-1.08,1-1.6a1,1,0,0,1,.83-.58c1.39,0,2.8-.26,4.13.37a2.75,2.75,0,0,0,1.11.25c1.19,0,1.39.47.73,1.51l-2.43,3.88-4.73,7.49c-.13.2-.29.39-.43.58a.49.49,0,0,1-.17-.25,4.72,4.72,0,0,1,1.14-2.27,20.23,20.23,0,0,0,2-3.39A1.29,1.29,0,0,1,73.7,27c.72-.51,1-1.36,1.45-2,.84-1.16,1.55-2.41,2.29-3.64.16-.31.41-.78-.13-.82-1.47-.11-2.82-.85-4.33-.72a1.65,1.65,0,0,0-1.45.81c-2.36,3.72-4.65,7.48-7,11.18C64.07,32.4,63.81,33.25,62.89,33.43Z"/><path class="cls-53" d="M61.44,101.17c1.69,4.7,3,9.53,4.34,14.33a5.79,5.79,0,0,1,.64,1.89h0c1,2.85,1.73,5.75,2.59,8.63.34,1.13,1,2.21.88,3.47a.84.84,0,0,1-.06.49c-.36.11-.41-.18-.48-.4-.74-2.44-1.49-4.88-2.21-7.33s-1.5-5.17-2.32-7.73-1.56-5.43-2.42-8.12c-.41-1.3-.73-2.62-1.16-3.91-.14-.41-.43-.85.08-1.23Z"/><path class="cls-54" d="M35.15,94.93c.33-.31.73-.17,1.1-.17,3.42,0,6.84,0,10.26,0,1,0,1.32-.31,1.28-1.28-.06-1.32,0-2.65,0-4,0-.92-.32-1.33-1.28-1.33-6.56,0-13.13,0-19.69,0a11.5,11.5,0,0,0-1.54.21,1.83,1.83,0,0,1,1.53-.5H46.62c1.12,0,1.52.34,1.54,1.47,0,1.4,0,2.8,0,4.19,0,.93-.35,1.41-1.37,1.4C42.91,94.93,39,94.94,35.15,94.93Z"/><path class="cls-15" d="M62.81,45.11l-.4.64A12,12,0,0,1,60.93,48l-.81,1.49a3.19,3.19,0,0,1-.66.82l-.82,1.48c-.86,1.21-.9,1.22-2.06.52-1-.61-2-1.18-3-1.75h0c-.32-.24-.68-.45-.67-.93a41.87,41.87,0,0,1,2.39-4c.32-.53.67-1,1-1.57a3.08,3.08,0,0,1,3.43-.85,10.83,10.83,0,0,0,2.3.54C63,43.87,63.09,44.11,62.81,45.11Z"/><path class="cls-55" d="M62.89,33.43A17.76,17.76,0,0,0,65.6,29.5c2-3.08,3.9-6.19,5.83-9.3a1.52,1.52,0,0,1,1.3-.72c1.68-.15,3.21.61,4.84.8.81.09.4.75,0,1.15a.8.8,0,0,1-.21-.22.91.91,0,0,0-.83-.55,12.83,12.83,0,0,1-3.08-.57,1.36,1.36,0,0,0-1.66.72C69,25.45,66,30,63.17,34.58c-.22.36-.41.75-.92.75a.37.37,0,0,1-.17-.25C62.2,34.46,62.84,34.09,62.89,33.43Z"/><path class="cls-56" d="M55.28,114.87c0,2.35-.06,2.43-2.85,3.51l-1.84.73c-.89.36-1.33,0-1.35-.9,0-.52,0-1,0-1.57a2.21,2.21,0,0,1,1.35-2.18c1.19-.55,2.41-1.05,3.63-1.54.62-.25,1,0,1.06.69C55.29,114,55.28,114.45,55.28,114.87Z"/><path class="cls-57" d="M5.12,156.23l0-.87a1.6,1.6,0,0,1,.09-1.29,6.59,6.59,0,0,0,.58-1.83h0a4.58,4.58,0,0,1,.4-1.27l0-.58c.52-1.67,1.09-3.34,1.63-5A12.12,12.12,0,0,1,9,141.93c.08-1.25.82-2.31,1-3.55.13-.76.48-1.5.63-2.28a1,1,0,0,1,.46-.76.42.42,0,0,1,.31.1c.24.92-.3,1.7-.51,2.52-.42,1.61-.95,3.2-1.45,4.8-.9,2.86-1.76,5.73-2.65,8.59-.47,1.5-.87,3-1.32,4.51C5.48,156.06,5.4,156.27,5.12,156.23Z"/><path class="cls-58" d="M49.4,88.92c-.57-1.83.88-2.58,2.37-3.25.92-.42,1.88-.73,2.84-1.05.69-.24,1.1.08,1.13.79a20.79,20.79,0,0,1,0,2.52,2,2,0,0,1-.92,1.46,11.18,11.18,0,0,1-3,1.36c-.2.07-.41.08-.6.17-1.61.72-1.77.63-1.78-1.11C49.4,89.59,49.4,89.38,49.4,88.92Z"/><path class="cls-59" d="M48.86,201.59c0-2,.3-2.35,2.21-3.15a13,13,0,0,0,2.48-1A.85.85,0,0,1,55,198c.31,1.67.26,3.36-1.9,4.2a18.13,18.13,0,0,0-2.68,1.11c-1,.57-1.51.2-1.53-.91C48.86,202.15,48.86,201.87,48.86,201.59Z"/><path class="cls-17" d="M50.47,142.58a23.81,23.81,0,0,1,4-1.55c.51-.18.74.21.76.61a23.31,23.31,0,0,1,0,2.72,1.59,1.59,0,0,1-.94,1.2,29.3,29.3,0,0,1-4.12,1.75c-.54.2-.88,0-.87-.54,0-1.26-.32-2.57.37-3.77C49.87,142.77,50.2,142.75,50.47,142.58Z"/><path class="cls-60" d="M54.27,173.46c-1.28,1.07-2.93,1.37-4.4,2a.61.61,0,0,1-.8-.31c-.47-.84,0-3.63.75-4.18a5.37,5.37,0,0,1,1.49-.73,27.34,27.34,0,0,1,2.82-1.09c.69-.14,1.06.13,1,.8-.1,1,.39,2-.42,2.9a.58.58,0,0,1-.21-.56,1.93,1.93,0,0,1,.05-.3c0-.69.29-1.39-.16-2-.48-.23-.88,0-1.3.2-.71.3-1.42.57-2.11.93a2.51,2.51,0,0,0-1.26,3.07c.19.55.6.39.95.27.79-.28,1.54-.66,2.34-.92a2.18,2.18,0,0,1,1-.24A.53.53,0,0,1,54.27,173.46Z"/><path class="cls-61" d="M69.77,130l.06-.49a.13.13,0,0,1,.18,0c.67,2.23,1.32,4.46,2,6.68.6,2,1.31,4,1.8,6a23.4,23.4,0,0,1,1,3.92.38.38,0,0,1,0,.47.32.32,0,0,1-.31-.05,31.67,31.67,0,0,1-1.65-5.15,2.82,2.82,0,0,0-.57-1.92c-.93-2.92-1.69-5.88-2.63-8.79A.64.64,0,0,1,69.77,130Z"/><path class="cls-62" d="M52.29,94.83c-.63,0-1.26,0-1.89,0-.85,0-1.07-.48-.71-1.26s1.22-1,1.92-1.37,1.75-.67,2.61-1,1,0,1,.75C55.21,95.37,55.72,94.79,52.29,94.83Z"/><path class="cls-63" d="M62.08,35.08l.2.28a10.11,10.11,0,0,0,4.51,1.09c.71,0,1.1-.56,1.43-1.09q1.33-2.13,2.63-4.28c.65-1.08,1.43-2.07,2-3.17.13-.24.31-.48.66-.41-.24,1.38-1.24,2.34-1.9,3.49-.41.72-.84,1.43-1.26,2.14-.55.88-1,1.79-1.62,2.65s-1.36,2-2.83,1.29a1.91,1.91,0,0,0-.72,0,1,1,0,0,1-.32,0A15.9,15.9,0,0,1,62,36.32l-.08,0h-.08a.37.37,0,0,1-.19-.22c-.07-.35.15-.57.34-.81Z"/><path class="cls-64" d="M60.78,95.11l-.49-.38a.56.56,0,0,1,.63-.17,2.78,2.78,0,0,1,1.38,1.89c.33,1.14.79,2.23,1,3.4a3.21,3.21,0,0,0,.37,1.19c.49,1.58.86,3.19,1.44,4.75.12.35.11.73.25,1.08.49,1.26.72,2.6,1.2,3.87a2,2,0,0,1,.06.92.75.75,0,0,1-.13.27.18.18,0,0,1-.25,0,11.63,11.63,0,0,0-.83-3.09c-.94-3.12-1.82-6.26-2.77-9.38A13.53,13.53,0,0,0,61.5,96C61.29,95.66,61.15,95.3,60.78,95.11Z"/><path class="cls-25" d="M8.67,287.49c-.33.12-.49-.34-.81-.25a12.94,12.94,0,0,1-4.62-5c-.18-.34-.46-.73-.14-1.06s.68.11,1,.29a16.46,16.46,0,0,0,2.31,1.62l.44.61a6.54,6.54,0,0,1-2.28-1.4c-.22-.17-.45-.61-.77-.34s0,.59.2.83a11.41,11.41,0,0,0,4.3,4.17C8.5,287.06,8.69,287.19,8.67,287.49Z"/><path class="cls-65" d="M57.41,79.16c-.22-.27-.53-.52-.35-.91s.57-.34.92-.34c.73,0,1.47,0,2.19,0a3.42,3.42,0,0,0,2.08-.54c.26-.16.65-.24.52-.65s-.48-.34-.8-.34c-1.18,0-2.37,0-3.55,0-.64,0-1.3-.11-1.23-1a.25.25,0,0,1,.28,0,2.88,2.88,0,0,0,.54.32c1.29.11,2.59,0,3.87.07s1.52.65,1.19,1.73a3,3,0,0,1-2.24.91c-.69,0-1.39,0-2.08,0-.53,0-.87.17-.92.74A.28.28,0,0,1,57.41,79.16Z"/><path class="cls-66" d="M74.82,146.58l0-.44a1.45,1.45,0,0,1,.6.94c.79,2.85,1.57,5.71,2.37,8.56a8.19,8.19,0,0,0,.57,1.22,3,3,0,0,0,.42,1.87,2.68,2.68,0,0,1,.21,1.71c-.55-.07-.41-.54-.49-.87s-.36-.81-.5-1.24c-.33-1.75-1-3.41-1.47-5.12s-.95-3.56-1.57-5.29a2.39,2.39,0,0,1-.12-.29C74.79,147.28,74.56,146.94,74.82,146.58Z"/><path class="cls-50" d="M74.2,115.7l0-.48c.72,1,.77,2.29,1.15,3.44,1,2.9,1.75,5.86,2.61,8.8a.29.29,0,0,1,0,.46,14,14,0,0,1-1.28-3.81c-.31-1.09-.65-2.19-.95-3.28-.42-1.51-1-3-1.32-4.54A4.72,4.72,0,0,0,74.2,115.7Z"/><path class="cls-23" d="M81,16.19c-.31.53-.59,1.09-.94,1.59a2.07,2.07,0,0,1-2.45.87,12.24,12.24,0,0,0-3-.51c-.46,0-1,.08-1.25-.51s.18-1,.58-1.33a.44.44,0,0,1,.19.24c0,.68.29,1,1,1a12.2,12.2,0,0,1,2.48.31A2,2,0,0,0,79.76,17c.26-.36.41-.83.94-.91A.38.38,0,0,1,81,16.19Z"/><path class="cls-67" d="M57.41,79.16h.42l.18,0c3.11-.08,6.21,0,9.32,0a3.84,3.84,0,0,0,1.34-.1.88.88,0,0,0,.41-.81c0-.44,0-.88,0-1.31s-.31-1,.08-1.48c.9,1.14.66,2.42.42,3.69-.09.47-.51.54-.91.54H58.28C57.92,79.61,57.57,79.56,57.41,79.16Z"/><path class="cls-68" d="M78.85,9l-1.59,2.55c-.2.32-.38.68.19.76,1.4.17,2.72.81,4.18.72A1.49,1.49,0,0,0,83,12.38a.34.34,0,0,1,0,.46,1.25,1.25,0,0,1-1.39.7c-1.48-.32-3-.22-4.46-.91-.49-.24-.68-.56-.41-1A14.42,14.42,0,0,1,78.58,9Q78.72,8.86,78.85,9Z"/><path class="cls-62" d="M81,16.19l-.27,0C79.34,14.93,77.65,15,76,15c-.45,0-.72.36-1,.71s-.45.81-1,.88L74,16.3c.63-1.75,1.78-2.43,3.48-2a21.72,21.72,0,0,1,3.06.56C81.09,15.15,81.57,15.47,81,16.19Z"/><path class="cls-69" d="M69.35,78.33l-.21.82a.21.21,0,0,1-.32-.08,6.7,6.7,0,0,1-.2-2.37c-.08-1.14-.47-1.6-1.6-1.62-2.78,0-5.56,0-8.34,0a5,5,0,0,0-1.31.32H57.2c-.08-.63.21-.89.82-.89l2.49,0c2.6,0,5.21-.16,7.81.09h0a2.39,2.39,0,0,1,.85.82h0l.19,1.47A2.51,2.51,0,0,0,69.35,78.33Z"/><path class="cls-62" d="M49.84,227.41c-1.06,1-.61,2.29-.58,3.46,0,.55.62.32.94.2.84-.33,1.66-.72,2.48-1.1a1.49,1.49,0,0,1,1-.22c-.81.94-2.07,1-3.07,1.59a10.34,10.34,0,0,1-1,.36c-.38.17-.67,0-.71-.33a10,10,0,0,1,.07-3.53c0-.17.27-.3.41-.45A.32.32,0,0,1,49.84,227.41Z"/><path class="cls-70" d="M83.06,285.84l0-.24a12.27,12.27,0,0,0,2.5-3.18c.14-.22.36-.53.08-.75s-.47.12-.68.29c-.91.71-1.72,1.61-3,1.71a29.27,29.27,0,0,0,3.4-2.57c.2-.21.52-.44.84-.2s.15.57,0,.85a11.81,11.81,0,0,1-2.82,4C83.33,285.92,83.2,285.91,83.06,285.84Z"/><path class="cls-47" d="M83,12.84l0-.46c1.1-1.72,2.22-3.44,3.31-5.18.62-1,.6-1-1-2.14a.16.16,0,0,1,0-.24c.68,0,1.09.58,1.6.91a.65.65,0,0,1,.16.94C85.69,8.7,84.62,10.94,83,12.84Z"/><path class="cls-71" d="M21,101.57l.09.32c.35,1-.25,1.91-.51,2.8-.62,2.14-1.18,4.3-1.87,6.41-.11.33-.07.81-.61.83a.55.55,0,0,1,0-.5c0-1.56.79-2.94,1.15-4.42.28-1.18.66-2.33,1-3.49a7.35,7.35,0,0,1,.62-1.9h0A.1.1,0,0,1,21,101.57Z"/><path class="cls-72" d="M49.84,227.41H49.4a20,20,0,0,1,4.45-2.09.44.44,0,0,1,.63.36,9.26,9.26,0,0,1-.07,3.7c0,.08-.23.11-.35.16a12.18,12.18,0,0,0,.21-3c0-.71-.21-1-.91-.66C52.19,226.43,51,226.92,49.84,227.41Z"/><path class="cls-73" d="M70,129.55a.38.38,0,0,1-.18,0c-.45-2.13-1.22-4.17-1.79-6.26s-1.26-3.86-1.62-5.87c.91,1.21.94,2.74,1.41,4.1a27.51,27.51,0,0,1,1.2,4.07C69.28,126.92,70.16,128.11,70,129.55Z"/><path class="cls-74" d="M77.94,127.92l0-.46c.78,2.56,1.6,5.11,2.31,7.69a10.81,10.81,0,0,1,.84,3.23c-.07.1-.14.1-.22,0-.42-1.39-.9-2.76-1.24-4.17C79.17,132.09,78.31,130.07,77.94,127.92Z"/><path class="cls-75" d="M74,30.67c-.11.92-.84,1.49-1.28,2.22-1.27,2.16-2.63,4.26-4,6.38a3,3,0,0,1-.43.45l-.05-.27,4.3-6.88A10,10,0,0,1,74,30.67Z"/><path class="cls-76" d="M9.13,142c-.71,2.23-1.41,4.46-2.14,6.68-.2.6-.24,1.3-.79,1.75a13,13,0,0,1,1-3.48c.36-1.28.86-2.51,1.14-3.83.16-.74.59-1.44.77-2.21A1.32,1.32,0,0,1,9.13,142Z"/><path class="cls-77" d="M13.11,127.89c-.12-1.43.67-2.65,1-4s.83-2.65,1.14-4c.07-.29.08-.63.37-.83a.78.78,0,0,1,.24.63,52.34,52.34,0,0,1-2.43,8.15A.26.26,0,0,1,13.11,127.89Z"/><path class="cls-10" d="M82.2,281.64l0-.33a.63.63,0,0,1,.34-.49,10.11,10.11,0,0,0,3.39-4.36,1.9,1.9,0,0,1,.47-.79.3.3,0,0,1,.28.05,5.34,5.34,0,0,1-1.22,2.77,2.72,2.72,0,0,0-.53,1C84,280.24,83.39,281.29,82.2,281.64Z"/><path class="cls-78" d="M13.11,127.89h.21c.41,1-.28,1.73-.49,2.56-.35,1.44-.8,2.86-1.24,4.28a1,1,0,0,1-.33.52.21.21,0,0,1-.3,0A44.21,44.21,0,0,1,13.11,127.89Z"/><path class="cls-79" d="M89,4.87l.09.36a24.07,24.07,0,0,1-3.85-2.45C84.52,2.22,83.53,1.94,83,1c1.76.84,3.2,2.15,4.87,3.12C88.29,4.39,88.66,4.63,89,4.87Z"/><path class="cls-80" d="M62.81,45.11c.2-.77,0-1.18-.89-1.21a16.68,16.68,0,0,1-2.63-.6,2.81,2.81,0,0,0-2.93.8A1.28,1.28,0,0,1,57.78,43a8,8,0,0,1,3.09.38,5.11,5.11,0,0,0,1.42.3C63.3,43.77,63.44,44.19,62.81,45.11Z"/><path class="cls-81" d="M83.82,4.22c-1.24-.9-1.24-.84-2.17.36-.44.58-.44,1.51-1.34,1.73A10.44,10.44,0,0,1,82,3.47c.31-.5.81-.42,1.29-.11a3.88,3.88,0,0,1,1.08.81A.39.39,0,0,1,83.82,4.22Z"/><path class="cls-43" d="M1.95,177.85l0,5.45a.65.65,0,0,1-.38-.59q0-2.18,0-4.35C1.64,178.19,1.84,178,1.95,177.85Z"/><path class="cls-82" d="M65.17,37a2.28,2.28,0,0,1,.82,0c1.29.5,2-.18,2.63-1.16a12.88,12.88,0,0,1,1.77-2.65l.06.27c-.49.8-1,1.59-1.48,2.39a4.15,4.15,0,0,1-1.5,1.56,1.13,1.13,0,0,1-1,0,2,2,0,0,0-1.24-.24q-.12-.06-.08-.13S65.15,37,65.17,37Z"/><path class="cls-83" d="M11,135.21h.2q.1.06.08.14t0,.08A13.38,13.38,0,0,0,10.06,139a23,23,0,0,0-.94,3l0-1.09A38.32,38.32,0,0,0,10.55,136,1.85,1.85,0,0,1,11,135.21Z"/><path class="cls-84" d="M66.24,111.9a.29.29,0,0,1,.16.05c1,1.21,1,2.77,1.49,4.14.19.5.25,1.07.46,1.58.13.32.26.66,0,1h-.19c-.86-1.9-1-4-1.87-5.92A2.19,2.19,0,0,1,66.24,111.9Z"/><path class="cls-48" d="M17.47,107.08c.26-1.65.9-3.2,1.3-4.81.3-.29,0-.8.41-1.07a6,6,0,0,1-.5,2.53c-.39,1.09-.66,2.23-1,3.35A.15.15,0,0,1,17.47,107.08Z"/><path class="cls-85" d="M86.58,10.7l0,.41L84.39,14.5c-.2.31-.35.67-.72.84A20.08,20.08,0,0,1,86.58,10.7Z"/><path class="cls-67" d="M68.31,74.56c-2.6,0-5.21.12-7.81-.09A34.58,34.58,0,0,1,68.31,74.56Z"/><path class="cls-43" d="M2.16,170.92c0,2.05,0,4.11,0,6.16,0,.27,0,.57-.24.76C2,175.9,2,174,2,172,2,171.65,1.87,171.25,2.16,170.92Z"/><path class="cls-86" d="M18.1,111.44l.05.52c.26.62-.24,1.12-.27,1.69-.25.78-.56,1.55-.75,2.35-.06.26-.09.56-.47.57a.34.34,0,0,1,0-.46A16,16,0,0,1,18.1,111.44Z"/><path class="cls-79" d="M80.5,2.1c.29-.34.55-.69.86-1C81.89.56,82.45.42,83,1c-1.15-.14-1.8.26-2.47,1.66a2,2,0,0,1-.91,1.08Z"/><path class="cls-75" d="M80.49,20.36C80,21.74,79,22.8,78.37,24.09l-.38.28A14.94,14.94,0,0,1,80.49,20.36Z"/><path class="cls-87" d="M1.72,274.28l.26,0a15.13,15.13,0,0,0,1.47,4A4.59,4.59,0,0,1,2,275.49,10.12,10.12,0,0,0,1.72,274.28Z"/><path class="cls-85" d="M83.66,15.34a11.75,11.75,0,0,1-2.1,3.36A9.93,9.93,0,0,1,83.66,15.34Z"/><path class="cls-88" d="M17.47,107.08h.23c-.54,1.14-.32,2.56-1.29,3.54a5,5,0,0,0,.47-2.07Z"/><path class="cls-89" d="M80.91,138.38h.22l.65,1.68c-.1.68.45,1.22.41,1.89a1,1,0,0,1-.49-.75A19.25,19.25,0,0,0,80.91,138.38Z"/><path class="cls-88" d="M15,115.09c.5-1.17.61-2.47,1.21-3.6.1,1.2-.7,2.2-.78,3.37C15.44,114.95,15.17,115,15,115.09Z"/><path class="cls-82" d="M62,36.32a9.32,9.32,0,0,1,3,.62,1.77,1.77,0,0,1-1.29,0A2.53,2.53,0,0,1,62,36.32Z"/><path class="cls-90" d="M53.62,50.6a11.13,11.13,0,0,1,3,1.67.2.2,0,0,1-.29,0A11.51,11.51,0,0,1,53.62,50.6Z"/><path class="cls-91" d="M5.75,152.25c.23,1.14-.75,2-.67,3.12l-.17,0C4.69,154.21,5.33,153.26,5.75,152.25Z"/><path class="cls-43" d="M2.78,166.93l-.6,3.8A6.9,6.9,0,0,1,2.78,166.93Z"/><path class="cls-54" d="M22.31,96.58a12.23,12.23,0,0,1-1,3.38C21.58,98.82,21.56,97.58,22.31,96.58Z"/><path class="cls-92" d="M56.29,52.32l.29,0c.86.66,1.49.27,2.06-.44C58.15,53.26,57.79,53.33,56.29,52.32Z"/><path class="cls-75" d="M75.87,27.71A6.36,6.36,0,0,1,74.42,30,4.36,4.36,0,0,1,75.87,27.71Z"/><path class="cls-93" d="M78.85,9l-.27,0A4.43,4.43,0,0,1,80,6.87C80.06,7.82,79.1,8.23,78.85,9Z"/><path class="cls-43" d="M3.43,162.32l-.61,3.16A5.1,5.1,0,0,1,3.43,162.32Z"/><path class="cls-80" d="M60.93,48a10.61,10.61,0,0,1,1.49-2.3A3.68,3.68,0,0,1,60.93,48Z"/><path class="cls-79" d="M89.11,6.72A8.89,8.89,0,0,1,87.64,9,4,4,0,0,1,89.11,6.72Z"/><path class="cls-86" d="M15.63,119.71l0-.64.44-1.45a.19.19,0,0,1,.29,0C16.55,118.5,16.52,119.25,15.63,119.71Z"/><path class="cls-75" d="M77.37,25.42a4,4,0,0,1-1.29,1.86A3.77,3.77,0,0,1,77.37,25.42Z"/><path class="cls-48" d="M19.8,99.11l.63-2.1C20.47,97.78,20.61,98.58,19.8,99.11Z"/><path class="cls-48" d="M19.18,101.21a11.55,11.55,0,0,1,.63-2.1C19.79,99.86,20,100.7,19.18,101.21Z"/><path class="cls-73" d="M66.42,117.39a7.41,7.41,0,0,1-.64-1.89A1.82,1.82,0,0,1,66.42,117.39Z"/><path class="cls-48" d="M83.06,285.84l.33-.1A2.2,2.2,0,0,1,81.72,287Z"/><path class="cls-94" d="M83.82,4.22l.52,0c.43.06.67.43,1,.65l0,.24C84.7,5,84.31,4.51,83.82,4.22Z"/><path class="cls-12" d="M14.15,118.23a5.91,5.91,0,0,1,.63-1.89A2.34,2.34,0,0,1,14.15,118.23Z"/><path class="cls-54" d="M20.86,101.63a7.19,7.19,0,0,1-.62,1.9A2.31,2.31,0,0,1,20.86,101.63Z"/><path class="cls-91" d="M6.15,151a1.32,1.32,0,0,1-.4,1.27C5.35,151.66,5.73,151.31,6.15,151Z"/><path class="cls-54" d="M22.94,94.69l-.59,1.7A1.65,1.65,0,0,1,22.94,94.69Z"/><path class="cls-10" d="M54.27,173.46l-.3-.06c.07-.5.08-1,.69-1.22l0,.69A.62.62,0,0,1,54.27,173.46Z"/><path class="cls-77" d="M16.24,117.59l-.19,0a1.43,1.43,0,0,1,.6-1.5v.4A1.28,1.28,0,0,1,16.24,117.59Z"/><path class="cls-54" d="M21,101.57a.27.27,0,0,1-.16.05c0-.59-.14-1.22.43-1.67Z"/><path class="cls-54" d="M23.37,92.81a5.85,5.85,0,0,1-.38,1.7C22.94,93.9,22.84,93.28,23.37,92.81Z"/><path class="cls-54" d="M25.28,88.41l-.88,1C24.44,88.86,24.65,88.46,25.28,88.41Z"/><path class="cls-92" d="M62.23,31.5a1.43,1.43,0,0,1,.62-1.06A1,1,0,0,1,62.23,31.5Z"/><path class="cls-90" d="M53,49.68l.67.93C53.12,50.5,52.73,50.31,53,49.68Z"/><path class="cls-79" d="M89.14,5.23a1.14,1.14,0,0,1,0,1.49Z"/><path class="cls-52" d="M63.7,37l1.29,0a.32.32,0,0,1,.19,0,.88.88,0,0,0,0,.2C64.68,37.13,64.16,37.33,63.7,37Z"/><path class="cls-75" d="M78,24.37a2,2,0,0,1-.63,1.05A.9.9,0,0,1,78,24.37Z"/><path class="cls-91" d="M4.25,157.48c0,.5.18,1-.19,1.48C4.12,158.47,3.94,157.94,4.25,157.48Z"/><path class="cls-67" d="M69.16,75.38a2.51,2.51,0,0,1-.85-.82A.84.84,0,0,1,69.16,75.38Z"/><path class="cls-85" d="M81.56,18.7a1.32,1.32,0,0,1-.66,1A1,1,0,0,1,81.56,18.7Z"/><path class="cls-54" d="M24.21,90.08a1.67,1.67,0,0,1-.41,1.06A.9.9,0,0,1,24.21,90.08Z"/><path class="cls-54" d="M23.81,91.14c0,.42.15.88-.24,1.23C23.64,92,23.45,91.49,23.81,91.14Z"/><path class="cls-92" d="M59.46,50.36a1.15,1.15,0,0,1,.66-.82A.81.81,0,0,1,59.46,50.36Z"/><path class="cls-82" d="M62,35.27l-.2.85c-.51-.07-.27-.38-.21-.64S61.84,35.28,62,35.27Z"/><path class="cls-75" d="M74.42,30a.7.7,0,0,1-.41.64C73.94,30.33,74,30.05,74.42,30Z"/><path class="cls-52" d="M66.42,37.39l1,0A.67.67,0,0,1,66.42,37.39Z"/><path class="cls-52" d="M61.59,35.48c0,.23-.07.49.21.64a.44.44,0,0,1,.06.18C61.17,36.23,61.32,35.88,61.59,35.48Z"/><path class="cls-87" d="M1.53,272.13q0,.54,0,1.08A.8.8,0,0,1,1.53,272.13Z"/><path class="cls-12" d="M14.78,116.34a1.36,1.36,0,0,1,.18-1.06A1.31,1.31,0,0,1,14.78,116.34Z"/><path class="cls-95" d="M50.47,142.58a1.05,1.05,0,0,1-.84.42A.73.73,0,0,1,50.47,142.58Z"/><path class="cls-25" d="M6.81,283.67a3.42,3.42,0,0,1,1.72.75A2.32,2.32,0,0,1,6.81,283.67Z"/><path class="cls-96" d="M78.22,158.28c.55.62.5,1.45.8,2.16,1,3.33,2,6.61,2.12,10.17,0,1.91.18,3.83.18,5.74q0,44.18,0,88.36a8.78,8.78,0,0,1-2.16,6.18c-.16.18-.37.36-.21.63s.4.23.65.24a2.79,2.79,0,0,0,1.1-.31.34.34,0,0,1,0,.38,1.44,1.44,0,0,1-1.29.56c-1.08,0-1.56-.83-.91-1.69a11.8,11.8,0,0,0,2.1-7.51q0-44.74,0-89.48A35.8,35.8,0,0,0,78.74,162a22,22,0,0,1-.77-3.15A.69.69,0,0,1,78.22,158.28Z"/><path class="cls-97" d="M80.71,271.73l0-.27a15.73,15.73,0,0,0,2.17-5.28,3.57,3.57,0,0,0,.13-1q0-46,0-92.06a38.61,38.61,0,0,0-1.06-7.65,31.06,31.06,0,0,1-1-4.58.3.3,0,0,1,.37,0,3,3,0,0,1,.68,1.51,54.24,54.24,0,0,1,1.65,12q-.08,45.16,0,90.32a11.65,11.65,0,0,1-1.58,5.9C81.71,271.12,81.44,271.71,80.71,271.73Z"/><path class="cls-98" d="M81.14,160.85l-.25,0a9,9,0,0,1-.78-2.54c-.64-1.9-1.07-3.86-1.73-5.76s-1-3.89-1.65-5.8-1-3.61-1.62-5.39a10.4,10.4,0,0,1-.5-2.12.65.65,0,0,1,0-.66c.41-.06.44.28.51.53,1,3.45,2.09,6.87,3.06,10.33.74,2.65,1.55,5.29,2.38,7.91.26.83.39,1.7.72,2.51A.87.87,0,0,1,81.14,160.85Z"/><path class="cls-99" d="M81.14,160.85a58.35,58.35,0,0,0-1.62-5.91c-.56-2.11-1.29-4.17-1.82-6.29s-1.21-3.91-1.81-5.87c-.43-1.39-.84-2.78-1.26-4.16-.23,0-.28-.11-.32-.3a48.66,48.66,0,0,0-1.47-5.15C72,130,71,126.78,70,123.64c-.1-.19,0-.43-.19-.6a.32.32,0,0,1,0-.17,11.19,11.19,0,0,1-.59-1.92.33.33,0,0,1,0-.18c-.6-2-1.18-4.07-1.79-6.1-.27-.89-.58-1.78-.78-2.69-.08-.36.12-.76-.13-1.1a29.55,29.55,0,0,1-1.25-4c-.25-.3.07-.73-.22-1A24.64,24.64,0,0,1,63.5,101a8.36,8.36,0,0,1-.4-1.08c-.4-1.28-.8-2.56-1.21-3.84a3.42,3.42,0,0,0-.94-1.36,9.78,9.78,0,0,0-2.68-.11c-.7,0-1-.18-.91-1a25.27,25.27,0,0,0,0-4.07c-.06-.81.26-1.16,1.05-1.16,1.36,0,2.71,0,4.07,0a2,2,0,0,1,1.57.69c.92.85.94,2.08,1.28,3.15q1.84,5.92,3.55,11.88c.79,2.77,1.61,5.53,2.43,8.29s1.4,5.31,2.42,7.86c.22.55.08,1.19.42,1.71,1.34,4.53,2.71,9,4,13.57.81,2.77,1.71,5.51,2.48,8.28.56,2,1.32,4,1.75,6.09.17.83.52,1.65.72,2.49.5,1.22.74,2.53,1.13,3.79.52,1.68.91,3.4,1.5,5.06h0a17,17,0,0,0,.61,2.68,7.3,7.3,0,0,0,.15,2c.14,1.67.27,3.33.29,5,.46,34,.06,67.91.19,101.86a5,5,0,0,1-.62,2.91,9.83,9.83,0,0,1-4.24,5.6,10.36,10.36,0,0,1-5.87,1.52q-31.94,0-63.89,0a9.85,9.85,0,0,1-8.27-4.34,8.76,8.76,0,0,1-1.76-6.79,6.4,6.4,0,0,0,0-1l0-.4a2.62,2.62,0,0,0,.09-1.14q0-42.24,0-84.47a2.37,2.37,0,0,0-.09-1.14,26.47,26.47,0,0,1-.06-5.73c.1-1.35,0-2.72.08-4.08a81.7,81.7,0,0,1,1.32-11.18,40.93,40.93,0,0,1,1.38-6.3c.72-2.45,1.42-4.92,2.16-7.36.62-2,1.3-4,1.92-6.06.76-2.45,1.48-4.91,2.22-7.36a8.48,8.48,0,0,1,.82-3.31c.85-2.76,1.65-5.53,2.45-8.3.58-2,1.35-4,1.77-6.09.28-1.41.9-2.75,1.25-4.15a6.12,6.12,0,0,1,.45-1.63c.47-1.52,1-3,1.41-4.56.54-1.83,1-3.67,1.55-5.51,1.08-3.38,2.09-6.78,3-10.22.18-.71.44-1.4.69-2.08.32-.88,1-1,1.87-1,4.79,0,9.58,0,14.38,0,1.82,0,3.64,0,5.46,0,.77,0,1.06.26,1,1,0,1.29,0,2.59,0,3.88,0,.79-.28,1-1,1-3.5,0-7,0-10.49,0a2.61,2.61,0,0,0-1.13.14,1.15,1.15,0,0,0-.7,1.28c.07.64.52.73,1.07.72H46.12c1.27,0,1.38.1,1.38,1.36,0,8,.15,16.09,0,24.13-.29,12.48,0,25-.16,37.45a2.68,2.68,0,0,0-.08,1.14c0,10.85.18,21.7-.05,32.54-.25,11.29.09,22.59-.21,33.87-.15,5.38,0,10.76-.16,16.13a2.07,2.07,0,0,0,.3,1.4.41.41,0,0,0,.38.24c.17,0,.34.11.52.14q3.63.05,7.26,0a2.48,2.48,0,0,0,.51-.16l.21-.19c.34-.19.43-.55.6-.86a2.45,2.45,0,0,0,.09-1.13q0-9.48,0-19a2.47,2.47,0,0,1,.09-1.13q0-7.4,0-14.8c0-5.46-.11-10.92,0-16.38.26-11.12-.12-22.25.18-33.37.29-10.77-.09-21.55.22-32.31.27-9.27.06-18.53.16-27.8,0-.5,0-.9.63-1s1.34-.33,1.8.38a4.59,4.59,0,0,1,.71,1.84,5.24,5.24,0,0,0,.8,2.13c-.09.18-.21.35-.09.58a20.72,20.72,0,0,1,1.27,4.08c.57,1.85,1.13,3.72,1.64,5.59.46,1.7,1.05,3.37,1.56,5.06.62,2.06,1.19,4.13,1.81,6.19.54,1.8,1.1,3.59,1.65,5.38.19.62.4,1.24.61,1.87l2.76,9.43a6.68,6.68,0,0,1,.6,1.91c0,1.1.66,2,.88,3,.16.72.42,1.45.6,2.19.19.33.2.73.44,1h0c.91,3,1.75,6.11,2.71,9.15a14.55,14.55,0,0,1,.41,2,86.13,86.13,0,0,1,2.45,9.39,27.26,27.26,0,0,1,.27,4.39q0,46,0,92.07a9,9,0,0,1-2.2,6.27c-.53.59-.33,1.1.45,1.27a2.11,2.11,0,0,0,1.57-.42,9.31,9.31,0,0,0,2.54-6.65q0-36.62,0-73.24c0-6.89.12-13.78-.11-20.67A39.07,39.07,0,0,0,81.14,160.85Z"/><path class="cls-100" d="M47.1,244.65c-.47-.24-.41-.69-.41-1.1,0-4.9-.15-9.8,0-14.69.39-10.8-.09-21.61.22-32.41.34-12,.06-24,.19-36,0-.31-.06-.64.17-.9q0,9.49,0,19c0,5,.14,9.93,0,14.89-.38,11.18.08,22.36-.24,33.54-.15,5.31,0,10.61-.17,15.92A5.48,5.48,0,0,0,47.1,244.65Z"/><path class="cls-36" d="M47.73,245.06l-.25-.17,8.29,0-.23.19A65.14,65.14,0,0,1,47.73,245.06Z"/><path class="cls-100" d="M56.76,222.59q0,10,0,20c0,.41.13.84-.17,1.21q0-10.17,0-20.35C56.56,223.17,56.48,222.83,56.76,222.59Z"/><path class="cls-15" d="M86.39,275.71a15.76,15.76,0,0,0,.44-3.94c0-32.15,0-64.3-.06-96.45a83.85,83.85,0,0,0-.42-9.61c-.22-.63.1-1.31-.19-1.94-.29-.82-.77-1.6-.41-2.52,1,1.72.84,3.66,1,5.5.68,7.17.42,14.38.43,21.57q0,42.23,0,84.46a4.7,4.7,0,0,1-.58,2.92Z"/><path class="cls-63" d="M74,122c-.73-2.74-1.67-5.43-2.37-8.18-.47-1.88-1.17-3.7-1.73-5.56s-1.16-3.93-1.74-5.89c-.81-2.76-1.6-5.53-2.46-8.28-.29-.93-.52-1.87-.84-2.79-.24-.68-.45-1.37-.74-2a.19.19,0,0,1,0-.3A2.51,2.51,0,0,1,65,90.4c.82,2.81,1.76,5.58,2.51,8.4.54,2,1.25,4,1.73,6,.41,1.75,1.06,3.45,1.56,5.18.86,2.94,1.84,5.84,2.57,8.82.2.84.79,1.57.68,2.49A.68.68,0,0,1,74,122Z"/><path class="cls-101" d="M74,122l0-.73a19,19,0,0,1,1.28,3.85c.73,2.06,1.29,4.18,1.91,6.28.53,1.77,1.06,3.53,1.57,5.3q.91,3.11,1.8,6.22c.62,2.17,1.25,4.34,1.85,6.52.21.76.74,1.45.6,2.31a.6.6,0,0,1,0,.69c-.78-2.72-1.54-5.45-2.35-8.17-.56-1.89-1.2-3.76-1.77-5.65s-1-3.68-1.59-5.5c-.9-3-1.82-6-2.72-9C74.35,123.49,74.17,122.76,74,122Z"/><path class="cls-5" d="M64.13,89l0,.3a2.15,2.15,0,0,0-1.78-.68c-1.29,0-2.58,0-3.86,0-.7,0-1,.17-.92,1a27.17,27.17,0,0,1,0,4.06c-.06.72.18.81.77.85.88.06,1.79-.28,2.64.22H60.3c-.73,0-1.46,0-2.19,0s-.88-.25-.87-.87c0-1.57,0-3.13,0-4.7,0-.67.3-1,1-1,1.46,0,2.92,0,4.38,0A1.51,1.51,0,0,1,64.13,89Z"/><path class="cls-15" d="M83,152.49l0-.69c.77,1.17.82,2.58,1.26,3.86.53,1.53.83,3.15,1.38,4.69a3.58,3.58,0,0,1,.08.93c-.95-1.15-.91-2.66-1.41-4C83.76,155.74,83.44,154.09,83,152.49Z"/><path class="cls-15" d="M2.39,183.52c.29.33.17.74.17,1.11q0,42.26,0,84.53c0,.37.11.77-.16,1.11,0-.35,0-.7,0-1q0-42.22,0-84.44C2.36,184.36,2.38,183.94,2.39,183.52Z"/><path class="cls-33" d="M49.83,160.75c0-2.77,0-6.09-.18-9.4-.08-1.88.19-1.84,2-2.68a9.34,9.34,0,0,1,2.37-.79c.59-.1.89.1.86.7-.18,4.25.34,8.51-.32,12.76a22.88,22.88,0,0,0,0,4.4,1.45,1.45,0,0,1-1,1.6c-.88.34-1.75.7-2.61,1.06s-1.07.22-1-.7C49.86,165.56,49.83,163.42,49.83,160.75Z"/><path class="cls-102" d="M54.85,138.15a2.85,2.85,0,0,1-1.75,1.34,17.61,17.61,0,0,0-2.47,1c-.74.35-1,.14-1-.66a2.36,2.36,0,0,0,.09-1.13q0-8,0-16a2.2,2.2,0,0,1,.1-1.13c.87-.88,2.09-1,3.16-1.42.61-.23,1.06-1,1.86-.67.19.25.11.54.11.81q0,8.52,0,17C55,137.62,55.07,137.91,54.85,138.15Z"/><path class="cls-30" d="M54.85,138.15q0-9.33,0-18.66c.31.23.2.57.2.87q0,8.41,0,16.83C55.07,137.51,55.21,137.89,54.85,138.15Z"/><path class="cls-30" d="M49.84,121.58q0,8.54,0,17.07c0,.4.14.84-.18,1.2q0-8.7,0-17.4C49.62,122.15,49.55,121.82,49.84,121.58Z"/><path class="cls-31" d="M49.86,104.9c0-2.27,0-4.54,0-6.81,0-.84.28-1.12,1.09-1.07,1,.05,2.1,0,3.14,0,.57,0,.82.16.81.77q0,6,0,11.94c0,1-.69,1.27-1.37,1.47a17.11,17.11,0,0,0-2.7,1.1c-.74.35-1,.29-1-.58C49.89,109.44,49.86,107.17,49.86,104.9Z"/><path class="cls-103" d="M70,123.44c.8,1,.73,2.29,1.17,3.42.65,1.7,1.07,3.5,1.57,5.26a8.59,8.59,0,0,1,.17,1q-.11.17-.24,0c-.8-2.64-1.68-5.26-2.3-8a5.79,5.79,0,0,0-.41-1.08h0A.51.51,0,0,1,70,123.44Z"/><path class="cls-64" d="M66.63,111.93c.69,2.25,1.41,4.49,2,6.75.19.68.7,1.32.44,2.1a5.91,5.91,0,0,1-.81-2.13q-.86-2.89-1.71-5.78c-.09-.3-.14-.6-.21-.91l.08-.07.1,0Z"/><path class="cls-104" d="M72.7,133.14h.24A26.89,26.89,0,0,1,74.43,138a5.85,5.85,0,0,0,.19.57v.64c-.74-1.05-.81-2.35-1.18-3.52A9.57,9.57,0,0,1,72.7,133.14Z"/><path class="cls-64" d="M69.16,120.95a3.94,3.94,0,0,1,.59,1.92A2.46,2.46,0,0,1,69.16,120.95Z"/><path class="cls-64" d="M70,124.11a1.06,1.06,0,0,1,.41,1.08A1.54,1.54,0,0,1,70,124.11Z"/><path class="cls-64" d="M70,123.44l0,.67a1.27,1.27,0,0,1-.2-1.06C70,123.11,70,123.27,70,123.44Z"/><path class="cls-33" d="M73.55,27.5c-.82,1.23-1.67,2.45-2.46,3.7-1,1.53-1.9,3.08-2.84,4.62a1.78,1.78,0,0,1-2,.9c-1.12-.23-2.25-.44-3.37-.66-.37-.08-.67-.24-.56-.71,1.11-1.72,2.25-3.43,3.34-5.17,2-3.23,4.07-6.47,6.06-9.73a1.31,1.31,0,0,1,1.58-.66,15.16,15.16,0,0,0,3.57.65c.36,0,.79.14.7.69A39.46,39.46,0,0,1,75,25.31a10.84,10.84,0,0,1-1.19,1.82Z"/><path class="cls-63" d="M73.81,27.14a36.09,36.09,0,0,1,2.3-3.94c.41-.72.94-1.38,1.41-2.06l0,.29A34.67,34.67,0,0,1,75,25.55C74.67,26.1,74.58,26.89,73.81,27.14Z"/><path class="cls-31" d="M58.61,43.49a18.15,18.15,0,0,0,3.54.72c.48,0,.58.4.29.84q-2.11,3.29-4.18,6.6c-.36.58-.75.76-1.37.39-1-.59-2-1.15-3-1.74-.42-.26-.65-.55-.29-1.1,1-1.54,2-3.12,2.95-4.68A2,2,0,0,1,58.61,43.49Z"/><path class="cls-105" d="M54.9,114.77c0,2.09-.09,2.19-2,2.88-.81.3-1.61.66-2.39,1s-.93.17-.89-.55c0,0,0-.07,0-.1,0-2.81.32-3.25,3.36-4.18a1.5,1.5,0,0,1,.41-.08c.51,0,.85-.89,1.35-.4S54.81,114.38,54.9,114.77Z"/><path class="cls-4" d="M17.7,113.59c.17.67-.22,1.21-.39,1.8-.8,2.8-1.47,5.64-2.38,8.4-.6,1.85-1.08,3.73-1.7,5.57-.68,2-1.21,4-1.81,6.08h-.21l0-.22,2.15-7.34c.64-2.15,1.29-4.3,1.92-6.45.16-.56.26-1.15.39-1.72a2.88,2.88,0,0,0,.61-2.12,1.46,1.46,0,0,1,.4-1.08C17.17,115.6,17.12,114.48,17.7,113.59Z"/><path class="cls-106" d="M55.31,86.78c0,2-.4,2.47-2.29,3.08-.83.27-1.63.61-2.44.93-.32.13-.59.21-.8-.16-.38-.66-.08-3.19.52-3.65A15.87,15.87,0,0,1,54.54,85c.44-.17.74.13.77.59S55.31,86.39,55.31,86.78Z"/><path class="cls-39" d="M54.46,200.54c-.64,1.28-2,1.34-3.12,1.91a10.41,10.41,0,0,0-1.14.5c-.72.49-1,.19-1-.6,0-3.24-.2-2.57,3.19-4,.58-.25,1.18-1,2-.48A5.9,5.9,0,0,1,54.46,200.54Z"/><path class="cls-59" d="M54.46,200.54q0-1.36-.05-2.72A3.3,3.3,0,0,1,54.46,200.54Z"/><path class="cls-102" d="M54.88,144.26a5.24,5.24,0,0,1-3,1.9c-.49.16-.94.43-1.41.64s-.82.09-.82-.51,0-1.39,0-2.09a1.32,1.32,0,0,1,.9-1.26,24,24,0,0,1,3.27-1.28,1.08,1.08,0,0,1,1,.09A4.86,4.86,0,0,1,54.88,144.26Z"/><path class="cls-107" d="M54.88,144.26q0-1.25-.05-2.5A2.93,2.93,0,0,1,54.88,144.26Z"/><path class="cls-108" d="M54.66,172.18c-.31.36-.3.91-.69,1.22-1.19.48-2.37,1-3.57,1.43-.63.24-1,.1-1-.68,0-.56,0-1.12,0-1.67a1.38,1.38,0,0,1,.77-1.28c1.15-.55,2.34-1,3.49-1.55.34-.16.6,0,.9.05a4.58,4.58,0,0,1,.06,2.5Z"/><path class="cls-10" d="M54.66,172.19q0-1.25-.06-2.5A2.76,2.76,0,0,1,54.66,172.19Z"/><path class="cls-81" d="M73.13,141.34a7.88,7.88,0,0,1-.6-1.91A2.35,2.35,0,0,1,73.13,141.34Z"/><path class="cls-109" d="M75.06,147.61a1.1,1.1,0,0,1-.44-1h.2C74.86,146.93,75.15,147.23,75.06,147.61Z"/><path class="cls-110" d="M52.36,94.48H50.7c-.28,0-.59,0-.73-.26s.17-.49.29-.73a1.46,1.46,0,0,1,.8-.62,30.66,30.66,0,0,0,3-1.24c.45-.28.89-.35.91.49C55,94.47,55,94.47,52.36,94.48Z"/><path class="cls-5" d="M63.1,99.93a1.51,1.51,0,0,1,.4,1.08A1.13,1.13,0,0,1,63.1,99.93Z"/><path class="cls-5" d="M64.95,105.86c.36.28.19.68.22,1C64.86,106.59,65,106.2,64.95,105.86Z"/><path class="cls-5" d="M66.63,111.93a.31.31,0,0,1-.16,0l-.05-1C66.76,111.18,66.61,111.57,66.63,111.93Z"/><path class="cls-111" d="M57.39,75.39c.07-.55.44-.62.91-.62,3.06,0,6.13,0,9.19,0A1.37,1.37,0,0,1,69,76.21c0,1,0,1.95,0,2.92a.52.52,0,0,1-.38.13H58.22a.66.66,0,0,1-.39-.11h0c-.07-.28-.56-.42-.3-.8s.51-.16.78-.17c1.54-.07,3.16.32,4.56-.71a.68.68,0,0,0,.28-1A1.21,1.21,0,0,0,62,75.91H58.75a3.58,3.58,0,0,1-1.14-.06Z"/><path class="cls-69" d="M57.61,75.84c1.53,0,3.06,0,4.59,0a1.14,1.14,0,0,1,1.19.83.58.58,0,0,1-.52.82c.36-1,.11-1.41-1-1.44s-2.14,0-3.21,0C58.32,76,57.92,76.15,57.61,75.84Z"/><path class="cls-109" d="M78.17,158.78c-.53-2-1.22-4-1.73-6-.36-1.4-.86-2.78-1.24-4.18a8,8,0,0,1-.15-1c.54.4.47,1.06.62,1.59.84,3,1.95,6,2.55,9.08Z"/><path class="cls-31" d="M74,16.64c.63-.65.81-1.81,1.92-1.9a10.35,10.35,0,0,1,4.42.65c.38.14.38.45.35.78-.08.06-.21.11-.24.19-.76,1.86-2.18,2.09-3.93,1.65a13.36,13.36,0,0,0-1.86-.21C73.92,17.72,73.6,17.39,74,16.64Z"/><path class="cls-65" d="M57.83,79.16l11.09,0,.23,0c-.2.33-.54.26-.85.27H58.68C58.38,79.41,58,79.49,57.83,79.16Z"/><path class="cls-65" d="M69.35,78.33a1.52,1.52,0,0,1,0-1.48Q69.36,77.59,69.35,78.33Z"/><path class="cls-103" d="M7.61,271.1c-.93-.88-1.06-2.15-1.37-3.26-1-3.39-.5-6.89-.5-10.35,0-26.32,0-52.63-.06-78.95,0-2.16-.09-4.31,0-6.47a35.55,35.55,0,0,1,.65-4.72c.5.59.19,1.31.33,2,.11,1.3-.2,2.58-.2,3.87,0,8.56,0,17.12,0,25.68q0,30.79,0,61.57c0,2.94-.1,5.88.95,8.7C7.36,269.81,8.21,270.39,7.61,271.1Z"/><path class="cls-103" d="M8.68,170.72q0,6,0,12,0,41.27,0,82.55c0,1.89.9,3.41,1.71,5a.19.19,0,0,1,0,.28.5.5,0,0,1-.46-.11,1.14,1.14,0,0,1-.22-.25,9.37,9.37,0,0,1-1.52-4.23,80,80,0,0,1-.2-9.84c0-23.42-.07-46.85,0-70.27q0-7.28.19-14.56a1.18,1.18,0,0,1,.13-.39A.25.25,0,0,1,8.68,170.72Z"/><path class="cls-112" d="M8.68,170.72h-.2a2.06,2.06,0,0,1-.25-1.8,24.71,24.71,0,0,1,.56-3.39,22.64,22.64,0,0,1,1-3.95c1.34-4.82,2.77-9.62,4.17-14.43.13-.44.21-1,.85-1a.67.67,0,0,1,0,.67c-.71,2.44-1.43,4.87-2.12,7.31-.89,3.11-1.74,6.23-2.64,9.34A30.66,30.66,0,0,0,8.68,170.72Z"/><path class="cls-113" d="M26.58,106.69l-3,10.34-2.42,8.23-.71,2.41c-.12.66-.51,1.24-.6,1.91h0a.23.23,0,0,1-.31-.05,1.64,1.64,0,0,1,0-1.41c1.4-4.56,2.73-9.14,4.05-13.73.69-2.37,1.46-4.72,2.1-7.11a.87.87,0,0,1,.56-.7A.4.4,0,0,1,26.58,106.69Z"/><path class="cls-114" d="M26.58,106.69l-.32,0a2.45,2.45,0,0,1,.13-1.64c.77-2.28,1.37-4.61,2.07-6.92.32-1.05.83-1.86,2.1-1.8a1.06,1.06,0,0,0,.69-.21c.2-.15.38-.33.29-.61s-.32-.26-.52-.26c-1.16,0-2.4-.32-3.35.71a.24.24,0,0,1-.36,0,1,1,0,0,1,.76-1.22,5.9,5.9,0,0,1,4.14,0C32.54,96.19,32,97,30.51,97a1.1,1.1,0,0,0-1.23.87l-1.74,5.68C27.22,104.56,26.9,105.63,26.58,106.69Z"/><path class="cls-115" d="M19.6,129.56l.23,0c0,1.42-.67,2.68-1,4-.75,2.81-1.66,5.58-2.51,8.36-.5,1.62-1,3.23-1.52,4.85l0-.69a1.15,1.15,0,0,1-.09-1.19c1.09-3.49,2.11-7,3.17-10.5.32-1.06.66-2.13.93-3.21A2.51,2.51,0,0,1,19.6,129.56Z"/><path class="cls-116" d="M25,102.88l0-.19a16.64,16.64,0,0,1,.61-1.9h0a.22.22,0,0,1,.31.05,1.52,1.52,0,0,1,0,1.31c-1.23,3.8-2.34,7.64-3.42,11.48-.15.55-.14,1.28-.93,1.46a1.91,1.91,0,0,1,.22-1.49c.21-.55.28-1.12.45-1.67h0c.13-.66.49-1.24.61-1.9,0-.82.55-1.5.65-2.3C24.11,106.12,24.54,104.49,25,102.88Z"/><path class="cls-53" d="M18.08,126.16c.52-1.84,1-3.68,1.58-5.51.38-1.3.8-2.59,1.2-3.89a.21.21,0,0,1,.3.05,1.76,1.76,0,0,1,0,1.52c-.79,2.27-1.41,4.59-2.06,6.9-.12.43-.18.91-.71,1.08A.35.35,0,0,1,18.08,126.16Z"/><path class="cls-117" d="M11.2,149.72c.42-1.54.82-3.09,1.28-4.61.74-2.46,1.52-4.91,2.28-7.37a1,1,0,0,1,.28.78c.06.91-.53,1.63-.7,2.48a18.65,18.65,0,0,0-.62,1.82,2.75,2.75,0,0,1-.08.28,9.62,9.62,0,0,1-.56,1.88c0,.09-.05.18-.09.27a8.86,8.86,0,0,1-.53,1.89l-.1.27a5.35,5.35,0,0,1-.91,2.33A.23.23,0,0,1,11.2,149.72Z"/><path class="cls-118" d="M25.91,100.8h-.23a28.11,28.11,0,0,1,1.58-5.61.68.68,0,0,1,.12-.17c.68-.89,4-1.08,4.81-.29a9.7,9.7,0,0,0-3.53-.11A1.27,1.27,0,0,0,27.37,96,9,9,0,0,1,25.91,100.8Z"/><path class="cls-119" d="M11.2,149.72h.2a.42.42,0,0,1,.15.38,2,2,0,0,1,0,.28,9.53,9.53,0,0,1-.37,1.58c-.54,2-1.2,4-1.7,6a2.23,2.23,0,0,1-.56,1.2.45.45,0,0,1-.31.1l-.13-.1c.51-1.84,1-3.69,1.53-5.53C10.34,152.3,10.78,151,11.2,149.72Z"/><path class="cls-120" d="M6.39,169.27v-1.91c.47-2.14.93-4.28,1.42-6.42a2.48,2.48,0,0,1,.46-1.15.62.62,0,0,1,.22.41,1.48,1.48,0,0,1-.06.62,2.9,2.9,0,0,0-.32,1.13,3.31,3.31,0,0,1-.09.6,7.47,7.47,0,0,0-.17,1.07c-.08.32-.17.63-.24.95a30.48,30.48,0,0,1-.7,3.91C6.8,168.78,6.87,169.2,6.39,169.27Z"/><path class="cls-121" d="M18.08,126.16l.28.05a.83.83,0,0,1,.18.87,60.74,60.74,0,0,1-2,6.51.8.8,0,0,1-.24.23.25.25,0,0,1-.29-.1l1.46-5.44c.29-.37.25-.86.46-1.25C17.9,126.72,17.82,126.4,18.08,126.16Z"/><path class="cls-122" d="M10,270.24l.41.23c1.13.93,1.14,1.52,0,1.94a3.07,3.07,0,0,1-2.76-1.14.29.29,0,0,0,0-.17c.24-.65-.5-1.07-.41-1.68.69-.08.71.53.91.92s.5,1,1.14,1.09,1.08.12.64-.71A.39.39,0,0,1,10,270.24Z"/><path class="cls-123" d="M10.48,272.32c1.12-.69.15-1.25-.12-1.85l0-.26c.61.52,1.44,1.13,1.13,1.94s-1.36.28-2.07.4a.81.81,0,0,1-.78-.2A3.85,3.85,0,0,1,10.48,272.32Z"/><path class="cls-10" d="M21.12,116.77l-.26,0a37,37,0,0,1,1.48-4.82c.13,1.12-.73,2-.63,3.15A1.12,1.12,0,0,1,21.12,116.77Z"/><path class="cls-100" d="M47.73,245.06h7.8c-.25.26-.58.19-.88.19h-6C48.3,245.25,48,245.33,47.73,245.06Z"/><path class="cls-118" d="M25,102.88a22.24,22.24,0,0,1-1.44,4.85A18.93,18.93,0,0,1,25,102.88Z"/><path class="cls-24" d="M14.8,138.61l0-.88.64-2.09a.22.22,0,0,1,.3,0A2.7,2.7,0,0,1,14.8,138.61Z"/><path class="cls-103" d="M10.48,272.33l-1.82,0c-.44-.26-1-.38-1-1.08A5.83,5.83,0,0,0,10.48,272.33Z"/><path class="cls-121" d="M15.62,135.66H15.4a3.7,3.7,0,0,1,.58-1.94l.1.09c.33.47.06.92-.07,1.37A1,1,0,0,1,15.62,135.66Z"/><path class="cls-115" d="M19.83,129.57a3.21,3.21,0,0,1,.6-1.91A3.09,3.09,0,0,1,19.83,129.57Z"/><path class="cls-118" d="M25.68,100.79a4.05,4.05,0,0,1-.61,1.9A2.67,2.67,0,0,1,25.68,100.79Z"/><path class="cls-10" d="M23,110a3.31,3.31,0,0,1-.61,1.9A3.23,3.23,0,0,1,23,110Z"/><path class="cls-4" d="M86.16,163.79c.41.61.14,1.29.19,1.94A5.25,5.25,0,0,1,86.16,163.79Z"/><path class="cls-53" d="M17.9,127a1.38,1.38,0,0,1-.46,1.25A2,2,0,0,1,17.9,127Z"/><path class="cls-119" d="M8.31,160.28l0-.49.17-.66.1.08a.85.85,0,0,1,.06.93A.28.28,0,0,1,8.31,160.28Z"/><path class="cls-124" d="M8.31,160.28a.41.41,0,0,0,.16-.08c.29-.29,0-.73.23-1A38.17,38.17,0,0,0,10,155c.35-1.07.66-2.16,1-3.24.47-.46.25-1.12.47-1.65h0a11.63,11.63,0,0,0,.83-2.95h0a4.28,4.28,0,0,0,.62-2.11h0a4.15,4.15,0,0,0,.64-2.09h0a13,13,0,0,0,.62-1.9c0-.9.73-1.58.66-2.48a6,6,0,0,0,.83-3l.18-.46c.38-.41.26-1,.43-1.44.66-2.14,1.33-4.28,2-6.42a6.81,6.81,0,0,0,.15-1.13,6.09,6.09,0,0,0,.87-2.65c.62-2.27,1.6-4.44,1.89-6.79a2.8,2.8,0,0,0,.59-1.68,19.12,19.12,0,0,0,1.4-4.22c.93-2.93,1.68-5.92,2.68-8.83a2.42,2.42,0,0,0,.12-1.23A43.3,43.3,0,0,0,27.37,96a2,2,0,0,1,2.27-1.09c.41.06.84,0,1.26,0s1-.27,1.09.43a1.14,1.14,0,0,1-1,1.25c-2,.39-1.9.4-2.39,2.31s-1.21,3.9-1.8,5.85c-.19.63-.33,1.28-.5,1.92-.68.82-.51,1.9-.88,2.84-.71,1.8-1.08,3.72-1.62,5.59s-1.22,3.9-1.8,5.86-1.19,3.92-1.68,5.91c-.22.9-.87,1.71-.67,2.71-1,3.13-1.85,6.32-2.84,9.46-.62,1.95-1,4-1.82,5.86a5.52,5.52,0,0,0-.2,1.23,4.1,4.1,0,0,0-.7,1.82c-.58,2-1.24,4-1.82,6S11.1,158,10.54,160a50.54,50.54,0,0,0-1.45,5.44,7.36,7.36,0,0,0-.67,3.45c-.11,1.28-.29,2.56-.29,3.86-.15,30.25,0,60.49-.08,90.74a12.45,12.45,0,0,0,.18,2.29l.08.35A8.93,8.93,0,0,0,10,270.25h0c0,.07,0,.14,0,.21,0,.44,1,.77.37,1.16a1.59,1.59,0,0,1-1.94-.28,2.28,2.28,0,0,1-.54-1,1.21,1.21,0,0,0-.64-.9,18.39,18.39,0,0,1-1-7.2q0-42.09,0-84.17c0-2.93.21-5.85.21-8.77a46.24,46.24,0,0,0,1-4.86,2.44,2.44,0,0,0,.41-.94c0-.52.17-1,.14-1.55a2.59,2.59,0,0,1,.32-1.06Z"/><path class="cls-122" d="M8.27,266.25a1.12,1.12,0,0,1-.42-1c0-.56,0-1.12,0-1.68q0-39.57,0-79.14c0-4.16-.09-8.33.12-12.49.09-1.78.42-3.58.6-5.37a1.85,1.85,0,0,1,.57-1.1,21.82,21.82,0,0,0-.61,5.26.38.38,0,0,0,0,.17,43.88,43.88,0,0,0-.08,4.71c0,2.27,0,4.55,0,6.82-.48,27.08-.06,54.17-.23,81.26C8.13,264.55,8.61,265.38,8.27,266.25Z"/><path class="cls-112" d="M8.27,266.25c-.5-15.55-.12-31.1-.21-46.65-.07-11.71-.13-23.43,0-35.14.06-4.29.07-8.59.15-12.88a.89.89,0,0,1,.19-.68c0,4,.18,7.91,0,11.86-.15,2.94-.14,5.86-.14,8.8q0,36,0,72c0,.9.13,1.8.19,2.71q-.1.15-.2,0Z"/><path class="cls-122" d="M8.27,266.26a.63.63,0,0,1,.2,0c.05,1.49,1,2.65,1.48,4A5.76,5.76,0,0,1,8.27,266.26Z"/><path class="cls-125" d="M12.25,147.2a4.3,4.3,0,0,1-.83,2.95l0-.43Z"/><path class="cls-125" d="M13.51,143c0,.77.19,1.58-.64,2.09Z"/><path class="cls-125" d="M12.87,145.09c0,.77.1,1.56-.62,2.11Z"/><path class="cls-125" d="M14.13,141.1a2.41,2.41,0,0,1-.62,1.9A4.17,4.17,0,0,1,14.13,141.1Z"/><path class="cls-125" d="M11.42,150.14c0,.58.18,1.24-.47,1.65Z"/><path class="cls-126" d="M8.69,159.17c0,.35.1.74-.23,1l.07-1A.25.25,0,0,1,8.69,159.17Z"/><path class="cls-127" d="M8,161.89c0,.58.17,1.18-.17,1.72l-.12-.12a2.45,2.45,0,0,1,.05-1l.06-.59Q7.93,161.76,8,161.89Z"/><path class="cls-126" d="M8,161.89l-.17,0a1.16,1.16,0,0,1,.39-1.07C8.38,161.24,8.07,161.53,8,161.89Z"/><path class="cls-127" d="M7.88,163.61c0,.34-.06.69-.48.8l.23-.84a.11.11,0,0,1,.18,0Z"/><path class="cls-126" d="M7.81,163.55a.42.42,0,0,1-.18,0,1.63,1.63,0,0,1,.18-1.06Q7.81,163,7.81,163.55Z"/><path class="cls-24" d="M16.24,133.76c0,.52.12,1.08-.43,1.44l.28-1.39A.24.24,0,0,1,16.24,133.76Z"/><text class="cls-128" transform="translate(97.57 174.22) scale(1 1.45)">Beet <tspan x="0" y="33.1">Street </tspan><tspan x="0" y="66.21">Juicery</tspan></text><text class="cls-128" transform="translate(221.3 270.22) scale(1 1.5)"> </text></g></g></svg>