<?xml version="1.0" encoding="utf-8"?>
<!-- Generator: Adobe Illustrator 21.1.0, SVG Export Plug-In . SVG Version: 6.00 Build 0)  -->
<svg version="1.1" id="Layer_1" xmlns="http://www.w3.org/2000/svg" xmlns:xlink="http://www.w3.org/1999/xlink" x="0px" y="0px"
	 viewBox="0 0 240.4 299.7" style="enable-background:new 0 0 240.4 299.7;" xml:space="preserve">
<style type="text/css">
	.st0{fill:#010201;}
	.st1{fill:#919193;}
	.st2{fill:#7F8081;}
	.st3{fill:#BEBEBF;}
	.st4{fill:#BDBDBE;}
	.st5{fill:#3D3E3F;}
	.st6{fill:#B0AFB0;}
	.st7{fill:#AAAAAC;}
	.st8{fill:#B6B5B6;}
	.st9{fill:#B1B1B2;}
	.st10{fill:#B6B6B8;}
	.st11{fill:#666667;}
	.st12{fill:#636364;}
	.st13{fill:#C0C0C1;}
	.st14{fill:#B5B5B6;}
	.st15{fill:#7B7A7B;}
	.st16{fill:#ABAAAC;}
	.st17{fill:#BEBDBE;}
	.st18{fill:#606061;}
	.st19{fill:#939395;}
	.st20{fill:#656465;}
	.st21{fill:#ABABAC;}
	.st22{fill:#B2B2B3;}
	.st23{fill:#6E6D6E;}
	.st24{fill:#B6B6B7;}
	.st25{fill:#A9A8A9;}
	.st26{fill:#6A6A6B;}
	.st27{fill:#D8D9D9;}
	.st28{fill:#C1C1C1;}
	.st29{fill:#C1C0C1;}
	.st30{fill:#FDFDFD;}
	.st31{fill:#0E0F0F;}
	.st32{fill:#FEFEFE;}
	.st33{fill:#F9F8F8;}
	.st34{fill:#949597;}
	.st35{fill:#ACADAF;}
	.st36{fill:#EFEFEE;}
	.st37{fill:#3E3E40;}
	.st38{fill:#F9F9F9;}
	.st39{fill:#EDECEC;}
	.st40{fill:#8B8A8C;}
	.st41{fill:#F7F7F7;}
	.st42{fill:#545555;}
	.st43{fill:#FBFAFA;}
	.st44{fill:#717273;}
	.st45{fill:#B0B0B1;}
	.st46{fill:#9D9D9E;}
	.st47{fill:#4E4F50;}
	.st48{fill:#C7C7C8;}
	.st49{fill:#474748;}
	.st50{fill:#3D3F40;}
	.st51{fill:#38393A;}
	.st52{fill:#AEAEAF;}
	.st53{fill:#525253;}
	.st54{fill:#BBBABB;}
	.st55{fill:#AFAFB1;}
	.st56{fill:#BFBFC0;}
	.st57{fill:#525353;}
	.st58{fill:#C2C2C3;}
	.st59{fill:#ACABAD;}
	.st60{fill:#929294;}
	.st61{fill:#B3B3B4;}
	.st62{fill:#BABABB;}
	.st63{fill:#A4A4A6;}
	.st64{fill:#888889;}
	.st65{fill:#4D4E4E;}
	.st66{fill:#5C5C5D;}
	.st67{fill:#B8B8B9;}
	.st68{fill:#A8A8AA;}
	.st69{fill:#8D8D8F;}
	.st70{fill:#838385;}
	.st71{fill:#9C9C9D;}
	.st72{fill:#4D4D4E;}
	.st73{fill:#646465;}
	.st74{fill:#5F5F5F;}
	.st75{fill:#3C3D3E;}
	.st76{fill:#3E3F3F;}
	.st77{fill:#505051;}
	.st78{fill:#47494A;}
	.st79{fill:#59595A;}
	.st80{fill:#AFAFB0;}
	.st81{fill:#5D5D5E;}
	.st82{fill:#69696A;}
	.st83{fill:#48494A;}
	.st84{fill:#595A5B;}
	.st85{fill:#767678;}
	.st86{fill:#3B3C3C;}
	.st87{fill:#454546;}
	.st88{fill:#58595A;}
	.st89{fill:#5F5E5F;}
	.st90{fill:#555556;}
	.st91{fill:#585859;}
	.st92{fill:#B4B3B4;}
	.st93{fill:#B5B4B6;}
	.st94{fill:#555555;}
	.st95{fill:#A5A5A6;}
	.st96{fill:#ACACAD;}
	.st97{fill:#B9B9BA;}
	.st98{fill:#FFFFFF;}
	.st99{fill:#B3B4B5;}
	.st100{fill:#B7B6B7;}
	.st101{fill:#FCFCFC;}
	.st102{fill:#C1C1C2;}
	.st103{fill:#B9B8B9;}
	.st104{fill:#F8F8F8;}
	.st105{fill:#F7F6F6;}
	.st106{fill:#B4B4B5;}
	.st107{fill:#F6F6F6;}
	.st108{fill:#B3B2B4;}
	.st109{fill:#F4F3F3;}
	.st110{fill:#FAF9F9;}
	.st111{fill:#9F9FA0;}
	.st112{fill:#79797A;}
	.st113{fill:#777778;}
	.st114{fill:#AEADAE;}
	.st115{fill:#858688;}
	.st116{fill:#959597;}
	.st117{fill:#BBBBBC;}
	.st118{fill:#848486;}
	.st119{fill:#979799;}
	.st120{fill:#929295;}
	.st121{fill:#5C5C5C;}
	.st122{fill:#C5C5C6;}
	.st123{fill:#050506;}
	.st124{fill:#474848;}
	.st125{fill:#696869;}
	.st126{fill:#353536;}
	.st127{fill:#231F20;}
	.st128{font-family:'MadreScript';}
	.st129{font-size:59px;}
	.st130{fill:none;stroke:#231F20;stroke-width:0.25;stroke-miterlimit:10;}
</style>
<path class="st0" d="M84,288.1c-0.4,0.3-0.9,0.5-1.3,0.9c-1.3,0.8-2.8,1.2-4.2,1.1c-21.9,0-43.7,0-65.6,0c-0.5,0-1,0-1.5,0
	c-2.1-0.5-4.1-1.5-5.7-3c-2.3-2.1-3.7-4.9-4.2-8c-0.1-0.4-0.1-0.8-0.3-1.2c0-35.7,0-71.3,0-107c0.1-4,0.7-7.9,1.8-11.8
	c0.6-2.5,1.4-5,2.1-7.6c1.3-4,2.4-8.1,3.6-12.2c0.4-1.7,1-3.4,1.4-5.1c0.6-1.4,1-2.9,1.4-4.4c0.3-1.1,0.7-2.2,1-3.3
	c0.6-1.9,1.2-3.8,1.7-5.8c0.2-0.8,0.6-1.6,0.7-2.4c0-0.1,0-0.2,0-0.3c0.2-0.6,0.4-1.2,0.5-1.8c0-0.1,0-0.2,0.1-0.3
	c0.2-0.3,0-0.7,0.1-1c0-0.1,0.1-0.2,0.1-0.3c0.5-1.1,0.9-2.3,1.1-3.5c0-0.3,0.1-0.6,0.2-0.9c0.5-1.1,0.9-2.3,1.2-3.6
	c0.4-1.5,0.9-3.1,1.4-4.6c0.1-0.3,0.1-0.7,0.1-1c0-0.1,0.1-0.2,0.1-0.3c0.4-0.6,0.6-1.3,0.6-2c0-0.1,0.1-0.2,0.1-0.3
	c0.5-0.6,0.4-1.4,0.5-2.1c0.5-2.2,1.3-4.2,2-6.4c0.1-0.3,0.1-0.5,0.2-0.8c0.2-0.7-0.1-1-0.8-1c-2.7-0.1-3.8-1.2-3.8-3.9
	s0.1-5.4,0-8.2c-0.1-2.4,0.7-3.8,3.6-4.2c8.3,0,16.6,0,25,0c1.3,0,1.3,0,1.3-1.3c0-1.4,0-2.9,0-4.3c0.1-1-0.3-1.9-1-2.5
	c-0.8-0.5-1-1.6-0.4-2.3c0.2-0.4,0.2-0.8,0-1.2c-0.4-0.7-0.4-1.5,0-2.2c0.3-0.3,0.3-0.8,0-1.2c-0.3-0.3-0.5-0.8-0.4-1.3
	c0.6-1.4,0.4-3,1.1-4.4c0.5-0.7,1-1.5,1.3-2.3c0.2-0.7,0.9-1.1,1.6-0.9c1.1,0.2,1.7-0.4,2.3-1.4c1.8-2.9,3.6-5.9,5.5-8.8
	c0.7-1.3,1.7-2.5,2.3-3.8c0.7-1,1.2-2.1,2-3c0.3-0.3,0.5-0.6,0.7-1c0-0.1,0.1-0.2,0.2-0.2c1.6-2.2,2.9-4.6,4.4-6.8
	c0.2-0.3,0.4-0.6,0.5-1c1.4-2.1,2.7-4.2,4-6.3c1-1.6,2-3.2,2.8-4.9c1.6-2.5,3.2-5.1,4.9-7.6c0.7-0.7,1-1.7,1.7-2.4
	c0.5-0.5,1-0.8,1.7-0.5c0.1,0,0.2,0.1,0.3,0.1c1.9,1.5,4,2.7,6,4.1c0.1,0.1,0.1,0.2,0.2,0.3c0.1,0.4,0.1,0.8,0,1.2
	c0,0.1-0.1,0.2-0.1,0.3c-0.6,0.7-1,1.5-1.4,2.3c-0.3,0.6-0.7,1.1-1.1,1.7c-1,1.5-1.9,2.9-2.8,4.5c0,0.1-0.1,0.2-0.2,0.2
	c-0.7,1-1.4,2-1.9,3.1c0,0.1-0.1,0.2-0.2,0.2c-0.3,0.3-0.4,0.6-0.6,1c-0.1,0.3-0.3,0.5-0.4,0.7c-0.9,1.2-1.7,2.4-2.4,3.7
	c0,0.1-0.1,0.2-0.1,0.2c-0.3,0.3-0.4,0.6-0.6,0.9c0,0.1-0.1,0.2-0.1,0.2c-0.4,0.5-0.8,1.1-1.1,1.7c-0.1,0.1-0.2,0.3-0.3,0.5
	c-0.5,0.6-1,1.3-1.3,2.1c0,0.1-0.1,0.2-0.2,0.2c-0.2,0.2-0.3,0.4-0.3,0.6c0,0.1-0.1,0.2-0.1,0.3c-1.7,2.6-3.4,5.2-5,7.9
	c-0.2,0.3-0.4,0.6-0.7,0.9c-1.8,2.8-3.5,5.6-5.3,8.4c-1,1.7-2,3.3-3.1,5c-0.6,1-0.3,2-0.5,3c-0.6,1.5-0.8,3.2-0.7,4.8
	c0,0.3,0,0.7,0.1,1c0.3,1,0,2.2-0.8,2.9c-0.5,0.5-0.8,1.1-0.8,1.8c0,1.6,0,3.1,0,4.7c0,1,0.2,1.2,1.3,1.2c2.9,0,5.8,0,8.7,0
	c1.9,0,3.3,0.6,4,2.5c0.1,1.7,0.2,3.3,0.1,5c0,1.6,0,3.2,0,4.8c0.2,1.8-1.1,3.4-2.9,3.6c-0.2,0-0.4,0-0.6,0
	c-1.3,0.1-1.4,0.3-0.9,1.5c0.3,0.8,0.4,1.8,0.7,2.6c0.6,1.9,1.2,3.8,1.7,5.8s1.1,3.6,1.6,5.4c0.6,2.1,1.2,4.3,1.9,6.4
	c0.6,1.8,1,3.6,1.6,5.4c0.3,1.3,0.7,2.7,1.2,4c0.6,1.8,1,3.8,1.7,5.6c0.2,0.9,0.5,1.9,0.9,2.8c0.8,3.1,1.8,6.2,2.7,9.3
	c0.1,0.4,0.2,0.7,0.3,1.1c0.3,1.2,0.7,2.5,1.2,3.6c0.7,2.7,1.7,5.3,2.2,8c0.5,1.9,1.2,3.9,1.8,5.8c1.6,5.3,2.9,10.7,2.7,16.3
	c-0.1,2.9-0.1,5.8,0,8.7c0.5,29.1,0.1,58.1,0.2,87.2c0.1,1.5,0,3-0.2,4.5c-0.2,1.5,0.3,2.9,0.2,4.4c0,1.2-0.2,2.4-0.5,3.5
	C88.9,283.5,86.6,285.9,84,288.1z"/>
<path class="st1" d="M89.5,280.5c0.4-2.2,0.5-4.4,0.2-6.7c-0.3-1.4,0.2-2.7,0.2-4.1c0-28,0.1-56.1-0.1-84.1c0-6.8,0.2-13.6-0.4-20.4
	c-0.1-1.7-0.5-3.3-1-4.9c-0.6-1.7-1-3.5-1.5-5.2c-0.5-1.6-0.8-3.2-1.4-4.7c-0.1-0.3-0.1-0.6-0.1-0.9c0.1-0.1,0.2-0.1,0.2,0l0.8,2.8
	c0.3,0.4,0.3,0.8,0.4,1.2s0,0.6,0.2,0.9s0.2,0.9,0.4,1.2l0,0c0.2,0.3-0.1,0.7,0.2,1c1.1,3,1.8,6.1,2.1,9.2c0.1,1.2,0.3,2.3,0.3,3.5
	c0,4-0.1,7.9,0,11.9c0.5,29.6,0.1,59.3,0.2,89c0,1.2-0.4,2.4-0.2,3.5c0.2,1,0.2,2.1,0.2,3.1c0,1-0.2,2.1-0.5,3.1
	c-0.1,0.8-0.4,1.6-0.8,2.3C88.7,281.5,89.4,281.1,89.5,280.5z"/>
<path class="st2" d="M5.3,151.2c-0.1,1-0.3,1.9-0.8,2.8c-0.7,2.2-1.2,4.5-1.8,6.8c-0.6,2.7-0.9,5.4-1.2,8.2c-0.6,5-0.3,9.9-0.3,14.9
	c-0.1,30.8-0.1,61.5,0,92.3c-0.1,0.7,0,1.4,0.2,2c0.1,0.8,0.5,1.6,0.2,2.5c-0.6-1.3-0.9-2.8-0.7-4.2c0-14.5,0-29,0-43.6
	c0-20.7,0-41.3,0-61.9c0.1-3.9,0.7-7.7,1.7-11.5c0.7-3,1.5-5.9,2.5-8.7C5.4,150.8,5.4,151,5.3,151.2z"/>
<path class="st3" d="M71.2,72.9c1.3,0.2,1.4,1.4,1.4,2.4c0.2,3.5,0.2,7-0.1,10.5c-0.1,1.7-1.6,2.9-3.2,2.8c0,0,0,0,0,0
	c-0.9,0-1.3,0.1-1,1.2c0.9,2.7,1.6,5.5,2.4,8.2c1.1,3.7,2.2,7.4,3.3,11.1c1,3.4,2,6.7,3,10.1c1.1,3.7,2.2,7.3,3.2,11
	c0.8,2.8,1.7,5.6,2.5,8.4c0.1,0.4,0.2,0.8,0.2,1.2c-0.1,0.1-0.2,0.1-0.3,0c0,0,0,0,0,0c-0.3-0.6-0.5-1.2-0.7-1.8
	c-0.2-1.2-0.5-2.4-1-3.5c-0.7-2.4-1.4-4.7-2.1-7c0-0.1-0.1-0.2-0.1-0.3c-0.4-1.1-0.8-2.2-1.1-3.4c-0.7-2.1-1.2-4.2-1.9-6.3
	c-0.2-0.9-0.4-1.8-0.8-2.6c-0.7-2.4-1.4-4.7-2.1-7.1c-0.5-1.7-1-3.5-1.5-5.3c-0.4-1.3-0.8-2.5-1.1-3.8s-0.7-2.2-1-3.4
	c-0.3-1.1-0.6-2.1-1-3.2c-0.2-1.1-0.5-2.1-0.9-3.1c-0.3-0.6,0.2-1.1,1.1-1.1c0.7,0,1.4-0.1,2-0.4c0.9-0.4,1.5-1.2,1.5-2.2
	c0.1-3.6,0.1-7.2,0-10.8c0-0.1,0-0.1-0.1-0.2C71.6,74,71.4,73.4,71.2,72.9z"/>
<path class="st4" d="M89.9,279.9c0.4-2.1,0.5-4.2,0.2-6.2c0-1.2,0-2.3,0.2-3.4c0-28.2,0.1-56.5-0.1-84.7c0-5.7,0-11.3-0.2-17
	c-0.1-0.9-0.2-1.8-0.2-2.7c0.3,0.9,0.4,1.8,0.4,2.8c0.1,0.6,0,1.3,0,1.9c0.3,33.2,0.2,66.4,0.2,99.6c0,2.3,0.1,4.6,0,6.9
	C90.6,278,90.4,279,89.9,279.9z"/>
<path class="st5" d="M71.2,72.9c0.3,0.5,0.8,0.8,0.9,1.4c0.1,0.1,0.1,0.3,0,0.4c0,0,0,0,0,0c-0.8-1.9-2.4-2.4-4.3-2.3
	c-2.8,0-5.6,0-8.4,0c-1,0-1.4-0.4-1.3-1.4c0-1.6,0-3.2,0-4.7c-0.1-0.8,0.3-1.6,0.9-2.1c0.6-0.4,0.9-1.1,0.8-1.8
	c-0.5-2.3,0.2-4.5,0.4-6.8c0.3-3,2-5,3.4-7.3c1.4-2.3,2.8-4.5,4.3-6.7c0.4-0.9,0.9-1.6,1.5-2.3c0.1,0.1,0.1,0.2,0.1,0.3
	c-0.5,1-1.1,2-1.8,2.9c-0.2,0.5-0.5,1-0.9,1.4c-0.8,1.4-1.6,2.8-2.5,4.1c-1,1.5-1.9,3.1-2.9,4.6c-0.3,0.3-0.4,0.7-0.5,1.2
	c0.1,1.8-0.8,3.5-1,5.3c-0.1,0.9,0,1.9,0.2,2.8c0.3,0.9,0,2-0.8,2.6c-0.7,0.5-1,1.4-0.9,2.2c0.1,1.5,0.1,2.9,0,4.4
	c-0.1,1,0,1.1,1,1.1c3,0,6,0,9,0C69.5,72,70.4,72.3,71.2,72.9L71.2,72.9z"/>
<path class="st6" d="M48.2,51.2c-0.4,0.7-0.6,1.5-0.5,2.3c0.1,0.3,0,0.6-0.2,0.8c-0.7,0.9-0.7,2.2,0.1,3c0.3,0.3,0.1,0.7-0.1,1
	c-0.5,0.6-0.6,1.5-0.1,2.1c0.3,0.4,0.3,0.9,0,1.2c-0.5,0.6-0.4,1.5,0.3,2c0.9,0.8,1.3,1.9,1.2,3c-0.1,1.3,0,2.6,0,3.9
	c0,1.6,0,1.6-1.7,1.6h-15c-3.3,0-6.6,0-9.9-0.1c-0.4,0.2-0.9,0.2-1.4,0c0.5-0.2,1.1-0.3,1.7-0.2c8.1,0,16.3,0,24.4,0
	c1,0,1.3-0.2,1.2-1.3c-0.1-1.5-0.1-3.1,0-4.6c0.1-0.7-0.2-1.5-0.8-1.9c-0.8-0.6-1.1-1.6-0.6-2.5c0.1-0.3,0.3-0.6,0.2-0.9
	c-0.5-0.9-0.5-2,0.1-2.9c0.3-0.6-0.6-0.8-0.5-1.4c-0.1-0.4-0.1-0.8,0-1.2c0-0.4,0.3-0.7,0.4-1c0.3-0.6,0-1.3,0.2-2
	c0.1-0.4,0.3-0.9,0.6-1.2C48,51.1,48.1,51.1,48.2,51.2C48.2,51.2,48.2,51.2,48.2,51.2z"/>
<path class="st7" d="M21,72.2h1.4l-0.9,0.2c-1.8,0.5-2.3,1.3-2.3,3.1c0,3.1,0.1,6.3,0,9.4c-0.1,2,1.1,3,3.2,3.2
	c1.5,0.1,1.6,0.1,1.2,1.5c-0.6,2.4-1.4,4.7-2.1,7.1c0,0.7-0.2,1.5-0.6,2.1l0,0c-0.2,0.7-0.1,1.5-0.6,2.1l0,0
	c-0.3,0.3,0.2,0.9-0.4,1.1c-0.1-0.1-0.1-0.2,0-0.3c-0.3-0.3-0.2-0.7,0-1c0.1-0.4,0.2-0.9,0.4-1.3c0-0.3,0.1-0.6,0.2-0.8
	c0.2-0.6,0.3-1.3,0.6-1.9c0.1-0.3-0.1-0.8,0.2-1.1c0.2-0.6,0.5-1.2,0.6-1.9c0.4-1.4,0.9-2.9,1.3-4.3c0.2-0.8,0-1-0.8-1
	c-2.5,0-3.9-1.5-3.9-4c0-2.9,0-5.8,0-8.7C18.4,74.2,19.4,72.7,21,72.2z"/>
<path class="st8" d="M71.2,72.9c-1.4-0.6-2.9-0.8-4.4-0.6c-2.3,0-4.7,0-7,0c-1.4,0-1.4,0-1.4-1.4s0-2.9,0-4.3
	c-0.1-0.8,0.2-1.7,0.9-2.2c0.8-0.6,1.1-1.6,0.7-2.6c-0.6-2.2,0.4-4.2,0.5-6.4c0.3-3.5,2.8-5.8,4.3-8.6c0.5-1.1,1.2-2.1,2-3
	c-0.1,1.2-1.1,2.1-1.6,3c-1.2,2-2.5,4-3.7,6c-0.2,0.2-0.3,0.5-0.3,0.8c0,2-0.9,3.9-1.1,5.9c-0.1,0.7,0,1.5,0.2,2.2
	c0.4,1.1,0.1,2.3-0.8,3c-0.6,0.5-0.9,1.2-0.8,2c0.2,1.4,0.2,2.9,0,4.3C58.6,72,59,72,59.8,72c3.1,0,6.3,0,9.4,0
	C70,71.9,70.7,72.3,71.2,72.9z"/>
<path class="st9" d="M48.2,51.2h-0.3c0.4-0.5,0.8-1.1,1-1.8c0.2-1,1.2-1.6,2.2-1.5c0.8,0.1,1.5-0.3,1.8-1c1.8-2.9,3.6-5.8,5.4-8.7
	c0.1-0.1,0.1-0.2,0.2-0.2c0.1-0.1,0.2,0,0.3,0c-1.3,2.5-2.9,4.7-4.3,7.1c-0.5,0.9-1.1,1.7-1.6,2.6c-0.3,0.6-0.9,0.9-1.5,0.8
	c-1-0.3-1.9,0.3-2.2,1.3c0,0.1,0,0.1,0,0.2C48.9,50.5,48.6,50.9,48.2,51.2z"/>
<path class="st10" d="M67.7,42.4l1.7-2.9c1.4-2.5,3.1-4.8,4.5-7.3c0.4-0.5,0.8-1.1,1.1-1.7l0,0c0.1-0.2,0.2-0.5,0.4-0.6l0,0
	c0.5-0.8,0.9-1.6,1.4-2.3l0.2-0.4c0.6-0.5,0.8-1.3,1.3-1.9l0,0c0.1-0.4,0.4-0.8,0.7-1l0,0c0.1-0.2,0.2-0.3,0.4-0.2
	c0.1,0.1,0.1,0.2,0,0.3c-1.5,2.4-2.9,4.8-4.4,7.2s-3.1,4.9-4.7,7.3c-0.7,1.2-1.5,2.3-2.2,3.5C68,42.3,67.8,42.3,67.7,42.4z"/>
<path class="st11" d="M15.2,118c-0.2,1.4-0.5,2.8-1,4.1c-0.5,2-1.1,4-1.7,5.9c-0.7,1.9-1,4.2-2.1,6.1c-0.3-0.8,0.4-1.4,0.4-2.1l0,0
	c0.5-1.7,1-3.4,1.5-5l2.7-9C15,118,15.1,117.9,15.2,118C15.1,118,15.1,118,15.2,118z"/>
<path class="st12" d="M1.7,280.5c0.1-0.9-0.4-1.6-0.2-2.5c0.4,0.4,0.3,1,0.4,1.6c0.8,4.5,3.9,8.2,8.1,9.8c0.4,0.2,1.1-0.1,1.4,0.5
	c-1.9,0-3.4-1-4.9-2.1C4.1,286,2.4,283.4,1.7,280.5z"/>
<path class="st13" d="M79.4,24.1v-0.3c-0.2-0.5,0.3-0.8,0.5-1.2c0.6-0.8,1-1.7,1.6-2.6l0.4-0.6c0.2-0.4,0.4-0.7,0.7-1l0,0
	c0.7-1.1,1.4-2.2,2.1-3.4l0,0c1-1.4,1.7-3,2.8-4.3c0.1,0,0.2,0,0.3,0.1c-1,1.8-2.1,3.6-3.2,5.2C82.9,18.8,81.3,21.6,79.4,24.1z"/>
<path class="st14" d="M80.7,3.5l-4.8,7.6c-0.1,0.1-0.3,0.1-0.4,0c0.9-1.7,1.9-3.3,3-4.8c0.9-1.5,1.9-3,2.8-4.5
	c0.1-0.1,0.2-0.1,0.3,0C81.5,2.5,81.1,3.1,80.7,3.5z"/>
<path class="st15" d="M5.3,151.2l-0.1-0.6l2.1-7.5c0.3-0.7,0.5-1.4,0.6-2.1l0,0c0.1-0.7,0.5-1.2,0.6-1.9l0,0c0.1-0.1,0.1-0.1,0.2,0
	c-0.1,1.3-0.4,2.5-0.9,3.7c-0.6,2.1-1.3,4.2-1.8,6.3C5.9,149.9,5.6,150.6,5.3,151.2z"/>
<path class="st16" d="M82.8,139.8H83c0.7,2.1,1.4,4.3,1.9,6.5c0.3,1.1,0.9,2,0.8,3.2h-0.2l-2.3-7.8C83,141.1,82.5,140.5,82.8,139.8z
	"/>
<path class="st17" d="M81.5,1.9h-0.2c0.3-0.8,1.1-1.3,1.6-1.9c0.2-0.2,0.4-0.2,0.6-0.1c0,0,0,0,0,0c2.2,1.6,4.7,2.9,6.8,4.7
	c-0.1,0.1-0.2,0.1-0.3,0.2c-1-0.4-1.9-1-2.8-1.7c-1-0.8-2.2-1.4-3.2-2.3l0,0c-0.7-0.5-1.2-0.2-1.8,0.4C82.1,1.4,81.9,1.8,81.5,1.9z"
	/>
<path class="st18" d="M68.9,22.2c-0.7,1.5-1.6,2.9-2.6,4.3c-0.7,1.3-1.5,2.6-2.5,3.7c0-1.1,0.9-1.6,1.3-2.5l3.5-5.5
	C68.8,22.1,68.8,22.1,68.9,22.2z"/>
<path class="st19" d="M15.2,118h-0.2c0.1-0.9,0.3-1.8,0.7-2.6c0.6-2.4,1.4-4.7,2.1-7.1c0.1-0.1,0.2-0.1,0.3,0c0,0,0,0,0,0
	c0.1,0.7-0.1,1.4-0.5,2c-0.2,0.2-0.2,0.6-0.2,0.9c-0.3,1.2-0.7,2.5-1.2,3.6c0,0.1,0,0.1-0.1,0.2c-0.2,0.3,0,0.7-0.2,1.1l0,0
	C15.6,116.7,15.4,117.4,15.2,118L15.2,118z"/>
<path class="st20" d="M89.5,280.5c0.1,0.6-0.6,1.1-0.4,1.7c-1.1,2.4-2.8,4.5-5.1,5.9c0.3-0.8,1.1-1.1,1.7-1.7c1.4-1.5,2.9-3,3.3-5.1
	C89.1,281,89.3,280.7,89.5,280.5z"/>
<path class="st21" d="M8.8,139.2H8.6c-0.2-1,0.4-1.8,0.7-2.7c0.3-1.5,0.8-3,1.4-4.4c0.2,0.8-0.5,1.4-0.4,2.1
	C9.9,135.9,9.4,137.5,8.8,139.2z"/>
<path class="st22" d="M65.1,27.7c-0.2,1-1.1,1.5-1.3,2.5l0,0c-0.2,0.4-0.4,0.7-0.6,1.1c-0.8,0.9-1.2,2.1-2.1,3
	c-0.1-0.1-0.1-0.4,0-0.5C62.4,31.7,63.7,29.6,65.1,27.7z"/>
<path class="st23" d="M68.9,22.2h-0.2c1.3-2.3,2.7-4.5,4.2-6.6c0.1,0.1,0.1,0.2,0.1,0.3c0,0,0,0,0,0l-3.6,5.6
	C69.2,21.8,69.1,22,68.9,22.2z"/>
<path class="st24" d="M17.9,108.3h-0.2c0-1.3,0.7-2.4,1-3.7c0.2-0.7,0.4-1.4,0.5-2.1c0-0.4,0.2-0.7,0.6-0.8v0.3
	c-0.2,1.2-0.5,2.4-0.9,3.5c-0.2,0.4-0.2,0.8-0.2,1.2C18.5,107.3,18.3,107.9,17.9,108.3z"/>
<path class="st25" d="M90,4.6h0.3L90.5,5c0.1,0.5,0.1,1,0,1.5l-2.8,4.4h-0.2c-0.1-0.1-0.1-0.3,0-0.4l1.1-1.7
	c0.4-0.8,0.9-1.6,1.5-2.3l0,0c0.1-0.5,0.1-1,0-1.5l0,0C90,4.9,90,4.8,90,4.6z"/>
<path class="st3" d="M61.1,33.8v0.5c-0.6,1.3-1.4,2.6-2.3,3.8l-0.3,0C59.2,36.4,60.3,35.2,61.1,33.8z"/>
<path class="st26" d="M72.9,16l-0.1-0.4c0.6-1.1,1.2-2.2,1.9-3.3c0.1-0.4,0.3-0.8,0.6-1.1c0-0.1,0-0.1,0-0.2h0.4
	c-0.3,1.2-1.2,2.1-1.8,3.2C73.7,14.9,73.3,15.4,72.9,16z"/>
<path class="st21" d="M12.2,127c-0.3,1.7-0.7,3.4-1.5,5C11,130.3,11.5,128.6,12.2,127z"/>
<path class="st21" d="M8,141.1c0.1,0.8-0.2,1.5-0.6,2.1C7.4,142.4,7.6,141.7,8,141.1z"/>
<path class="st27" d="M21.9,93.8c0,0.7-0.2,1.3-0.6,1.9C21.3,95,21.5,94.4,21.9,93.8z"/>
<path class="st21" d="M8.6,139.2c0,0.7-0.2,1.3-0.6,1.9C8,140.4,8.2,139.7,8.6,139.2z"/>
<path class="st27" d="M21,96.8c-0.1,0.7-0.3,1.3-0.6,1.9C20.3,98,20.6,97.3,21,96.8z"/>
<path class="st9" d="M47.3,52.4c0,0.7,0.2,1.3-0.2,2C47.2,53.8,46.9,53,47.3,52.4z"/>
<path class="st17" d="M90.5,6.5V5C90.8,5.4,90.8,6,90.5,6.5z"/>
<path class="st28" d="M75.4,11.3c0,0.5-0.3,0.8-0.6,1.1C74.7,11.9,75,11.5,75.4,11.3z"/>
<path class="st27" d="M20.2,99.5c0,0.5-0.1,0.9-0.4,1.3C19.7,100.3,19.8,99.8,20.2,99.5z"/>
<path class="st29" d="M87.6,155.6c-0.3-0.3-0.5-0.8-0.4-1.2C87.5,154.6,87.6,155.1,87.6,155.6z"/>
<path class="st29" d="M87,153.5c-0.3-0.4-0.4-0.8-0.4-1.2C87,152.5,87,153,87,153.5z"/>
<path class="st9" d="M46.6,55.4v1.2C46.4,56.2,46.4,55.7,46.6,55.4z"/>
<path class="st29" d="M87.8,156.6c-0.3-0.3-0.2-0.7-0.2-1C87.9,155.9,87.8,156.3,87.8,156.6z"/>
<path class="st30" d="M82.6,283.5H83c1.1-0.4,2-1.1,2.9-1.9c0.3-0.2,0.5-0.5,0.9-0.3s0.2,0.7,0,0.9c-0.7,1.3-1.7,2.5-2.8,3.5
	c-2.1,1.6-4.6,2.5-7.2,2.5c-20.2,0-40.3,0-60.5,0c-2.1,0.2-4.1-0.1-6.1-0.8l-0.3-0.1c-1.8-1.2-3.5-2.4-4.7-4.4
	C5,283,5,282.8,4.9,282.7c-0.2-0.4-0.7-0.7-0.2-1.1s0.8,0.1,1.1,0.3c0.6,0.5,1.3,1,2,1.3l0.3,0.2c0.6,0.4,1.3,0.6,2,0.7
	c2.2,0.5,4.5,0.8,6.7,0.8c20.1,0,40.3,0,60.4,0C79,284.9,80.9,284.4,82.6,283.5z"/>
<path class="st30" d="M56,184.9c0,2.8,0,5.5,0,8.3c0.1,1.1-0.6,2.2-1.7,2.4c-1,0.4-1.9,0.8-2.9,1.2c-1.1,0.5-1.5,0.3-1.5-0.9
	c0-5.6,0.1-11.2,0.1-16.9c0-1.7,1.2-2.3,2.5-2.7c0.7-0.3,1.5-0.6,2.2-0.9c1-0.3,1.3,0,1.3,1C56,179.2,56,182,56,184.9z"/>
<path class="st31" d="M79.4,156.6c0.3,1,0.6,2,0.9,3c0.2,1.1,0.6,2.2,0.9,3.3c0.6,1.1,0.9,2.2,0.9,3.4c-0.1,2.5,0.8,4.9,0.8,7.4
	c0,29.8,0,59.5,0,89.3c0,2.9-0.8,5.6-2.4,8c1.2,0,1.3-1.1,1.7-1.7c0.8-1.2,0.5-2.8,1.2-4c0.1-0.2,0.1-0.5,0.1-0.8
	c0-30.7,0-61.3,0-91.9c0-0.8-0.5-1.5-0.5-2.3c0-0.5-0.1-1.1-0.1-1.7c0-2-0.8-3.9-1.1-5.8c-0.3-1.6-1.4-3-1-4.7
	c0.1-0.1,0.2-0.1,0.3-0.1c0.4,0.9,0.8,1.9,1,2.8c0.1,1.2,0.4,2.3,0.8,3.4c0.5,1.9,0.6,3.8,1,5.7c0.3,2,0.5,4,0.4,6
	c0,29.3,0,58.7,0,88.1c0.1,2.6-0.8,5.2-2.5,7.3c-0.2,0.2-0.5,0.3-0.9,0.4c-0.4,0.1-0.9-0.1-1.1-0.4c-0.2-0.4,0-0.7,0.2-1
	c1.4-1.8,2.1-4,2-6.3c0-30.4,0-60.8,0-91.1c0.1-2.6-0.2-5.2-0.9-7.7c-0.5-1.6-0.8-3.2-1.3-4.8c0-0.8-0.2-1.7-0.5-2.4
	C79.1,157.6,79.1,157,79.4,156.6z"/>
<path class="st32" d="M50,215.3c0-2.8,0-5.6,0-8.4c-0.1-1,0.5-1.9,1.4-2.2c1.2-0.4,2.3-0.8,3.4-1.4c0.7-0.4,1,0.1,1,0.8
	c0,3.7-0.1,7.4,0,11.1c0,2.2-0.4,4.4-0.3,6.7c0.1,1.2-1,1.4-1.7,1.9c-0.7,0.4-1.5,0.7-2.3,0.9c-1.3,0.4-1.5,0.3-1.5-1.1
	c0-2.1,0-4.2,0-6.3C50,216.7,50,216,50,215.3L50,215.3z"/>
<path class="st30" d="M50.6,74.8c0-2.8,0-5.7,0-8.5c0-1,0.3-1.3,1.3-1.3c1.1,0.1,2.2,0.1,3.2,0c1,0,1.3,0.4,1.3,1.3
	c0,4.8,0,9.5,0,14.3c0,1.6-0.4,2.1-2,2.7c-0.8,0.3-1.7,0.6-2.5,1c-1,0.4-1.2,0.3-1.2-0.8C50.6,80.6,50.6,77.7,50.6,74.8z"/>
<path class="st33" d="M34.8,82.7H22.3c-1.2,0-1.5-0.3-1.5-1.5c0-0.8,0-1.6,0-2.4s0.3-1,0.9-1h26c0.4,0,1-0.1,0.9,0.6
	s-0.4,0.8-0.9,0.8s-1.2,0-1.8,0H28.4c-0.3,0-0.7,0-1,0c-0.3,0-0.6,0.3-0.6,0.7c0,0.3,0.2,0.6,0.5,0.7c0.5,0.1,1,0.2,1.5,0.2h18.9
	c0.7,0,1.4,0.1,1.4,0.9s-0.7,1-1.4,1L34.8,82.7z"/>
<path class="st34" d="M24.4,92.6l0.2-0.4c0.3-0.4,0-0.9,0.2-1.2l0,0c0.1-0.3,0.1-0.8,0.4-1.1c0-0.2,0-0.5,0.2-0.7
	c0.2-0.4,0.5-0.8,0.9-1l0,0c0.5-0.2,1.1-0.4,1.6-0.3c6.5,0,13,0,19.5,0c1.3,0,1.6,0.2,1.6,1.5s0,2.7,0,4.1c0,0.8-0.3,1.2-1.2,1.2
	c-3.5,0-7,0-10.5,0c-0.4-0.1-0.8,0-1.1,0.1c-0.4,0.2-0.7,0.4-0.6,0.8s0.6,0.4,1,0.4h10.9c1.3,0,1.5,0.2,1.5,1.5
	c0,8.3,0.2,16.5,0,24.8c-0.6,23.6-0.1,47.3-0.3,70.9c-0.1,11.2,0.2,22.3-0.1,33.5c-0.2,5.6,0,11.1-0.2,16.7c0,0.7,0.2,1.1,0.9,1.1
	c2.4,0,4.8,0,7.2,0c0.2,0,0.4-0.1,0.6-0.2c0.1,0.1,0.1,0.2,0.1,0.4c-0.1,0.2-0.3,0.3-0.5,0.3c-2.7,0.1-5.3,0.1-8,0
	c-0.3,0-0.5-0.2-0.7-0.5c-0.2-0.5-0.3-1-0.3-1.5c0-4.6-0.1-9.3,0-13.9c0.4-10.2,0-20.3,0.2-30.5c0.3-12.5,0.1-24.9,0.2-37.4
	c0-0.5,0-1,0-1.6c0-10.2-0.1-20.4,0-30.6c0.1-10,0.2-20,0.2-30c0-2.2,0-2.2-2.2-2.2h-8.8c-0.4,0-0.8,0-1.2,0c-0.6,0-1.1-0.4-1.2-1
	c-0.1-0.6,0.1-1.1,0.6-1.5c0.5-0.3,1.1-0.4,1.7-0.4h9.3c1.5,0,1.6-0.1,1.6-1.6c0-0.8,0-1.7,0-2.5s-0.4-1.2-1.2-1.1
	c-0.2,0-0.4,0-0.6,0H28.4c-1.9,0-2,0.1-2.6,1.9c-0.9,2.9-1.7,5.8-2.5,8.7c-0.2,0.8-0.5,1.6-0.9,2.3c-0.1,0.1-0.2,0.1-0.3,0
	c0,0,0,0,0,0c-0.1-0.6,0-1.2,0.3-1.8l0,0c0.5-1.1,0.5-2.3,1-3.4c0-0.1,0-0.1,0-0.2c0.1-0.6,0.3-1.2,0.6-1.7c0-0.1,0-0.1,0-0.2
	C24,93.7,24.1,93.1,24.4,92.6z"/>
<path class="st35" d="M57,244.4l-0.1-0.3c0.2-0.4,0.3-0.9,0.3-1.4c0-6.3-0.2-12.5,0-18.8c0.6-22.1,0.1-44.2,0.3-66.3
	c0.1-7.9,0-15.7,0.1-23.6c0.2-12.2,0.4-24.3,0.3-36.5c-0.1-0.7,0.3-1.3,1-1.4c0.8-0.2,1.6-0.4,2.2,0.4c0.8,1.3,1.2,2.8,1.4,4.3
	l-0.2,0.1c-0.7-0.4-0.8-1.1-1-1.8c-0.1-0.6-0.3-1.2-0.7-1.8c-0.3-0.4-0.7-0.6-1.2-0.4c-0.5,0.1-0.6,0.5-0.7,0.9c0,0.2,0,0.5,0,0.7
	c0.2,16.2-0.2,32.3-0.3,48.5c-0.1,13.5,0,27-0.2,40.5c-0.2,11,0,21.9-0.2,32.8c0,0.6,0,1.2-0.1,1.8c-0.1,0.5-0.2,1.1-0.2,1.7
	c0,6.4,0,12.9,0,19.3C57.7,243.8,57.6,244.3,57,244.4z"/>
<path class="st36" d="M35,84.2c4.2,0,8.3,0,12.5,0c0.8,0,1.3,0.2,1.3,1.1s-0.7,0.9-1.3,0.9H22.4c-0.3,0-0.6,0-0.8-0.1
	c-0.5-0.1-0.8-0.6-0.7-1.2c0.1-0.5,0.5-0.7,0.9-0.7c0.2,0,0.4,0,0.6,0L35,84.2L35,84.2z"/>
<path class="st30" d="M55.5,237.2c0,1.6,0,3.1,0,4.7c0,0.8-0.3,1.1-1,1c-1.2,0-2.4,0-3.6,0c-0.7,0-1-0.3-1-0.9c0-2.5,0-5,0-7.4
	c0-1.3,1.2-1.6,2.1-1.9l2.5-1.1c0.9-0.4,1,0,1,0.7C55.5,233.9,55.5,235.5,55.5,237.2z"/>
<path class="st37" d="M61.8,94.9c-0.9,0-1.8,0-2.6,0s-1.2-0.3-1.2-1.2c0-1.6,0-3.2,0-4.7c0-1.2,0.3-1.4,1.5-1.4s2.5,0.1,3.7,0
	c1.2-0.1,2.3,0.6,2.8,1.7c0.4,0.8,0.7,1.7,0.9,2.6c0.3,1.3,0.8,2.5,1.1,3.8s0.8,2.3,1,3.6c0.1,1,0.7,2,0.9,3.1
	c0.3,1.4,0.7,2.9,1.2,4.3c0.7,1.9,1.2,3.9,1.8,5.8c0.7,2,1.3,4,1.7,6c0.2,0.8,0.4,1.6,0.7,2.3c0.7,1.9,1.2,3.8,1.8,5.7
	s1.2,4,1.8,6.1c0.4,1.7,1,3.4,1.5,5c0.7,2.1,1.3,4.3,1.8,6.5c0.2,0.9,0.5,1.7,0.8,2.6c0.7,1.8,1,3.7,1.6,5.6
	c0.4,1.2,0.8,2.5,1.1,3.8c0.3,1.1,0.6,2.2,0.9,3.3c0.4,1.7,1.3,3.3,1.1,5c0.1,0.9,0.2,1.7,0.5,2.5c0.2,2.4,0.3,4.7,0.2,7.1
	c0,33.3,0,66.6,0,99.9c0,2.1-1,4-2.5,5.4c-0.2-0.3-0.1-0.7,0.2-1c0.7-0.9,1.2-2,1.5-3.1c0.3-0.8,0.4-1.6,0.4-2.5
	c0-32.6,0-65.1,0-97.7c0.1-4-0.2-8-0.8-11.9c-0.1-0.6-0.4-1.1-0.5-1.6c0-0.1-0.1-0.2-0.1-0.4c-0.3-1.5-0.8-2.9-1.2-4.4
	c-0.5-1.7-0.9-3.4-1.5-5.1c-0.6-2.2-1.2-4.4-1.9-6.5c-0.6-1.8-1-3.5-1.6-5.3c-0.6-2-1.2-4.1-1.8-6.1s-1.2-4.1-1.8-6.2
	c-0.6-2.1-1.2-4.2-2-6.3c-0.4-2.1-1.2-4.1-1.8-6.2s-1.2-4.3-1.9-6.4c-0.6-1.8-1.1-3.7-1.6-5.5s-1.1-3.8-1.7-5.7
	c-0.7-2.5-1.6-5-2.2-7.5c-0.1-0.4-0.4-0.7-0.7-0.9c-0.4-0.4-0.9-0.7-1.5-0.7c-1.3,0-2.5,0-3.8,0c-0.7,0-1.1,0.3-1.1,1
	c0,1.4,0,2.7,0,4.1c0,0.6,0.3,0.8,0.8,0.8c0.6,0,1.3,0,1.9,0.1C61.5,94.4,61.8,94.5,61.8,94.9z"/>
<path class="st38" d="M64.4,80.8c1.6,0,3.2,0,4.7,0c0.9,0,1.3,0.3,1.3,1.2s0,1.6,0,2.4c0.1,0.9-0.7,1.7-1.6,1.8c0,0-0.1,0-0.1,0
	c-3.2,0-6.3,0-9.5,0c-0.6,0-0.9-0.2-0.9-0.8s0.2-1.1,1-1.1c1.4,0,2.9,0,4.3,0c0.6,0,1.2-0.1,1.2-0.8s-0.6-0.8-1.2-0.8
	c-1.4,0-2.8,0-4.2,0c-0.6,0-1-0.1-1-0.8s0.2-1.1,1-1.1C61,80.7,62.7,80.7,64.4,80.8L64.4,80.8z"/>
<path class="st32" d="M81,6.6l0.3-0.6c0.5-0.6,0.9-1.2,1.2-1.9c0.9-1.3,1-1.3,2.3-0.4c0.4,0.4,1,0.7,1.5,0.9c1.8,1.1,1.8,1.1,0.6,3
	c-1,1.5-1.9,3.2-3,4.6c-0.3,0.5-0.9,0.8-1.5,0.7c-1.4-0.1-2.8-0.4-4.2-0.8c-0.6-0.2-0.6-0.5-0.3-0.9c0.5-0.8,1-1.6,1.6-2.5
	C79.9,8,80.7,7.5,81,6.6z"/>
<path class="st39" d="M34.9,75.8H22.4c-0.2,0-0.5,0-0.7,0s-0.7,0-0.8-0.4s0.2-0.6,0.4-0.8c0.3-0.2,0.7-0.3,1.1-0.2h25.3
	c0.6,0,1.2,0.1,1.2,0.8s-0.6,0.6-1.1,0.6L34.9,75.8z"/>
<path class="st14" d="M83.2,281.4c-0.7,0.7-1.5,1.1-2.5,1.2c-1.2,0.2-2.5,0.4-3.7,0.4c-21.2,0-42.4,0-63.6,0c-3.7,0-7.1-1.9-9-5
	c-0.6-1-1.4-2-1.4-3.3c0-0.3-0.2-0.5-0.2-0.8c-0.4-1.2-0.2-2.5,0.4-3.5c0.1,0,0.3,0.1,0.3,0.2c0.4,1,0,2,0.1,3
	c0.6,4.8,4.6,8.5,9.4,8.7c0.4,0,0.9,0,1.4,0h62.2c2,0.1,3.9-0.2,5.7-1.1c0.2-0.2,0.5-0.2,0.8-0.1C83.2,281.2,83.2,281.3,83.2,281.4z
	"/>
<path class="st40" d="M3.4,270.4H3.2C3,270,3,269.6,3.1,269.2c0-28.3,0-56.6,0-84.9c0.1-0.4,0-0.8-0.1-1.2l0,0
	c-0.3-1.8-0.3-3.6,0-5.4l0,0c0.1-1.2,0.2-2.5,0.1-3.7c0-1.1,0-2.1,0.1-3.2v-0.2c0.1-1.3,0.3-2.6,0.6-3.8v-1.4
	c0.1-1.1,0.3-2.1,0.6-3.2c0-1.1,0.3-2.3,0.6-3.3c0.3-0.5,0-1,0.2-1.5c-0.1-0.8,0.6-1.4,0.7-2.1c0.1-0.1,0.2,0,0.3,0.1c0,0,0,0,0,0
	c0.1,0.3,0.2,0.6,0.1,0.9c-0.9,3.9-1.6,7.8-2.1,11.8c-0.6,4.2-0.4,8.4-0.7,12.5c0,1,0,2,0.2,2.9c0,28.2,0,56.4,0,84.6
	c0,0.6,0,1.3,0,1.9C3.6,270.1,3.5,270.3,3.4,270.4z"/>
<path class="st13" d="M56.1,156.9c0,2.9,0,5.7,0,8.6c0,1.1-0.8,2-1.8,2.1c-0.9,0.3-1.8,0.6-2.6,1c-1.2,0.4-1.4,0.3-1.4-0.9
	c0-3.2-0.1-6.4,0-9.6c0.1-2.3-0.2-4.6-0.3-6.9c-0.1-1.3,0.7-2.6,1.9-3.1c1.1-0.5,2.2-0.9,3.3-1.2c0.7-0.2,0.9,0.3,0.9,0.9
	c0,1.3,0,2.7,0,4C56.2,153.5,56.2,155.2,56.1,156.9L56.1,156.9z"/>
<path class="st41" d="M64.2,42.2c-1.3-0.2-2.7-0.7-4.2-0.8c-0.3,0-0.5-0.2-0.5-0.5c0-0.1,0-0.2,0.1-0.3c0.4-0.8,1-1.6,1.6-2.3
	c0.2-0.2,0.5-0.3,0.7-0.4c1.7-0.1,3.4,0.2,5,0.7c0.3,0.1,0.5,0.4,0.4,0.7c0,0.1-0.1,0.1-0.1,0.2c-0.5,0.8-1.1,1.6-1.6,2.4
	C65.3,42.2,64.8,42.2,64.2,42.2z"/>
<path class="st42" d="M3,183.1c0.3,0.3,0.2,0.7,0.2,1.1c0,28.7,0,57.4,0,86.1c0,0.1,0,0.1,0,0.2c-0.4,1.1-0.4,2.4-0.2,3.5
	c0,0.1-0.1,0.1-0.2,0.1c0,0,0,0-0.1-0.1c-0.3-0.3-0.1-0.7-0.2-1.1c-0.1-0.3-0.1-0.7,0-1.1c0.9-3.7,0.4-7.4,0.4-11.1
	C3,234.9,3,209,3,183.1z"/>
<path class="st43" d="M55.1,229.3c0,0.2-0.2,0.2-0.4,0.2c-1.1,0.5-2.2,1-3.3,1.5c-1.1,0.4-1.4,0.2-1.3-0.9s-0.3-2.2,0.7-3
	c1.2-0.6,2.4-1.1,3.6-1.6c0.8-0.3,1.1-0.2,1.1,0.7S55.7,228.4,55.1,229.3z"/>
<path class="st44" d="M82.6,283.5c-0.1,0.5-0.4,0.6-0.8,0.7c-1.8,0.5-3.6,0.7-5.4,0.8c-19.6,0-39.2,0-58.8,0c-2.7,0-5.5,0.1-8.1-0.7
	c-0.6-0.2-1.1-0.5-1.7-0.8l0,0c-0.2-0.2-0.6-0.2-0.4-0.6c2.9,1.3,6,1.9,9.2,1.8c19.4,0,38.8,0,58.2,0
	C77.5,284.6,80.1,284.2,82.6,283.5z"/>
<path class="st45" d="M9.7,287.2c0.3-0.1,0.6,0,0.9,0.1c1.9,0.6,3.8,0.8,5.8,0.7c19.7,0,39.4,0,59.1,0c3.1,0.1,6.1-0.8,8.5-2.7
	c0.1,0.1,0.1,0.2,0.1,0.3c-0.3,0.6-0.9,0.8-1.4,1.1l-0.6,0.3c-1.4,0.8-2.9,1.3-4.5,1.4c-21.5,0-43,0-64.5,0
	C11.8,288.4,10.6,288,9.7,287.2z"/>
<path class="st46" d="M56.3,128.8c0,2.6,0,5.2,0,7.8c0,2.1-0.2,2.6-2.2,3.2c-0.9,0.3-1.7,0.7-2.6,1s-1.2,0.2-1.2-0.9
	c0-1.4,0-2.7,0-4.1c0-4.3,0-8.7,0-13c0-1.5,0.5-2.1,2-2.5c0.9-0.3,1.7-0.7,2.6-1.1c1.1-0.6,1.5-0.3,1.5,0.9
	C56.3,122.9,56.3,125.8,56.3,128.8L56.3,128.8z"/>
<path class="st47" d="M9.7,287.2c1.1,0.6,2.2,0.9,3.5,1h65.1c1.4,0,2.6-0.8,3.9-1.2c-0.9,0.9-2.2,1.4-3.5,1.4c-1.7,0.1-3.5,0-5.2,0
	H13c-1.5,0-3-0.5-4.2-1.5C9.2,286.7,9.4,287,9.7,287.2L9.7,287.2z"/>
<path class="st48" d="M50.6,104.5c0-2.3,0-4.7,0-7c0-0.9,0.3-1.3,1.2-1.2c1.1,0.1,2.2,0.1,3.2,0c1.1-0.1,1.2,0.5,1.2,1.3
	c0,3.3,0,6.7,0,10.1c0,0.5,0,1.1,0,1.6c0.1,1-0.5,1.9-1.5,2c0,0,0,0,0,0c-1,0.3-1.9,0.7-2.8,1.1c-0.9,0.5-1.4,0.2-1.4-0.8
	C50.6,109.3,50.6,106.9,50.6,104.5L50.6,104.5z"/>
<path class="st49" d="M72,74.8v-0.5c0.3,0.5,0.3,1.1,0.2,1.6c0,2.9,0,5.7,0,8.6c0,2.1-1,3.8-3.6,3.7c-1.1,0-1.2,0.2-0.9,1.3
	c0.8,2.7,1.6,5.5,2.4,8.2c0.7,2,1.3,4,1.9,6c0.8,2.7,1.6,5.3,2.3,8c0.4,1,0.7,2.1,0.9,3.2c0.1,0.1,0.1,0.3,0,0.5
	c-0.4-1.1-0.8-2.3-1.1-3.4c-0.2-1.2-0.6-2.3-1-3.4c-0.4-1.3-0.8-2.6-1.2-3.9c-0.3-1.1-0.6-2.1-1-3.2s-0.8-2.2-1.1-3.3
	c-0.5-2.1-1.1-4.1-1.8-6.1c-0.2-1-0.5-2-0.8-3c-0.4-0.8,0.4-1.1,1.1-1.1c0.7,0,1.4-0.1,2-0.4c1.1-0.4,1.8-1.4,1.7-2.5
	C72.1,81.6,72,78.2,72,74.8z"/>
<path class="st50" d="M81.1,158.1h-0.2c-0.5-1.4-1-2.9-1.3-4.4c-0.2-0.8-0.4-1.6-0.7-2.4c-0.5-1.6-0.8-3.3-1.4-4.9
	c-0.7-1.9-1.2-3.8-1.8-5.7c-0.6-1.7-1-3.5-1.5-5.2c-0.4-1.3-0.8-2.6-1.2-3.9c-0.4-1.1-0.7-2.2-0.9-3.3c-0.3-1.2-0.7-2.3-1.1-3.4
	c-0.6-2.1-1.2-4.2-1.8-6.3c0.1-0.1,0.2-0.1,0.3,0c0.5,0.6,0.5,1.4,0.9,2c0,0.1,0.1,0.2,0.1,0.3c0,0.6,0.2,1.2,0.5,1.8
	c0,0.1,0.1,0.2,0.1,0.3c0,0.3,0.1,0.7,0.1,1c0,0.1,0.1,0.2,0.1,0.3c0.1,0.4,0.3,0.7,0.4,1.1c0.8,2.6,1.6,5.2,2.3,7.8
	c0.7,2,1.2,4.1,1.9,6.1c0.7,2.3,1.4,4.7,2.1,7c1.1,3.8,2.2,7.5,3.3,11.3C81.3,157.6,81.3,157.9,81.1,158.1z"/>
<path class="st51" d="M63.9,33.2c0.8-1.6,1.7-3.1,2.7-4.5c1.5-2.5,3.1-4.9,4.7-7.4c0.3-0.5,0.6-1.1,1-1.6c0.2-0.3,0.5-0.6,0.8-0.6
	c1.4,0,2.8-0.3,4.1,0.4c0.3,0.2,0.7,0.2,1.1,0.2c1.2,0,1.4,0.5,0.7,1.5l-2.4,3.9l-4.7,7.5c-0.1,0.2-0.3,0.4-0.4,0.6
	c-0.1-0.1-0.1-0.2-0.2-0.2c0.2-0.8,0.6-1.6,1.1-2.3c0.8-1.1,1.4-2.2,2-3.4c0-0.2,0.1-0.3,0.2-0.5c0.7-0.5,1-1.4,1.4-2
	c0.8-1.2,1.6-2.4,2.3-3.6c0.2-0.3,0.4-0.8-0.1-0.8c-1.5-0.1-2.8-0.9-4.3-0.7c-0.6,0-1.1,0.3-1.4,0.8c-2.4,3.7-4.7,7.5-7,11.2
	C65.1,32.2,64.8,33,63.9,33.2z"/>
<path class="st52" d="M62.4,100.9c1.7,4.7,3,9.5,4.3,14.3c0.3,0.6,0.5,1.2,0.6,1.9l0,0c1,2.8,1.7,5.8,2.6,8.6c0.3,1.1,1,2.2,0.9,3.5
	c0,0.2,0,0.3-0.1,0.5c-0.4,0.1-0.4-0.2-0.5-0.4c-0.7-2.4-1.5-4.9-2.2-7.3s-1.5-5.2-2.3-7.7s-1.6-5.4-2.4-8.1
	c-0.4-1.3-0.7-2.6-1.2-3.9c-0.1-0.4-0.4-0.8,0.1-1.2L62.4,100.9z"/>
<path class="st53" d="M36.2,94.7c0.3-0.3,0.7-0.2,1.1-0.2c3.4,0,6.8,0,10.3,0c1,0,1.3-0.3,1.3-1.3c-0.1-1.3,0-2.7,0-4
	c0-0.9-0.3-1.3-1.3-1.3c-6.6,0-13.1,0-19.7,0c-0.5,0-1,0.1-1.5,0.2c0.4-0.4,1-0.6,1.5-0.5h19.8c1.1,0,1.5,0.3,1.5,1.5
	c0,1.4,0,2.8,0,4.2c0,0.9-0.3,1.4-1.4,1.4C43.9,94.7,40,94.7,36.2,94.7z"/>
<path class="st14" d="M63.8,44.9l-0.4,0.6c-0.4,0.8-0.9,1.6-1.5,2.2l-0.8,1.5c-0.2,0.3-0.4,0.6-0.7,0.8l-0.8,1.5
	c-0.9,1.2-0.9,1.2-2.1,0.5c-1-0.6-2-1.2-3-1.8l0,0c-0.3-0.2-0.7-0.5-0.7-0.9c0.7-1.4,1.5-2.7,2.4-4c0.3-0.5,0.7-1,1-1.6
	c0.9-1,2.2-1.3,3.4-0.8c0.7,0.3,1.5,0.4,2.3,0.5C64,43.6,64.1,43.9,63.8,44.9z"/>
<path class="st54" d="M63.9,33.2c1.1-1.2,2-2.5,2.7-3.9c2-3.1,3.9-6.2,5.8-9.3c0.3-0.4,0.8-0.7,1.3-0.7c1.7-0.1,3.2,0.6,4.8,0.8
	c0.8,0.1,0.4,0.8,0,1.1c-0.1-0.1-0.2-0.1-0.2-0.2c-0.1-0.3-0.5-0.5-0.8-0.5c-1-0.1-2.1-0.3-3.1-0.6c-0.7-0.2-1.4,0.1-1.7,0.7
	c-2.8,4.6-5.8,9.2-8.6,13.8c-0.2,0.4-0.4,0.8-0.9,0.8c-0.1-0.1-0.2-0.1-0.2-0.2C63.2,34.2,63.8,33.8,63.9,33.2z"/>
<path class="st55" d="M56.3,114.6c0,2.3-0.1,2.4-2.8,3.5l-1.8,0.7c-0.9,0.4-1.3,0-1.3-0.9c0-0.5,0-1,0-1.6c-0.1-0.9,0.5-1.8,1.3-2.2
	c1.2-0.6,2.4-1.1,3.6-1.5c0.6-0.2,1,0,1.1,0.7C56.3,113.8,56.3,114.2,56.3,114.6z"/>
<path class="st56" d="M6.1,156v-0.9c-0.2-0.4-0.1-0.9,0.1-1.3c0.3-0.6,0.5-1.2,0.6-1.8l0,0c0.1-0.4,0.2-0.9,0.4-1.3v-0.6
	c0.5-1.7,1.1-3.3,1.6-5c0.2-1.2,0.6-2.4,1.2-3.5c0.1-1.2,0.8-2.3,1-3.6c0.1-0.8,0.5-1.5,0.6-2.3c0-0.3,0.2-0.6,0.5-0.8
	c0.1,0,0.2,0,0.3,0.1c0.2,0.9-0.3,1.7-0.5,2.5c-0.4,1.6-0.9,3.2-1.4,4.8c-0.9,2.9-1.8,5.7-2.6,8.6c-0.5,1.5-0.9,3-1.3,4.5
	C6.5,155.8,6.4,156,6.1,156z"/>
<path class="st57" d="M50.4,88.7c-0.6-1.8,0.9-2.6,2.4-3.2c0.9-0.4,1.9-0.7,2.8-1.1c0.7-0.2,1.1,0.1,1.1,0.8c0.1,0.8,0.1,1.7,0,2.5
	c-0.1,0.6-0.4,1.1-0.9,1.5c-0.9,0.6-1.9,1.1-3,1.4c-0.2,0.1-0.4,0.1-0.6,0.2c-1.6,0.7-1.8,0.6-1.8-1.1
	C50.4,89.3,50.4,89.1,50.4,88.7z"/>
<path class="st58" d="M49.9,201.3c0-2,0.3-2.4,2.2-3.1c0.9-0.2,1.7-0.6,2.5-1c0.3-0.3,0.9-0.3,1.2,0c0.1,0.1,0.2,0.3,0.2,0.6
	c0.3,1.7,0.3,3.4-1.9,4.2c-0.9,0.3-1.8,0.7-2.7,1.1c-1,0.6-1.5,0.2-1.5-0.9C49.9,201.9,49.9,201.6,49.9,201.3z"/>
<path class="st16" d="M51.5,142.3c1.3-0.6,2.6-1.2,4-1.6c0.5-0.2,0.7,0.2,0.8,0.6c0.1,0.9,0.1,1.8,0,2.7c-0.1,0.5-0.4,1-0.9,1.2
	c-1.3,0.7-2.7,1.3-4.1,1.8c-0.5,0.2-0.9,0-0.9-0.5c0-1.3-0.3-2.6,0.4-3.8C50.9,142.5,51.2,142.5,51.5,142.3z"/>
<path class="st59" d="M55.3,173.2c-1.3,1.1-2.9,1.4-4.4,2c-0.3,0.1-0.7,0-0.8-0.3c-0.5-0.8,0-3.6,0.8-4.2c0.5-0.3,1-0.6,1.5-0.7
	c0.9-0.4,1.9-0.8,2.8-1.1c0.7-0.1,1.1,0.1,1,0.8c-0.1,1,0.4,2-0.4,2.9c-0.2-0.1-0.2-0.3-0.2-0.6c0-0.1,0-0.2,0-0.3
	c0-0.7,0.3-1.4-0.2-2c-0.5-0.2-0.9,0-1.3,0.2c-0.7,0.3-1.4,0.6-2.1,0.9c-1.1,0.6-1.7,1.9-1.3,3.1c0.2,0.6,0.6,0.4,1,0.3
	c0.8-0.3,1.5-0.7,2.3-0.9c0.3-0.2,0.7-0.2,1-0.2C55.1,173.1,55.2,173.1,55.3,173.2z"/>
<path class="st60" d="M70.8,129.8l0.1-0.5c0.1,0,0.1,0,0.2,0c0.7,2.2,1.3,4.5,2,6.7c0.6,2,1.3,4,1.8,6c0.4,1.3,0.8,2.6,1,3.9
	c0.1,0.1,0.1,0.3,0,0.5c-0.1,0-0.2,0-0.3-0.1c-0.7-1.7-1.2-3.4-1.7-5.1c0.1-0.7-0.2-1.4-0.6-1.9c-0.9-2.9-1.7-5.9-2.6-8.8
	C70.6,130.2,70.6,129.9,70.8,129.8z"/>
<path class="st61" d="M53.3,94.6c-0.6,0-1.3,0-1.9,0c-0.8,0-1.1-0.5-0.7-1.3s1.2-1,1.9-1.4s1.8-0.7,2.6-1s1,0,1,0.8
	C56.2,95.1,56.7,94.5,53.3,94.6z"/>
<path class="st62" d="M63.1,34.8l0.2,0.3c1.4,0.7,2.9,1.1,4.5,1.1c0.7,0,1.1-0.6,1.4-1.1c0.9-1.4,1.8-2.8,2.6-4.3
	c0.7-1.1,1.4-2.1,2-3.2c0.1-0.2,0.3-0.5,0.7-0.4c-0.2,1.4-1.2,2.3-1.9,3.5c-0.4,0.7-0.8,1.4-1.3,2.1c-0.6,0.9-1,1.8-1.6,2.7
	s-1.4,2-2.8,1.3c-0.2,0-0.5,0-0.7,0c-0.1,0-0.2,0-0.3,0c-1-0.2-1.9-0.4-2.9-0.8h-0.1h-0.1c-0.1,0-0.2-0.1-0.2-0.2
	c-0.1-0.3,0.2-0.6,0.3-0.8L63.1,34.8z"/>
<path class="st63" d="M61.8,94.9l-0.5-0.4c0.2-0.2,0.4-0.3,0.6-0.2c0.7,0.4,1.2,1.1,1.4,1.9c0.3,1.1,0.8,2.2,1,3.4
	c0,0.4,0.2,0.8,0.4,1.2c0.5,1.6,0.9,3.2,1.4,4.8c0.1,0.3,0.1,0.7,0.2,1.1c0.5,1.3,0.7,2.6,1.2,3.9c0.1,0.3,0.1,0.6,0.1,0.9
	c0,0.1-0.1,0.2-0.1,0.3c-0.1,0.1-0.2,0.1-0.2,0c-0.1-1.1-0.4-2.1-0.8-3.1c-0.9-3.1-1.8-6.3-2.8-9.4c-0.2-1.2-0.6-2.4-1.1-3.5
	C62.3,95.4,62.2,95.1,61.8,94.9z"/>
<path class="st24" d="M9.7,287.2c-0.3,0.1-0.5-0.3-0.8-0.2c-2-1.2-3.6-3-4.6-5c-0.2-0.3-0.5-0.7-0.1-1.1s0.7,0.1,1,0.3
	c0.7,0.6,1.5,1.1,2.3,1.6l0.4,0.6c-0.8-0.3-1.6-0.8-2.3-1.4c-0.2-0.2-0.4-0.6-0.8-0.3s0,0.6,0.2,0.8c1,1.7,2.5,3.2,4.3,4.2
	C9.5,286.8,9.7,286.9,9.7,287.2z"/>
<path class="st64" d="M58.4,78.9c-0.2-0.3-0.5-0.5-0.3-0.9s0.6-0.3,0.9-0.3c0.7,0,1.5,0,2.2,0c0.7,0,1.5-0.1,2.1-0.5
	c0.3-0.2,0.7-0.2,0.5-0.7s-0.5-0.3-0.8-0.3c-1.2,0-2.4,0-3.5,0c-0.6,0-1.3-0.1-1.2-1c0.1-0.1,0.2-0.1,0.3,0c0.2,0.1,0.3,0.2,0.5,0.3
	c1.3,0.1,2.6,0,3.9,0.1c1.3,0.1,1.5,0.7,1.2,1.7c-0.6,0.6-1.4,0.9-2.2,0.9c-0.7,0-1.4,0-2.1,0c-0.5,0-0.9,0.2-0.9,0.7
	C58.7,79,58.6,79,58.4,78.9C58.4,78.9,58.4,78.9,58.4,78.9z"/>
<path class="st65" d="M75.8,146.3v-0.4c0.3,0.2,0.5,0.6,0.6,0.9c0.8,2.9,1.6,5.7,2.4,8.6c0.2,0.4,0.3,0.8,0.6,1.2
	c-0.1,0.7,0.1,1.3,0.4,1.9c0.3,0.5,0.3,1.1,0.2,1.7c-0.6-0.1-0.4-0.5-0.5-0.9s-0.4-0.8-0.5-1.2c-0.3-1.8-1-3.4-1.5-5.1
	s-0.9-3.6-1.6-5.3c0-0.1-0.1-0.2-0.1-0.3C75.8,147,75.6,146.7,75.8,146.3z"/>
<path class="st49" d="M75.2,115.5V115c0.7,1,0.8,2.3,1.2,3.4c1,2.9,1.8,5.9,2.6,8.8c0.1,0.1,0.2,0.3,0.1,0.4c0,0,0,0-0.1,0.1
	c-0.6-1.2-1-2.5-1.3-3.8c-0.3-1.1-0.7-2.2-0.9-3.3c-0.4-1.5-1-3-1.3-4.5C75.4,115.8,75.3,115.6,75.2,115.5z"/>
<path class="st22" d="M82,15.9c-0.3,0.5-0.6,1.1-0.9,1.6c-0.5,0.8-1.5,1.2-2.4,0.9c-1-0.3-2-0.5-3-0.5c-0.5,0-1,0.1-1.2-0.5
	s0.2-1,0.6-1.3c0.1,0.1,0.2,0.1,0.2,0.2c0,0.7,0.3,1,1,1c0.8,0,1.7,0.1,2.5,0.3c0.8,0.2,1.7-0.1,2.1-0.9c0.3-0.4,0.4-0.8,0.9-0.9
	C81.8,15.8,81.9,15.9,82,15.9z"/>
<path class="st66" d="M58.4,78.9h0.4H59c3.1-0.1,6.2,0,9.3,0c0.4,0,0.9,0,1.3-0.1c0.3-0.2,0.4-0.5,0.4-0.8c0-0.4,0-0.9,0-1.3
	s-0.3-1,0.1-1.5c0.9,1.1,0.7,2.4,0.4,3.7c-0.1,0.5-0.5,0.5-0.9,0.5H59.3C58.9,79.4,58.6,79.3,58.4,78.9z"/>
<path class="st67" d="M79.9,8.8l-1.6,2.6c-0.2,0.3-0.4,0.7,0.2,0.8c1.4,0.2,2.7,0.8,4.2,0.7c0.5,0,1.1-0.2,1.4-0.7
	c0.1,0.1,0.1,0.3,0,0.5c-0.2,0.5-0.8,0.8-1.4,0.7c-1.5-0.3-3-0.2-4.5-0.9c-0.5-0.2-0.7-0.6-0.4-1c0.5-0.9,1.1-1.8,1.8-2.6
	C79.7,8.7,79.8,8.7,79.9,8.8z"/>
<path class="st61" d="M82,15.9h-0.3c-1.4-1.3-3.1-1.2-4.7-1.2c-0.4,0-0.7,0.4-1,0.7c-0.3,0.4-0.4,0.8-1,0.9v-0.3
	c0.6-1.7,1.8-2.4,3.5-2c1,0.1,2.1,0.3,3.1,0.6C82.1,14.9,82.6,15.2,82,15.9z"/>
<path class="st68" d="M70.4,78.1l-0.2,0.8c-0.1,0.1-0.2,0.1-0.3,0c0,0,0,0,0,0c-0.2-0.8-0.3-1.6-0.2-2.4c-0.1-1.1-0.5-1.6-1.6-1.6
	c-2.8,0-5.6,0-8.3,0c-0.4,0-0.9,0.2-1.3,0.3h-0.2c-0.1-0.6,0.2-0.9,0.8-0.9h2.5c2.6,0,5.2-0.2,7.8,0.1l0,0c0.3,0.2,0.6,0.5,0.8,0.8
	l0,0l0.2,1.5C70.2,77.1,70.2,77.6,70.4,78.1z"/>
<path class="st61" d="M50.8,227.2c-1.1,1-0.6,2.3-0.6,3.5c0,0.6,0.6,0.3,0.9,0.2c0.8-0.3,1.7-0.7,2.5-1.1c0.3-0.2,0.7-0.3,1-0.2
	c-0.8,0.9-2.1,1-3.1,1.6c-0.3,0.1-0.7,0.3-1,0.4c-0.4,0.2-0.7,0-0.7-0.3c-0.2-1.2-0.2-2.4,0.1-3.5c0-0.2,0.3-0.3,0.4-0.4
	C50.5,227,50.7,227,50.8,227.2C50.8,227.2,50.8,227.2,50.8,227.2z"/>
<path class="st69" d="M84.1,285.6v-0.2c1-0.9,1.8-2,2.5-3.2c0.1-0.2,0.4-0.5,0.1-0.8s-0.5,0.1-0.7,0.3c-0.9,0.7-1.7,1.6-3,1.7
	c1.2-0.8,2.3-1.6,3.4-2.6c0.2-0.2,0.5-0.4,0.8-0.2s0.2,0.6,0,0.9c-0.7,1.5-1.6,2.9-2.8,4C84.3,285.7,84.2,285.7,84.1,285.6z"/>
<path class="st46" d="M84,12.6v-0.5c1.1-1.7,2.2-3.4,3.3-5.2c0.6-1,0.6-1-1-2.1c-0.1-0.1-0.1-0.2,0-0.2c0,0,0,0,0,0
	c0.7,0,1.1,0.6,1.6,0.9c0.3,0.2,0.4,0.6,0.2,0.9c0,0,0,0,0,0C86.7,8.5,85.6,10.7,84,12.6z"/>
<path class="st70" d="M22,101.3l0.1,0.3c0.4,1-0.2,1.9-0.5,2.8c-0.6,2.1-1.2,4.3-1.9,6.4c-0.1,0.3-0.1,0.8-0.6,0.8
	c-0.1-0.2-0.1-0.3,0-0.5c0-1.6,0.8-2.9,1.1-4.4c0.3-1.2,0.7-2.3,1-3.5c0.1-0.7,0.3-1.3,0.6-1.9l0,0C21.9,101.3,22,101.3,22,101.3z"
	/>
<path class="st71" d="M50.8,227.2h-0.4c1.4-0.9,2.9-1.6,4.5-2.1c0.2-0.1,0.5,0,0.6,0.2c0,0,0,0.1,0,0.2c0.2,1.2,0.2,2.5-0.1,3.7
	c0,0.1-0.2,0.1-0.3,0.2c0.2-1,0.3-2,0.2-3c0-0.7-0.2-1-0.9-0.7C53.2,226.2,52,226.7,50.8,227.2z"/>
<path class="st72" d="M71,129.3c-0.1,0-0.1,0-0.2,0c-0.4-2.1-1.2-4.2-1.8-6.3s-1.3-3.9-1.6-5.9c0.9,1.2,0.9,2.7,1.4,4.1
	c0.5,1.3,0.9,2.7,1.2,4.1C70.3,126.7,71.2,127.9,71,129.3z"/>
<path class="st73" d="M78.9,127.7v-0.5c0.8,2.6,1.6,5.1,2.3,7.7c0.4,1,0.7,2.1,0.8,3.2c-0.1,0.1-0.1,0.1-0.2,0
	c-0.4-1.4-0.9-2.8-1.2-4.2C80.2,131.8,79.3,129.8,78.9,127.7z"/>
<path class="st74" d="M75,30.4c-0.1,0.9-0.8,1.5-1.3,2.2c-1.3,2.2-2.6,4.3-4,6.4c-0.1,0.2-0.3,0.3-0.4,0.5l-0.1-0.3l4.3-6.9
	C73.9,31.6,74.4,31,75,30.4z"/>
<path class="st75" d="M10.1,141.8c-0.7,2.2-1.4,4.5-2.1,6.7c-0.2,0.6-0.2,1.3-0.8,1.8c0.2-1.2,0.5-2.4,1-3.5
	c0.4-1.3,0.9-2.5,1.1-3.8c0.2-0.7,0.6-1.4,0.8-2.2C10.3,141,10.3,141.4,10.1,141.8z"/>
<path class="st76" d="M14.1,127.6c-0.1-1.4,0.7-2.7,1-4s0.8-2.7,1.1-4c0.1-0.3,0.1-0.6,0.4-0.8c0.2,0.2,0.3,0.4,0.2,0.6
	c-0.6,2.8-1.4,5.5-2.4,8.2C14.3,127.7,14.2,127.7,14.1,127.6z"/>
<path class="st9" d="M83.2,281.4v-0.3c0-0.2,0.2-0.4,0.3-0.5c1.5-1.1,2.7-2.6,3.4-4.4c0.1-0.3,0.3-0.6,0.5-0.8c0.1,0,0.2,0,0.3,0
	c-0.1,1-0.6,2-1.2,2.8c-0.2,0.3-0.4,0.6-0.5,1C85,280,84.4,281,83.2,281.4z"/>
<path class="st77" d="M14.1,127.6h0.2c0.4,1-0.3,1.7-0.5,2.6c-0.4,1.4-0.8,2.9-1.2,4.3c-0.1,0.2-0.2,0.4-0.3,0.5
	c-0.1,0.1-0.2,0.1-0.3,0c0,0,0,0,0,0C12.5,132.5,13.2,130,14.1,127.6z"/>
<path class="st78" d="M90,4.6L90.1,5c-1.4-0.7-2.6-1.5-3.8-2.5C85.5,2,84.5,1.7,84,0.8c1.8,0.8,3.2,2.2,4.9,3.1
	C89.3,4.1,89.7,4.4,90,4.6z"/>
<path class="st79" d="M63.8,44.9c0.2-0.8,0-1.2-0.9-1.2c-0.9-0.1-1.8-0.3-2.6-0.6c-1-0.3-2.2,0-2.9,0.8c0.1-0.7,0.7-1.2,1.4-1.1
	c1-0.1,2.1,0.1,3.1,0.4c0.5,0.2,0.9,0.3,1.4,0.3C64.3,43.5,64.4,43.9,63.8,44.9z"/>
<path class="st80" d="M84.8,4c-1.2-0.9-1.2-0.8-2.2,0.4c-0.4,0.6-0.4,1.5-1.3,1.7c0.4-1,1-2,1.7-2.8c0.3-0.5,0.8-0.4,1.3-0.1
	c0.4,0.2,0.8,0.5,1.1,0.8C85.2,4.1,85,4.1,84.8,4C84.8,4,84.8,4,84.8,4z"/>
<path class="st42" d="M3,177.6v5.4c-0.2-0.1-0.4-0.3-0.4-0.6c0-1.5,0-2.9,0-4.4C2.6,177.9,2.8,177.8,3,177.6z"/>
<path class="st81" d="M66.2,36.8c0.3,0,0.5,0,0.8,0c1.3,0.5,2-0.2,2.6-1.2c0.5-1,1.1-1.8,1.8-2.7l0.1,0.3c-0.5,0.8-1,1.6-1.5,2.4
	c-0.4,0.6-0.9,1.2-1.5,1.6c-0.3,0.2-0.7,0.2-1,0c-0.4-0.2-0.8-0.3-1.2-0.2C66.2,36.9,66.1,36.8,66.2,36.8
	C66.2,36.7,66.2,36.8,66.2,36.8z"/>
<path class="st82" d="M12,135h0.2c0.1,0,0.1,0.1,0.1,0.1c0,0.1,0,0.1,0,0.1c-0.6,1.1-1,2.3-1.2,3.6c-0.4,1-0.7,2-0.9,3v-1.1
	c0.6-1.6,1.1-3.2,1.4-4.9C11.6,135.5,11.8,135.2,12,135z"/>
<path class="st83" d="M67.2,111.7c0.1,0,0.1,0,0.2,0.1c1,1.2,1,2.8,1.5,4.1c0.2,0.5,0.2,1.1,0.5,1.6c0.1,0.3,0.3,0.7,0,1h-0.2
	c-0.9-1.9-1-4-1.9-5.9C67.2,112.2,67.2,111.9,67.2,111.7z"/>
<path class="st47" d="M18.5,106.8c0.3-1.7,0.9-3.2,1.3-4.8c0.3-0.3,0-0.8,0.4-1.1c0,0.9-0.2,1.7-0.5,2.5c-0.4,1.1-0.7,2.2-1,3.3
	C18.6,106.9,18.5,106.9,18.5,106.8z"/>
<path class="st84" d="M87.6,10.5v0.4l-2.2,3.4c-0.2,0.3-0.3,0.7-0.7,0.8C85.4,13.4,86.4,11.9,87.6,10.5z"/>
<path class="st66" d="M69.3,74.3c-2.6,0-5.2,0.1-7.8-0.1C64.1,74,66.7,74,69.3,74.3z"/>
<path class="st42" d="M3.2,170.7c0,2.1,0,4.1,0,6.2c0,0.3,0,0.6-0.2,0.8c0.1-1.9,0.1-3.8,0.1-5.8C3,171.4,2.9,171,3.2,170.7z"/>
<path class="st85" d="M19.1,111.2l0,0.5c0.3,0.6-0.2,1.1-0.3,1.7c-0.2,0.8-0.6,1.6-0.8,2.3c-0.1,0.3-0.1,0.6-0.5,0.6
	c-0.1-0.1-0.1-0.3,0-0.5C17.9,114.2,18.4,112.7,19.1,111.2z"/>
<path class="st78" d="M81.5,1.9c0.3-0.3,0.6-0.7,0.9-1c0.5-0.5,1.1-0.7,1.6-0.1c-1.2-0.1-1.8,0.3-2.5,1.7c-0.2,0.5-0.5,0.8-0.9,1.1
	L81.5,1.9z"/>
<path class="st74" d="M81.5,20.1c-0.5,1.4-1.5,2.4-2.1,3.7L79,24.1C79.6,22.7,80.5,21.3,81.5,20.1z"/>
<path class="st86" d="M2.7,274H3c0.3,1.4,0.8,2.7,1.5,4c-0.8-0.7-1.3-1.7-1.5-2.8C2.9,274.8,2.8,274.4,2.7,274z"/>
<path class="st84" d="M84.7,15.1c-0.5,1.2-1.2,2.4-2.1,3.4C83,17.2,83.7,16.1,84.7,15.1z"/>
<path class="st87" d="M18.5,106.8h0.2c-0.5,1.1-0.3,2.6-1.3,3.5c0.3-0.6,0.5-1.4,0.5-2.1L18.5,106.8z"/>
<path class="st88" d="M81.9,138.1h0.2l0.7,1.7c-0.1,0.7,0.4,1.2,0.4,1.9c-0.3-0.2-0.5-0.4-0.5-0.8C82.5,140,82.2,139.1,81.9,138.1z"
	/>
<path class="st87" d="M16,114.8c0.5-1.2,0.6-2.5,1.2-3.6c0.1,1.2-0.7,2.2-0.8,3.4C16.4,114.7,16.2,114.8,16,114.8z"/>
<path class="st81" d="M63,36.1c1,0,2,0.2,3,0.6c-0.4,0.2-0.9,0.2-1.3,0C64.1,36.7,63.5,36.5,63,36.1z"/>
<path class="st89" d="M54.6,50.4c1.1,0.4,2.1,1,3,1.7c-0.1,0.1-0.2,0.1-0.3,0c0,0,0,0,0,0C56.4,51.6,55.4,51,54.6,50.4z"/>
<path class="st90" d="M6.8,152c0.2,1.1-0.8,2-0.7,3.1H5.9C5.7,154,6.3,153,6.8,152z"/>
<path class="st42" d="M3.8,166.7l-0.6,3.8C3,169.2,3.2,167.9,3.8,166.7z"/>
<path class="st53" d="M23.3,96.3c-0.2,1.2-0.5,2.3-1,3.4C22.6,98.6,22.6,97.3,23.3,96.3z"/>
<path class="st91" d="M57.3,52.1h0.3c0.9,0.7,1.5,0.3,2.1-0.4C59.2,53,58.8,53.1,57.3,52.1z"/>
<path class="st74" d="M76.9,27.5c-0.3,0.9-0.8,1.6-1.5,2.3C75.6,28.9,76.2,28.1,76.9,27.5z"/>
<path class="st92" d="M79.9,8.8h-0.3c0.3-0.8,0.7-1.6,1.4-2.1C81.1,7.6,80.1,8,79.9,8.8z"/>
<path class="st42" d="M4.4,162.1l-0.6,3.2C3.7,164.1,3.9,163,4.4,162.1z"/>
<path class="st79" d="M61.9,47.8c0.4-0.8,0.9-1.6,1.5-2.3C63.2,46.4,62.7,47.2,61.9,47.8z"/>
<path class="st78" d="M90.1,6.5c-0.4,0.8-0.9,1.6-1.5,2.3C88.9,7.8,89.4,7,90.1,6.5z"/>
<path class="st85" d="M16.6,119.5v-0.6l0.4-1.4c0.1-0.1,0.2-0.1,0.3,0c0,0,0,0,0,0C17.6,118.3,17.5,119,16.6,119.5z"/>
<path class="st74" d="M78.4,25.2c-0.2,0.7-0.7,1.4-1.3,1.9C77.3,26.3,77.8,25.6,78.4,25.2z"/>
<path class="st47" d="M20.8,98.9l0.6-2.1C21.5,97.5,21.6,98.3,20.8,98.9z"/>
<path class="st47" d="M20.2,101c0.1-0.7,0.4-1.4,0.6-2.1C20.8,99.6,21,100.5,20.2,101z"/>
<path class="st72" d="M67.4,117.1c-0.3-0.6-0.5-1.2-0.6-1.9C67.4,115.7,67.6,116.4,67.4,117.1z"/>
<path class="st47" d="M84.1,285.6l0.3-0.1c-0.3,0.7-0.9,1.1-1.7,1.3L84.1,285.6z"/>
<path class="st93" d="M84.8,4h0.5c0.4,0.1,0.7,0.4,1,0.7v0.2C85.7,4.8,85.3,4.3,84.8,4z"/>
<path class="st11" d="M15.2,118c0.1-0.7,0.3-1.3,0.6-1.9C15.9,116.8,15.6,117.5,15.2,118z"/>
<path class="st53" d="M21.9,101.4c-0.1,0.7-0.3,1.3-0.6,1.9C21.1,102.6,21.4,101.9,21.9,101.4z"/>
<path class="st90" d="M7.2,150.8c0.1,0.5,0,0.9-0.4,1.3C6.4,151.4,6.7,151.1,7.2,150.8z"/>
<path class="st53" d="M23.9,94.4l-0.6,1.7C23.2,95.5,23.4,94.8,23.9,94.4z"/>
<path class="st9" d="M55.3,173.2l-0.3-0.1c0.1-0.5,0.1-1,0.7-1.2v0.7C55.7,172.9,55.5,173.1,55.3,173.2z"/>
<path class="st76" d="M17.2,117.3h-0.2c-0.1-0.6,0.1-1.2,0.6-1.5v0.4C17.7,116.7,17.5,117.1,17.2,117.3z"/>
<path class="st53" d="M22,101.3c0,0-0.1,0.1-0.2,0.1c0-0.6-0.1-1.2,0.4-1.7L22,101.3z"/>
<path class="st53" d="M24.4,92.6c0,0.6-0.2,1.2-0.4,1.7C23.9,93.7,23.8,93,24.4,92.6z"/>
<path class="st53" d="M26.3,88.2l-0.9,1C25.4,88.6,25.7,88.2,26.3,88.2z"/>
<path class="st91" d="M63.2,31.3c0-0.4,0.3-0.8,0.6-1.1C63.9,30.6,63.7,31.1,63.2,31.3z"/>
<path class="st89" d="M54,49.4l0.7,0.9C54.1,50.3,53.7,50.1,54,49.4z"/>
<path class="st78" d="M90.1,5c0.4,0.4,0.4,1.1,0,1.5V5z"/>
<path class="st51" d="M64.7,36.8H66c0.1,0,0.1,0,0.2,0c0,0.1,0,0.1,0,0.2C65.7,36.9,65.2,37.1,64.7,36.8z"/>
<path class="st74" d="M79,24.1c-0.1,0.4-0.3,0.8-0.6,1C78.3,24.7,78.5,24.3,79,24.1z"/>
<path class="st90" d="M5.3,157.2c0,0.5,0.2,1-0.2,1.5C5.1,158.2,4.9,157.7,5.3,157.2z"/>
<path class="st66" d="M70.2,75.1c-0.3-0.2-0.6-0.5-0.8-0.8C69.8,74.3,70.2,74.7,70.2,75.1z"/>
<path class="st84" d="M82.6,18.5c0,0.4-0.3,0.8-0.7,1C81.9,19,82.1,18.6,82.6,18.5z"/>
<path class="st53" d="M25.2,89.8c0,0.4-0.2,0.8-0.4,1.1C24.7,90.5,24.8,90,25.2,89.8z"/>
<path class="st53" d="M24.8,90.9c0,0.4,0.1,0.9-0.2,1.2C24.6,91.8,24.5,91.2,24.8,90.9z"/>
<path class="st91" d="M60.5,50.1c0.1-0.4,0.3-0.7,0.7-0.8C61.1,49.7,60.9,50,60.5,50.1z"/>
<path class="st81" d="M63,35l-0.2,0.8c-0.5-0.1-0.3-0.4-0.2-0.6S62.8,35,63,35z"/>
<path class="st74" d="M75.4,29.8c0,0.3-0.2,0.5-0.4,0.6C74.9,30.1,75,29.8,75.4,29.8z"/>
<path class="st51" d="M67.4,37.1h1C68.2,37.4,67.8,37.4,67.4,37.1C67.5,37.2,67.4,37.2,67.4,37.1z"/>
<path class="st51" d="M62.6,35.2c0,0.2-0.1,0.5,0.2,0.6c0,0.1,0.1,0.1,0.1,0.2C62.2,36,62.3,35.6,62.6,35.2z"/>
<path class="st86" d="M2.5,271.9c0,0.4,0,0.7,0,1.1C2.3,272.7,2.3,272.2,2.5,271.9z"/>
<path class="st11" d="M15.8,116.1c-0.1-0.4,0-0.7,0.2-1.1C16.1,115.4,16,115.8,15.8,116.1z"/>
<path class="st94" d="M51.5,142.3c-0.2,0.3-0.5,0.4-0.8,0.4C50.8,142.4,51.1,142.3,51.5,142.3z"/>
<path class="st24" d="M7.8,283.4c0.6,0.1,1.2,0.3,1.7,0.8C8.9,284.2,8.3,283.9,7.8,283.4z"/>
<path class="st95" d="M79.2,158c0.6,0.6,0.5,1.4,0.8,2.2c1,3.3,2,6.6,2.1,10.2c0,1.9,0.2,3.8,0.2,5.7c0,29.5,0,58.9,0,88.4
	c0.1,2.3-0.7,4.5-2.2,6.2c-0.2,0.2-0.4,0.4-0.2,0.6s0.4,0.2,0.7,0.2c0.4,0,0.8-0.1,1.1-0.3c0.1,0.1,0.1,0.3,0,0.4
	c-0.3,0.4-0.8,0.6-1.3,0.6c-1.1,0-1.6-0.8-0.9-1.7c1.5-2.2,2.3-4.8,2.1-7.5c0-29.8,0-59.7,0-89.5c0-4-0.6-7.9-1.9-11.7
	c-0.3-1-0.6-2.1-0.8-3.1C79,158.4,79.1,158.2,79.2,158z"/>
<path class="st96" d="M81.7,271.5v-0.3c1-1.6,1.8-3.4,2.2-5.3c0.1-0.3,0.1-0.7,0.1-1c0-30.7,0-61.4,0-92.1c-0.1-2.6-0.5-5.1-1.1-7.6
	c-0.4-1.5-0.8-3-1-4.6c0.1-0.1,0.3-0.1,0.4,0c0.4,0.4,0.6,1,0.7,1.5c1,3.9,1.5,8,1.7,12c-0.1,30.1-0.1,60.2,0,90.3
	c0,2.1-0.5,4.1-1.6,5.9C82.7,270.9,82.4,271.5,81.7,271.5z"/>
<path class="st97" d="M82.1,160.6h-0.2c-0.4-0.8-0.6-1.7-0.8-2.5c-0.6-1.9-1.1-3.9-1.7-5.8s-1-3.9-1.7-5.8s-1-3.6-1.6-5.4
	c-0.2-0.7-0.4-1.4-0.5-2.1c-0.1-0.2-0.1-0.5,0-0.7c0.4-0.1,0.4,0.3,0.5,0.5c1,3.4,2.1,6.9,3.1,10.3c0.7,2.6,1.6,5.3,2.4,7.9
	c0.3,0.8,0.4,1.7,0.7,2.5C82.4,159.9,82.4,160.3,82.1,160.6z"/>
<path class="st98" d="M82.1,160.6c-0.4-2-1-4-1.6-5.9c-0.6-2.1-1.3-4.2-1.8-6.3s-1.2-3.9-1.8-5.9c-0.4-1.4-0.8-2.8-1.3-4.2
	c-0.2,0-0.3-0.1-0.3-0.3c-0.4-1.7-0.9-3.5-1.5-5.1c-0.8-3.2-1.8-6.4-2.8-9.5c-0.1-0.2,0-0.4-0.2-0.6c0-0.1,0-0.1,0-0.2
	c-0.3-0.6-0.5-1.3-0.6-1.9c0-0.1,0-0.1,0-0.2c-0.6-2-1.2-4.1-1.8-6.1c-0.3-0.9-0.6-1.8-0.8-2.7c-0.1-0.4,0.1-0.8-0.1-1.1
	c-0.5-1.3-0.9-2.6-1.2-4c-0.2-0.3,0.1-0.7-0.2-1c-0.7-1.6-1.2-3.2-1.6-4.9c-0.2-0.4-0.3-0.7-0.4-1.1c-0.4-1.3-0.8-2.6-1.2-3.8
	c-0.2-0.5-0.5-1-0.9-1.4c-0.9-0.2-1.8-0.2-2.7-0.1c-0.7,0-1-0.2-0.9-1c0.1-1.4,0.1-2.7,0-4.1c-0.1-0.8,0.3-1.2,1-1.2
	c1.4,0,2.7,0,4.1,0c0.6,0,1.2,0.2,1.6,0.7c0.9,0.8,0.9,2.1,1.3,3.2c1.2,3.9,2.4,7.9,3.6,11.9c0.8,2.8,1.6,5.5,2.4,8.3
	s1.4,5.3,2.4,7.9c0.2,0.6,0.1,1.2,0.4,1.7c1.3,4.5,2.7,9,4,13.6c0.8,2.8,1.7,5.5,2.5,8.3c0.6,2,1.3,4,1.8,6.1
	c0.2,0.8,0.5,1.6,0.7,2.5c0.5,1.2,0.7,2.5,1.1,3.8c0.5,1.7,0.9,3.4,1.5,5.1l0,0c0.1,0.9,0.3,1.8,0.6,2.7c0,0.7,0,1.3,0.2,2
	c0.1,1.7,0.3,3.3,0.3,5c0.5,34,0.1,67.9,0.2,101.9c0.1,1-0.1,2-0.6,2.9c-0.7,2.3-2.2,4.3-4.2,5.6c-1.8,1.1-3.8,1.6-5.9,1.5
	c-21.3,0-42.6,0-63.9,0c-3.3,0-6.4-1.6-8.3-4.3c-1.5-1.9-2.1-4.4-1.8-6.8c0-0.3,0-0.7,0-1V270c0.1-0.4,0.1-0.8,0.1-1.1
	c0-28.2,0-56.3,0-84.5c0.1-0.4,0-0.8-0.1-1.1c-0.2-1.9-0.2-3.8-0.1-5.7c0.1-1.4,0-2.7,0.1-4.1c0.2-3.8,0.6-7.5,1.3-11.2
	c0.3-2.1,0.8-4.2,1.4-6.3c0.7-2.4,1.4-4.9,2.2-7.4c0.6-2,1.3-4,1.9-6.1c0.8-2.4,1.5-4.9,2.2-7.4c0-1.1,0.3-2.3,0.8-3.3
	c0.9-2.8,1.6-5.5,2.4-8.3c0.6-2,1.4-4,1.8-6.1c0.3-1.4,0.9-2.8,1.2-4.2c0.1-0.6,0.2-1.1,0.5-1.6c0.5-1.5,1-3,1.4-4.6
	c0.5-1.8,1-3.7,1.5-5.5c1.1-3.4,2.1-6.8,3-10.2c0.2-0.7,0.4-1.4,0.7-2.1c0.3-0.9,1-1,1.9-1c4.8,0,9.6,0,14.4,0c1.8,0,3.6,0,5.5,0
	c0.8,0,1.1,0.3,1,1c0,1.3,0,2.6,0,3.9c0,0.8-0.3,1-1,1c-3.5,0-7,0-10.5,0c-0.4,0-0.8,0-1.1,0.1c-0.5,0.2-0.8,0.7-0.7,1.3
	c0.1,0.6,0.5,0.7,1.1,0.7h10.9c1.3,0,1.4,0.1,1.4,1.4c0,8,0.2,16.1,0,24.1c-0.3,12.5,0,25-0.2,37.5c-0.1,0.4-0.1,0.8-0.1,1.1
	c0,10.9,0.2,21.7,0,32.5c-0.2,11.3,0.1,22.6-0.2,33.9c-0.2,5.4,0,10.8-0.2,16.1c-0.1,0.5,0,1,0.3,1.4c0.1,0.1,0.2,0.2,0.4,0.2
	c0.2,0,0.3,0.1,0.5,0.1c2.4,0,4.8,0,7.3,0c0.2,0,0.3-0.1,0.5-0.2l0.2-0.2c0.3-0.2,0.4-0.6,0.6-0.9c0.1-0.4,0.1-0.8,0.1-1.1
	c0-6.3,0-12.7,0-19c-0.1-0.4,0-0.8,0.1-1.1c0-4.9,0-9.9,0-14.8c0-5.5-0.1-10.9,0-16.4c0.3-11.1-0.1-22.2,0.2-33.4
	c0.3-10.8-0.1-21.6,0.2-32.3c0.3-9.3,0.1-18.5,0.2-27.8c0-0.5,0-0.9,0.6-1s1.3-0.3,1.8,0.4c0.4,0.6,0.6,1.2,0.7,1.8
	c0.1,0.8,0.4,1.5,0.8,2.1c-0.1,0.2-0.2,0.3-0.1,0.6c0.6,1.3,1,2.7,1.3,4.1c0.6,1.8,1.1,3.7,1.6,5.6c0.5,1.7,1.1,3.4,1.6,5.1
	c0.6,2.1,1.2,4.1,1.8,6.2c0.5,1.8,1.1,3.6,1.7,5.4c0.2,0.6,0.4,1.2,0.6,1.9l2.8,9.4c0.3,0.6,0.5,1.2,0.6,1.9c0,1.1,0.7,2,0.9,3
	c0.2,0.7,0.4,1.4,0.6,2.2c0.2,0.3,0.2,0.7,0.4,1l0,0c0.9,3,1.8,6.1,2.7,9.1c0.2,0.7,0.3,1.3,0.4,2c1,3.1,1.8,6.2,2.4,9.4
	c0.2,1.5,0.3,2.9,0.3,4.4c0,30.7,0,61.4,0,92.1c0.1,2.3-0.7,4.5-2.2,6.3c-0.5,0.6-0.3,1.1,0.4,1.3c0.6,0.1,1.1-0.1,1.6-0.4
	c1.7-1.8,2.6-4.2,2.5-6.6c0-24.4,0-48.8,0-73.2c0-6.9,0.1-13.8-0.1-20.7C83.9,167.4,83.3,163.9,82.1,160.6z"/>
<path class="st99" d="M48.1,244.4c-0.5-0.2-0.4-0.7-0.4-1.1c0-4.9-0.2-9.8,0-14.7c0.4-10.8-0.1-21.6,0.2-32.4c0.3-12,0.1-24,0.2-36
	c0-0.3-0.1-0.6,0.2-0.9c0,6.3,0,12.7,0,19c0,5,0.1,9.9,0,14.9c-0.4,11.2,0.1,22.4-0.2,33.5c-0.2,5.3,0,10.6-0.2,15.9
	C47.8,243.2,47.9,243.8,48.1,244.4z"/>
<path class="st35" d="M48.7,244.8l-0.2-0.2h8.3l-0.2,0.2C53.9,245,51.3,245,48.7,244.8z"/>
<path class="st99" d="M57.8,222.3c0,6.7,0,13.3,0,20c0,0.4,0.1,0.8-0.2,1.2c0-6.8,0-13.6,0-20.4C57.6,222.9,57.5,222.6,57.8,222.3z"
	/>
<path class="st14" d="M87.4,275.5c0.3-1.3,0.5-2.6,0.4-3.9c0-32.1,0-64.3-0.1-96.4c0-3.2-0.1-6.4-0.4-9.6c-0.2-0.6,0.1-1.3-0.2-1.9
	c-0.3-0.8-0.8-1.6-0.4-2.5c1,1.7,0.8,3.7,1,5.5c0.7,7.2,0.4,14.4,0.4,21.6c0,28.2,0,56.3,0,84.5c0.1,1-0.1,2-0.6,2.9L87.4,275.5z"/>
<path class="st62" d="M75,121.8c-0.7-2.7-1.7-5.4-2.4-8.2c-0.5-1.9-1.2-3.7-1.7-5.6s-1.2-3.9-1.7-5.9c-0.8-2.8-1.6-5.5-2.5-8.3
	c-0.3-0.9-0.5-1.9-0.8-2.8c-0.2-0.7-0.4-1.4-0.7-2c-0.1-0.1-0.1-0.2,0-0.3c0,0,0,0,0,0c0.4,0.4,0.8,0.8,0.9,1.4
	c0.8,2.8,1.8,5.6,2.5,8.4c0.5,2,1.2,4,1.7,6c0.4,1.8,1.1,3.4,1.6,5.2c0.9,2.9,1.8,5.8,2.6,8.8c0.2,0.8,0.8,1.6,0.7,2.5
	C75.2,121.3,75.2,121.5,75,121.8z"/>
<path class="st100" d="M75,121.8V121c0.6,1.2,1,2.5,1.3,3.8c0.7,2.1,1.3,4.2,1.9,6.3c0.5,1.8,1.1,3.5,1.6,5.3
	c0.6,2.1,1.2,4.1,1.8,6.2c0.6,2.2,1.2,4.3,1.8,6.5c0.2,0.8,0.7,1.4,0.6,2.3c0.1,0.2,0.1,0.5,0,0.7c-0.8-2.7-1.5-5.4-2.3-8.2
	c-0.6-1.9-1.2-3.8-1.8-5.6s-1-3.7-1.6-5.5c-0.9-3-1.8-6-2.7-9C75.4,123.2,75.2,122.5,75,121.8z"/>
<path class="st4" d="M65.1,88.8v0.3c-0.5-0.5-1.1-0.7-1.8-0.7c-1.3,0-2.6,0-3.9,0c-0.7,0-1,0.2-0.9,1c0.1,1.4,0.1,2.7,0,4.1
	c-0.1,0.7,0.2,0.8,0.8,0.8c0.9,0.1,1.8-0.3,2.6,0.2h-0.7c-0.7,0-1.5,0-2.2,0s-0.9-0.2-0.9-0.9c0-1.6,0-3.1,0-4.7c0-0.7,0.3-1,1-1
	c1.5,0,2.9,0,4.4,0C64.2,87.9,64.8,88.2,65.1,88.8z"/>
<path class="st14" d="M84,152.2v-0.7c0.8,1.2,0.8,2.6,1.3,3.9c0.5,1.5,0.8,3.1,1.4,4.7c0.1,0.3,0.1,0.6,0.1,0.9
	c-0.9-1.1-0.9-2.7-1.4-4C84.8,155.5,84.4,153.8,84,152.2z"/>
<path class="st14" d="M3.4,183.3c0.3,0.3,0.2,0.7,0.2,1.1c0,28.2,0,56.3,0,84.5c0,0.4,0.1,0.8-0.2,1.1c0-0.4,0-0.7,0-1
	c0-28.1,0-56.3,0-84.4C3.4,184.1,3.4,183.7,3.4,183.3z"/>
<path class="st32" d="M50.8,160.5c0-2.8,0-6.1-0.2-9.4c-0.1-1.9,0.2-1.8,2-2.7c0.8-0.4,1.5-0.6,2.4-0.8c0.6-0.1,0.9,0.1,0.9,0.7
	c-0.2,4.2,0.3,8.5-0.3,12.8c-0.1,1.5-0.1,2.9,0,4.4c0.1,0.7-0.3,1.4-1,1.6c-0.9,0.3-1.8,0.7-2.6,1.1s-1.1,0.2-1-0.7
	C50.9,165.3,50.8,163.2,50.8,160.5z"/>
<path class="st101" d="M55.9,137.9c-0.4,0.7-1,1.1-1.8,1.3c-0.8,0.3-1.7,0.6-2.5,1c-0.7,0.4-1,0.1-1-0.7c0.1-0.4,0.2-0.8,0.1-1.1
	c0-5.3,0-10.7,0-16c-0.1-0.4,0-0.8,0.1-1.1c0.9-0.9,2.1-1,3.2-1.4c0.6-0.2,1.1-1,1.9-0.7c0.2,0.2,0.1,0.5,0.1,0.8c0,5.7,0,11.3,0,17
	C56,137.4,56.1,137.7,55.9,137.9z"/>
<path class="st29" d="M55.9,137.9c0-6.2,0-12.4,0-18.7c0.3,0.2,0.2,0.6,0.2,0.9c0,5.6,0,11.2,0,16.8
	C56.1,137.3,56.2,137.6,55.9,137.9z"/>
<path class="st29" d="M50.8,121.3c0,5.7,0,11.4,0,17.1c0,0.4,0.1,0.8-0.2,1.2c0-5.8,0-11.6,0-17.4C50.6,121.9,50.6,121.6,50.8,121.3
	z"/>
<path class="st30" d="M50.9,104.7c0-2.3,0-4.5,0-6.8c0-0.8,0.3-1.1,1.1-1.1c1,0.1,2.1,0,3.1,0c0.6,0,0.8,0.2,0.8,0.8c0,4,0,8,0,11.9
	c0,1-0.7,1.3-1.4,1.5c-0.9,0.3-1.8,0.7-2.7,1.1c-0.7,0.3-1,0.3-1-0.6C50.9,109.2,50.9,106.9,50.9,104.7z"/>
<path class="st102" d="M71,123.2c0.8,1,0.7,2.3,1.2,3.4c0.7,1.7,1.1,3.5,1.6,5.3c0.1,0.3,0.1,0.7,0.2,1c-0.1,0.1-0.2,0.1-0.2,0
	c-0.8-2.6-1.7-5.3-2.3-8c-0.1-0.4-0.2-0.7-0.4-1.1l0,0C70.8,123.6,70.9,123.4,71,123.2z"/>
<path class="st63" d="M67.6,111.7c0.7,2.2,1.4,4.5,2,6.8c0.2,0.7,0.7,1.3,0.4,2.1c-0.4-0.7-0.7-1.4-0.8-2.1
	c-0.6-1.9-1.1-3.9-1.7-5.8c-0.1-0.3-0.1-0.6-0.2-0.9l0.1-0.1h0.1L67.6,111.7z"/>
<path class="st103" d="M73.7,132.9h0.2c0.6,1.6,1.1,3.2,1.5,4.9c0.1,0.2,0.1,0.4,0.2,0.6v0.6c-0.7-1.1-0.8-2.4-1.2-3.5
	C74.1,134.6,73.8,133.8,73.7,132.9z"/>
<path class="st63" d="M70.2,120.7c0.4,0.6,0.6,1.2,0.6,1.9C70.3,122.1,70.1,121.4,70.2,120.7z"/>
<path class="st63" d="M71,123.9c0.3,0.2,0.5,0.7,0.4,1.1C71.1,124.7,71,124.3,71,123.9z"/>
<path class="st63" d="M71,123.2v0.7c-0.2-0.3-0.3-0.7-0.2-1.1C71,122.9,71,123,71,123.2z"/>
<path class="st32" d="M74.6,27.3c-0.8,1.2-1.7,2.5-2.5,3.7c-1,1.5-1.9,3.1-2.8,4.6c-0.4,0.7-1.2,1.1-2,0.9c-1.1-0.2-2.2-0.4-3.4-0.7
	c-0.4-0.1-0.7-0.2-0.6-0.7c1.1-1.7,2.2-3.4,3.3-5.2c2-3.2,4.1-6.5,6.1-9.7c0.3-0.6,1-0.9,1.6-0.7c1.2,0.4,2.4,0.6,3.6,0.6
	c0.4,0,0.8,0.1,0.7,0.7c-0.8,1.4-1.6,2.8-2.6,4.2c-0.3,0.6-0.7,1.3-1.2,1.8L74.6,27.3z"/>
<path class="st62" d="M74.8,26.9c0.7-1.4,1.5-2.7,2.3-3.9c0.4-0.7,0.9-1.4,1.4-2.1v0.3c-0.7,1.4-1.6,2.8-2.5,4.1
	C75.7,25.9,75.6,26.6,74.8,26.9z"/>
<path class="st30" d="M59.6,43.2c1.2,0.4,2.3,0.6,3.5,0.7c0.5,0,0.6,0.4,0.3,0.8c-1.4,2.2-2.8,4.4-4.2,6.6c-0.4,0.6-0.8,0.8-1.4,0.4
	c-1-0.6-2-1.2-3-1.7c-0.4-0.3-0.7-0.5-0.3-1.1c1-1.5,2-3.1,3-4.7C58,43.5,58.8,43.1,59.6,43.2z"/>
<path class="st104" d="M55.9,114.5c0,2.1-0.1,2.2-2,2.9c-0.8,0.3-1.6,0.7-2.4,1s-0.9,0.2-0.9-0.6c0,0,0-0.1,0-0.1
	c0-2.8,0.3-3.2,3.4-4.2c0.1,0,0.3-0.1,0.4-0.1c0.5,0,0.8-0.9,1.3-0.4S55.8,114.1,55.9,114.5z"/>
<path class="st3" d="M18.7,113.3c0.2,0.7-0.2,1.2-0.4,1.8c-0.8,2.8-1.5,5.6-2.4,8.4c-0.6,1.8-1.1,3.7-1.7,5.6c-0.7,2-1.2,4-1.8,6.1
	h-0.2V135l2.2-7.3c0.6-2.2,1.3-4.3,1.9-6.4c0.2-0.6,0.3-1.2,0.4-1.7c0.5-0.6,0.7-1.4,0.6-2.1c0-0.4,0.1-0.8,0.4-1.1
	C18.2,115.4,18.1,114.2,18.7,113.3z"/>
<path class="st105" d="M56.3,86.5c0,2-0.4,2.5-2.3,3.1c-0.8,0.3-1.6,0.6-2.4,0.9c-0.3,0.1-0.6,0.2-0.8-0.2c-0.4-0.7-0.1-3.2,0.5-3.7
	c1.3-0.9,2.7-1.5,4.2-2c0.4-0.2,0.7,0.1,0.8,0.6S56.3,86.1,56.3,86.5z"/>
<path class="st38" d="M55.5,200.3c-0.6,1.3-2,1.3-3.1,1.9c-0.4,0.1-0.8,0.3-1.1,0.5c-0.7,0.5-1,0.2-1-0.6c0-3.2-0.2-2.6,3.2-4
	c0.6-0.2,1.2-1,2-0.5C55.6,198.5,55.6,199.4,55.5,200.3z"/>
<path class="st58" d="M55.5,200.3c0-0.9,0-1.8,0-2.7C55.8,198.4,55.8,199.4,55.5,200.3z"/>
<path class="st101" d="M55.9,144c-0.7,1-1.8,1.6-3,1.9c-0.5,0.2-0.9,0.4-1.4,0.6s-0.8,0.1-0.8-0.5s0-1.4,0-2.1
	c0-0.6,0.4-1.1,0.9-1.3c1.1-0.5,2.2-0.9,3.3-1.3c0.3-0.1,0.7-0.1,1,0.1C56.1,142.3,56.1,143.2,55.9,144z"/>
<path class="st106" d="M55.9,144c0-0.8,0-1.7,0-2.5C56.2,142.3,56.2,143.2,55.9,144z"/>
<path class="st107" d="M55.7,171.9c-0.3,0.4-0.3,0.9-0.7,1.2c-1.2,0.5-2.4,1-3.6,1.4c-0.6,0.2-1,0.1-1-0.7c0-0.6,0-1.1,0-1.7
	c0-0.5,0.3-1,0.8-1.3c1.2-0.6,2.3-1,3.5-1.6c0.3-0.2,0.6,0,0.9,0.1C55.8,170.3,55.8,171.1,55.7,171.9L55.7,171.9z"/>
<path class="st9" d="M55.7,171.9c0-0.8,0-1.7-0.1-2.5C56,170.2,56,171.1,55.7,171.9z"/>
<path class="st80" d="M74.1,141.1c-0.3-0.6-0.5-1.3-0.6-1.9C74,139.7,74.2,140.4,74.1,141.1z"/>
<path class="st108" d="M76.1,147.4c-0.3-0.2-0.5-0.6-0.4-1h0.2C75.9,146.7,76.2,147,76.1,147.4z"/>
<path class="st109" d="M53.4,94.2h-1.7c-0.3,0-0.6,0-0.7-0.3s0.2-0.5,0.3-0.7c0.2-0.3,0.5-0.5,0.8-0.6c1-0.4,2-0.8,3-1.2
	c0.5-0.3,0.9-0.3,0.9,0.5C56,94.2,56,94.2,53.4,94.2z"/>
<path class="st4" d="M64.1,99.7c0.3,0.3,0.4,0.7,0.4,1.1C64.2,100.5,64,100.1,64.1,99.7z"/>
<path class="st4" d="M66,105.6c0.4,0.3,0.2,0.7,0.2,1C65.9,106.3,66,106,66,105.6z"/>
<path class="st4" d="M67.6,111.7c-0.1,0-0.1,0-0.2,0l-0.1-1C67.8,110.9,67.6,111.3,67.6,111.7z"/>
<path class="st110" d="M58.4,75.1c0.1-0.6,0.4-0.6,0.9-0.6c3.1,0,6.1,0,9.2,0c0.8-0.1,1.4,0.5,1.5,1.2c0,0.1,0,0.1,0,0.2
	c0,1,0,1.9,0,2.9C69.9,79,69.8,79,69.6,79H59.2c-0.1,0-0.3,0-0.4-0.1l0,0c-0.1-0.3-0.6-0.4-0.3-0.8s0.5-0.2,0.8-0.2
	c1.5-0.1,3.2,0.3,4.6-0.7c0.3-0.2,0.5-0.6,0.3-0.9c0,0,0-0.1-0.1-0.1c-0.2-0.4-0.7-0.6-1.2-0.6h-3.2c-0.4,0-0.8,0-1.1-0.1L58.4,75.1
	z"/>
<path class="st68" d="M58.6,75.6c1.5,0,3.1,0,4.6,0c0.5,0,1,0.3,1.2,0.8c0.1,0.3,0,0.6-0.3,0.8c-0.1,0-0.2,0.1-0.2,0.1
	c0.4-1,0.1-1.4-1-1.4s-2.1,0-3.2,0C59.3,75.8,58.9,75.9,58.6,75.6z"/>
<path class="st108" d="M79.2,158.5c-0.5-2-1.2-4-1.7-6c-0.4-1.4-0.9-2.8-1.2-4.2c-0.1-0.3-0.1-0.7-0.2-1c0.5,0.4,0.5,1.1,0.6,1.6
	c0.8,3,1.9,6,2.6,9.1L79.2,158.5z"/>
<path class="st30" d="M75,16.4c0.6-0.6,0.8-1.8,1.9-1.9c1.5-0.1,3,0.1,4.4,0.6c0.4,0.1,0.4,0.4,0.3,0.8c-0.1,0.1-0.2,0.1-0.2,0.2
	c-0.8,1.9-2.2,2.1-3.9,1.6c-0.6-0.1-1.2-0.2-1.9-0.2C74.9,17.5,74.6,17.1,75,16.4z"/>
<path class="st64" d="M58.8,78.9h11.1h0.2c-0.2,0.3-0.5,0.3-0.8,0.3h-9.6C59.4,79.2,59,79.2,58.8,78.9z"/>
<path class="st64" d="M70.4,78.1c-0.3-0.5-0.3-1,0-1.5C70.4,77.1,70.4,77.6,70.4,78.1z"/>
<path class="st102" d="M8.6,270.9c-0.9-0.9-1.1-2.1-1.4-3.3c-1-3.4-0.5-6.9-0.5-10.4c0-26.3,0-52.6-0.1-78.9c0-2.2-0.1-4.3,0-6.5
	c0.1-1.6,0.3-3.2,0.7-4.7c0.5,0.6,0.2,1.3,0.3,2c0.1,1.3-0.2,2.6-0.2,3.9c0,8.6,0,17.1,0,25.7c0,20.5,0,41.1,0,61.6
	c0,2.9-0.1,5.9,0.9,8.7C8.4,269.6,9.2,270.1,8.6,270.9z"/>
<path class="st102" d="M9.7,170.5c0,4,0,8,0,12c0,27.5,0,55,0,82.6c0,1.9,0.9,3.4,1.7,5c0.1,0.1,0.1,0.2,0,0.3c0,0,0,0,0,0
	c-0.2,0-0.3,0-0.5-0.1c-0.1-0.1-0.2-0.2-0.2-0.2c-0.8-1.3-1.4-2.7-1.5-4.2c-0.3-3.3-0.3-6.6-0.2-9.8c0-23.4-0.1-46.9,0-70.3
	c0-4.9,0.1-9.7,0.2-14.6c0-0.1,0.1-0.3,0.1-0.4C9.3,170.5,9.5,170.4,9.7,170.5C9.6,170.4,9.7,170.5,9.7,170.5z"/>
<path class="st111" d="M9.7,170.5H9.5c-0.4-0.5-0.5-1.2-0.2-1.8c0.1-1.1,0.3-2.3,0.6-3.4c0.2-1.3,0.5-2.7,1-3.9
	c1.3-4.8,2.8-9.6,4.2-14.4c0.1-0.4,0.2-1,0.9-1c0.1,0.2,0.1,0.5,0,0.7c-0.7,2.4-1.4,4.9-2.1,7.3c-0.9,3.1-1.7,6.2-2.6,9.3
	C10.3,165.6,9.8,168,9.7,170.5z"/>
<path class="st112" d="M27.6,106.4l-3,10.3l-2.4,8.2l-0.7,2.4c-0.1,0.7-0.5,1.2-0.6,1.9l0,0c-0.1,0.1-0.2,0-0.3-0.1
	c-0.2-0.4-0.2-1,0-1.4c1.4-4.6,2.7-9.1,4-13.7c0.7-2.4,1.5-4.7,2.1-7.1c0-0.3,0.3-0.6,0.6-0.7C27.4,106.3,27.5,106.4,27.6,106.4z"/>
<path class="st113" d="M27.6,106.4h-0.3c-0.1-0.5-0.1-1.1,0.1-1.6c0.8-2.3,1.4-4.6,2.1-6.9c0.3-1.1,0.8-1.9,2.1-1.8
	c0.2,0,0.5-0.1,0.7-0.2c0.2-0.2,0.4-0.3,0.3-0.6C32.5,95,32.2,95,32,95c-1.2,0-2.4-0.3-3.4,0.7c-0.1,0.1-0.2,0.1-0.3,0c0,0,0,0,0,0
	c-0.1-0.5,0.2-1.1,0.7-1.2c0,0,0,0,0,0c1.3-0.5,2.8-0.5,4.1,0c0.3,1.5-0.2,2.3-1.7,2.3c-0.6-0.1-1.1,0.3-1.2,0.9l-1.7,5.7
	C28.2,104.3,27.9,105.4,27.6,106.4z"/>
<path class="st114" d="M20.6,129.3h0.2c0,1.4-0.7,2.7-1,4c-0.8,2.8-1.7,5.6-2.5,8.4c-0.5,1.6-1,3.2-1.5,4.9v-0.7
	c-0.2-0.3-0.3-0.8-0.1-1.2c1.1-3.5,2.1-7,3.2-10.5c0.3-1.1,0.7-2.1,0.9-3.2C19.9,130.3,20.1,129.7,20.6,129.3z"/>
<path class="st115" d="M26,102.6v-0.2c0.2-0.6,0.4-1.3,0.6-1.9l0,0c0.1-0.1,0.2-0.1,0.3,0c0,0,0,0,0,0c0.2,0.4,0.2,0.9,0,1.3
	c-1.2,3.8-2.3,7.6-3.4,11.5c-0.1,0.6-0.1,1.3-0.9,1.5c-0.1-0.5-0.1-1,0.2-1.5c0.2-0.6,0.3-1.1,0.5-1.7l0,0c0.1-0.7,0.5-1.2,0.6-1.9
	c0-0.8,0.5-1.5,0.6-2.3C25.1,105.9,25.5,104.2,26,102.6z"/>
<path class="st52" d="M19.1,125.9c0.5-1.8,1-3.7,1.6-5.5c0.4-1.3,0.8-2.6,1.2-3.9c0.1-0.1,0.2-0.1,0.3,0c0,0,0,0,0,0
	c0.2,0.5,0.2,1,0,1.5c-0.8,2.3-1.4,4.6-2.1,6.9c-0.1,0.4-0.2,0.9-0.7,1.1C19.3,126.1,19.2,126,19.1,125.9z"/>
<path class="st116" d="M12.2,149.5c0.4-1.5,0.8-3.1,1.3-4.6c0.7-2.5,1.5-4.9,2.3-7.4c0.2,0.2,0.3,0.5,0.3,0.8
	c0.1,0.9-0.5,1.6-0.7,2.5c-0.2,0.6-0.4,1.2-0.6,1.8c0,0.1,0,0.2-0.1,0.3c-0.1,0.6-0.3,1.3-0.6,1.9c0,0.1-0.1,0.2-0.1,0.3
	c-0.1,0.6-0.3,1.3-0.5,1.9l-0.1,0.3c-0.1,0.8-0.4,1.6-0.9,2.3C12.4,149.5,12.3,149.5,12.2,149.5z"/>
<path class="st117" d="M26.9,100.6h-0.2c0.3-1.9,0.9-3.8,1.6-5.6c0-0.1,0.1-0.1,0.1-0.2c0.7-0.9,4-1.1,4.8-0.3
	c-1.2-0.3-2.4-0.3-3.5-0.1c-0.7,0-1.3,0.5-1.3,1.2c0,0,0,0.1,0,0.1C28.3,97.5,27.8,99.1,26.9,100.6z"/>
<path class="st118" d="M12.2,149.5h0.2c0.1,0.1,0.2,0.2,0.1,0.4c0,0.1,0,0.2,0,0.3c-0.1,0.5-0.2,1.1-0.4,1.6c-0.5,2-1.2,4-1.7,6
	c-0.1,0.4-0.3,0.9-0.6,1.2C9.8,159,9.7,159,9.6,159l-0.1-0.1c0.5-1.8,1-3.7,1.5-5.5C11.3,152.1,11.8,150.8,12.2,149.5z"/>
<path class="st119" d="M7.4,169v-1.9c0.5-2.1,0.9-4.3,1.4-6.4c0.1-0.4,0.2-0.8,0.5-1.1c0.1,0.1,0.2,0.2,0.2,0.4c0,0.2,0,0.4-0.1,0.6
	c-0.2,0.4-0.3,0.7-0.3,1.1c0,0.2,0,0.4-0.1,0.6c-0.1,0.4-0.1,0.7-0.2,1.1c-0.1,0.3-0.2,0.6-0.2,0.9c-0.1,1.3-0.4,2.6-0.7,3.9
	C7.8,168.5,7.9,169,7.4,169z"/>
<path class="st120" d="M19.1,125.9l0.3,0.1c0.2,0.2,0.3,0.6,0.2,0.9c-0.5,2.2-1.2,4.4-2,6.5c-0.1,0.1-0.1,0.2-0.2,0.2
	c-0.1,0-0.2,0-0.3-0.1l1.5-5.4c0.3-0.4,0.2-0.9,0.5-1.3C18.9,126.5,18.8,126.2,19.1,125.9z"/>
<path class="st121" d="M11,270l0.4,0.2c1.1,0.9,1.1,1.5,0,1.9c-1.1,0.1-2.1-0.3-2.8-1.1c0-0.1,0-0.1,0-0.2c0.2-0.6-0.5-1.1-0.4-1.7
	c0.7-0.1,0.7,0.5,0.9,0.9s0.5,1,1.1,1.1s1.1,0.1,0.6-0.7C10.8,270.3,10.9,270.1,11,270z"/>
<path class="st122" d="M11.5,272.1c1.1-0.7,0.1-1.2-0.1-1.9V270c0.6,0.5,1.4,1.1,1.1,1.9s-1.4,0.3-2.1,0.4c-0.3,0.1-0.6,0-0.8-0.2
	C10.2,271.9,10.9,271.9,11.5,272.1z"/>
<path class="st9" d="M22.1,116.5h-0.3c0.4-1.6,0.9-3.2,1.5-4.8c0.1,1.1-0.7,2-0.6,3.2c0.3,0.5,0.2,1.2-0.3,1.5
	C22.3,116.5,22.2,116.5,22.1,116.5z"/>
<path class="st99" d="M48.7,244.8h7.8c-0.2,0.3-0.6,0.2-0.9,0.2h-6C49.3,245,49,245.1,48.7,244.8z"/>
<path class="st117" d="M26,102.6c-0.3,1.7-0.8,3.3-1.4,4.8C24.8,105.8,25.3,104.2,26,102.6z"/>
<path class="st23" d="M15.8,138.4v-0.9l0.6-2.1c0.1-0.1,0.2-0.1,0.3,0C17.1,136.5,16.7,137.7,15.8,138.4z"/>
<path class="st102" d="M11.5,272.1H9.7c-0.4-0.3-1-0.4-1-1.1C9.5,271.6,10.5,272,11.5,272.1z"/>
<path class="st120" d="M16.6,135.4h-0.2c0-0.7,0.2-1.4,0.6-1.9l0.1,0.1c0.3,0.5,0.1,0.9-0.1,1.4C16.9,135.1,16.8,135.3,16.6,135.4z"
	/>
<path class="st114" d="M20.8,129.3c0-0.7,0.2-1.4,0.6-1.9C21.4,128.1,21.2,128.8,20.8,129.3z"/>
<path class="st117" d="M26.7,100.5c0,0.7-0.3,1.3-0.6,1.9C26,101.8,26.2,101.1,26.7,100.5z"/>
<path class="st9" d="M24,109.8c0,0.7-0.2,1.3-0.6,1.9C23.4,111,23.6,110.3,24,109.8z"/>
<path class="st3" d="M87.2,163.5c0.4,0.6,0.1,1.3,0.2,1.9C87.2,164.9,87.1,164.2,87.2,163.5z"/>
<path class="st52" d="M18.9,126.8c0.1,0.5-0.1,0.9-0.5,1.3C18.4,127.5,18.6,127.1,18.9,126.8z"/>
<path class="st118" d="M9.3,160v-0.5l0.2-0.7l0.1,0.1c0.2,0.3,0.2,0.6,0.1,0.9C9.6,160,9.4,160.1,9.3,160z"/>
<path class="st123" d="M9.3,160c0.1,0,0.1,0,0.2-0.1c0.3-0.3,0-0.7,0.2-1c0.5-1.4,0.9-2.8,1.3-4.2c0.4-1.1,0.7-2.2,1-3.2
	c0.5-0.5,0.2-1.1,0.5-1.6l0,0c0.4-0.9,0.7-1.9,0.8-2.9l0,0c0.4-0.6,0.6-1.4,0.6-2.1l0,0c0.4-0.6,0.6-1.3,0.6-2.1l0,0
	c0.3-0.6,0.5-1.3,0.6-1.9c0-0.9,0.7-1.6,0.7-2.5c0.5-0.9,0.8-1.9,0.8-3l0.2-0.5c0.4-0.4,0.3-1,0.4-1.4c0.7-2.1,1.3-4.3,2-6.4
	c0.1-0.4,0.1-0.7,0.1-1.1c0.5-0.8,0.8-1.7,0.9-2.7c0.6-2.3,1.6-4.4,1.9-6.8c0.4-0.5,0.6-1.1,0.6-1.7c0.6-1.3,1.1-2.8,1.4-4.2
	c0.9-2.9,1.7-5.9,2.7-8.8c0.1-0.4,0.2-0.8,0.1-1.2c0.6-1.5,1-3.1,1.4-4.7c0.4-0.9,1.4-1.3,2.3-1.1c0.4,0.1,0.8,0,1.3,0
	c0.4,0,1-0.3,1.1,0.4c0.1,0.6-0.4,1.2-1,1.2c-2,0.4-1.9,0.4-2.4,2.3s-1.2,3.9-1.8,5.8c-0.2,0.6-0.3,1.3-0.5,1.9
	c-0.7,0.8-0.5,1.9-0.9,2.8c-0.7,1.8-1.1,3.7-1.6,5.6s-1.2,3.9-1.8,5.9s-1.2,3.9-1.7,5.9c-0.2,0.9-0.9,1.7-0.7,2.7
	c-1,3.1-1.9,6.3-2.8,9.5c-0.6,1.9-1,4-1.8,5.9c-0.1,0.4-0.2,0.8-0.2,1.2c-0.4,0.5-0.6,1.2-0.7,1.8c-0.6,2-1.2,4-1.8,6s-1.2,4-1.7,6
	c-0.6,1.8-1.1,3.6-1.4,5.4c-0.5,1.1-0.7,2.3-0.7,3.4c-0.1,1.3-0.3,2.6-0.3,3.9c-0.1,30.2,0,60.5-0.1,90.7c0,0.8,0,1.5,0.2,2.3
	l0.1,0.4c0.2,1.5,0.8,2.9,1.7,4.1l0,0c0,0.1,0,0.1,0,0.2c0,0.4,1,0.8,0.4,1.2c-0.6,0.4-1.4,0.2-1.9-0.3c-0.3-0.3-0.4-0.6-0.5-1
	c-0.1-0.4-0.3-0.7-0.6-0.9c-0.8-2.3-1.1-4.8-1-7.2c0-28.1,0-56.1,0-84.2c0-2.9,0.2-5.9,0.2-8.8c0.4-1.6,0.8-3.2,1-4.9
	c0.2-0.3,0.3-0.6,0.4-0.9c0-0.5,0.2-1,0.1-1.6c0-0.4,0.1-0.7,0.3-1.1L9.3,160z"/>
<path class="st121" d="M9.3,266c-0.3-0.2-0.5-0.6-0.4-1c0-0.6,0-1.1,0-1.7c0-26.4,0-52.8,0-79.1c0-4.2-0.1-8.3,0.1-12.5
	c0.1-1.8,0.4-3.6,0.6-5.4c0.1-0.4,0.3-0.8,0.6-1.1c-0.4,1.7-0.6,3.5-0.6,5.3c0,0.1,0,0.1,0,0.2c-0.1,1.6-0.1,3.1-0.1,4.7
	c0,2.3,0,4.6,0,6.8c-0.5,27.1-0.1,54.2-0.2,81.3C9.1,264.3,9.6,265.1,9.3,266z"/>
<path class="st111" d="M9.3,266c-0.5-15.5-0.1-31.1-0.2-46.6c-0.1-11.7-0.1-23.4,0-35.1c0.1-4.3,0.1-8.6,0.1-12.9
	c0-0.2,0-0.5,0.2-0.7c0,4,0.2,7.9,0,11.9c-0.1,2.9-0.1,5.9-0.1,8.8c0,24,0,48,0,72c0,0.9,0.1,1.8,0.2,2.7
	C9.4,266.1,9.3,266.1,9.3,266L9.3,266z"/>
<path class="st121" d="M9.3,266c0.1,0,0.1,0,0.2,0c0.1,1.5,1,2.6,1.5,4C9.9,269,9.3,267.5,9.3,266z"/>
<path class="st124" d="M13.3,147c0.1,1.1-0.2,2.1-0.8,2.9v-0.4L13.3,147z"/>
<path class="st124" d="M14.5,142.8c0,0.8,0.2,1.6-0.6,2.1L14.5,142.8z"/>
<path class="st124" d="M13.9,144.8c0,0.8,0.1,1.6-0.6,2.1L13.9,144.8z"/>
<path class="st124" d="M15.1,140.9c0.1,0.7-0.1,1.4-0.6,1.9C14.6,142.1,14.8,141.4,15.1,140.9z"/>
<path class="st124" d="M12.4,149.9c0,0.6,0.2,1.2-0.5,1.6L12.4,149.9z"/>
<path class="st125" d="M9.7,158.9c0,0.4,0.1,0.7-0.2,1l0.1-1C9.6,158.9,9.6,158.9,9.7,158.9z"/>
<path class="st126" d="M9,161.6c0,0.6,0.2,1.2-0.2,1.7l-0.1-0.1c-0.1-0.3,0-0.7,0.1-1l0.1-0.6C8.9,161.6,9,161.6,9,161.6z"/>
<path class="st125" d="M9,161.6H8.8c-0.1-0.4,0.1-0.8,0.4-1.1C9.4,161,9.1,161.3,9,161.6z"/>
<path class="st126" d="M8.9,163.4c0,0.3-0.1,0.7-0.5,0.8l0.2-0.8C8.7,163.3,8.7,163.3,8.9,163.4C8.8,163.3,8.8,163.3,8.9,163.4
	L8.9,163.4z"/>
<path class="st125" d="M8.8,163.3c-0.1,0-0.1,0-0.2,0c-0.1-0.4,0-0.7,0.2-1.1C8.8,162.6,8.8,162.9,8.8,163.3z"/>
<path class="st23" d="M17.2,133.5c0,0.5,0.1,1.1-0.4,1.4l0.3-1.4C17.1,133.5,17.2,133.5,17.2,133.5z"/>
<text transform="matrix(0.6897 0 0 1 100.2088 174.3425)" class="st127 st128 st129">Beet </text>
<text transform="matrix(0.6897 0 0 1 100.2087 174.7702)" class="st130 st128 st129">Beet </text>
<text transform="matrix(0.6897 0 0 1 100.2088 222.3376)" class="st127 st128 st129">Street </text>
<text transform="matrix(0.6897 0 0 1 100.2088 222.3376)" class="st130 st128 st129">Street </text>
<text transform="matrix(0.6897 0 0 1 100.2088 270.3469)" class="st127 st128 st129">Juicery</text>
<text transform="matrix(0.6897 0 0 1 100.2088 270.3469)" class="st130 st128 st129">Juicery</text>
</svg>
