<?xml version="1.0" encoding="UTF-8"?>
<!DOCTYPE svg  PUBLIC '-//W3C//DTD SVG 1.1//EN'  'http://www.w3.org/Graphics/SVG/1.1/DTD/svg11.dtd' [
	<!ENTITY ns_extend "http://ns.adobe.com/Extensibility/1.0/">
	<!ENTITY ns_ai "http://ns.adobe.com/AdobeIllustrator/10.0/">
	<!ENTITY ns_graphs "http://ns.adobe.com/Graphs/1.0/">
	<!ENTITY ns_vars "http://ns.adobe.com/Variables/1.0/">
	<!ENTITY ns_imrep "http://ns.adobe.com/ImageReplacement/1.0/">
	<!ENTITY ns_sfw "http://ns.adobe.com/SaveForWeb/1.0/">
	<!ENTITY ns_custom "http://ns.adobe.com/GenericCustomNamespace/1.0/">
	<!ENTITY ns_adobe_xpath "http://ns.adobe.com/XPath/1.0/">
]>
<svg width="385.93px" height="311.85px" enable-background="new 0 0 385.926 311.852" version="1.1" viewBox="0 0 385.926 311.852" xml:space="preserve" xmlns="http://www.w3.org/2000/svg">
	<circle cx="192.96" cy="155.93" r="14.516"/>
	<path d="m270.86 110.95c-6.377-11.045-24.251-13.801-46.693-9.068-7.122-21.804-18.447-35.904-31.202-35.904-12.754 0-24.079 14.101-31.201 35.904-22.442-4.732-40.316-1.977-46.693 9.068s0.174 27.903 15.494 44.973c-15.32 17.069-21.871 33.927-15.494 44.973 6.377 11.045 24.251 13.801 46.693 9.069 7.122 21.803 18.447 35.904 31.201 35.904 12.755 0 24.08-14.102 31.202-35.904 22.442 4.732 40.316 1.977 46.693-9.069 6.377-11.045-0.174-27.903-15.494-44.973 15.31-17.06 21.87-33.92 15.49-44.97zm-6.6 3.81c5.469 9.472 0.541 23.614-11.632 38.209-6.132-6.417-13.475-12.815-21.798-18.903-1.11-10.255-2.984-19.815-5.475-28.336 18.72-3.24 33.43-0.44 38.9 9.03zm-53.43 72.1c-5.978 3.451-11.968 6.478-17.863 9.08-5.896-2.603-11.885-5.629-17.862-9.08s-11.593-7.125-16.794-10.93c-0.695-6.407-1.068-13.107-1.068-20.01s0.374-13.603 1.068-20.01c5.202-3.805 10.817-7.479 16.794-10.93 5.978-3.451 11.968-6.478 17.863-9.08 5.896 2.602 11.885 5.628 17.863 9.08 5.977 3.452 11.592 7.125 16.794 10.93 0.694 6.407 1.067 13.107 1.067 20.01 0 6.902-0.373 13.603-1.067 20.01-5.2 3.81-10.82 7.48-16.79 10.93zm16.25-6.4c-1.23 9.088-3.126 17.496-5.555 24.929-7.65-1.614-15.88-4.176-24.364-7.655 5.079-2.387 10.204-5.052 15.323-8.007 5.12-2.96 9.99-6.06 14.6-9.27zm-38.31 17.27c-8.484 3.479-16.714 6.041-24.364 7.654-2.429-7.432-4.325-15.84-5.554-24.927 4.607 3.204 9.478 6.311 14.595 9.266 5.11 2.96 10.23 5.63 15.31 8.01zm-34.12-24.53c-7.252-5.607-13.584-11.452-18.806-17.27 5.222-5.818 11.554-11.663 18.806-17.27-0.472 5.589-0.722 11.361-0.722 17.27 0 5.9 0.25 11.67 0.72 17.27zm4.2-41.81c1.229-9.087 3.125-17.495 5.554-24.928 7.65 1.614 15.88 4.176 24.364 7.654-5.079 2.387-10.204 5.052-15.323 8.007-5.11 2.96-9.98 6.06-14.59 9.27zm38.31-17.27c8.484-3.479 16.713-6.041 24.364-7.654 2.429 7.433 4.323 15.84 5.554 24.927-4.607-3.205-9.478-6.311-14.596-9.266-5.11-2.96-10.23-5.63-15.31-8.01zm34.11 24.54c7.254 5.607 13.586 11.451 18.807 17.27-5.221 5.818-11.553 11.662-18.807 17.27 0.473-5.59 0.723-11.362 0.723-17.27 0.01-5.91-0.25-11.68-0.72-17.27zm-38.31-65.062c10.938 0 20.722 11.338 27.274 29.178-8.625 2.103-17.838 5.263-27.273 9.427-9.436-4.164-18.649-7.324-27.274-9.427 6.55-17.844 16.34-29.182 27.27-29.182zm-71.3 41.162c5.469-9.471 20.179-12.275 38.906-9.03-2.492 8.521-4.365 18.081-5.476 28.336-8.322 6.088-15.665 12.487-21.797 18.903-12.17-14.59-17.09-28.74-11.63-38.21zm0 82.33c-5.468-9.473-0.541-23.614 11.632-38.209 6.132 6.416 13.475 12.814 21.797 18.903 1.111 10.255 2.984 19.814 5.476 28.336-18.73 3.25-33.44 0.44-38.91-9.03zm71.3 41.16c-10.937 0-20.72-11.338-27.273-29.178 8.625-2.102 17.839-5.262 27.273-9.427 9.436 4.165 18.649 7.326 27.274 9.427-6.55 17.85-16.33 29.18-27.27 29.18zm71.3-41.16c-5.468 9.471-20.179 12.276-38.904 9.03 2.49-8.521 4.364-18.081 5.475-28.336 8.323-6.089 15.666-12.487 21.798-18.903 12.16 14.6 17.09 28.74 11.62 38.21z"/>
</svg>
