<?xml version="1.0" encoding="iso-8859-1"?>
<!-- Generator: Adobe Illustrator 19.0.0, SVG Export Plug-In . SVG Version: 6.00 Build 0)  -->
<svg version="1.1" id="Capa_1" xmlns="http://www.w3.org/2000/svg" xmlns:xlink="http://www.w3.org/1999/xlink" x="0px" y="0px"
	 viewBox="0 0 383.89 383.89" style="enable-background:new 0 0 383.89 383.89;" xml:space="preserve">
<path style="fill:#CCE4FF;" d="M191.942,79.89c-17.68,0-32,14.32-32,32v88c0,2.64,0.32,5.28,0.96,7.76
	c3.44,13.92,16.08,24.24,31.04,24.24c14.96,0,27.6-10.32,31.04-24.24c0.64-2.48,0.96-5.12,0.96-7.76v-88c0-8.8-3.6-16.8-9.36-22.64
	C208.742,83.49,200.742,79.89,191.942,79.89z"/>
<g>
	<path style="fill:#007AFF;" d="M207.942,383.89v-73.168c51.744-6.848,93.608-46.344,102.336-99
		c1.104-6.456,1.664-13.128,1.664-19.832v-32h-32v32h-40v-80c0-12.712-4.96-24.736-14.136-34.04c-9.128-9-21.16-13.96-33.864-13.96
		c-26.472,0-48,21.528-48,48v80h-40v-32h-32v32c0,6.704,0.56,13.376,1.656,19.736c8.736,52.744,50.6,92.24,102.344,99.096v73.168
		H207.942z M175.942,191.89v-80c0-8.824,7.176-16,16-16c4.24,0,8.296,1.688,11.248,4.592c3.064,3.112,4.752,7.16,4.752,11.408v80v8
		c0,1.312-0.16,2.616-0.456,3.76l-0.04,0.168c-1.752,7.104-8.128,12.072-15.504,12.072s-13.752-4.968-15.544-12.24
		c-0.296-1.144-0.456-2.448-0.456-3.76V191.89z M110.022,223.89h40.488c8.392,14.536,23.92,24,41.432,24s33.04-9.464,41.432-24
		h40.504c-12.88,33.28-44.904,56-81.936,56C154.934,279.89,122.918,257.194,110.022,223.89z"/>
	<path style="fill:#007AFF;" d="M327.742,327.682c74.792-74.872,74.792-196.704-0.016-271.592
		C252.862-18.71,131.03-18.686,56.15,56.098c-74.792,74.872-74.792,196.704,0,271.576l11.304,11.32l22.64-22.616l-11.304-11.32
		c-62.336-62.4-62.336-163.944-0.016-226.336c62.408-62.328,163.936-62.336,226.328-0.008c62.336,62.4,62.336,163.944,0,226.344
		l-11.304,11.32l22.64,22.616L327.742,327.682z"/>
</g>
<g>
</g>
<g>
</g>
<g>
</g>
<g>
</g>
<g>
</g>
<g>
</g>
<g>
</g>
<g>
</g>
<g>
</g>
<g>
</g>
<g>
</g>
<g>
</g>
<g>
</g>
<g>
</g>
<g>
</g>
</svg>
