<?xml version="1.0" encoding="utf-8"?>
<!-- Generator: Adobe Illustrator 21.1.0, SVG Export Plug-In . SVG Version: 6.00 Build 0)  -->
<svg version="1.1" id="Capa_1" xmlns="http://www.w3.org/2000/svg" xmlns:xlink="http://www.w3.org/1999/xlink" x="0px" y="0px"
	 viewBox="0 0 467.7 467.7" style="enable-background:new 0 0 467.7 467.7;" xml:space="preserve">
<style type="text/css">
	.st0{fill:#43B049;}
</style>
<g>
	<path class="st0" d="M153.7,319.5c20.3-13.7,33.7-37,33.7-63.3c0-42.1-34.2-76.3-76.3-76.3s-76.3,34.2-76.3,76.3
		c0,26.3,13.4,49.5,33.7,63.3C46.9,325.7,31,345.7,31,369.4v90.8c0,4.1,3.4,7.5,7.5,7.5h145.4c4.1,0,7.5-3.4,7.5-7.5v-90.8
		C191.4,345.7,175.4,325.7,153.7,319.5z M128.5,342.9l-9.1-10.4h18.2L128.5,342.9z M99.4,332.5l18.1,20.6l-16.9,12.6l-8.2-33.2H99.4
		z M154.7,335.8c1,0.4,1.9,0.9,2.8,1.4l-2.7,27.3l-15.3-11.4L154.7,335.8z M49.9,256.2c0-33.8,27.5-61.3,61.3-61.3
		s61.3,27.5,61.3,61.3s-27.5,61.3-61.3,61.3S49.9,290,49.9,256.2z M46,369.4c0-18.4,13.5-33.6,31.1-36.4l11.6,47.3
		c0.6,2.4,2.4,4.4,4.8,5.3c0.8,0.3,1.7,0.4,2.5,0.4c1.6,0,3.2-0.5,4.5-1.5l20.5-15.3v83.5H83v-74.3c0-4.1-3.4-7.5-7.5-7.5
		s-7.5,3.4-7.5,7.5v74.3H46V369.4z M176.4,452.7H136v-83.5l20.5,15.3c1.3,1,2.9,1.5,4.5,1.5c1,0,2.1-0.2,3-0.6
		c2.5-1.1,4.2-3.4,4.4-6.1l2.8-28.6c3.3,5.5,5.2,11.9,5.2,18.8V452.7L176.4,452.7z"/>
	<path class="st0" d="M152.7,390.4c-1.2-2.8-4-4.7-7.1-4.6c-3.3,0.1-6.2,2.3-7,5.5c-0.9,3.1,0.4,6.5,3.1,8.2
		c2.6,1.7,6.2,1.6,8.7-0.3C153,397.2,154,393.5,152.7,390.4C152.5,390,152.9,390.9,152.7,390.4z"/>
	<path class="st0" d="M108.5,242.3c-1.2-2.8-3.9-4.6-6.9-4.6s-5.8,1.9-6.9,4.6c-1.2,3-0.4,6.5,2.1,8.6s6.1,2.4,8.9,0.6
		C108.6,249.6,109.9,245.6,108.5,242.3C108.3,241.8,108.7,242.7,108.5,242.3z"/>
	<path class="st0" d="M143.7,248c1.2,2.8,4,4.7,7.1,4.6c3.3-0.1,6.3-2.4,7.1-5.7c0.7-2.9-0.4-6-2.7-7.8c-2.6-2-6.3-2-8.9-0.1
		C143.4,241.1,142.4,244.8,143.7,248C143.9,248.5,143.5,247.6,143.7,248z"/>
	<path class="st0" d="M337.1,175.2c1.2,0.8,2.6,1.2,4,1.2c1.2,0,2.5-0.3,3.6-0.9c2.4-1.3,3.9-3.8,3.9-6.6v-17.4h7.6
		c12.8,0,23.3-10.5,23.3-23.3V49.7c0-12.8-10.5-23.3-23.3-23.3h-77.7v-3.1C278.5,10.5,268,0,255.2,0H117.7
		c-12.8,0-23.3,10.5-23.3,23.3v78.4c0,12.8,10.5,23.3,23.3,23.3h7.6v17.4c0,2.7,1.5,5.3,3.9,6.6c1.1,0.6,2.4,0.9,3.6,0.9
		c1.4,0,2.8-0.4,4-1.2l37.3-23.8h21.2v3.1c0,12.8,10.5,23.3,23.3,23.3h81.2L337.1,175.2z M171.9,110c-1.4,0-2.8,0.4-4,1.2
		l-27.6,17.6v-11.3c0-4.1-3.4-7.5-7.5-7.5h-15.1c-4.6,0-8.3-3.7-8.3-8.3V23.3c0-4.6,3.7-8.3,8.3-8.3h137.6c4.6,0,8.3,3.7,8.3,8.3
		v3.1h-44.9c-10.2,0-18.8,6.5-22,15.6h-57.2c-4.1,0-7.5,3.4-7.5,7.5s3.4,7.5,7.5,7.5h55.9v12.5h-55.9c-4.1,0-7.5,3.4-7.5,7.5
		s3.4,7.5,7.5,7.5h55.9V110H171.9z M210.4,128.1V49.7c0-4.6,3.7-8.3,8.3-8.3h137.6c4.6,0,8.3,3.7,8.3,8.3v78.4
		c0,4.6-3.7,8.3-8.3,8.3h-15.1c-4.1,0-7.5,3.4-7.5,7.5v11.3L306,137.6c-1.2-0.8-2.6-1.2-4-1.2h-83.4
		C214.1,136.4,210.4,132.7,210.4,128.1z"/>
	<path class="st0" d="M240.4,83.4h94.1c4.1,0,7.5-3.4,7.5-7.5s-3.4-7.5-7.5-7.5h-94.1c-4.1,0-7.5,3.4-7.5,7.5S236.3,83.4,240.4,83.4
		z"/>
	<path class="st0" d="M342,103.4c0-4.1-3.4-7.5-7.5-7.5h-94.1c-4.1,0-7.5,3.4-7.5,7.5s3.4,7.5,7.5,7.5h94.1
		C338.7,110.9,342,107.6,342,103.4z"/>
	<path class="st0" d="M399.1,319.5c20.3-13.7,33.7-37,33.7-63.3c0-42.1-34.2-76.3-76.3-76.3s-76.3,34.2-76.3,76.3
		c0,26.3,13.4,49.5,33.7,63.3c-21.7,6.2-37.7,26.2-37.7,49.9v90.8c0,4.1,3.4,7.5,7.5,7.5h145.4c4.1,0,7.5-3.4,7.5-7.5v-90.8
		C436.7,345.7,420.8,325.7,399.1,319.5z M383.3,332.5c-5.7,9-15.7,14.8-26.7,14.8s-21-5.8-26.7-14.8H383.3z M295.3,256.2
		c0-33.8,27.5-61.3,61.3-61.3s61.3,27.5,61.3,61.3s-27.5,61.3-61.3,61.3C322.7,317.5,295.3,290,295.3,256.2z M291.3,369.4
		c0-15.4,9.5-28.6,22.9-34.1c7.5,16.2,24,27,42.3,27s34.8-10.8,42.3-27c13.4,5.5,22.9,18.7,22.9,34.1V396h-26.3v-17.6
		c0-4.1-3.4-7.5-7.5-7.5s-7.5,3.4-7.5,7.5v74.3h-89.2L291.3,369.4L291.3,369.4z M395.5,452.7V411h26.3v41.7H395.5z"/>
	<path class="st0" d="M359.2,248c1.3,3.1,4.6,5.1,8,4.5c3-0.4,5.4-2.7,6.2-5.6c0.8-3-0.5-6.3-3.1-8.1c-3-2-6.9-1.5-9.5,0.9
		C358.7,242,358,245.2,359.2,248C359.4,248.5,359,247.6,359.2,248z"/>
	<path class="st0" d="M324.4,243.7c-0.2-1-0.6-1.9-1.1-2.7c-3.8-5.5-12.7-3.6-13.7,3.1c-0.9,6,5.8,10.7,11.1,7.6
		C323.5,250.1,325.1,246.8,324.4,243.7C324.3,243.2,324.5,244.2,324.4,243.7z"/>
	<path class="st0" d="M358,270.8c-2.3-2.3-6.1-2.3-8.5,0c-2,2-4.7,3.1-7.5,3.1s-5.5-1.1-7.5-3.1c-2.3-2.3-6.1-2.3-8.5,0
		c-2.3,2.3-2.3,6.1,0,8.5c4.4,4.4,10.2,6.6,16,6.6s11.6-2.2,16-6.6C360.3,277,360.3,273.2,358,270.8z"/>
</g>
</svg>
