<?xml version="1.0" encoding="utf-8"?>
<!-- Generator: Adobe Illustrator 22.0.1, SVG Export Plug-In . SVG Version: 6.00 Build 0)  -->
<svg version="1.1" id="Layer_1" xmlns="http://www.w3.org/2000/svg" xmlns:xlink="http://www.w3.org/1999/xlink" x="0px" y="0px"
	 viewBox="0 0 512 512" style="enable-background:new 0 0 512 512;" xml:space="preserve">
<style type="text/css">
	.st0{fill:#FFFFFF;}
</style>
<g>
	<g>
		<path class="st0" d="M256,127.8c19.8,0,35.4-16.7,35.4-35.4c0-19.8-15.6-35.4-35.4-35.4s-35.4,15.6-35.4,35.4
			C220.6,112.1,236.2,127.8,256,127.8z M256,75.6c9.4,0,15.6,7.3,15.6,15.6s-7.3,15.6-15.6,15.6s-15.6-6.3-15.6-15.6
			C240.4,82.9,246.6,75.6,256,75.6z"/>
		<path class="st0" d="M112.1,325.9c-19.8,0-35.4,15.6-35.4,35.4s15.6,35.4,35.4,35.4c18.8,0,35.4-15.6,35.4-35.4
			S131.9,325.9,112.1,325.9z M112.1,375.9c-8.3,0-15.6-7.3-15.6-15.6s6.3-15.6,15.6-15.6c8.3,0,15.6,7.3,15.6,15.6
			S121.5,375.9,112.1,375.9z"/>
		<path class="st0" d="M399.9,289.4c-33,0-62,15.4-80.4,39.5l-54.1-49.3v-57.3c51-4.8,91.7-48.6,91.7-100.7
			c0-56.3-44.8-101.1-101.1-101.1s-101.1,45.8-101.1,101c0,53.1,40.8,96,91.7,100.7v56.7l-54.3,49.6c-18.4-23.9-47.4-39.2-80.2-39.2
			C55.8,289.4,11,334.2,11,390.5s45.9,101.1,101.1,101.1s101.1-44.8,101.1-101.1c0-16.1-3.7-31.3-10.2-44.7l52.6-48.4l53.3,48.6
			c-6.5,13.4-10.1,28.5-10.1,44.5c0,56.3,45.9,101.1,101.1,101.1c56.3,0,101.1-44.8,101.1-101.1S456.2,289.4,399.9,289.4
			L399.9,289.4z M66.6,457.8c5-15.8,19.3-26.7,36.2-26.7h18.8c16.8,0,31.1,10.9,36.2,26.7c-13,8.8-28.7,14-45.5,14
			C95.3,471.8,79.6,466.6,66.6,457.8z M173.2,444.1c-9.9-18.8-29.5-31.8-51.6-31.8h-18.8c-23,0-42.7,12.3-52.1,31.2
			c-12.3-14.3-19.8-32.8-19.8-53.1c0-44.8,36.5-81.3,81.3-81.3c43.8,0,81.3,36.5,81.3,81.3C193.4,411,185.8,429.8,173.2,444.1
			L173.2,444.1z M256,202.8c-16.9,0-32.5-5.2-45.5-14c5-15.8,19.3-26.7,36.2-26.7h18.8c16.8,0,31.1,10.9,36.2,26.7
			C288.5,197.7,272.9,202.8,256,202.8z M174.7,121.5c0-44.8,36.5-81.3,81.3-81.3s81.3,36.5,81.3,81.3c0,20.5-7.7,39.3-20.3,53.6
			c-9.9-18.8-29.5-31.8-51.6-31.8h-18.8c-23,0-42.7,12.3-52.1,31.2C182.2,160.4,174.7,141.8,174.7,121.5z M354.3,457.8
			c5-15.8,19.3-26.7,36.2-26.7h18.8c16.8,0,31.1,10.9,36.2,26.7c-13,8.8-28.7,14-45.5,14S367.3,466.6,354.3,457.8z M460.9,444.1
			c-9.9-18.8-29.5-31.8-51.6-31.8h-18.8c-23,0-42.7,12.3-52.1,31.2c-12.3-14.3-19.8-32.8-19.8-53.1c0-44.8,36.5-81.3,81.3-81.3
			s81.3,36.5,81.3,81.3C481.2,411,473.5,429.8,460.9,444.1L460.9,444.1z"/>
		<path class="st0" d="M399.9,325.9c-19.8,0-35.4,15.6-35.4,35.4s15.6,35.4,35.4,35.4s35.4-15.6,35.4-35.4S419.7,325.9,399.9,325.9z
			 M399.9,375.9c-8.3,0-15.6-7.3-15.6-15.6s6.3-15.6,15.6-15.6s15.6,7.3,15.6,15.6S409.3,375.9,399.9,375.9z"/>
	</g>
</g>
</svg>
