<?xml version="1.0" encoding="utf-8"?>
<!-- Generator: Adobe Illustrator 22.0.1, SVG Export Plug-In . SVG Version: 6.00 Build 0)  -->
<svg version="1.1" id="Layer_1" xmlns="http://www.w3.org/2000/svg" xmlns:xlink="http://www.w3.org/1999/xlink" x="0px" y="0px"
	 viewBox="0 0 512 512" style="enable-background:new 0 0 512 512;" xml:space="preserve">
<style type="text/css">
	.st0{fill:#FFFFFF;}
</style>
<g>
	<g>
		<path class="st0" d="M256,276.7c-28,0-50.8,22.8-50.8,50.8c0,13.9,5.8,27.3,15.9,36.9v45.9c0,19.3,15.7,35,35,35s35-15.7,35-35
			v-45.9c10.1-9.6,15.9-23,15.9-36.9C306.8,299.5,284,276.7,256,276.7z M274,346.6c-4.9,4.6-7.6,11-7.6,17.5v46.2
			c0,5.7-4.6,10.3-10.3,10.3c-5.7,0-10.3-4.6-10.3-10.3v-46.2c0-6.6-2.8-13-7.6-17.5c-5.3-5-8.2-11.8-8.2-19.1
			c0-14.4,11.8-26.2,26.2-26.2c14.4,0,26.2,11.8,26.2,26.2C282.2,334.8,279.3,341.6,274,346.6z"/>
	</g>
</g>
<g>
	<g>
		<path class="st0" d="M405,209.9h-36.9v-97.8C368.1,50.3,317.8,0,256,0S143.9,50.3,143.9,112.1v97.8H107
			c-20.4,0-36.9,16.6-36.9,36.9v228.3c0,20.4,16.6,36.9,36.9,36.9h298c20.4,0,36.9-16.6,36.9-36.9V246.8
			C441.9,226.4,425.3,209.9,405,209.9z M168.5,112.1c0-48.2,39.2-87.5,87.5-87.5c48.2,0,87.5,39.2,87.5,87.5v97.8h-175V112.1z
			 M417.3,475.1L417.3,475.1c0,6.8-5.5,12.3-12.3,12.3H107c-6.8,0-12.3-5.5-12.3-12.3V246.8c0-6.8,5.5-12.3,12.3-12.3h298
			c6.8,0,12.3,5.5,12.3,12.3V475.1z"/>
	</g>
</g>
</svg>
