<?xml version="1.0" encoding="utf-8"?>
<!-- Generator: Adobe Illustrator 16.2.0, SVG Export Plug-In . SVG Version: 6.00 Build 0)  -->
<!DOCTYPE svg PUBLIC "-//W3C//DTD SVG 1.1//EN" "http://www.w3.org/Graphics/SVG/1.1/DTD/svg11.dtd">
<svg version="1.1" id="Layer_1" xmlns="http://www.w3.org/2000/svg" xmlns:xlink="http://www.w3.org/1999/xlink" x="0px" y="0px"
	 width="262.235px" height="328.827px" viewBox="0 101.827 262.235 328.827" enable-background="new 0 101.827 262.235 328.827"
	 xml:space="preserve">
<g>
	<rect x="253.227" y="101.827" fill="none" width="0.008" height="309.092"/>
	<polygon fill="#F08934" points="253.235,410.919 253.227,410.919 253.227,411.125 127.444,422.646 127.037,422.611 9.009,411.945 
		9.009,419.138 136.045,430.619 136.453,430.654 262.236,419.132 262.236,101.827 253.235,101.827 	"/>
	<polygon fill="#FFFFFF" points="127.439,413.609 244.226,402.912 244.226,101.827 9,101.827 9,402.906 	"/>
	<polygon points="127.444,422.646 253.227,411.125 253.227,410.919 253.227,101.827 244.226,101.827 244.226,402.912 
		127.439,413.609 9,402.906 9,101.827 0,101.827 0,411.13 9.009,411.945 127.037,422.611 	"/>
</g>
<g>
	<polygon fill="#F78E1E" points="125.303,192.447 129.964,185.283 133.28,192.791 139.215,186.083 141.132,193.815 148.246,187.671 
		148.734,195.507 156.917,190.023 155.964,197.837 165.087,193.098 162.711,200.772 172.633,196.852 168.87,204.261 
		179.427,201.224 174.34,208.25 185.37,206.144 179.039,212.68 190.367,211.537 182.886,217.476 194.339,217.313 185.83,222.565 
		197.218,223.388 187.816,227.867 198.965,229.662 188.821,233.296 199.55,236.035 188.821,238.769 198.965,242.408 
		187.816,244.201 197.218,248.681 185.83,249.503 194.339,254.753 182.886,254.591 190.367,260.531 179.039,259.39 185.37,265.925 
		174.34,263.815 179.427,270.847 168.87,267.81 172.633,275.216 162.711,271.296 165.087,278.968 155.964,274.231 156.917,282.046 
		148.734,276.562 148.246,284.396 141.132,278.251 139.215,285.983 133.28,279.274 129.964,286.787 125.303,279.621 
		120.641,286.787 117.326,279.274 111.389,285.983 109.476,278.251 102.358,284.396 101.875,276.562 93.688,282.046 94.642,274.231 
		85.519,278.968 87.895,271.296 77.975,275.216 81.737,267.81 71.178,270.847 76.266,263.815 65.234,265.925 71.569,259.39 
		60.238,260.531 67.718,254.591 56.268,254.753 64.776,249.503 53.386,248.681 62.788,244.201 51.639,242.408 61.787,238.769 
		51.054,236.035 61.787,233.296 51.639,229.662 62.788,227.867 53.386,223.388 64.776,222.565 56.268,217.313 67.718,217.476 
		60.238,211.537 71.569,212.679 65.234,206.144 76.266,208.25 71.178,201.224 81.737,204.261 77.975,196.852 87.895,200.772 
		85.519,193.098 94.642,197.837 93.688,190.023 101.875,195.507 102.359,187.671 109.476,193.815 111.389,186.083 117.326,192.791 
		120.641,185.283 	"/>
	<path fill="#282525" d="M46.972,388.533v-0.209c-0.266-0.021-0.446-0.056-0.542-0.101c-0.155-0.074-0.23-0.207-0.23-0.397
		c0-0.097,0.026-0.228,0.086-0.392c0.057-0.164,0.231-0.617,0.528-1.36h2.995l0.456,1.092c0.066,0.155,0.118,0.305,0.155,0.444
		s0.056,0.236,0.056,0.291c0,0.168-0.049,0.272-0.145,0.313c-0.099,0.043-0.313,0.08-0.649,0.107v0.207h2.917v-0.207
		c-0.267-0.035-0.456-0.105-0.569-0.209c-0.111-0.102-0.264-0.367-0.451-0.799l-2.828-6.438h-0.254l-2.354,5.58
		c-0.354,0.836-0.604,1.351-0.75,1.535c-0.146,0.188-0.364,0.297-0.655,0.33v0.207h2.236L46.972,388.533L46.972,388.533z
		 M47.004,385.615l1.307-3.134l1.308,3.134H47.004"/>
	<path fill="#282525" d="M60.252,380.996v0.207c-0.44,0.03-0.727,0.104-0.856,0.219c-0.13,0.117-0.193,0.387-0.193,0.805v3.643
		c0,0.6,0.082,1.063,0.242,1.396c0.305,0.607,0.877,0.912,1.726,0.912c0.927,0,1.549-0.313,1.867-0.936
		c0.178-0.349,0.267-0.886,0.267-1.611v-2.961c0-0.621-0.074-1.012-0.222-1.168c-0.148-0.156-0.431-0.258-0.846-0.299v-0.207h2.637
		v0.207c-0.44,0.049-0.729,0.155-0.863,0.321c-0.135,0.164-0.203,0.547-0.203,1.146v2.965c0,0.785-0.12,1.4-0.361,1.842
		c-0.442,0.813-1.286,1.221-2.528,1.221c-1.229,0-2.064-0.402-2.508-1.203c-0.241-0.432-0.361-0.998-0.361-1.705v-3.562
		c0-0.414-0.063-0.681-0.191-0.797c-0.126-0.117-0.402-0.191-0.831-0.226v-0.207L60.252,380.996L60.252,380.996z"/>
	<path fill="#282525" d="M69.922,386.267c0.189,0.512,0.415,0.918,0.673,1.219c0.448,0.531,1.005,0.795,1.67,0.795
		c0.359,0,0.672-0.113,0.937-0.346c0.262-0.23,0.394-0.555,0.394-0.967c0-0.371-0.132-0.695-0.398-0.973
		c-0.174-0.175-0.539-0.437-1.097-0.785l-0.968-0.607c-0.292-0.188-0.525-0.375-0.698-0.563c-0.321-0.361-0.479-0.76-0.479-1.192
		c0-0.576,0.188-1.056,0.568-1.438c0.381-0.384,0.888-0.572,1.516-0.572c0.258,0,0.567,0.061,0.933,0.184
		c0.364,0.125,0.572,0.188,0.624,0.188c0.14,0,0.237-0.033,0.291-0.098s0.096-0.154,0.125-0.271h0.237l0.252,2.429H74.23
		c-0.186-0.733-0.481-1.246-0.894-1.535c-0.41-0.291-0.815-0.437-1.216-0.437c-0.313,0-0.583,0.094-0.814,0.275
		c-0.23,0.186-0.348,0.439-0.348,0.77c0,0.293,0.088,0.545,0.265,0.754c0.177,0.214,0.453,0.433,0.827,0.664l0.998,0.619
		c0.626,0.387,1.064,0.742,1.321,1.063c0.253,0.328,0.379,0.713,0.379,1.158c0,0.598-0.226,1.098-0.672,1.497
		c-0.448,0.401-1.021,0.603-1.718,0.603c-0.351,0-0.717-0.066-1.098-0.199c-0.381-0.135-0.6-0.199-0.655-0.199
		c-0.132,0-0.222,0.043-0.268,0.128c-0.046,0.086-0.077,0.176-0.091,0.271h-0.251l-0.343-2.428h0.268L69.922,386.267L69.922,386.267
		z"/>
	<path fill="#282525" d="M79.792,380.996h6.438l0.044,1.938H86.01c-0.133-0.606-0.302-1.007-0.508-1.188
		c-0.206-0.185-0.641-0.275-1.298-0.275h-0.622v5.834c0,0.438,0.066,0.709,0.204,0.813c0.136,0.104,0.433,0.174,0.892,0.207v0.209
		h-3.331v-0.209c0.489-0.035,0.794-0.115,0.915-0.238c0.121-0.119,0.18-0.426,0.18-0.916v-5.699H81.82
		c-0.626,0-1.053,0.092-1.278,0.271c-0.228,0.184-0.397,0.582-0.514,1.192h-0.279L79.792,380.996z"/>
	<path fill="#282525" d="M90.815,388.324c0.459-0.033,0.756-0.103,0.894-0.207c0.136-0.104,0.204-0.375,0.204-0.813v-5.078
		c0-0.418-0.068-0.688-0.204-0.811c-0.138-0.119-0.435-0.189-0.894-0.213v-0.207h3.348v0.207c-0.459,0.022-0.758,0.094-0.893,0.213
		c-0.136,0.121-0.204,0.393-0.204,0.811v5.078c0,0.438,0.068,0.709,0.204,0.813c0.135,0.104,0.434,0.174,0.893,0.207v0.209h-3.348
		V388.324z"/>
	<path fill="#282525" d="M98.622,388.324c0.472-0.048,0.773-0.154,0.907-0.318c0.136-0.166,0.201-0.549,0.201-1.15v-5.021
		l-0.154-0.187c-0.167-0.194-0.312-0.317-0.429-0.362c-0.115-0.048-0.293-0.072-0.525-0.08v-0.209h1.946l4.39,5.45v-3.786
		c0-0.625-0.093-1.029-0.279-1.22c-0.123-0.118-0.396-0.198-0.816-0.235v-0.209h2.681v0.209c-0.435,0.045-0.723,0.147-0.864,0.315
		c-0.145,0.166-0.217,0.549-0.217,1.146v6h-0.195l-5.031-6.248v4.438c0,0.625,0.093,1.028,0.272,1.222
		c0.118,0.121,0.383,0.203,0.794,0.248v0.209h-2.68V388.324L98.622,388.324z"/>
	<path fill="#282525" d="M145.922,380.996h6.438l0.047,1.938h-0.268c-0.135-0.606-0.304-1.007-0.508-1.188
		c-0.207-0.185-0.64-0.275-1.299-0.275h-0.623v5.834c0,0.438,0.069,0.709,0.204,0.813c0.138,0.104,0.434,0.174,0.894,0.207v0.209
		h-3.332v-0.209c0.49-0.035,0.794-0.115,0.916-0.238c0.119-0.119,0.179-0.426,0.179-0.916v-5.699h-0.62
		c-0.624,0-1.055,0.092-1.276,0.271c-0.229,0.184-0.398,0.582-0.513,1.192h-0.284L145.922,380.996z"/>
	<path fill="#282525" d="M158.806,388.324c0.421-0.046,0.697-0.117,0.821-0.224c0.125-0.104,0.185-0.371,0.185-0.8v-5.077
		c0-0.402-0.06-0.668-0.182-0.793c-0.125-0.123-0.398-0.197-0.824-0.229v-0.207h6.04l0.045,1.629h-0.296
		c-0.098-0.504-0.239-0.828-0.431-0.979c-0.192-0.148-0.62-0.223-1.287-0.223h-1.543c-0.166,0-0.271,0.025-0.311,0.082
		c-0.037,0.055-0.06,0.152-0.06,0.305v2.545h1.75c0.48,0,0.789-0.07,0.923-0.217c0.132-0.145,0.239-0.438,0.318-0.879h0.267v2.637
		h-0.267c-0.082-0.443-0.191-0.736-0.325-0.881c-0.133-0.145-0.438-0.215-0.916-0.215h-1.75v2.822c0,0.229,0.072,0.36,0.217,0.401
		c0.142,0.039,0.567,0.062,1.279,0.062c0.767,0,1.336-0.082,1.702-0.252c0.363-0.166,0.694-0.57,0.988-1.213h0.313l-0.51,1.909
		h-6.152v-0.206h0.004V388.324z"/>
	<path fill="#282525" d="M171.779,388.324c0.306-0.033,0.535-0.113,0.694-0.244c0.156-0.129,0.471-0.482,0.938-1.063l1.759-2.18
		l-1.244-1.822c-0.542-0.801-0.926-1.299-1.147-1.494c-0.219-0.195-0.513-0.303-0.878-0.316v-0.207h3.439v0.207
		c-0.329,0.012-0.545,0.033-0.646,0.064c-0.15,0.049-0.229,0.152-0.229,0.314c0,0.102,0.037,0.225,0.112,0.367
		c0.036,0.073,0.09,0.155,0.154,0.254l1.168,1.701l1.266-1.541c0.188-0.229,0.314-0.41,0.381-0.548
		c0.04-0.084,0.06-0.157,0.06-0.226c0-0.168-0.079-0.278-0.239-0.334c-0.102-0.032-0.278-0.053-0.544-0.057v-0.207h2.692v0.207
		c-0.304,0.008-0.538,0.057-0.704,0.146c-0.265,0.146-0.59,0.459-0.979,0.938l-1.633,2.049l2.153,3.136
		c0.229,0.34,0.418,0.557,0.572,0.647c0.152,0.092,0.374,0.16,0.667,0.205v0.209h-3.345v-0.209c0.319-0.008,0.545-0.033,0.672-0.084
		c0.127-0.049,0.188-0.145,0.188-0.281c0-0.119-0.082-0.317-0.254-0.598c-0.167-0.275-0.635-0.979-1.399-2.104l-1.339,1.68
		c-0.193,0.25-0.331,0.432-0.405,0.545c-0.122,0.184-0.184,0.316-0.184,0.408c0,0.16,0.097,0.277,0.286,0.346
		c0.112,0.041,0.308,0.068,0.577,0.088v0.209h-2.615v-0.207H171.779L171.779,388.324z"/>
	<path fill="#282525" d="M188.313,388.533v-0.209c-0.269-0.021-0.445-0.056-0.542-0.101c-0.157-0.074-0.232-0.207-0.232-0.397
		c0-0.097,0.028-0.228,0.087-0.392c0.058-0.164,0.232-0.617,0.528-1.36h2.996l0.456,1.092c0.064,0.155,0.117,0.305,0.154,0.444
		s0.055,0.236,0.055,0.291c0,0.168-0.05,0.272-0.145,0.313c-0.097,0.043-0.313,0.08-0.649,0.107v0.207h2.917v-0.207
		c-0.267-0.035-0.456-0.105-0.568-0.209c-0.112-0.102-0.264-0.367-0.45-0.799l-2.83-6.438h-0.254l-2.354,5.578
		c-0.354,0.838-0.603,1.351-0.749,1.537c-0.146,0.188-0.364,0.297-0.653,0.328v0.209h2.235L188.313,388.533L188.313,388.533z
		 M188.346,385.615l1.307-3.134l1.307,3.134H188.346"/>
	<path fill="#282525" d="M200.889,386.267c0.194,0.512,0.418,0.918,0.675,1.219c0.448,0.531,1.005,0.795,1.672,0.795
		c0.358,0,0.672-0.113,0.933-0.346c0.265-0.23,0.396-0.555,0.396-0.967c0-0.371-0.132-0.695-0.396-0.973
		c-0.174-0.175-0.538-0.437-1.097-0.785l-0.971-0.607c-0.291-0.188-0.521-0.375-0.697-0.563c-0.319-0.361-0.48-0.76-0.48-1.192
		c0-0.576,0.189-1.056,0.572-1.438c0.381-0.384,0.886-0.572,1.513-0.572c0.259,0,0.57,0.061,0.934,0.184
		c0.366,0.125,0.572,0.188,0.625,0.188c0.144,0,0.236-0.033,0.291-0.098c0.054-0.063,0.097-0.154,0.124-0.271h0.236l0.252,2.429
		H205.2c-0.188-0.733-0.482-1.246-0.896-1.535c-0.41-0.291-0.814-0.437-1.214-0.437c-0.314,0-0.585,0.094-0.816,0.275
		c-0.229,0.186-0.349,0.439-0.349,0.77c0,0.293,0.09,0.545,0.267,0.754c0.179,0.214,0.452,0.433,0.826,0.664l0.998,0.619
		c0.627,0.387,1.064,0.742,1.321,1.063c0.254,0.328,0.378,0.713,0.378,1.158c0,0.598-0.224,1.098-0.672,1.497
		c-0.448,0.401-1.021,0.603-1.715,0.603c-0.354,0-0.718-0.066-1.1-0.199c-0.383-0.135-0.602-0.199-0.654-0.199
		c-0.134,0-0.224,0.043-0.269,0.128c-0.047,0.086-0.08,0.176-0.095,0.271h-0.251l-0.341-2.428h0.267v-0.004H200.889z"/>
	<polygon fill="#F78E1E" points="127.375,381.966 132.956,381.966 128.46,385.337 130.206,390.685 125.729,387.39 121.253,390.685 
		123.015,385.337 118.48,381.966 124.043,381.966 125.729,376.755 	"/>
	<path fill="#282525" d="M79.216,351.076v0.416c-0.552,0.006-0.929,0.041-1.129,0.106c-0.354,0.112-0.527,0.351-0.527,0.7
		c0,0.181,0.063,0.431,0.188,0.754c0.125,0.322,0.356,0.865,0.701,1.632l3.445,7.698l3.127-8.342
		c0.14-0.363,0.242-0.672,0.313-0.926c0.072-0.252,0.106-0.455,0.106-0.613c0-0.426-0.183-0.711-0.547-0.862
		c-0.215-0.084-0.567-0.136-1.062-0.147v-0.416h4.498v0.416c-0.469,0.061-0.814,0.186-1.038,0.368
		c-0.338,0.274-0.674,0.828-1.005,1.662l-4.856,12.446H81.1l-5.44-12.155c-0.458-1.017-0.826-1.647-1.103-1.896
		c-0.275-0.25-0.679-0.392-1.208-0.426v-0.416H79.216L79.216,351.076z"/>
	<path fill="#282525" d="M95.991,358.38c0,2.236,0.69,4.068,2.077,5.492c1.363,1.397,3.079,2.098,5.146,2.098
		c1.93,0,3.578-0.631,4.942-1.891c1.521-1.414,2.28-3.312,2.28-5.699c0-2.351-0.733-4.23-2.207-5.646
		c-1.354-1.305-3.027-1.957-5.017-1.957c-1.981,0-3.651,0.647-5.007,1.947C96.73,354.146,95.991,356.03,95.991,358.38
		 M98.479,358.38c0-2.318,0.458-4.033,1.377-5.141c0.918-1.107,2.04-1.66,3.365-1.66c1.282,0,2.391,0.532,3.328,1.602
		c0.937,1.068,1.405,2.801,1.405,5.199c0,2.371-0.464,4.098-1.391,5.174c-0.926,1.078-2.041,1.617-3.344,1.617
		c-1.333,0-2.456-0.555-3.372-1.658C98.936,362.403,98.479,360.694,98.479,358.38"/>
	<path fill="#282525" d="M117.982,365.673h6.127c1.646,0,3.03-0.209,4.157-0.623c0.619-0.225,1.215-0.551,1.788-0.98
		c0.905-0.682,1.583-1.52,2.031-2.51c0.449-0.99,0.673-2.035,0.673-3.137c0-3.051-1.249-5.17-3.748-6.355
		c-1.386-0.66-3.082-0.99-5.084-0.99h-5.944v0.416c0.813,0.057,1.337,0.199,1.572,0.43c0.234,0.23,0.354,0.748,0.354,1.554v9.804
		c0,0.827-0.121,1.344-0.364,1.549c-0.241,0.203-0.765,0.35-1.563,0.436V365.673L117.982,365.673z M122.158,363.99v-11.24
		c0-0.365,0.086-0.604,0.263-0.713c0.176-0.105,0.512-0.16,1.007-0.16c1.988,0,3.586,0.488,4.793,1.467
		c1.406,1.146,2.11,2.852,2.11,5.119c0,2.541-0.854,4.336-2.563,5.389c-1.112,0.684-2.531,1.023-4.254,1.023
		c-0.554,0-0.918-0.058-1.094-0.172C122.244,364.587,122.158,364.351,122.158,363.99"/>
	<path fill="#282525" d="M140.33,365.259c0.896-0.07,1.453-0.229,1.667-0.479c0.217-0.246,0.322-0.837,0.322-1.771v-9.541
		c0-0.795-0.118-1.311-0.359-1.543c-0.238-0.233-0.783-0.377-1.63-0.436v-0.416h6.286v0.416c-0.858,0.043-1.416,0.186-1.667,0.43
		c-0.254,0.242-0.377,0.761-0.377,1.545v4.507c1.355-1.156,2.467-2.144,3.329-2.955c1.546-1.459,2.319-2.396,2.319-2.81
		c0-0.293-0.132-0.485-0.396-0.578c-0.264-0.092-0.637-0.139-1.115-0.139v-0.416h5.776v0.416c-0.699,0.068-1.257,0.205-1.657,0.406
		c-0.406,0.201-0.971,0.646-1.688,1.326l-4.31,3.979l5.258,5.658c0.953,1.016,1.603,1.648,1.946,1.9
		c0.343,0.253,0.849,0.419,1.519,0.496v0.414h-6.745v-0.414c0.612-0.021,1.023-0.071,1.24-0.146
		c0.214-0.075,0.323-0.226,0.323-0.448c0-0.121-0.072-0.308-0.212-0.56c-0.141-0.252-0.358-0.545-0.662-0.875l-4.248-4.569
		l-0.684,0.631v3.979c0,0.818,0.122,1.336,0.368,1.557c0.249,0.217,0.789,0.361,1.623,0.434v0.414h-6.232v-0.412H140.33
		L140.33,365.259z"/>
	<path fill="#282525" d="M166.966,365.673v-0.414c-0.521-0.041-0.876-0.105-1.063-0.189c-0.304-0.145-0.451-0.398-0.451-0.771
		c0-0.186,0.055-0.436,0.165-0.752c0.109-0.317,0.457-1.194,1.028-2.639h5.811l0.883,2.119c0.13,0.301,0.229,0.584,0.302,0.854
		c0.071,0.271,0.109,0.463,0.109,0.566c0,0.318-0.097,0.521-0.281,0.604c-0.188,0.084-0.607,0.152-1.26,0.209v0.414h5.625v-0.414
		c-0.521-0.071-0.891-0.204-1.105-0.397c-0.222-0.196-0.513-0.707-0.881-1.53l-5.492-12.49h-0.438l-4.577,10.818
		c-0.688,1.623-1.17,2.612-1.453,2.971c-0.281,0.356-0.702,0.568-1.265,0.632v0.413h4.344V365.673z M167.016,360.019l2.541-6.068
		l2.528,6.068H167.016"/>
	<path fill="#282525" d="M188.294,236.224c0,24.154-28.365,43.732-63.363,43.732c-34.994,0-63.362-19.578-63.362-43.732
		c0-24.153,28.369-43.73,63.362-43.73C159.929,192.492,188.294,212.071,188.294,236.224"/>
	<path fill="none" stroke="#F78E1E" stroke-width="2.281" d="M188.294,236.224c0,24.154-28.365,43.732-63.363,43.732
		c-34.994,0-63.362-19.578-63.362-43.732c0-24.153,28.369-43.73,63.362-43.73C159.929,192.492,188.294,212.071,188.294,236.224z"/>
	<path fill="#FFFFFF" d="M84.165,211.708l0.685-0.482l-0.237-0.946l1.338-0.944l0.808,0.545l0.73-0.518l-3.58-2.33l-0.746,0.526
		L84.165,211.708z M85.405,208.957l-0.964,0.68l-0.467-1.676l0.01-0.006L85.405,208.957"/>
	<path fill="none" stroke="#FFFFFF" stroke-width="1.039" stroke-miterlimit="3.864" d="M84.165,211.708l0.685-0.482l-0.237-0.946
		l1.338-0.944l0.808,0.545l0.73-0.518l-3.58-2.33l-0.746,0.526L84.165,211.708z M85.405,208.957l-0.964,0.68l-0.467-1.676
		l0.01-0.006L85.405,208.957"/>
	<polygon fill="#FFFFFF" points="88.277,204.23 89.036,203.849 91.13,206.348 91.14,206.341 90.332,203.199 91.313,202.707 
		93.371,205.222 93.382,205.216 92.635,202.042 93.337,201.69 94.178,205.708 93.248,206.175 91.174,203.666 91.165,203.671 
		91.946,206.83 91.011,207.296 	"/>
	<polygon fill="none" stroke="#FFFFFF" stroke-width="1.039" stroke-miterlimit="3.864" points="88.277,204.23 89.036,203.849 
		91.13,206.348 91.14,206.341 90.332,203.199 91.313,202.707 93.371,205.222 93.382,205.216 92.635,202.042 93.337,201.69 
		94.178,205.708 93.248,206.175 91.174,203.666 91.165,203.671 91.946,206.83 91.011,207.296 	"/>
	<path fill="#FFFFFF" d="M97.94,204.109l0.791-0.275l0.032-0.976l1.544-0.54l0.627,0.745l0.846-0.296l-2.804-3.225l-0.862,0.303
		L97.94,204.109z M99.887,201.802l-1.112,0.389l0.012-1.738l0.011-0.004L99.887,201.802"/>
	<path fill="none" stroke="#FFFFFF" stroke-width="1.039" stroke-miterlimit="3.864" d="M97.94,204.109l0.791-0.275l0.032-0.976
		l1.544-0.54l0.627,0.745l0.846-0.296l-2.804-3.225l-0.862,0.303L97.94,204.109z M99.887,201.802l-1.112,0.389l0.012-1.738
		l0.011-0.004L99.887,201.802"/>
	<path fill="#FFFFFF" d="M105.271,201.785l0.788-0.187l-0.382-1.604l0.253-0.06c0.331-0.08,0.458,0.007,0.64,0.269l0.761,1.094
		l0.877-0.207l-0.988-1.361c-0.12-0.152-0.293-0.334-0.511-0.299l-0.003-0.012c0.483-0.185,0.705-0.635,0.597-1.088
		c-0.255-1.072-1.255-0.807-2.098-0.604l-0.851,0.2L105.271,201.785z M105.285,198.345l0.259-0.061
		c0.394-0.095,0.842-0.16,0.952,0.305c0.112,0.481-0.316,0.643-0.705,0.734l-0.258,0.063L105.285,198.345"/>
	<path fill="none" stroke="#FFFFFF" stroke-width="1.039" stroke-miterlimit="3.864" d="M105.271,201.785l0.788-0.187l-0.382-1.604
		l0.253-0.06c0.331-0.08,0.458,0.007,0.64,0.269l0.761,1.094l0.877-0.207l-0.988-1.361c-0.12-0.152-0.293-0.334-0.511-0.299
		l-0.003-0.012c0.483-0.185,0.705-0.635,0.597-1.088c-0.255-1.072-1.255-0.807-2.098-0.604l-0.851,0.2L105.271,201.785z
		 M105.285,198.345l0.259-0.061c0.394-0.095,0.842-0.16,0.952,0.305c0.112,0.481-0.316,0.643-0.705,0.734l-0.258,0.063
		L105.285,198.345"/>
	<path fill="#FFFFFF" d="M111.915,200.396l1.094-0.15c1.225-0.17,2.25-0.726,2.033-2.285c-0.216-1.561-1.354-1.815-2.578-1.646
		l-1.094,0.15L111.915,200.396z M112.258,196.974l0.447-0.063c0.669-0.093,1.383,0.308,1.502,1.164
		c0.119,0.855-0.461,1.436-1.13,1.528l-0.446,0.062L112.258,196.974"/>
	<path fill="none" stroke="#FFFFFF" stroke-width="1.039" stroke-miterlimit="3.864" d="M111.915,200.396l1.094-0.15
		c1.225-0.17,2.25-0.726,2.033-2.285c-0.216-1.561-1.354-1.815-2.578-1.646l-1.094,0.15L111.915,200.396z M112.258,196.974
		l0.447-0.063c0.669-0.093,1.383,0.308,1.502,1.164c0.119,0.855-0.461,1.436-1.13,1.528l-0.446,0.062L112.258,196.974"/>
	<polygon fill="#FFFFFF" points="123.776,195.431 124.625,195.455 125.286,198.646 125.297,198.647 126.074,195.496 
		127.172,195.526 127.792,198.718 127.806,198.718 128.65,195.569 129.438,195.591 128.273,199.529 127.233,199.5 126.595,196.307 
		126.583,196.307 125.777,199.457 124.73,199.427 	"/>
	<polygon fill="none" stroke="#FFFFFF" stroke-width="1.039" stroke-miterlimit="3.864" points="123.776,195.431 124.625,195.455 
		125.286,198.646 125.297,198.647 126.074,195.496 127.172,195.526 127.792,198.718 127.806,198.718 128.65,195.569 
		129.438,195.591 128.273,199.529 127.233,199.5 126.595,196.307 126.583,196.307 125.777,199.457 124.73,199.427 	"/>
	
		<rect x="133.189" y="196.018" transform="matrix(-0.993 -0.1185 0.1185 -0.993 242.7762 410.4414)" fill="#FFFFFF" width="0.807" height="3.967"/>
	
		<rect x="133.189" y="196.018" transform="matrix(-0.993 -0.1185 0.1185 -0.993 242.7762 410.4414)" fill="none" stroke="#FFFFFF" stroke-width="1.039" stroke-miterlimit="3.864" width="0.807" height="3.967"/>
	<polygon fill="#FFFFFF" points="138.521,196.71 139.494,196.906 140.417,200.119 140.43,200.121 141.015,197.212 141.773,197.364 
		140.989,201.255 140.021,201.061 139.094,197.847 139.081,197.845 138.496,200.753 137.737,200.602 	"/>
	<polygon fill="none" stroke="#FFFFFF" stroke-width="1.039" stroke-miterlimit="3.864" points="138.521,196.71 139.494,196.906 
		140.417,200.119 140.43,200.121 141.015,197.212 141.773,197.364 140.989,201.255 140.021,201.061 139.094,197.847 
		139.081,197.845 138.496,200.753 137.737,200.602 	"/>
	<polygon fill="#FFFFFF" points="146.052,198.455 146.997,198.75 147.582,202.041 147.592,202.044 148.478,199.21 149.215,199.442 
		148.032,203.23 147.092,202.937 146.502,199.644 146.492,199.64 145.606,202.472 144.867,202.242 	"/>
	<polygon fill="none" stroke="#FFFFFF" stroke-width="1.039" stroke-miterlimit="3.864" points="146.052,198.455 146.997,198.75 
		147.582,202.041 147.592,202.044 148.478,199.21 149.215,199.442 148.032,203.23 147.092,202.937 146.502,199.644 146.492,199.64 
		145.606,202.472 144.867,202.242 	"/>
	
		<rect x="152.508" y="201.005" transform="matrix(-0.923 -0.3849 0.3849 -0.923 215.9218 449.1942)" fill="#FFFFFF" width="0.809" height="3.969"/>
	
		<rect x="152.508" y="201.005" transform="matrix(-0.923 -0.3849 0.3849 -0.923 215.9218 449.1942)" fill="none" stroke="#FFFFFF" stroke-width="1.039" stroke-miterlimit="3.864" width="0.809" height="3.969"/>
	<polygon fill="#FFFFFF" points="158.052,203.151 158.926,203.626 158.851,206.968 158.86,206.976 160.284,204.371 160.964,204.744 
		159.06,208.225 158.193,207.75 158.261,204.406 158.251,204.4 156.83,207.005 156.15,206.632 	"/>
	<polygon fill="none" stroke="#FFFFFF" stroke-width="1.039" stroke-miterlimit="3.864" points="158.052,203.151 158.926,203.626 
		158.851,206.968 158.86,206.976 160.284,204.371 160.964,204.744 159.06,208.225 158.193,207.75 158.261,204.406 158.251,204.4 
		156.83,207.005 156.15,206.632 	"/>
	<path fill="#FFFFFF" d="M166.854,209.697c-0.165-0.3-0.443-0.597-0.705-0.792c-0.756-0.565-1.545-0.376-2.035,0.274
		c-0.48,0.646-0.438,1.438,0.249,1.953c0.179,0.132,0.328,0.219,0.462,0.272l0.618-0.825l-0.685-0.515l0.373-0.501l1.307,0.979
		l-1.284,1.711c-0.408-0.166-0.819-0.359-1.167-0.621c-1.045-0.782-1.387-1.842-0.578-2.914c0.814-1.088,1.944-1.191,3.041-0.37
		c0.376,0.28,0.635,0.553,0.852,0.842L166.854,209.697z"/>
	<path fill="none" stroke="#FFFFFF" stroke-width="1.039" stroke-miterlimit="3.864" d="M166.854,209.697
		c-0.165-0.3-0.443-0.597-0.705-0.792c-0.756-0.565-1.545-0.376-2.035,0.274c-0.48,0.646-0.438,1.438,0.249,1.953
		c0.179,0.132,0.328,0.219,0.462,0.272l0.618-0.825l-0.685-0.515l0.373-0.501l1.307,0.979l-1.284,1.711
		c-0.408-0.166-0.819-0.359-1.167-0.621c-1.045-0.782-1.387-1.842-0.578-2.914c0.814-1.088,1.944-1.191,3.041-0.37
		c0.376,0.28,0.635,0.553,0.852,0.842L166.854,209.697z"/>
	<path fill="#FFFFFF" d="M79.166,262.253l0.848,0.639c0.95,0.717,2.026,1.033,2.938-0.174c0.907-1.207,0.307-2.154-0.645-2.871
		l-0.848-0.639L79.166,262.253z M81.719,260.156l0.346,0.262c0.521,0.393,0.735,1.147,0.236,1.812
		c-0.499,0.662-1.288,0.662-1.807,0.272l-0.348-0.262L81.719,260.156"/>
	<path fill="none" stroke="#FFFFFF" stroke-width="1.039" stroke-miterlimit="3.864" d="M79.166,262.253l0.848,0.639
		c0.95,0.717,2.026,1.033,2.938-0.174c0.907-1.207,0.307-2.154-0.645-2.871l-0.848-0.639L79.166,262.253z M81.719,260.156
		l0.346,0.262c0.521,0.393,0.735,1.147,0.236,1.812c-0.499,0.662-1.288,0.662-1.807,0.272l-0.348-0.262L81.719,260.156"/>
	
		<rect x="85.887" y="262.935" transform="matrix(-0.8577 -0.5141 0.5141 -0.8577 24.1152 536.3566)" fill="#FFFFFF" width="0.779" height="3.812"/>
	
		<rect x="85.887" y="262.935" transform="matrix(-0.8577 -0.5141 0.5141 -0.8577 24.1152 536.3566)" fill="none" stroke="#FFFFFF" stroke-width="1.039" stroke-miterlimit="3.864" width="0.779" height="3.812"/>
	<path fill="#FFFFFF" d="M92.271,266.655c-0.174-0.198-0.394-0.372-0.639-0.491c-0.24-0.117-0.6-0.164-0.781,0.209
		c-0.289,0.594,1.362,1.088,0.804,2.235c-0.363,0.75-1.106,0.742-1.812,0.397c-0.381-0.186-0.526-0.315-0.831-0.567l0.366-0.586
		c0.178,0.244,0.412,0.463,0.687,0.597c0.267,0.129,0.687,0.168,0.835-0.142c0.318-0.652-1.344-1.127-0.792-2.263
		c0.372-0.768,1.113-0.75,1.729-0.451c0.299,0.146,0.561,0.32,0.772,0.527L92.271,266.655z"/>
	<path fill="none" stroke="#FFFFFF" stroke-width="1.039" stroke-miterlimit="3.864" d="M92.271,266.655
		c-0.174-0.198-0.394-0.372-0.639-0.491c-0.24-0.117-0.6-0.164-0.781,0.209c-0.289,0.594,1.362,1.088,0.804,2.235
		c-0.363,0.75-1.106,0.742-1.812,0.397c-0.381-0.186-0.526-0.315-0.831-0.567l0.366-0.586c0.178,0.244,0.412,0.463,0.687,0.597
		c0.267,0.129,0.687,0.168,0.835-0.142c0.318-0.652-1.344-1.127-0.792-2.263c0.372-0.768,1.113-0.75,1.729-0.451
		c0.299,0.146,0.561,0.32,0.772,0.527L92.271,266.655z"/>
	<polygon fill="#FFFFFF" points="96.449,268.315 95.409,267.921 95.622,267.36 98.43,268.423 98.217,268.985 97.178,268.591 
		96.041,271.597 95.312,271.319 	"/>
	<polygon fill="none" stroke="#FFFFFF" stroke-width="1.039" stroke-miterlimit="3.864" points="96.449,268.315 95.409,267.921 
		95.622,267.36 98.43,268.423 98.217,268.985 97.178,268.591 96.041,271.597 95.312,271.319 	"/>
	
		<rect x="100.897" y="269.442" transform="matrix(-0.9577 -0.2879 0.2879 -0.9577 120.1589 560.3657)" fill="#FFFFFF" width="0.78" height="3.81"/>
	
		<rect x="100.897" y="269.442" transform="matrix(-0.9577 -0.2879 0.2879 -0.9577 120.1589 560.3657)" fill="none" stroke="#FFFFFF" stroke-width="1.039" stroke-miterlimit="3.864" width="0.78" height="3.81"/>
	<polygon fill="#FFFFFF" points="105.666,270.548 106.425,270.722 105.714,273.853 107.183,274.187 107.051,274.771 
		104.822,274.267 	"/>
	<polygon fill="none" stroke="#FFFFFF" stroke-width="1.039" stroke-miterlimit="3.864" points="105.666,270.548 106.425,270.722 
		105.714,273.853 107.183,274.187 107.051,274.771 104.822,274.267 	"/>
	<polygon fill="#FFFFFF" points="111.085,271.644 111.855,271.761 111.368,274.937 112.856,275.164 112.766,275.757 
		110.507,275.412 	"/>
	<polygon fill="none" stroke="#FFFFFF" stroke-width="1.039" stroke-miterlimit="3.864" points="111.085,271.644 111.855,271.761 
		111.368,274.937 112.856,275.164 112.766,275.757 110.507,275.412 	"/>
	<polygon fill="#FFFFFF" points="116.568,272.36 118.852,272.55 118.802,273.147 117.295,273.024 117.216,273.96 118.598,274.074 
		118.548,274.673 117.166,274.56 117.079,275.626 118.598,275.751 118.548,276.349 116.254,276.158 	"/>
	<polygon fill="none" stroke="#FFFFFF" stroke-width="1.039" stroke-miterlimit="3.864" points="116.568,272.36 118.852,272.55 
		118.802,273.147 117.295,273.024 117.216,273.96 118.598,274.074 118.548,274.673 117.166,274.56 117.079,275.626 118.598,275.751 
		118.548,276.349 116.254,276.158 	"/>
	<path fill="#FFFFFF" d="M122.364,276.535l1.062,0.008c1.188,0.008,2.245-0.377,2.256-1.89c0.013-1.512-1.033-1.913-2.225-1.922
		l-1.063-0.01L122.364,276.535z M123.167,273.33l0.433,0.004c0.652,0.004,1.275,0.483,1.271,1.312
		c-0.01,0.832-0.641,1.304-1.29,1.297l-0.436-0.004L123.167,273.33"/>
	<path fill="none" stroke="#FFFFFF" stroke-width="1.039" stroke-miterlimit="3.864" d="M122.364,276.535l1.062,0.008
		c1.188,0.008,2.245-0.377,2.256-1.89c0.013-1.512-1.033-1.913-2.225-1.922l-1.063-0.01L122.364,276.535z M123.167,273.33
		l0.433,0.004c0.652,0.004,1.275,0.483,1.271,1.312c-0.01,0.832-0.641,1.304-1.29,1.297l-0.436-0.004L123.167,273.33"/>
	<path fill="#FFFFFF" d="M135.622,272.097c-0.276-0.061-0.548-0.072-0.829-0.039c-1.247,0.146-1.451,1.316-1.328,2.342
		c0.104,0.891,0.447,1.732,1.518,1.605c0.873-0.104,1.219-0.693,1.119-1.514c-0.084-0.699-0.534-1.107-1.264-1.021
		c-0.326,0.038-0.548,0.187-0.7,0.469l-0.013-0.008c-0.045-0.567,0.106-1.203,0.775-1.283c0.264-0.03,0.479,0.011,0.692,0.072
		L135.622,272.097z M134.733,274.058c0.371-0.045,0.567,0.277,0.609,0.646c0.04,0.336-0.069,0.694-0.428,0.737
		c-0.381,0.043-0.572-0.252-0.614-0.608C134.255,274.455,134.357,274.101,134.733,274.058"/>
	<path fill="none" stroke="#FFFFFF" stroke-width="1.039" stroke-miterlimit="3.864" d="M135.622,272.097
		c-0.276-0.061-0.548-0.072-0.829-0.039c-1.247,0.146-1.451,1.316-1.328,2.342c0.104,0.891,0.447,1.732,1.518,1.605
		c0.873-0.104,1.219-0.693,1.119-1.514c-0.084-0.699-0.534-1.107-1.264-1.021c-0.326,0.038-0.548,0.187-0.7,0.469l-0.013-0.008
		c-0.045-0.567,0.106-1.203,0.775-1.283c0.264-0.03,0.479,0.011,0.692,0.072L135.622,272.097z M134.733,274.058
		c0.371-0.045,0.567,0.277,0.609,0.646c0.04,0.336-0.069,0.694-0.428,0.737c-0.381,0.043-0.572-0.252-0.614-0.608
		C134.255,274.455,134.357,274.101,134.733,274.058"/>
	<polygon fill="#FFFFFF" points="145.034,274.115 145.79,273.923 145.001,270.812 146.081,270.537 145.932,269.957 143.021,270.688 
		143.17,271.272 144.247,271.001 	"/>
	<polygon fill="none" stroke="#FFFFFF" stroke-width="1.039" stroke-miterlimit="3.864" points="145.034,274.115 145.79,273.923 
		145.001,270.812 146.081,270.537 145.932,269.957 143.021,270.688 143.17,271.272 144.247,271.001 	"/>
	
		<rect x="149.543" y="268.817" transform="matrix(-0.9508 0.3098 -0.3098 -0.9508 376.3719 481.6652)" fill="#FFFFFF" width="0.782" height="3.812"/>
	
		<rect x="149.543" y="268.817" transform="matrix(-0.9508 0.3098 -0.3098 -0.9508 376.3719 481.6652)" fill="none" stroke="#FFFFFF" stroke-width="1.039" stroke-miterlimit="3.864" width="0.782" height="3.812"/>
	<polygon fill="#FFFFFF" points="153.06,267.61 154.202,267.117 156.198,269.399 156.208,269.396 155.906,266.378 157.052,265.884 
		158.562,269.38 157.88,269.679 156.631,266.791 156.621,266.798 156.909,270.099 156.228,270.394 154.018,267.921 154.013,267.937 
		155.257,270.812 154.572,271.106 	"/>
	<polygon fill="none" stroke="#FFFFFF" stroke-width="1.039" stroke-miterlimit="3.864" points="153.06,267.61 154.202,267.117 
		156.198,269.399 156.208,269.396 155.906,266.378 157.052,265.884 158.562,269.38 157.88,269.679 156.631,266.791 156.621,266.798 
		156.909,270.099 156.228,270.394 154.018,267.921 154.013,267.937 155.257,270.812 154.572,271.106 	"/>
	<polygon fill="#FFFFFF" points="160.225,264.233 162.208,263.091 162.509,263.612 161.197,264.367 161.668,265.183 162.865,264.49 
		163.166,265.011 161.967,265.701 162.499,266.628 163.82,265.869 164.119,266.39 162.123,267.537 	"/>
	<polygon fill="none" stroke="#FFFFFF" stroke-width="1.039" stroke-miterlimit="3.864" points="160.225,264.233 162.208,263.091 
		162.509,263.612 161.197,264.367 161.668,265.183 162.865,264.49 163.166,265.011 161.967,265.701 162.499,266.628 163.82,265.869 
		164.119,266.39 162.123,267.537 	"/>
	<path fill="#FFFFFF" d="M167.225,260.524c-0.259,0.062-0.513,0.175-0.731,0.334c-0.219,0.158-0.428,0.453-0.182,0.789
		c0.391,0.533,1.6-0.694,2.354,0.336c0.493,0.673,0.137,1.326-0.495,1.789c-0.341,0.25-0.524,0.315-0.893,0.47l-0.346-0.599
		c0.298-0.045,0.602-0.147,0.846-0.33c0.239-0.174,0.473-0.524,0.269-0.806c-0.429-0.584-1.625,0.662-2.369-0.354
		c-0.503-0.688-0.145-1.336,0.408-1.739c0.269-0.195,0.545-0.347,0.828-0.438L167.225,260.524z"/>
	<path fill="none" stroke="#FFFFFF" stroke-width="1.039" stroke-miterlimit="3.864" d="M167.225,260.524
		c-0.259,0.062-0.513,0.175-0.731,0.334c-0.219,0.158-0.428,0.453-0.182,0.789c0.391,0.533,1.6-0.694,2.354,0.336
		c0.493,0.673,0.137,1.326-0.495,1.789c-0.341,0.25-0.524,0.315-0.893,0.47l-0.346-0.599c0.298-0.045,0.602-0.147,0.846-0.33
		c0.239-0.174,0.473-0.524,0.269-0.806c-0.429-0.584-1.625,0.662-2.369-0.354c-0.503-0.688-0.145-1.336,0.408-1.739
		c0.269-0.195,0.545-0.347,0.828-0.438L167.225,260.524z"/>
	<path fill="#282525" d="M174.402,236.308c0,18.506-22.57,33.504-50.416,33.504s-50.418-14.998-50.418-33.504
		c0-18.504,22.573-33.504,50.418-33.504S174.402,217.806,174.402,236.308"/>
	<path fill="#F78E1E" d="M124.233,200.953c28.478,0,51.57,15.688,51.57,35.047c0,19.358-23.095,35.047-51.57,35.047
		c-28.478,0-51.568-15.688-51.568-35.049C72.663,216.64,95.756,200.953,124.233,200.953 M161.914,256.615
		c7.834-6.478,11.373-14.242,11.373-20.648c0-9.945-8.543-23.231-28.457-29.729c-6.229-2.024-13.215-3.181-20.603-3.181
		c-7.409,0-14.393,1.156-20.623,3.181c-19.912,6.498-28.453,19.784-28.453,29.729c0,9.947,8.542,23.229,28.453,29.729
		c6.23,2.022,13.213,3.181,20.623,3.181c7.388,0,14.371-1.154,20.603-3.181c1.269-0.401,2.471-0.846,3.626-1.312l-5.406,0.109
		l-20.679-0.568c-0.535-0.025-1.376-1.119-2.521-3.273c-0.265-0.041-0.785,0.08-1.56,0.365l-0.539,0.197l-9.988,0.262l-6.501-0.055
		c-3.559-0.035-6.266-0.601-8.113-1.697l0.026-29.5c-0.003-1.646,3.357-1.381,7.448-2.023l0.695-0.111
		c-3.345-1.346-3.627-6.666-0.936-8.563l3.212-2.264c0.892-1.57,1.354-2.793,1.398-3.68l0.205-4.158c0.162-3.43,7.117-4,8.329-2.034
		l1.878,3.043c1.632,2.649,4.634,4.211,9.002,4.69c4.857,0.532,9.631,1.645,14.441,2.465c6.874,1.131,10.485,1.709,10.853,1.746
		l-0.021,2.09l-18.371,2.627l0.022-2.322l10.467-1.535c-1.898-0.494-7.657-1.525-17.265-3.094c-5.607-0.916-8.913-2.079-9.93-3.488
		l-2.058-2.865c-0.813-1.134-3.106-2.908-3.527-0.594c-0.503,2.753-0.167,4.883,1.457,6.941c0.205,0.256,0.788,0.883,1.158,0.912
		c2.998,0.252,7.881,5.871,2.454,10.078c0.416-0.025,0.792,0.069,1.239,0.084c2.305,0.08,4.872,0.34,6.789,1.16
		c0.483,0.227,1.013,0.676,1.01,1.153l0.009,13.826l1.516-0.179c0.896-0.018,13.636-1.735,30.922-0.233
		c4.615,0.39,7.125,4.621,6.347,12.718C161.919,256.638,161.919,256.591,161.914,256.615 M131.365,226.903l0.017-2.088l18.37-2.396
		l-0.021,2.09L131.365,226.903 M131.25,230.14l0.016-1.855l18.372-2.861l-0.018,1.859L131.25,230.14 M143.657,234.649l-1.428,0.026
		l0.003-0.465l-10.909-0.328l0.02-2.321l18.375-3.093l-0.021,2.322l-10.695,1.533l-0.002,0.23l4.178,0.035
		c0.312,0.004,0.466,0.16,0.466,0.471L143.657,234.649 M143.63,236.287c0.267,0.555,1.225,1.049,1.76,2.758
		c0.311,1.069,0.077,2.195-1.112,2.74c-0.896,0.416-1.437,0.479-2.357-0.021c-1.548-0.811-1.802-2.494-0.224-4.313
		c0.289-0.326,0.863-1.039,0.869-1.145l0.487-1.221L143.63,236.287 M138.13,244.371l0.458,0.842l0.729,1.92
		c2.581,5.5,2.207,10.85-1.115,16.051l5.106,0.047c2.168,0.02,3.604-0.279,4.306-0.898c0.796-0.697,5.786-11.643-0.508-18.012
		c-0.627,1.748-6.239,1.656-6.796,0.725l-0.744-0.653L138.13,244.371 M149.842,244.442l1.403,2.472
		c0.715,1.016,1.765,5.707,1.294,7.772l-1.691,7.42l3.645-1.049c0.257-0.045,0.665-1.099,1.22-3.156
		c0.577-2.131,0.767-4.274,0.572-6.435c-0.246-2.717-2.053-6.985-3.653-7L149.842,244.442 M136.095,244.699l-5.497,0.288
		l1.067,2.027c1.313,2.489,1.856,9.297,0.244,13.407c-0.389,0.983-0.977,1.793-1.769,2.429l5.803,0.28
		c0.174,0.011,0.776-1.313,1.809-3.965C139.686,254.199,136.53,244.687,136.095,244.699 M159.971,258.259
		c0.355-1.381,0.51-3.563,0.179-6.031c-0.622-4.762-2.538-6.607-3.917-7.23l-1.354-0.154l1.956,2.402
		c0.488,0.601,1.781,4.896,1.357,8.877c-0.11,1.023-0.534,2.271-1.155,4.119C158.057,259.591,159.035,258.949,159.971,258.259
		 M125.81,245.435l1.608,1.871c2.45,2.852,2.847,10.779-0.833,15.555l0.932,0.01c1.854,0.019,3.404-5.24,3.549-6.486
		c0.393-3.762-0.807-11.143-3.396-11.166L125.81,245.435 M123.549,245.333c-1.986-0.515-6.29,8.771-2.745,14.76
		c1.933,3.266,3.718,3.553,5.361,0.859c3.996-6.545,0.688-14.763-1.689-15.379L123.549,245.333"/>
	<path fill="none" stroke="#F78E1E" stroke-width="1.039" stroke-miterlimit="3.864" d="M124.233,200.953
		c28.478,0,51.57,15.688,51.57,35.047c0,19.358-23.095,35.047-51.57,35.047c-28.478,0-51.568-15.688-51.568-35.049
		C72.663,216.64,95.756,200.953,124.233,200.953z M161.914,256.615c7.834-6.478,11.373-14.242,11.373-20.648
		c0-9.945-8.543-23.231-28.457-29.729c-6.229-2.024-13.215-3.181-20.603-3.181c-7.409,0-14.393,1.156-20.623,3.181
		c-19.912,6.498-28.453,19.784-28.453,29.729c0,9.947,8.542,23.229,28.453,29.729c6.23,2.022,13.213,3.181,20.623,3.181
		c7.388,0,14.371-1.154,20.603-3.181c1.269-0.401,2.471-0.846,3.626-1.312l-5.406,0.109l-20.679-0.568
		c-0.535-0.025-1.376-1.119-2.521-3.273c-0.265-0.041-0.785,0.08-1.56,0.365l-0.539,0.197l-9.988,0.262l-6.501-0.055
		c-3.559-0.035-6.266-0.601-8.113-1.697l0.026-29.5c-0.003-1.646,3.357-1.381,7.448-2.023l0.695-0.111
		c-3.345-1.346-3.627-6.666-0.936-8.563l3.212-2.264c0.892-1.57,1.354-2.793,1.398-3.68l0.205-4.158c0.162-3.43,7.117-4,8.329-2.034
		l1.878,3.043c1.632,2.649,4.634,4.211,9.002,4.69c4.857,0.532,9.631,1.645,14.441,2.465c6.874,1.131,10.485,1.709,10.853,1.746
		l-0.021,2.09l-18.371,2.627l0.022-2.322l10.467-1.535c-1.898-0.494-7.657-1.525-17.265-3.094c-5.607-0.916-8.913-2.079-9.93-3.488
		l-2.058-2.865c-0.813-1.134-3.106-2.908-3.527-0.594c-0.503,2.753-0.167,4.883,1.457,6.941c0.205,0.256,0.788,0.883,1.158,0.912
		c2.998,0.252,7.881,5.871,2.454,10.078c0.416-0.025,0.792,0.069,1.239,0.084c2.305,0.08,4.872,0.34,6.789,1.16
		c0.483,0.227,1.013,0.676,1.01,1.153l0.009,13.826l1.516-0.179c0.896-0.018,13.636-1.735,30.922-0.233
		c4.615,0.39,7.125,4.621,6.347,12.718C161.919,256.638,161.919,256.591,161.914,256.615 M131.365,226.903l0.017-2.088l18.37-2.396
		l-0.021,2.09L131.365,226.903 M131.25,230.14l0.016-1.855l18.372-2.861l-0.018,1.859L131.25,230.14 M143.657,234.649l-1.428,0.026
		l0.003-0.465l-10.909-0.328l0.02-2.321l18.375-3.093l-0.021,2.322l-10.695,1.533l-0.002,0.23l4.178,0.035
		c0.312,0.004,0.466,0.16,0.466,0.471L143.657,234.649 M143.63,236.287c0.267,0.555,1.225,1.049,1.76,2.758
		c0.311,1.069,0.077,2.195-1.112,2.74c-0.896,0.416-1.437,0.479-2.357-0.021c-1.548-0.811-1.802-2.494-0.224-4.313
		c0.289-0.326,0.863-1.039,0.869-1.145l0.487-1.221L143.63,236.287 M138.13,244.371l0.458,0.842l0.729,1.92
		c2.581,5.5,2.207,10.85-1.115,16.051l5.106,0.047c2.168,0.02,3.604-0.279,4.306-0.898c0.796-0.697,5.786-11.643-0.508-18.012
		c-0.627,1.748-6.239,1.656-6.796,0.725l-0.744-0.653L138.13,244.371 M149.842,244.442l1.403,2.472
		c0.715,1.016,1.765,5.707,1.294,7.772l-1.691,7.42l3.645-1.049c0.257-0.045,0.665-1.099,1.22-3.156
		c0.577-2.131,0.767-4.274,0.572-6.435c-0.246-2.717-2.053-6.985-3.653-7L149.842,244.442 M136.095,244.699l-5.497,0.288
		l1.067,2.027c1.313,2.489,1.856,9.297,0.244,13.407c-0.389,0.983-0.977,1.793-1.769,2.429l5.803,0.28
		c0.174,0.011,0.776-1.313,1.809-3.965C139.686,254.199,136.53,244.687,136.095,244.699 M159.971,258.259
		c0.355-1.381,0.51-3.563,0.179-6.031c-0.622-4.762-2.538-6.607-3.917-7.23l-1.354-0.154l1.956,2.402
		c0.488,0.601,1.781,4.896,1.357,8.877c-0.11,1.023-0.534,2.271-1.155,4.119C158.057,259.591,159.035,258.949,159.971,258.259
		 M125.81,245.435l1.608,1.871c2.45,2.852,2.847,10.779-0.833,15.555l0.932,0.01c1.854,0.019,3.404-5.24,3.549-6.486
		c0.393-3.762-0.807-11.143-3.396-11.166L125.81,245.435 M123.549,245.333c-1.986-0.515-6.29,8.771-2.745,14.76
		c1.933,3.266,3.718,3.553,5.361,0.859c3.996-6.545,0.688-14.763-1.689-15.379L123.549,245.333"/>
	<polygon fill="#F78E1E" points="180.928,232.208 181.971,234.322 184.302,234.66 182.615,236.306 183.013,238.625 180.928,237.53 
		178.845,238.625 179.24,236.306 177.556,234.66 179.885,234.322 	"/>
	<polygon fill="none" stroke="#F78E1E" stroke-width="1.039" stroke-miterlimit="3.864" points="180.928,232.208 181.971,234.322 
		184.302,234.66 182.615,236.306 183.013,238.625 180.928,237.53 178.845,238.625 179.24,236.306 177.556,234.66 179.885,234.322 	
		"/>
	<polygon fill="#F78E1E" points="68.414,232.208 69.457,234.322 71.788,234.66 70.101,236.306 70.499,238.625 68.414,237.53 
		66.329,238.625 66.728,236.306 65.041,234.66 67.371,234.322 	"/>
	<polygon fill="none" stroke="#F78E1E" stroke-width="1.039" stroke-miterlimit="3.864" points="68.414,232.208 69.457,234.322 
		71.788,234.66 70.101,236.306 70.499,238.625 68.414,237.53 66.329,238.625 66.728,236.306 65.041,234.66 67.371,234.322 	"/>
	<path fill="#FFFFFF" d="M67.375,232.005l1.298-1.479l0.721,1.326c0,0,1.206-8.347,7.205-15.924
		C71.264,221.082,68.353,229.61,67.375,232.005"/>
	<path fill="none" stroke="#FFFFFF" stroke-width="1.039" stroke-miterlimit="3.864" d="M67.375,232.005l1.298-1.479l0.721,1.326
		c0,0,1.206-8.347,7.205-15.924C71.264,221.082,68.353,229.61,67.375,232.005z"/>
	<path fill="#FFFFFF" d="M67.695,239.875l0.813-0.72l1.207,0.873c0,0,1.206,8.347,7.204,15.925
		C71.583,250.798,68.672,242.271,67.695,239.875"/>
	<path fill="none" stroke="#FFFFFF" stroke-width="1.039" stroke-miterlimit="3.864" d="M67.695,239.875l0.813-0.72l1.207,0.873
		c0,0,1.206,8.347,7.204,15.925C71.583,250.798,68.672,242.271,67.695,239.875z"/>
	<path fill="#FFFFFF" d="M182.114,239.875l-0.811-0.72l-1.207,0.873c0,0-1.207,8.347-7.205,15.925
		C178.225,250.798,181.137,242.271,182.114,239.875"/>
	<path fill="none" stroke="#FFFFFF" stroke-width="1.039" stroke-miterlimit="3.864" d="M182.114,239.875l-0.811-0.72l-1.207,0.873
		c0,0-1.207,8.347-7.205,15.925C178.225,250.798,181.137,242.271,182.114,239.875z"/>
	<path fill="#FFFFFF" d="M182.06,231.317l-1.299-1.479l-0.719,1.326c0,0-1.207-8.346-7.205-15.922
		C178.17,220.394,181.082,228.923,182.06,231.317"/>
	<path fill="none" stroke="#FFFFFF" stroke-width="1.039" stroke-miterlimit="3.864" d="M182.06,231.317l-1.299-1.479l-0.719,1.326
		c0,0-1.207-8.346-7.205-15.922C178.17,220.394,181.082,228.923,182.06,231.317z"/>
	<path fill="#282525" d="M206.03,174.744c1.784,0,3.285-1.466,3.285-3.281c0-1.799-1.483-3.282-3.285-3.282
		c-1.813,0-3.275,1.465-3.275,3.299C202.753,173.278,204.216,174.744,206.03,174.744 M206.03,174.237
		c-1.533,0-2.755-1.221-2.755-2.758c0-1.554,1.222-2.794,2.755-2.794c1.521,0,2.762,1.258,2.762,2.794
		C208.79,172.998,207.551,174.237,206.03,174.237 M204.602,173.278h0.767v-1.501h0.734c0.331,0,0.662,0.279,0.662,0.872
		c0,0.454,0.02,0.507,0.055,0.629h0.731c-0.104-0.366,0-0.751-0.087-1.116c-0.087-0.42-0.349-0.629-0.595-0.664
		c0.401-0.07,0.732-0.438,0.732-0.927c0-0.575-0.438-1.028-1.117-1.028H204.6L204.602,173.278 M205.366,171.216v-1.082h0.928
		c0.331,0,0.575,0.244,0.575,0.543c0,0.297-0.261,0.558-0.54,0.541L205.366,171.216"/>
	<path fill="#282525" d="M65.688,167.746l-5.01,5.525H40.931l6.181-5.605l3.938,0.08c1.892-0.945,2.984-1.611,5.312-4.335
		c3.507-3.765,17.48-31.945,17.456-32.502l-2.737,0.104c-6.979,0.263-11.252,1.312-12.722,2.149
		c-4.369,2.495-6.52,5.514-6.555,10.053l-7.491,2.741c-0.289-4.227,8.524-20.525,27.806-19.909l18.173,0.164
		c2.36-0.01,6.031,0.12,11.187-3.583l3.399-3.206l4.405-1.716c-1.259,3.417-11.136,14.433-28.991,13.264
		c-0.594,1.681-3.977,8.462-10.146,20.347c-4.218,8.128-9.755,13.625-14.789,16.617L65.688,167.746z M102.141,132.53l3.688-4.896
		l2.548-1.277c1.034-0.517,2.681-1.447,4.947-2.792c0.811-0.481,1.636-0.94,2.473-1.372l-3.178,5.121L102.141,132.53
		 M182.445,122.994l7.468,0.067l-8.11,17.022l-2.242-0.02L182.445,122.994 M124.692,165.503L124.692,165.503
		c-2.439,4.062-14.622,9.41-16.648,7.389c-2.567-2.549-0.948-6.283,1.484-11.007c7.095-13.767,10.129-20.013,10.271-20.3
		l-6.349,0.197l3.098-3.258l5.229,0.047l5.061-9.396l6.237-1.219l-4.823,10.672l10.952,0.225l-3.35,3.002l-9.461-0.211
		c-6.941,13.797-10.806,21.683-12.263,25.12c-0.283,0.667-0.836,2.356,0.531,2.356c2.44,0,4-0.852,6.385-2.717l3.587-3.346
		L124.692,165.503 M183.22,172.678c-3.223,0.51-6.789,0.053-10.696-1.372l5.146-4.674c5.166,6.13,13.81,2.125,14.335-2.295
		c0.099-0.834-1.014-3.682-3.335-8.549c-3.176-6.647-1.078-11.958,6.296-15.933c7.548-4.069,13.104-1.698,14.437-1.004l-3.544,6.602
		l-2.486-0.022c0.274-0.271,0.704-0.696,1.008-1.649c1.483-4.638-9.285-5.266-11.211,1.175c-0.473,1.567,0.542,4.857,3.033,9.87
		C202.484,167.464,185.559,172.306,183.22,172.678 M142.707,173.289c-3.073-0.025-6.846,0.193-8.562-2.787
		c-6.393-11.146,17.123-34.222,29.357-32.242C179.937,140.9,158.233,173.434,142.707,173.289 M102.956,162.646l-0.168,1.34
		c-0.023,2.623-16.693,14.182-17.962,7.016c-0.174-0.951,0.577-4.367,2.198-7.613l8.262-17.435c0.362-0.754,0.354-0.981,0.403-1.323
		c-0.162-0.609-0.403-0.812-1.543-0.609l-5.156,1.381l1.064-2.645l16.846-4.824c-0.559,1.171-1.155,2.321-1.793,3.45
		c-8.023,14.224-12.657,23.361-13.904,27.408c-0.094,0.278-0.033,0.529,0.247,0.514c2.568-0.211,5.241-1.465,8.019-3.766
		L102.956,162.646 M154.727,142.073c-3.956,2.151-6.724,5.817-9.086,9.582c-4.793,7.65-7.058,17.257-2.861,18.896
		C154.324,174.925,173.26,131.954,154.727,142.073"/>
	<path fill="#F78E1E" d="M81.358,133.122l-0.334-0.025l-0.134,0.307c-3.782,8.594-9.487,20.088-12.11,23.696
		c-3.261,4.485-6.021,7.597-7.983,8.999l0.55,0.771c2.074-1.481,4.833-4.582,8.201-9.212c2.637-3.626,8.114-14.584,12.081-23.577
		c19.233,1.272,27.465-12.237,28.458-13.891l-0.188-1.161C108.932,120.64,100.264,134.548,81.358,133.122"/>
	<path fill="#F78E1E" d="M61.51,174.677c-0.458,0-19.749-0.061-19.749-0.061l0.785,0.948l19.433,0.06l5.036-5.992l-0.253-1.075
		C66.762,168.557,61.779,174.324,61.51,174.677"/>
	<path fill="#F78E1E" d="M113.334,129.023c-0.291,0.129-9.688,4.28-9.688,4.28l1.117,0.566l9.256-4.114l2.383-4.678l-0.188-1.542
		C116.212,123.536,113.48,128.746,113.334,129.023"/>
	<path fill="#F78E1E" d="M94.01,166.367l0.868-0.298c0.104-1.322,7.953-16.24,13.239-25.85l-0.252-1.277
		C93.373,165.291,93.835,166.072,94.01,166.367"/>
	<path fill="#F78E1E" d="M103.441,166.294c-0.778,0.953-7.452,8.789-15.713,8.483l0.183,0.074c9.24,0.341,16.065-7.698,16.36-8.077
		l0.082-0.105l0.354-2.129l-0.942-1.143C103.763,163.396,103.469,166.042,103.441,166.294"/>
	<path fill="#F78E1E" d="M125.896,166.294c-0.779,0.953-7.452,8.789-15.715,8.483l0.182,0.074
		c9.242,0.341,16.068-7.698,16.361-8.077l0.084-0.105l0.353-2.129l-0.941-1.143C126.217,163.396,125.923,166.042,125.896,166.294"/>
	<polygon fill="#F78E1E" points="130.343,137.917 131.358,138 134.748,129.963 134.309,128.615 	"/>
	<path fill="#F78E1E" d="M143.77,158.488c-1.533,3.583-2.85,8.402-0.428,11.016l-0.003,0.002c-1.302-2.487-0.709-5.945,1.302-10.645
		c3.484-8.147,10.841-16.954,14.748-17.783v-0.043C153.465,141.669,147.106,150.687,143.77,158.488"/>
	<path fill="#F78E1E" d="M168.126,138.595c0.955,0.396,2.108,2.026,2.521,4.773c0.087,0.562,0.149,1.269,0.149,2.104
		c0,4.648-2.043,13.295-14.265,23.447c-0.005,0-1.615,1.138-1.615,1.138c-5.266,3.726-6.678,4.726-13.914,4.726l0.084-0.007
		c6.573,0.533,9.059-0.181,14.377-3.944l1.643-1.158c14.815-12.31,15.063-22.593,14.479-26.445
		c-0.413-2.736-1.852-4.026-3.315-4.636L168.126,138.595z"/>
	<path fill="#F78E1E" d="M182.53,141.696c-0.523-0.058-2.526-0.301-2.526-0.301l0.883,0.985l2.2,0.331l7.81-16.499l-0.222-1.676
		C190.673,124.537,182.812,141.118,182.53,141.696"/>
	<path fill="#F78E1E" d="M206.805,146.788h-3.113l1.356,0.948h2.321l3.305-6.185l-0.298-1.351
		C210.376,140.2,207.056,146.328,206.805,146.788"/>
	<path fill="#F78E1E" d="M194.411,144.53c-0.697,1.707-0.199,3.957,1.479,6.69c1.06,1.717,4.285,7.786,1.521,13.744
		c-2.195,4.729-7.735,7.891-16.022,9.145l0.032,0.074c8.616-1.305,14.517-3.79,16.851-8.82c2.001-4.31,1.414-9.782-1.57-14.639
		c-1.513-2.46-1.988-4.423-1.409-5.835c0.767-1.883,3.086-3.431,4.604-3.811l-0.005-0.007
		C198.198,141.493,195.359,142.202,194.411,144.53"/>
	<path fill="#F78E1E" d="M56.976,136.05c-2.064,1.812-3.241,4.353-3.603,7.718l-8.413,3.154l0.813,0.706l8.521-3.259l-0.154-0.114
		l0.129,0.065c0.279-3.348,1.364-5.832,3.331-7.559c2.611-2.291,6.799-3.25,12.428-2.876l0.406-0.928
		C64.368,132.501,59.838,133.54,56.976,136.05"/>
	<path fill="#F78E1E" d="M139.606,140.443c0,0-2.93,2.74-3.184,2.973c-0.354,0-9.069-0.211-9.069-0.211l-0.132,0.259
		c-0.376,0.74-8.57,16.805-11.455,22.743c-0.285,0.721-0.481,1.596,0.189,1.799c1.812-3.901,10.777-21.486,11.968-23.828
		c0.546,0,8.867,0.188,8.867,0.188l3.002-2.846L139.606,140.443z"/>
	<path fill="#282525" d="M76.602,292.354c-0.962-0.474-2.121-0.713-3.44-0.717c-3.474,0-7.398,1.846-11.668,5.489
		c-3.453,2.963-7.29,8.615-11.404,16.81c0,0-0.174,0.342-0.288,0.565c-0.398,0-9.785-0.008-10.797-0.01
		c0.421-0.852,2.634-5.334,2.634-5.334c0.544-1.096,1.759-3.275,3.611-6.479l0.308-0.535l-2.24-0.004
		c-4.411-0.004-8.438,1.121-11.979,3.346c-3.545,2.227-6.077,5.229-7.526,8.916c-0.436,1.111-0.716,2.242-0.835,3.371l-0.08,0.781
		l5.495-3.896l-0.033-0.218c-0.177-1.164-0.035-2.34,0.417-3.496c1.467-3.729,5.039-5.618,10.623-5.614h0.066
		c-0.479,0.957-7.172,14.362-7.172,14.362c-1.43,2.873-2.569,4.865-3.392,5.923c-0.785,1.012-1.843,1.866-3.127,2.551
		c-0.221-0.025-2.165-0.244-2.165-0.244l-4.636,3.312l9.943,0.509l4.387-3.129c0,0-3.037-0.197-4.43-0.285
		c1.438-0.683,2.654-1.375,3.423-2.086c0.988-0.912,2.02-2.414,3.07-4.457l1.199-2.363c0-0.002,0.642-1.299,0.859-1.74
		c0.403,0.002,9.712,0.008,10.738,0.012c-0.059,0.109-0.128,0.248-0.128,0.248c-3.12,6.291-5.225,10.811-6.252,13.432l-0.299,0.758
		l7.993-3.123c0.003,0,1.434-0.567,1.434-0.567c0.963-0.377,1.53-0.815,1.736-1.34l0.298-1.324l-0.668,0.347
		c-1.31,0.635-2.319,0.953-3.006,0.953c-0.214,0-0.492-0.033-0.6-0.189c-0.073-0.105-0.155-0.396,0.132-1.127
		c0.792-2.02,2.121-4.912,3.95-8.605l1.473-2.883c4.148-8.301,7.174-13.691,8.997-16.027c1.769-2.27,3.781-3.414,5.988-3.414
		c1.047,0,1.931,0.381,2.703,1.164l0.214,0.217l5.001-3.59L76.602,292.354z"/>
	<path fill="#282525" d="M75.395,314.337c-0.254,0.473-1.062,1.961-1.062,1.961c-1.829,3.406-4.429,6.414-7.723,8.938
		c-2.411,1.851-4.212,2.789-5.351,2.787c-0.37,0-0.463-0.137-0.493-0.183c-0.12-0.174-0.238-0.676,0.313-2.069
		c1.371-3.494,3.187-6.463,5.395-8.817c2.17-2.313,4.194-3.482,6.02-3.482C73.582,313.472,74.546,313.787,75.395,314.337
		 M80.78,311.776l0.247-0.36l-0.4-0.166c-0.909-0.385-2.121-0.58-3.6-0.58c-3.831-0.004-7.814,1.6-11.849,4.77
		c-4.015,3.16-6.913,6.955-8.61,11.279c-0.836,2.127-0.969,3.563-0.401,4.393c0.345,0.506,0.925,0.768,1.726,0.768
		c1.459,0,3.438-0.836,6.042-2.561c2.02-1.33,4.08-3.07,6.146-5.02c-0.236,0.438-0.833,1.543-0.833,1.543
		c-0.003,0.008-0.872,1.697-0.872,1.697c0.002-0.004-0.863,1.789-0.863,1.789c-0.371,0.942-0.405,1.614-0.104,2.057
		c0.226,0.334,0.61,0.5,1.147,0.504c1.482,0,3.426-1.027,5.941-3.137c2.446-2.066,2.915-2.777,3.054-3.131
		c0.084-0.22,0.147-0.644-0.38-1.086l-0.271-0.224l-0.229,0.267c-2.659,3.108-4.067,3.813-4.792,3.838
		c0.005-0.066,0.022-0.187,0.115-0.418l1.309-2.646l0.711-1.351l4.979-9.328c0.002-0.006,0.792-1.332,0.792-1.332l0.688-1.116
		C80.466,312.233,80.78,311.776,80.78,311.776"/>
	<path fill="#282525" d="M99.544,324.246l4.235-7.865c0.003-0.002,1.266-2.629,1.266-2.629c0.285-0.729,0.426-1.332,0.424-1.82
		c-0.001-0.367-0.084-0.672-0.249-0.914c-0.271-0.396-0.737-0.602-1.385-0.602c-1.445,0-3.44,0.811-6.102,2.475
		c-2.136,1.334-4.3,3.059-6.454,4.99c0.129-0.254,0.672-1.336,0.672-1.336c0.002-0.004,0.833-1.717,0.833-1.717
		c-0.005,0.008,0.744-1.606,0.744-1.606c0.406-1.036,0.442-1.771,0.112-2.259c-0.252-0.369-0.688-0.555-1.304-0.558
		c-0.964,0.003-2.487,0.734-4.658,2.248c-2.169,1.511-3.399,2.692-3.761,3.613c-0.127,0.325-0.042,0.676,0.253,1.049l0.262,0.33
		l0.281-0.313c2.562-2.859,3.854-3.461,4.487-3.461h0.003c0.004,0.012,0.008,0.016,0.008,0.057c0.001,0.111-0.032,0.352-0.212,0.811
		c0,0-0.935,2.092-0.936,2.092c0,0.002-0.569,1.109-0.569,1.109c-0.002,0.004-5.66,11.289-5.66,11.289l-0.793,1.563
		c-0.005,0.008-0.646,1.369-0.646,1.369l4.576-1.615l2.592-5.205c1.375-2.752,3.448-5.366,6.159-7.771
		c2.679-2.377,4.877-3.576,6.533-3.574c0.112,0,0.257,0.014,0.31,0.09c0.04,0.06,0.144,0.305-0.17,1.095
		c-0.375,0.954-1.005,2.272-1.876,3.92l-2.758,5.116c-1.093,2.045-1.877,3.675-2.334,4.841c-0.428,1.086-0.475,1.853-0.146,2.336
		c0.232,0.344,0.631,0.521,1.18,0.519c1.066,0.002,2.673-0.748,4.903-2.295c2.229-1.544,3.501-2.777,3.893-3.771
		c0.083-0.221,0.151-0.643-0.351-1.061l-0.258-0.217l-0.229,0.246c-2.9,3.076-4.214,3.732-4.809,3.741
		c-0.002-0.009-0.002-0.005-0.003-0.015c0-0.076,0.022-0.254,0.157-0.599C98.122,327.042,98.719,325.804,99.544,324.246"/>
	<path fill="#282525" d="M121.689,313.515c0.797,0,1.579,0.281,2.34,0.768c-0.229,0.467-1.012,2.063-1.015,2.068
		c-1.766,3.516-4.245,6.52-7.371,8.934c-2.384,1.853-4.188,2.787-5.369,2.787c-0.365-0.002-0.459-0.139-0.488-0.182
		c-0.119-0.178-0.236-0.682,0.312-2.074c1.404-3.578,3.232-6.564,5.436-8.879C117.696,314.664,119.767,313.515,121.689,313.515
		 M126.101,324.576l-0.273-0.22l-0.221,0.271c-2.563,3.107-3.942,3.804-4.66,3.832c0.004-0.078,0.022-0.233,0.147-0.549l1.198-2.533
		c0-0.004,0.652-1.326,0.652-1.326l8.862-17.678c1.754-3.52,3.437-6.037,5-7.479c1.528-1.412,3.3-2.125,5.271-2.125
		c0.843,0,1.53,0.104,2.05,0.312l0.182,0.074l4.863-3.549l-0.714-0.191c-0.538-0.147-1.227-0.225-2.041-0.225
		c-3.372,0-6.98,1.533-10.733,4.563c-3.728,3.004-6.774,6.832-9.063,11.375c0,0-0.585,1.168-0.808,1.613
		c-0.24-0.014-0.593-0.031-0.593-0.031h0.01c-3.446-0.004-7.223,1.656-11.22,4.935c-3.979,3.267-6.813,7.004-8.43,11.112
		c-0.828,2.111-0.954,3.543-0.388,4.377c0.354,0.521,0.952,0.783,1.781,0.787c1.461,0,3.603-0.965,6.541-2.942
		c2.151-1.446,3.908-2.981,5.456-4.549c-0.28,0.543-0.754,1.463-0.754,1.463c-0.004,0.008-1.528,3.31-1.528,3.31
		c-0.227,0.575-0.339,1.059-0.338,1.452c0.002,0.308,0.072,0.562,0.211,0.765c0.23,0.338,0.624,0.51,1.168,0.514
		c1.469,0,3.369-1.025,5.816-3.141c2.354-2.049,2.812-2.769,2.957-3.131C126.591,325.442,126.653,325.015,126.101,324.576"/>
	<path fill="#282525" d="M159.157,324.269c0.002-0.004,4.128-7.822,4.128-7.822l1.339-2.795c0.262-0.66,0.386-1.215,0.386-1.67
		c0-0.357-0.084-0.656-0.246-0.896c-0.278-0.405-0.764-0.612-1.443-0.614c-1.458-0.003-3.402,0.901-5.948,2.762
		c-1.889,1.379-3.746,3.125-5.572,5.052c0.069-0.142,0.241-0.478,0.241-0.478c0.003-0.001,0.971-1.947,0.971-1.947l0.979-2.077
		c0.284-0.73,0.428-1.337,0.425-1.824c0-0.367-0.082-0.668-0.246-0.906c-0.269-0.391-0.719-0.588-1.351-0.588
		c-2.715-0.004-6.461,2.365-11.406,7.175c0.214-0.427,0.523-1.046,0.523-1.046c0.002-0.004,0.836-1.717,0.836-1.717
		c-0.005,0.008,0.747-1.609,0.747-1.609c0.402-1.027,0.44-1.764,0.106-2.248c-0.251-0.371-0.696-0.563-1.319-0.564
		c-0.96,0-2.479,0.736-4.646,2.248c-2.165,1.512-3.392,2.693-3.752,3.613c-0.128,0.323-0.041,0.678,0.252,1.049l0.26,0.33
		l0.284-0.313c2.562-2.86,3.85-3.463,4.477-3.463c0.003,0.012,0.005,0.017,0.003,0.056c0.002,0.11-0.025,0.351-0.212,0.812
		l-0.953,2.088c0.003-0.006-0.572,1.115-0.572,1.115c-0.003,0.004-5.631,11.287-5.631,11.287l-0.797,1.561
		c-0.001,0.012-0.646,1.375-0.646,1.375l4.53-1.621l2.593-5.201c1.19-2.35,3.173-4.864,5.881-7.477
		c3.322-3.203,4.992-3.877,5.809-3.877c0.169,0.004,0.283,0.037,0.333,0.115c0.022,0.031,0.062,0.111,0.062,0.281
		c0.003,0.221-0.059,0.58-0.288,1.174l-0.729,1.621l-0.562,1.068c-0.002,0.006-4.838,9.502-4.838,9.502
		c-0.01,0.006-0.724,1.488-0.724,1.488c0-0.009-0.796,1.559-0.796,1.559c-0.003,0.01-0.646,1.38-0.646,1.38l4.51-1.627l2.635-5.2
		c1.192-2.35,3.171-4.865,5.886-7.477c3.327-3.203,5.015-3.875,5.836-3.875c0.112,0.002,0.259,0.02,0.313,0.1
		c0.042,0.063,0.154,0.334-0.191,1.215l-0.646,1.363c-0.005,0.008-0.646,1.292-0.646,1.292l-0.627,1.194
		c-0.005,0.004-2.72,5.104-2.72,5.104c-1.133,2.12-1.916,3.719-2.324,4.752c-0.424,1.082-0.463,1.852-0.127,2.348
		c0.251,0.363,0.684,0.555,1.281,0.551c0.99,0.004,2.546-0.75,4.754-2.297c2.207-1.549,3.461-2.77,3.837-3.729
		c0.102-0.246,0.112-0.636-0.381-1.089l-0.273-0.252l-0.237,0.291c-0.794,0.972-1.697,1.853-2.687,2.617
		c-1.232,0.957-1.785,1.104-2.001,1.105c-0.003-0.01-0.005-0.006-0.005-0.021c0-0.08,0.024-0.265,0.161-0.609
		C157.679,327.106,158.291,325.858,159.157,324.269"/>
	<path fill="#282525" d="M181.146,313.565c1.09,0,2.055,0.317,2.901,0.867c-0.251,0.469-1.062,1.963-1.062,1.963
		c-1.825,3.408-4.428,6.414-7.723,8.938c-2.411,1.854-4.213,2.789-5.351,2.787c-0.371,0-0.463-0.138-0.492-0.181
		c-0.12-0.176-0.237-0.678,0.311-2.071c1.371-3.494,3.188-6.459,5.396-8.814C177.297,314.737,179.322,313.563,181.146,313.565
		 M181.955,325.451l0.715-1.353l4.977-9.326c0.003-0.006,0.792-1.334,0.792-1.334l0.689-1.112c-0.005,0.006,0.306-0.449,0.306-0.449
		l0.246-0.361l-0.396-0.17c-0.916-0.385-2.126-0.578-3.601-0.58c-3.835-0.004-7.822,1.604-11.849,4.771
		c-4.019,3.156-6.916,6.951-8.613,11.277c-0.836,2.127-0.968,3.564-0.403,4.395c0.346,0.508,0.928,0.767,1.729,0.767
		c1.455,0,3.432-0.836,6.045-2.562c2.018-1.332,4.076-3.07,6.142-5.016c-0.237,0.438-0.834,1.543-0.834,1.543
		c-0.002,0.006-0.873,1.697-0.873,1.697c0.007-0.004-0.859,1.785-0.859,1.785c-0.371,0.943-0.403,1.619-0.104,2.061
		c0.229,0.33,0.609,0.498,1.147,0.498c1.481,0.004,3.424-1.023,5.94-3.135c2.446-2.066,2.915-2.773,3.059-3.133
		c0.082-0.217,0.145-0.646-0.384-1.082l-0.271-0.223l-0.229,0.266c-2.655,3.107-4.066,3.807-4.793,3.836
		c0.007-0.066,0.025-0.186,0.114-0.418L181.955,325.451"/>
	<path fill="#282525" d="M204.689,313.587c0.794,0.002,1.577,0.283,2.339,0.768c-0.229,0.465-1.013,2.064-1.016,2.068
		c-1.767,3.516-4.245,6.521-7.371,8.934c-2.382,1.852-4.188,2.787-5.368,2.787c-0.368-0.002-0.46-0.139-0.488-0.184
		c-0.119-0.176-0.238-0.674,0.312-2.072c1.406-3.576,3.235-6.563,5.435-8.877C200.694,314.737,202.766,313.587,204.689,313.587
		 M209.099,324.647l-0.271-0.213l-0.224,0.265c-2.562,3.11-3.942,3.807-4.661,3.832c0.007-0.076,0.027-0.232,0.149-0.548
		l1.197-2.532c0.002,0,0.655-1.324,0.655-1.324l8.861-17.678c1.75-3.519,3.435-6.033,4.997-7.48
		c1.528-1.412,3.301-2.127,5.271-2.127c0.844,0,1.533,0.107,2.051,0.316l0.184,0.073l4.863-3.551l-0.717-0.193
		c-0.54-0.146-1.229-0.221-2.041-0.221c-3.367-0.002-6.978,1.53-10.73,4.562c-3.729,3.006-6.775,6.834-9.064,11.373
		c0,0.002-0.585,1.172-0.809,1.614c-0.241-0.015-0.592-0.03-0.592-0.03h0.01c-3.445-0.002-7.222,1.657-11.219,4.932
		c-3.979,3.268-6.813,7.008-8.429,11.117c-0.829,2.106-0.953,3.541-0.388,4.375c0.354,0.521,0.955,0.783,1.784,0.783
		c1.458,0.002,3.598-0.959,6.54-2.941c2.147-1.445,3.904-2.98,5.452-4.547c-0.278,0.541-0.754,1.463-0.754,1.463
		c-0.005,0.008-1.528,3.311-1.528,3.311c-0.226,0.576-0.338,1.059-0.338,1.451c0.002,0.311,0.072,0.561,0.212,0.762
		c0.231,0.342,0.624,0.516,1.169,0.514c1.468,0.004,3.367-1.024,5.816-3.137c2.352-2.049,2.813-2.77,2.954-3.131
		C209.592,325.519,209.654,325.087,209.099,324.647"/>
	<path fill="#282525" d="M226.997,315.979c-0.535,1.354-1.627,2.56-3.252,3.582c-1.638,1.026-3.296,1.547-4.93,1.545
		c-0.15-0.002-0.312-0.062-0.468-0.099c1.062-1.954,2.279-3.645,3.663-4.952c1.44-1.369,2.732-2.063,3.827-2.063
		c0.66,0.002,1.091,0.143,1.276,0.418C227.321,314.71,227.281,315.253,226.997,315.979 M229.438,310.528
		c-2.446-0.004-5.475,1.64-9.258,5.022c-3.7,3.312-6.224,6.634-7.501,9.886c-0.729,1.854-0.846,3.418-0.343,4.644
		c0.522,1.283,1.583,1.934,3.146,1.938c2.377,0,5.358-1.432,8.867-4.262c1.824-1.473,2.205-2.068,2.33-2.389
		c0.179-0.457,0.082-0.894-0.276-1.232l-0.27-0.254l-0.241,0.275c-2.58,2.92-5.002,4.396-7.192,4.396
		c-0.821-0.002-1.376-0.219-1.702-0.658c-0.241-0.33-0.361-0.789-0.366-1.377c-0.002-0.645,0.147-1.457,0.434-2.403
		c3.078-0.788,6.015-2.163,8.713-4.106c2.782-2.002,4.616-4.096,5.449-6.223c0.237-0.6,0.354-1.115,0.354-1.553
		c-0.003-0.377-0.094-0.691-0.271-0.957C230.972,310.78,230.342,310.528,229.438,310.528"/>
	<path fill="#F78E1E" d="M30.541,309.647c-0.859,1.164-1.289,2.511-1.282,4.011c0.002,0.329,0.042,0.68,0.086,1.022
		c-1.571,1.307-5.727,4.364-5.77,4.397l1.036,0.412c0.188-0.141,4.082-3.004,5.532-4.238l0.202-0.176l-0.042-0.264
		c-0.284-1.771,0.052-3.322,0.998-4.605c1.486-2.014,4.081-2.758,6.181-3.057l0.495-1.002
		C36.868,306.31,32.63,306.813,30.541,309.647"/>
	<polygon fill="#F78E1E" points="40.228,314.138 41.361,314.103 46.54,304.042 46.109,302.884 	"/>
	<path fill="#F78E1E" d="M37.834,318.673l-2.385,4.744c-0.469,0.887-2.449,3.819-4.019,4.61l1.364,0.086
		c1.917-1.102,3.415-4.11,3.488-4.247c0,0,1.703-3.503,2.241-4.488c0.538,0.012,7.916-0.101,7.916-0.101l0.443-0.885l-8.913,0.022
		L37.834,318.673z"/>
	<path fill="#F78E1E" d="M28.938,332.358c-0.316-0.021-9.484-0.493-9.484-0.493l0.719,0.852l9.038,0.609l4.091-2.877l-0.021-1.158
		C33.279,329.291,29.191,332.185,28.938,332.358"/>
	<path fill="#F78E1E" d="M53.298,327.093c-0.004,0.553-0.01,1.309-1.938,2.131l-9.052,3.566l1.356,0.469l8.067-3.162
		c2.305-0.986,2.259-0.875,2.267-1.811l0.067-0.498l-0.792-1.354L53.298,327.093z"/>
	<path fill="#F78E1E" d="M72.234,297.556c-0.689-0.561-2.483-1.836-4.373-1.658c-1.09,0.104-2.018,0.67-2.757,1.682l-1.473,1.98
		c-1.058,1.398-1.455,1.928-2.572,3.979c-1.184,2.17-10.231,18.787-11.997,22.703l1.163-0.022
		c1.752-3.888,10.483-20.062,11.665-22.226c1.084-1.99,1.441-2.465,2.498-3.865l1.481-1.989c0.58-0.794,1.258-1.218,2.076-1.296
		c1.93-0.186,3.93,1.652,3.948,1.671l0.293,0.271l4.873-3.727l0.181-1.33C77.242,293.728,72.772,297.146,72.234,297.556"/>
	<path fill="#F78E1E" d="M61.564,327.472l1.081-0.408c2.614-8.449,8.787-12.846,11.145-12.855l-1.165-0.363
		C70.963,313.851,64.306,317.604,61.564,327.472"/>
	<polygon fill="#F78E1E" points="73.486,326.992 75.193,325.696 81.5,314.031 81.323,312.433 	"/>
	<path fill="#F78E1E" d="M69.655,332.576h0.357c4.569-0.093,8.042-4.935,8.117-5.179l-0.339-0.979
		C77.784,326.533,73.977,332.078,69.655,332.576"/>
	<path fill="#F78E1E" d="M58.229,332.556l0.357,0.068c4.498-0.234,6.422-1.72,7.983-3.179l0.922-1.858
		C66.025,328.957,62.82,332.16,58.229,332.556"/>
	<path fill="#F78E1E" d="M170.172,327.507l1.08-0.408c2.615-8.449,8.787-12.846,11.144-12.855l-1.164-0.363
		C179.571,313.882,172.914,317.64,170.172,327.507"/>
	<polygon fill="#F78E1E" points="182.095,327.026 183.802,325.733 190.105,314.067 189.929,312.468 	"/>
	<path fill="#F78E1E" d="M178.262,332.612l0.358-0.004c4.565-0.092,8.041-4.935,8.114-5.176l-0.339-0.979
		C186.393,326.567,182.582,332.112,178.262,332.612"/>
	<path fill="#F78E1E" d="M166.937,332.487l0.358,0.07c4.497-0.231,6.421-1.718,7.981-3.179l0.923-1.858
		C174.733,328.892,171.528,332.093,166.937,332.487"/>
	<path fill="#F78E1E" d="M94.124,310.692c0.376,0.485,1.007,1.779-0.623,4.5l1.563-1.36c0.778-1.574,0.181-1.896-0.512-2.785
		L94.124,310.692z"/>
	<path fill="#F78E1E" d="M85.799,331.312c-0.416,0.121-4.813,1.412-4.813,1.412l1.384,0.584l4.155-1.223l0.082-0.228
		c0.041-0.116,4.257-11.623,12.886-16.176l0.506-1.021C91.229,317.987,86.448,329.603,85.799,331.312"/>
	<path fill="#F78E1E" d="M85.157,317.798l1.137,0.129c0.53-0.631,1.122-1.459,1.854-2.139l0.494-1.504
		C87.502,315.005,85.701,317.151,85.157,317.798"/>
	<path fill="#F78E1E" d="M105.883,311.166l0.193,0.362c0.321,0.558,0.725,1.242-1.772,5.728l-5.608,10.27l1.707-1.438l4.73-8.371
		c2.561-4.601,1.859-5.221,1.276-6.221L105.883,311.166z"/>
	<path fill="#F78E1E" d="M95.065,332.664l1.012-0.129c4.279-0.734,6.984-2.816,8.045-5.246l-0.389-1.203
		C103.146,327.759,100.582,331.287,95.065,332.664"/>
	<path fill="#F78E1E" d="M118.783,332.509l0.567-0.002c5.106-1.314,7.979-3.975,8.047-5.318l-0.488-0.893
		C126.876,326.951,123.782,331.22,118.783,332.509"/>
	<path fill="#F78E1E" d="M114.869,329.16c-1.926,1.493-4.561,3.536-8.577,3.604l0.138,0.082c3.787,0.483,7.105-1.453,9.021-2.938
		l0.266-0.203l0.833-1.97L114.869,329.16z"/>
	<path fill="#F78E1E" d="M110.619,327.401l0.976-0.183c3.804-9.956,9.147-12.854,10.106-13.147l-0.646,0.029
		C120.022,314.417,114.712,316.03,110.619,327.401"/>
	<path fill="#F78E1E" d="M144.088,298.412c-1.107-0.248-6.239-1.021-9.397,5.153l-12.007,23.142l1.991-1.793l10.859-20.918
		c3.159-6.179,8.285-4.689,8.504-4.625l0.214,0.067l4.865-3.267l0.336-1.317C149.453,294.854,144.406,298.199,144.088,298.412"/>
	<path fill="#F78E1E" d="M201.604,332.354l0.572-0.004c5.104-1.312,7.976-3.972,8.043-5.317l-0.487-0.892
		C209.699,326.798,206.605,331.065,201.604,332.354"/>
	<path fill="#F78E1E" d="M197.691,329.005c-1.927,1.492-4.562,3.535-8.579,3.604l0.142,0.084c3.785,0.482,7.104-1.455,9.019-2.939
		l0.269-0.203l0.831-1.969L197.691,329.005z"/>
	<path fill="#F78E1E" d="M193.44,327.248l0.978-0.185c3.803-9.957,9.146-12.854,10.104-13.147l-0.645,0.03
		C202.845,314.261,197.534,315.875,193.44,327.248"/>
	<path fill="#F78E1E" d="M226.907,298.257c-1.104-0.25-6.238-1.018-9.396,5.152l-12.006,23.145l1.991-1.795l10.856-20.916
		c3.163-6.182,8.287-4.691,8.506-4.627l0.216,0.066l4.861-3.267l0.336-1.315C232.273,294.701,227.227,298.044,226.907,298.257"/>
	<polygon fill="#F78E1E" points="135.042,318.108 136.241,318.188 137.411,316.951 138.053,314.958 	"/>
	<path fill="#F78E1E" d="M146.397,331.285c-0.443,0.141-4.851,1.516-4.851,1.516l1.152,0.562l4.485-1.329l0.063-0.263
		c0.02-0.084,2.523-9.653,11.746-16.933l-0.448,0.238C149.185,322.097,146.753,329.968,146.397,331.285"/>
	<path fill="#F78E1E" d="M135.462,331.333c-0.447,0.141-4.852,1.516-4.852,1.516l1.151,0.561l4.485-1.326l0.063-0.266
		c0.021-0.086,2.526-9.654,11.746-16.932l-0.45,0.236C138.247,322.146,135.815,330.015,135.462,331.333"/>
	<path fill="#F78E1E" d="M154.894,310.61c0.4,0.938,0.172,3.011-0.889,4.531l1.454-1.353c0.44-1.127,0.104-1.764-0.406-2.973
		L154.894,310.61z"/>
	<path fill="#F78E1E" d="M144.35,310.319c0.4,0.938,0.172,3.013-0.889,4.531l1.451-1.354c0.443-1.123,0.109-1.762-0.406-2.971
		L144.35,310.319z"/>
	<path fill="#F78E1E" d="M158.097,327.521l1.678-1.242c6.179-10.305,5.972-13.34,6.104-14.666l-0.08-0.385
		C165.699,312.208,164.346,317.091,158.097,327.521"/>
	<path fill="#F78E1E" d="M154.239,332.673l0.517,0.02c5.662-0.416,8.395-4.299,8.895-5.422l-0.398-1.09
		C162.915,327.278,159.685,331.862,154.239,332.673"/>
	<path fill="#F78E1E" d="M232.433,311.147c0.022,0.088,0.757,9.112-14.524,13.638l-0.273,0.082l-0.109,0.532
		c-0.177,0.808-0.692,1.781,0.584,2.867l0.06-0.224c-0.286-0.614-0.174-1.008-0.064-1.459c0.072-0.283,0.283-0.68,0.351-0.979
		c12.712-3.863,14.128-10.977,14.11-13.723c0-0.277-0.02-0.553-0.057-0.728L232.433,311.147z"/>
	<path fill="#F78E1E" d="M219.364,320.468l1.289-0.229c-0.142,0.294,2.228-4.44,5.08-5.969l-0.021-0.043
		C222.254,315.744,219.308,320.623,219.364,320.468"/>
	<path fill="#F78E1E" d="M214.955,332.576l0.087,0.079c8.75-0.204,12.709-5.213,12.704-6.334l-0.479-1.144
		C227.239,325.958,224.464,331.912,214.955,332.576"/>
</g>
</svg>
