<?xml version="1.0" encoding="utf-8"?>
<!-- Generator: Adobe Illustrator 22.1.0, SVG Export Plug-In . SVG Version: 6.00 Build 0)  -->
<svg version="1.1" xmlns="http://www.w3.org/2000/svg" xmlns:xlink="http://www.w3.org/1999/xlink" x="0px" y="0px"
	 viewBox="0 0 200 200" style="enable-background:new 0 0 200 200;" xml:space="preserve">
<style type="text/css">
	.st0{fill:#CC0000;}
</style>
<g id="Layer_2">
	<g>
		<g>
			<g>
				<g>
					<g>
						<path class="st0" d="M99.1,125.8c-23.8,0-43.2-19.3-43.2-43.1c0-23.9,19.3-43.2,43.2-43.2c23.8,0,43.2,19.3,43.2,43.2
							C142.2,106.5,122.9,125.8,99.1,125.8 M99.1,18c-35.7,0-64.7,29-64.7,64.7c0,35.7,29,64.7,64.7,64.7c35.7,0,64.7-29,64.7-64.7
							C163.8,47,134.8,18,99.1,18z"/>
						<path class="st0" d="M99.1,60.5c-12.2,0-22.2,9.9-22.2,22.2c0,12.2,9.9,22.2,22.2,22.2c12.3,0,22.2-9.9,22.2-22.2
							C121.2,70.4,111.3,60.5,99.1,60.5"/>
						<polyline class="st0" points="29.2,166.1 22.2,166.1 22.2,161.7 41.6,161.7 41.6,166.1 34.6,166.1 34.6,185.5 29.2,185.5 
							29.2,166.1 						"/>
						<path class="st0" d="M39.3,185.5h5.3l1.9-5.4h9l1.8,5.4h5.4l-8.9-23.7h-5.4L39.3,185.5 M50.9,167.7L50.9,167.7l3,8.7h-6.1
							L50.9,167.7z"/>
						<path class="st0" d="M64.7,185.5H70v-9.4h5.3c2.7,0,3.6,1.1,4,3.6c0.3,1.9,0.2,4.2,0.8,5.7l5.1,0c-0.9-1.3-0.9-4.1-1-5.6
							c-0.2-2.4-0.9-4.9-3.5-5.6v-0.1c2.6-1.1,3.8-3.2,3.8-6c0-3.6-2.7-6.5-7-6.5H64.7V185.5 M70,165.7h5.7c2.3,0,3.6,1,3.6,3.3
							c0,2.4-1.3,3.4-3.6,3.4H70V165.7z"/>
						<polyline class="st0" points="112.8,161.7 130.5,161.7 130.5,166.1 118.2,166.1 118.2,171.1 129.5,171.1 129.5,175.4 
							118.2,175.4 118.2,181.1 130.9,181.1 130.9,185.5 112.8,185.5 112.8,161.7 						"/>
					</g>
				</g>
			</g>
			<polyline class="st0" points="135.5,161.7 153.3,161.7 153.3,166.1 140.9,166.1 140.9,171.1 152.3,171.1 152.3,175.4 
				140.9,175.4 140.9,181.1 153.6,181.1 153.6,185.5 135.5,185.5 135.5,161.7 			"/>
			<g>
				<path class="st0" d="M156.4,185.5h5.7c0.2,0,2.7,0,2.8,0h1.7c1.6,0,3.1-0.1,4.7-0.4c0.8-0.2,1.5-0.3,2.1-0.5l0,0
					c2.2-0.7,4-2.3,5.2-4.3l0.1-0.2c0.2-0.4,0.4-0.8,0.5-1.2l0,0c0.5-1.5,0.7-3.2,0.8-4.8l0-0.1l-0.2-2.6c0,0-0.1-0.6-0.2-0.9l0,0
					c-0.3-1.1-0.4-2-1-3.2c-1.7-3.4-5.2-5.4-8.9-5.4h0c-1.9,0-1.9,0-5.7,0h-7.6V185.5 M161.8,165.7
					C161.8,165.7,161.8,165.6,161.8,165.7l4.1,0c2.8,0,3.8,0,5.7,0.9c3.1,1.5,3.8,4.5,3.8,7.6c0,3.7-1.6,5.8-3.8,6.6
					c-2.5,1-9.5,0.9-9.5,0.9C162.1,180.8,162.1,181.7,161.8,165.7z"/>
			</g>
		</g>
		<polyline class="st0" points="90.1,161.7 107.8,161.7 107.8,166.1 95.5,166.1 95.5,171.1 106.8,171.1 106.8,175.4 95.5,175.4 
			95.5,181.1 95.6,185.5 90.1,185.5 90.1,161.7 		"/>
	</g>
</g>
<g id="Layer_3">
</g>
</svg>
