<svg xmlns="http://www.w3.org/2000/svg" xmlns:xlink="http://www.w3.org/1999/xlink" preserveAspectRatio="xMidYMid" width="48" height="48" viewBox="0 0 48 48">
  <defs>
    <style>
      .cls-1 {
        fill: #61a0ad;
      }

      .cls-2 {
        fill: #fff;
        fill-rule: evenodd;
      }
    </style>
  </defs>
  <g>
    <rect width="48" height="48" class="cls-1"/>
    <path d="M12.004,19.711 L12.979,20.994 C12.979,20.994 14.988,19.404 15.658,20.199 C16.328,20.994 18.885,30.592 19.739,32.363 C20.484,33.916 22.539,35.969 24.793,34.503 C27.045,33.037 34.535,26.618 35.876,19.037 C37.216,11.459 26.863,13.047 25.766,19.649 C28.507,17.997 29.970,20.320 28.567,22.950 C27.167,25.578 25.888,27.291 25.218,27.291 C24.550,27.291 24.035,25.533 23.269,22.460 C22.477,19.283 22.482,13.560 19.190,14.208 C16.085,14.820 12.004,19.711 12.004,19.711 Z" class="cls-2"/>
  </g>
</svg>
