<?xml version="1.0" encoding="UTF-8"?>
<svg width="350px" height="350px" viewBox="0 0 350 350" version="1.1" xmlns="http://www.w3.org/2000/svg" xmlns:xlink="http://www.w3.org/1999/xlink">
    <!-- Generator: Sketch 50.2 (55047) - http://www.bohemiancoding.com/sketch -->
    <title>if_cc29_1164145</title>
    <desc>Created with Sketch.</desc>
    <defs></defs>
    <g id="Page-1" stroke="none" stroke-width="1" fill="none" fill-rule="evenodd">
        <g id="if_cc29_1164145">
            <polygon id="Shape" fill="#DEDEDD" fill-rule="nonzero" points="348.73057 135.829016 320.621762 123.678756 315.725389 126.580311 330.595855 141.632124 325.518135 146.709845 310.829016 132.020725 307.927461 138.005181 320.259067 167.746114 328.963731 150.15544 341.839378 163.031088 347.098446 157.953368 333.860104 144.715026"></polygon>
            <path d="M305.569948,62.746114 L271.11399,62.746114 L271.11399,190.595855 C272.202073,191.321244 273.108808,192.227979 273.834197,193.316062 L291.062176,122.772021 L280,95.9326425 L295.958549,102.823834 L305.569948,62.746114 Z" id="Shape" fill="#DEDEDD" fill-rule="nonzero"></path>
            <g id="Group" transform="translate(38.082902, 208.549223)" fill="#DEDEDD" fill-rule="nonzero">
                <path d="M138.73057,1.0880829 L0.906735751,0.906735751 L0.906735751,24.8445596 C0.906735751,27.2020725 2.9015544,29.1968912 5.25906736,29.1968912 L138.73057,29.1968912 L138.73057,1.0880829 Z" id="Shape"></path>
                <path d="M254.792746,22.6683938 L271.11399,22.6683938 L271.11399,1.26943005 L236.658031,1.26943005 L236.658031,29.1968912 L247.720207,29.1968912 C248.082902,25.5699482 250.984456,22.6683938 254.792746,22.6683938 Z" id="Shape"></path>
            </g>
            <rect id="Rectangle-path" fill="#DEDEDD" fill-rule="nonzero" x="143.626943" y="237.927461" width="33.0051813" height="25.5699482"></rect>
            <g id="Group" transform="translate(0.000000, 1.813472)">
                <polygon id="Shape" fill="#DEDEDD" fill-rule="nonzero" points="77.6165803 202.202073 77.6165803 60.9326425 43.1606218 60.9326425"></polygon>
                <rect id="Rectangle-path" fill="#E76B74" fill-rule="nonzero" x="87.9533679" y="115.15544" width="83.4196891" height="39.8963731"></rect>
                <rect id="Rectangle-path" fill="#DEDEDD" fill-rule="nonzero" x="78.1606218" y="0.906735751" width="192.046632" height="26.1139896"></rect>
                <rect id="Rectangle-path" fill="#475059" fill-rule="nonzero" x="126.217617" y="260.233161" width="49.6891192" height="3.62694301"></rect>
                <rect id="Rectangle-path" fill="#475059" fill-rule="nonzero" x="141.994819" y="235.932642" width="3.62694301" height="26.1139896"></rect>
                <path d="M91.3989637,20.1295337 C87.9533679,20.1295337 85.2331606,17.4093264 85.2331606,13.9637306 C85.2331606,10.5181347 87.9533679,7.79792746 91.3989637,7.79792746 C94.8445596,7.79792746 97.5647668,10.5181347 97.5647668,13.9637306 C97.5647668,17.4093264 94.8445596,20.1295337 91.3989637,20.1295337 Z M91.3989637,11.4248705 C89.9481865,11.4248705 88.8601036,12.5129534 88.8601036,13.9637306 C88.8601036,15.4145078 89.9481865,16.5025907 91.3989637,16.5025907 C92.8497409,16.5025907 93.9378238,15.4145078 93.9378238,13.9637306 C93.9378238,12.5129534 92.8497409,11.4248705 91.3989637,11.4248705 Z" id="Shape" fill="#475059" fill-rule="nonzero"></path>
                <path d="M108.80829,20.1295337 C105.362694,20.1295337 102.642487,17.4093264 102.642487,13.9637306 C102.642487,10.5181347 105.362694,7.79792746 108.80829,7.79792746 C112.253886,7.79792746 114.974093,10.5181347 114.974093,13.9637306 C114.974093,17.4093264 112.253886,20.1295337 108.80829,20.1295337 Z M108.80829,11.4248705 C107.357513,11.4248705 106.26943,12.5129534 106.26943,13.9637306 C106.26943,15.4145078 107.357513,16.5025907 108.80829,16.5025907 C110.259067,16.5025907 111.34715,15.4145078 111.34715,13.9637306 C111.34715,12.5129534 110.259067,11.4248705 108.80829,11.4248705 Z" id="Shape" fill="#475059" fill-rule="nonzero"></path>
                <path d="M126.217617,20.1295337 C122.772021,20.1295337 120.051813,17.4093264 120.051813,13.9637306 C120.051813,10.5181347 122.772021,7.79792746 126.217617,7.79792746 C129.663212,7.79792746 132.38342,10.5181347 132.38342,13.9637306 C132.38342,17.4093264 129.663212,20.1295337 126.217617,20.1295337 Z M126.217617,11.4248705 C124.766839,11.4248705 123.678756,12.5129534 123.678756,13.9637306 C123.678756,15.4145078 124.766839,16.5025907 126.217617,16.5025907 C127.668394,16.5025907 128.756477,15.4145078 128.756477,13.9637306 C128.756477,12.5129534 127.668394,11.4248705 126.217617,11.4248705 Z" id="Shape" fill="#475059" fill-rule="nonzero"></path>
                <path d="M301.943005,152.150259 L276.554404,90.6735751 L334.766839,115.518135 L318.80829,125.129534 L333.316062,139.637306 L325.699482,147.253886 L311.554404,133.108808 L301.943005,152.150259 Z M283.264249,97.5647668 L302.305699,143.445596 L310.466321,127.124352 L325.699482,142.357513 L328.238342,139.818653 L313.005181,124.585492 L326.968912,116.243523 L283.264249,97.5647668 Z" id="Shape" fill="#48515A" fill-rule="nonzero"></path>
                <g transform="translate(0.000000, 290.155440)" fill="#475059" fill-rule="nonzero">
                    <g>
                        <path d="M132.564767,18.8601036 L9.97409326,18.8601036 C4.89637306,18.8601036 0.906735751,14.8704663 0.906735751,9.79274611 C0.906735751,4.71502591 4.89637306,0.725388601 9.97409326,0.725388601 L132.564767,0.725388601 L152.150259,9.79274611 L132.564767,18.8601036 Z M131.839378,4.35233161 L9.97409326,4.35233161 C6.89119171,4.35233161 4.53367876,6.70984456 4.53367876,9.79274611 C4.53367876,12.8756477 6.89119171,15.2331606 9.97409326,15.2331606 L131.839378,15.2331606 L143.626943,9.79274611 L131.839378,4.35233161 Z" id="Shape"></path>
                        <rect id="Rectangle-path" x="20.1295337" y="3.2642487" width="3.62694301" height="13.7823834"></rect>
                    </g>
                    <rect id="Rectangle-path" x="21.9430052" y="7.79792746" width="108.80829" height="3.62694301"></rect>
                </g>
                <path d="M31.7357513,37.1761658 C27.746114,37.1761658 24.4818653,33.9119171 24.4818653,29.9222798 C24.4818653,25.9326425 27.746114,22.6683938 31.7357513,22.6683938 C35.7253886,22.6683938 38.9896373,25.9326425 38.9896373,29.9222798 C38.9896373,33.9119171 35.7253886,37.1761658 31.7357513,37.1761658 Z M31.7357513,26.2953368 C29.7409326,26.2953368 28.1088083,27.9274611 28.1088083,29.9222798 C28.1088083,31.9170984 29.7409326,33.5492228 31.7357513,33.5492228 C33.7305699,33.5492228 35.3626943,31.9170984 35.3626943,29.9222798 C35.3626943,27.9274611 33.7305699,26.2953368 31.7357513,26.2953368 Z" id="Shape" fill="#475059" fill-rule="nonzero"></path>
                <path d="M13.6010363,120.595855 C9.61139896,120.595855 6.34715026,117.331606 6.34715026,113.341969 C6.34715026,109.352332 9.61139896,106.088083 13.6010363,106.088083 C17.5906736,106.088083 20.8549223,109.352332 20.8549223,113.341969 C20.8549223,117.331606 17.5906736,120.595855 13.6010363,120.595855 Z M13.6010363,109.715026 C11.6062176,109.715026 9.97409326,111.34715 9.97409326,113.341969 C9.97409326,115.336788 11.6062176,116.968912 13.6010363,116.968912 C15.5958549,116.968912 17.2279793,115.336788 17.2279793,113.341969 C17.2279793,111.34715 15.5958549,109.715026 13.6010363,109.715026 Z" id="Shape" fill="#475059" fill-rule="nonzero"></path>
                <circle id="Oval" fill="#E76B74" fill-rule="nonzero" cx="38.9896373" cy="267.487047" r="9.06735751"></circle>
                <text id="e76b74" font-family="SourceSansPro-Semibold, Source Sans Pro" font-size="36" font-weight="500" fill="#FFFFFF">
                    <tspan x="83.4196891" y="185.686528">e76b74</tspan>
                </text>
                <circle id="Oval" fill="#E76B74" fill-rule="nonzero" cx="97.0207254" cy="332.772021" r="9.06735751"></circle>
                <circle id="Oval" fill="#674172" fill-rule="nonzero" cx="325.518135" cy="51.6839378" r="5.44041451"></circle>
                <g transform="translate(282.901554, 226.683938)" fill="#475059" fill-rule="nonzero">
                    <path d="M57.1243523,120.595855 L9.97409326,120.595855 C4.89637306,120.595855 0.906735751,116.606218 0.906735751,111.528497 L0.906735751,9.97409326 C0.906735751,4.89637306 4.89637306,0.906735751 9.97409326,0.906735751 L57.1243523,0.906735751 C62.2020725,0.906735751 66.1917098,4.89637306 66.1917098,9.97409326 L66.1917098,111.528497 C66.1917098,116.606218 62.2020725,120.595855 57.1243523,120.595855 Z M9.97409326,4.53367876 C6.89119171,4.53367876 4.53367876,6.89119171 4.53367876,9.97409326 L4.53367876,111.528497 C4.53367876,114.611399 6.89119171,116.968912 9.97409326,116.968912 L57.1243523,116.968912 C60.2072539,116.968912 62.5647668,114.611399 62.5647668,111.528497 L62.5647668,9.97409326 C62.5647668,6.89119171 60.2072539,4.53367876 57.1243523,4.53367876 L9.97409326,4.53367876 Z" id="Shape"></path>
                    <rect id="Rectangle-path" x="8.16062176" y="102.46114" width="50.7772021" height="3.62694301"></rect>
                    <rect id="Rectangle-path" x="8.16062176" y="15.4145078" width="50.7772021" height="3.62694301"></rect>
                    <rect id="Rectangle-path" x="28.1088083" y="109.715026" width="10.880829" height="3.62694301"></rect>
                    <rect id="Rectangle-path" x="31.7357513" y="8.16062176" width="3.62694301" height="3.62694301"></rect>
                </g>
                <g transform="translate(181.347150, 192.227979)" fill="#475059" fill-rule="nonzero" id="Rectangle-path">
                    <rect x="0.906735751" y="136.917098" width="87.0466321" height="3.62694301"></rect>
                    <rect x="0.906735751" y="8.16062176" width="87.0466321" height="3.62694301"></rect>
                    <rect x="38.9896373" y="144.170984" width="10.880829" height="3.62694301"></rect>
                    <rect x="42.6165803" y="0.906735751" width="3.62694301" height="3.62694301"></rect>
                </g>
                <rect id="Rectangle-path" fill="#674172" fill-rule="nonzero" x="87.9533679" y="38.9896373" width="174.093264" height="39.8963731"></rect>
                <path d="M173.186528,156.865285 L86.1398964,156.865285 L86.1398964,113.341969 L173.186528,113.341969 L173.186528,156.865285 Z M89.7668394,153.238342 L169.559585,153.238342 L169.559585,116.968912 L89.7668394,116.968912 L89.7668394,153.238342 Z" id="Shape" fill="#475059" fill-rule="nonzero"></path>
                <path d="M263.860104,156.865285 L176.813472,156.865285 L176.813472,113.341969 L263.860104,113.341969 L263.860104,156.865285 Z M180.440415,153.238342 L260.233161,153.238342 L260.233161,116.968912 L180.440415,116.968912 L180.440415,153.238342 Z" id="Shape" fill="#475059" fill-rule="nonzero"></path>
                <g transform="translate(90.673575, 87.046632)" fill="#475059" fill-rule="nonzero" id="Rectangle-path">
                    <rect x="0.906735751" y="0.906735751" width="76.1658031" height="3.62694301"></rect>
                    <rect x="0.906735751" y="8.16062176" width="76.1658031" height="3.62694301"></rect>
                    <rect x="0.906735751" y="15.4145078" width="54.4041451" height="3.62694301"></rect>
                </g>
                <g transform="translate(181.347150, 87.046632)" fill="#475059" fill-rule="nonzero" id="Rectangle-path">
                    <rect x="0.906735751" y="0.906735751" width="76.1658031" height="3.62694301"></rect>
                    <rect x="0.906735751" y="8.16062176" width="76.1658031" height="3.62694301"></rect>
                    <rect x="0.906735751" y="15.4145078" width="54.4041451" height="3.62694301"></rect>
                </g>
                <path d="M205.829016,146.709845 L205.829016,123.497409 L238.471503,135.103627 L205.829016,146.709845 Z M209.455959,128.57513 L209.455959,141.632124 L227.590674,135.103627 L209.455959,128.57513 Z" id="Shape" fill="#475059" fill-rule="nonzero"></path>
                <rect id="Rectangle-path" fill="#674172" fill-rule="nonzero" x="185.880829" y="208.186528" width="79.7927461" height="28.1088083"></rect>
                <rect id="Rectangle-path" fill="#475059" fill-rule="nonzero" x="185.880829" y="240.284974" width="77.9792746" height="3.62694301"></rect>
                <rect id="Rectangle-path" fill="#475059" fill-rule="nonzero" x="185.880829" y="247.53886" width="77.9792746" height="3.62694301"></rect>
                <rect id="Rectangle-path" fill="#475059" fill-rule="nonzero" x="185.880829" y="254.792746" width="77.9792746" height="3.62694301"></rect>
                <rect id="Rectangle-path" fill="#E76B74" fill-rule="nonzero" x="185.880829" y="263.860104" width="79.7927461" height="25.388601"></rect>
                <path d="M267.487047,291.062176 L184.067358,291.062176 L184.067358,262.046632 L267.487047,262.046632 L267.487047,291.062176 Z M187.694301,287.435233 L263.860104,287.435233 L263.860104,265.673575 L187.694301,265.673575 L187.694301,287.435233 Z" id="Shape" fill="#475059" fill-rule="nonzero"></path>
                <path d="M267.487047,323.704663 L184.067358,323.704663 L184.067358,294.689119 L267.487047,294.689119 L267.487047,323.704663 Z M187.694301,320.07772 L263.860104,320.07772 L263.860104,298.316062 L187.694301,298.316062 L187.694301,320.07772 Z" id="Shape" fill="#475059" fill-rule="nonzero"></path>
                <path d="M216.165803,317.176166 L216.165803,301.217617 L238.471503,309.196891 L216.165803,317.176166 Z M219.792746,306.295337 L219.792746,311.917098 L227.772021,309.015544 L219.792746,306.295337 Z" id="Shape" fill="#475059" fill-rule="nonzero"></path>
                <rect id="Rectangle-path" fill="#674172" fill-rule="nonzero" x="291.243523" y="250.07772" width="50.7772021" height="13.6010363"></rect>
                <rect id="Rectangle-path" fill="#475059" fill-rule="nonzero" x="291.062176" y="267.487047" width="50.7772021" height="3.62694301"></rect>
                <rect id="Rectangle-path" fill="#475059" fill-rule="nonzero" x="291.062176" y="274.740933" width="50.7772021" height="3.62694301"></rect>
                <rect id="Rectangle-path" fill="#E76B74" fill-rule="nonzero" x="293.056995" y="283.80829" width="47.1502591" height="16.1398964"></rect>
                <path d="M342.020725,301.761658 L291.243523,301.761658 L291.243523,281.994819 L342.020725,281.994819 L342.020725,301.761658 Z M294.870466,298.134715 L338.393782,298.134715 L338.393782,285.621762 L294.870466,285.621762 L294.870466,298.134715 Z" id="Shape" fill="#475059" fill-rule="nonzero"></path>
                <path d="M342.020725,325.336788 L291.243523,325.336788 L291.243523,305.569948 L342.020725,305.569948 L342.020725,325.336788 Z M294.870466,321.709845 L338.393782,321.709845 L338.393782,309.196891 L294.870466,309.196891 L294.870466,321.709845 Z" id="Shape" fill="#475059" fill-rule="nonzero"></path>
                <polygon id="Shape" fill="#475059" fill-rule="nonzero" points="312.823834 311.735751 312.823834 319.715026 322.979275 315.362694"></polygon>
                <rect id="Rectangle-path" fill="#475059" fill-rule="nonzero" x="91.5803109" y="162.305699" width="76.1658031" height="3.62694301"></rect>
                <rect id="Rectangle-path" fill="#475059" fill-rule="nonzero" x="91.5803109" y="169.559585" width="76.1658031" height="3.62694301"></rect>
                <rect id="Rectangle-path" fill="#475059" fill-rule="nonzero" x="91.5803109" y="176.813472" width="54.4041451" height="3.62694301"></rect>
                <rect id="Rectangle-path" fill="#475059" fill-rule="nonzero" x="182.435233" y="162.305699" width="76.1658031" height="3.62694301"></rect>
                <rect id="Rectangle-path" fill="#475059" fill-rule="nonzero" x="182.435233" y="169.559585" width="76.1658031" height="3.62694301"></rect>
                <rect id="Rectangle-path" fill="#475059" fill-rule="nonzero" x="182.435233" y="176.813472" width="54.4041451" height="3.62694301"></rect>
            </g>
            <path d="M305.025907,63.8341969 C306.476684,63.8341969 307.564767,64.9222798 307.564767,66.373057 L307.564767,107.720207 L311.19171,109.352332 L311.19171,66.373057 C311.19171,62.9274611 308.471503,60.2072539 305.025907,60.2072539 L270.932642,60.388601 L270.932642,64.015544 L305.025907,63.8341969 Z" id="Shape" fill="#475059" fill-rule="nonzero"></path>
            <path d="M268.57513,189.689119 C270.025907,189.870466 271.11399,190.414508 272.202073,191.321244 L272.202073,0.906735751 L76.5284974,0.906735751 L76.5284974,210 L80.1554404,210 L80.1554404,4.53367876 L268.57513,4.53367876 L268.57513,189.689119 Z" id="Shape" fill="#475059" fill-rule="nonzero"></path>
            <g id="Group" transform="translate(36.269430, 59.844560)" fill="#475059" fill-rule="nonzero">
                <path d="M140.544041,176.088083 L7.07253886,176.088083 C5.62176166,176.088083 4.53367876,175 4.53367876,173.549223 L4.53367876,6.70984456 C4.53367876,5.25906736 5.62176166,4.17098446 7.07253886,4.17098446 L40.2590674,4.17098446 L40.2590674,0.544041451 L7.07253886,0.544041451 C3.62694301,0.544041451 0.906735751,3.2642487 0.906735751,6.70984456 L0.906735751,173.367876 C0.906735751,176.813472 3.62694301,179.533679 7.07253886,179.533679 L140.544041,179.533679 L140.544041,176.088083 Z" id="Shape"></path>
                <g transform="translate(237.564767, 70.725389)" id="Shape">
                    <polygon points="37.1761658 100.647668 37.357513 1.8134715 36.9948187 1.4507772 33.7305699 8.16062176 33.5492228 100.647668"></polygon>
                    <path d="M11.7875648,107.901554 C11.7875648,106.994819 11.9689119,106.088083 12.3316062,105.362694 L0.906735751,105.362694 L0.906735751,108.989637 L11.7875648,108.989637 L11.7875648,107.901554 Z"></path>
                </g>
            </g>
            <path d="M184.067358,191.321244 C180.984456,191.321244 178.626943,193.678756 178.626943,196.761658 L178.626943,340.025907 C178.626943,343.108808 180.984456,345.466321 184.067358,345.466321 L267.487047,345.466321 C270.569948,345.466321 272.927461,343.108808 272.927461,340.025907 L272.927461,196.761658 C272.927461,193.678756 270.569948,191.321244 267.487047,191.321244 L184.067358,191.321244 Z M267.487047,349.093264 L184.067358,349.093264 C178.989637,349.093264 175,345.103627 175,340.025907 L175,196.761658 C175,191.683938 178.989637,187.694301 184.067358,187.694301 L267.487047,187.694301 C272.564767,187.694301 276.554404,191.683938 276.554404,196.761658 L276.554404,340.025907 C276.554404,345.103627 272.38342,349.093264 267.487047,349.093264 Z" id="Shape" fill="#475059" fill-rule="nonzero"></path>
        </g>
    </g>
</svg>