<?xml version="1.0" encoding="iso-8859-1"?>
<!-- Generator: Adobe Illustrator 16.0.0, SVG Export Plug-In . SVG Version: 6.00 Build 0)  -->
<!DOCTYPE svg PUBLIC "-//W3C//DTD SVG 1.1//EN" "http://www.w3.org/Graphics/SVG/1.1/DTD/svg11.dtd">
<svg version="1.1" id="Capa_1" xmlns="http://www.w3.org/2000/svg" xmlns:xlink="http://www.w3.org/1999/xlink" x="0px" y="0px"
	 width="477.909px" height="477.909px" viewBox="0 0 477.909 477.909" style="enable-background:new 0 0 477.909 477.909;"
	 xml:space="preserve">
<g>
	<g>
		<g>
			<path d="M421.552,13.525C421.552,6.156,415.4,0,408.021,0C295.307,0,182.597,0,69.882,0c-7.37,0-13.525,6.156-13.525,13.525
				c0,150.287,0,300.579,0,450.858c0,7.375,6.156,13.525,13.525,13.525c112.714,0,225.424,0,338.139,0
				c3.981,0,7.01-1.446,9.176-3.621c0.13-0.112,0.252-0.243,0.373-0.359c0.112-0.117,0.252-0.248,0.354-0.374
				c2.175-2.16,3.627-5.189,3.627-9.171C421.552,314.104,421.552,163.812,421.552,13.525z M394.496,450.859
				c-103.693,0-207.393,0-311.089,0c0-141.272,0-282.541,0-423.809c103.696,0,207.396,0,311.089,0
				C394.496,168.318,394.496,309.586,394.496,450.859z"/>
		</g>
		<g>
			<rect x="120.272" y="78.855" width="101.953" height="19.116"/>
		</g>
		<rect x="257.271" y="76.465" width="102.75" height="95.582"/>
		<g>
			<rect x="120.272" y="117.088" width="101.953" height="19.116"/>
		</g>
		<g>
			<rect x="120.272" y="155.321" width="101.953" height="19.116"/>
		</g>
		<g>
			<rect x="120.272" y="193.553" width="239.753" height="19.116"/>
		</g>
		<g>
			<rect x="120.272" y="241.344" width="239.753" height="19.116"/>
		</g>
		<path d="M306.097,346.559h-10.416c-1.358-5.228-3.459-10.249-6.151-14.813l7.388-7.402c2.24-2.24,2.24-5.88,0-8.12l-12.162-12.172
			c-2.24-2.24-5.871-2.24-8.111,0l-7.426,7.388c-4.56-2.692-9.581-4.793-14.809-6.151v-10.417c0-3.169-2.492-5.735-5.67-5.735
			h-17.203c-3.169,0-5.668,2.566-5.668,5.735v10.417c-5.22,1.358-10.247,3.449-14.806,6.146l-7.409-7.383
			c-2.24-2.24-5.878-2.24-8.118,0l-12.167,12.162c-2.243,2.24-2.243,5.871,0,8.111l7.388,7.421c-2.7,4.564-4.793,9.586-6.151,14.813
			h-10.417c-3.169,0-5.736,2.492-5.736,5.67v17.203c0,3.169,2.567,5.67,5.736,5.67h10.417c1.358,5.228,3.452,10.249,6.151,14.813
			l-7.388,7.402c-2.243,2.24-2.243,5.881,0,8.121l12.162,12.167c2.24,2.244,5.874,2.244,8.109,0.004l7.423-7.388
			c4.56,2.693,9.586,4.793,14.806,6.151v10.422c0,3.164,2.495,5.73,5.668,5.73h17.203c3.168,0,5.67-2.566,5.67-5.73v-10.422
			c5.228-1.358,10.249-3.458,14.813-6.151l7.401,7.388c2.24,2.24,5.881,2.24,8.121,0l12.167-12.162
			c2.245-2.24,2.245-5.871,0.005-8.111l-7.388-7.425c2.692-4.561,4.793-9.582,6.151-14.81h10.416c3.17,0,5.736-2.492,5.736-5.67
			v-17.203C311.833,349.051,309.267,346.559,306.097,346.559z M240.146,389.496c-15.837,0-28.674-12.844-28.674-28.675
			c0-15.84,12.837-28.674,28.674-28.674c15.831,0,28.675,12.834,28.675,28.674C268.821,376.652,255.978,389.496,240.146,389.496z"/>
	</g>
</g>
<g>
</g>
<g>
</g>
<g>
</g>
<g>
</g>
<g>
</g>
<g>
</g>
<g>
</g>
<g>
</g>
<g>
</g>
<g>
</g>
<g>
</g>
<g>
</g>
<g>
</g>
<g>
</g>
<g>
</g>
</svg>
