<?xml version="1.0" encoding="iso-8859-1"?>
<!-- Generator: Adobe Illustrator 16.0.0, SVG Export Plug-In . SVG Version: 6.00 Build 0)  -->
<!DOCTYPE svg PUBLIC "-//W3C//DTD SVG 1.1//EN" "http://www.w3.org/Graphics/SVG/1.1/DTD/svg11.dtd">
<svg version="1.1" id="Capa_1" xmlns="http://www.w3.org/2000/svg" xmlns:xlink="http://www.w3.org/1999/xlink" x="0px" y="0px"
	 width="413.13px" height="413.13px" viewBox="0 0 413.13 413.13" style="enable-background:new 0 0 413.13 413.13;"
	 xml:space="preserve">
<g>
	<path d="M289.538,49.624c-66.142-66.158-173.774-66.158-239.921,0c-66.156,66.142-66.156,173.776,0,239.918
		c63.878,63.883,166.438,66.058,232.977,6.562l13.445,13.45c-3.351,8.578-1.596,18.678,5.335,25.604l70.963,70.968
		c9.334,9.334,24.465,9.334,33.794,0c9.334-9.325,9.334-24.456,0-33.79l-70.968-70.967c-6.926-6.927-17.034-8.682-25.608-5.33
		l-13.45-13.451C355.609,216.054,353.42,113.495,289.538,49.624z M69.886,269.277c-54.969-54.969-54.969-144.418,0-199.387
		s144.418-54.969,199.387,0s54.969,144.418,0,199.387C214.304,324.237,124.855,324.237,69.886,269.277z"/>
	<path d="M225.697,77.183c-30.985-30.982-81.044-30.733-112.034,0.25c-30.985,30.982-31.199,81.158-0.219,112.136l55.981,55.665
		l56.094-56.099C256.503,158.147,256.671,108.167,225.697,77.183z M169.626,180.666c-26.355,0-47.726-21.368-47.726-47.726
		c0-26.364,21.37-47.732,47.726-47.732c26.369,0,47.734,21.373,47.734,47.732C217.361,159.293,196,180.666,169.626,180.666z"/>
	<path d="M168.73,260.737c19.887,0,38.658,4.331,55.314,11.984c-12.989-14.552-33.09-23.933-55.711-23.933
		c-22.939,0-43.283,9.656-56.238,24.563C129.083,265.301,148.321,260.737,168.73,260.737z"/>
</g>
<g>
</g>
<g>
</g>
<g>
</g>
<g>
</g>
<g>
</g>
<g>
</g>
<g>
</g>
<g>
</g>
<g>
</g>
<g>
</g>
<g>
</g>
<g>
</g>
<g>
</g>
<g>
</g>
<g>
</g>
</svg>
