<?xml version="1.0" encoding="iso-8859-1"?>
<!-- Generator: Adobe Illustrator 16.0.0, SVG Export Plug-In . SVG Version: 6.00 Build 0)  -->
<!DOCTYPE svg PUBLIC "-//W3C//DTD SVG 1.1//EN" "http://www.w3.org/Graphics/SVG/1.1/DTD/svg11.dtd">
<svg version="1.1" id="Capa_1" xmlns="http://www.w3.org/2000/svg" xmlns:xlink="http://www.w3.org/1999/xlink" x="0px" y="0px"
	 width="100px" height="100px" viewBox="0 0 100 100" style="enable-background:new 0 0 100 100;" xml:space="preserve">
<g>
	<path d="M62.925,87.354c-1.733-1.275-1.918-3.189-1.918-3.189l-0.649-4.154H39.643l-0.652,4.152c0,0-0.181,1.916-1.914,3.19
		c-1.732,1.275-3.099,2.369-1.732,2.554c1.317,0.178,13.74,0.016,14.656,0c0.918,0.016,13.338,0.178,14.655,0
		C66.021,89.723,64.654,88.631,62.925,87.354z"/>
	<g>
		<rect x="22.751" y="43.505" width="8" height="15"/>
		<rect x="39.751" y="36.505" width="8" height="22"/>
		<rect x="55.752" y="43.505" width="8" height="15"/>
		<rect x="70.752" y="36.505" width="8" height="22"/>
		<polygon points="44.648,28.065 60.82,38.424 83.174,22.25 80.828,19.01 60.684,33.586 44.854,23.445 16.826,37.857 18.677,41.403 
					"/>
	</g>
	<path d="M96,10.01H4c-2.209,0-4,1.791-4,4v58c0,2.209,1.791,4,4,4h92c2.209,0,4-1.791,4-4v-58C100,11.801,98.209,10.01,96,10.01z
		 M94.001,64.01h-88v-48h88V64.01z"/>
</g>
<g>
</g>
<g>
</g>
<g>
</g>
<g>
</g>
<g>
</g>
<g>
</g>
<g>
</g>
<g>
</g>
<g>
</g>
<g>
</g>
<g>
</g>
<g>
</g>
<g>
</g>
<g>
</g>
<g>
</g>
</svg>
