<?xml version="1.0" encoding="iso-8859-1"?>
<!-- Generator: Adobe Illustrator 16.0.0, SVG Export Plug-In . SVG Version: 6.00 Build 0)  -->
<!DOCTYPE svg PUBLIC "-//W3C//DTD SVG 1.1//EN" "http://www.w3.org/Graphics/SVG/1.1/DTD/svg11.dtd">
<svg version="1.1" id="Capa_1" xmlns="http://www.w3.org/2000/svg" xmlns:xlink="http://www.w3.org/1999/xlink" x="0px" y="0px"
	 width="100px" height="100px" viewBox="0 0 100 100" style="enable-background:new 0 0 100 100;" xml:space="preserve">
<g>
	<g>
		<path d="M41.751,59.098v6.119L20,55.789v-5.232l21.751-9.427v6.162l-15.156,5.839L41.751,59.098z"/>
		<path d="M55.2,41l-6.055,24.93c-0.201,0.821-0.377,1.471-0.529,1.946c-0.151,0.476-0.382,0.849-0.691,1.112
			c-0.31,0.268-0.761,0.4-1.352,0.4c-1.47,0-2.206-0.637-2.206-1.902c0-0.332,0.145-1.16,0.433-2.486l6.033-24.93
			c0.317-1.326,0.619-2.234,0.907-2.724c0.289-0.49,0.851-0.735,1.688-0.735c0.721,0,1.271,0.173,1.653,0.519
			c0.382,0.346,0.573,0.822,0.573,1.427C55.654,39.004,55.502,39.818,55.2,41z"/>
		<path d="M80,55.789L58.249,65.26v-6.119l15.2-5.967l-15.2-5.882v-6.076L80,50.6V55.789z"/>
	</g>
	<path d="M94,6H6c-3.313,0-6,2.687-6,6v76c0,3.312,2.687,6,6,6h88c3.314,0,6-2.688,6-6V12C100,8.686,97.314,6,94,6z M79,10
		c2.205,0,4,1.794,4,4s-1.795,4-4,4s-4-1.794-4-4S76.795,10,79,10z M68,10c2.205,0,4,1.794,4,4s-1.795,4-4,4s-4-1.794-4-4
		S65.795,10,68,10z M94,88H6V22h88V88z M90,18c-2.205,0-4-1.794-4-4s1.795-4,4-4s4,1.794,4,4S92.205,18,90,18z"/>
</g>
<g>
</g>
<g>
</g>
<g>
</g>
<g>
</g>
<g>
</g>
<g>
</g>
<g>
</g>
<g>
</g>
<g>
</g>
<g>
</g>
<g>
</g>
<g>
</g>
<g>
</g>
<g>
</g>
<g>
</g>
</svg>
