<svg id="Layer_1" data-name="Layer 1" xmlns="http://www.w3.org/2000/svg" viewBox="0 0 30.75 30.75"><defs><style>.cls-1{fill:#fff;}</style></defs><title>instagram</title><path class="cls-1" d="M3291.78,84.12a2.88,2.88,0,0,0-1.65-1.65,4.82,4.82,0,0,0-1.62-.3c-0.92,0-1.19-.05-3.51-0.05s-2.6,0-3.51.05a4.82,4.82,0,0,0-1.62.3,2.88,2.88,0,0,0-1.65,1.65,4.81,4.81,0,0,0-.3,1.62c0,0.92-.05,1.19-0.05,3.51s0,2.6.05,3.51a4.81,4.81,0,0,0,.3,1.62,2.88,2.88,0,0,0,1.65,1.65,4.81,4.81,0,0,0,1.62.3c0.92,0,1.19.05,3.51,0.05s2.6,0,3.51-.05a4.81,4.81,0,0,0,1.62-.3,2.88,2.88,0,0,0,1.65-1.65,4.81,4.81,0,0,0,.3-1.62c0-.92.05-1.19,0.05-3.51s0-2.6-.05-3.51A4.81,4.81,0,0,0,3291.78,84.12Zm-6.78,9.6a4.47,4.47,0,1,1,4.47-4.47A4.47,4.47,0,0,1,3285,93.72Zm4.64-8.07a1,1,0,1,1,1-1A1,1,0,0,1,3289.64,85.65Z" transform="translate(-3269.62 -73.87)"/><circle class="cls-1" cx="15.38" cy="15.38" r="2.9"/><path class="cls-1" d="M3285,73.87a15.38,15.38,0,1,0,15.38,15.38A15.38,15.38,0,0,0,3285,73.87Zm8.65,19a6.38,6.38,0,0,1-.4,2.11,4.45,4.45,0,0,1-2.54,2.54,6.39,6.39,0,0,1-2.11.4c-0.93,0-1.22.05-3.59,0.05s-2.66,0-3.59-.05a6.39,6.39,0,0,1-2.11-.4,4.45,4.45,0,0,1-2.54-2.54,6.38,6.38,0,0,1-.4-2.11c0-.93-0.05-1.22-0.05-3.59s0-2.66.05-3.59a6.38,6.38,0,0,1,.4-2.11A4.45,4.45,0,0,1,3279.3,81a6.39,6.39,0,0,1,2.11-.4c0.93,0,1.22-.05,3.59-0.05s2.66,0,3.59.05a6.39,6.39,0,0,1,2.11.4,4.45,4.45,0,0,1,2.54,2.54,6.38,6.38,0,0,1,.4,2.11c0,0.93.05,1.22,0.05,3.59S3293.69,91.91,3293.65,92.84Z" transform="translate(-3269.62 -73.87)"/></svg>