<svg id="Layer_1" data-name="Layer 1" xmlns="http://www.w3.org/2000/svg" viewBox="0 0 427 336.36"><defs><style>.cls-1{fill:#fff;}</style></defs><title>NewMain_Logo</title><path class="cls-1" d="M292.91,226a25.46,25.46,0,0,1-10-2.22,38.15,38.15,0,0,1-11.69-8,21.36,21.36,0,0,1-2.57,2.32,37.27,37.27,0,0,0,6.45,14.95c2.64,3.51,8.2,9.14,16,7.59l0,0c1.61-1,3.24-3.09,4.7-6,0.38-.76.76-1.6,1.13-2.5,0.56-1.38,1.08-2.85,1.53-4.37,0.21-.7.41-1.44,0.61-2.24l0.16-.66a18.47,18.47,0,0,1-6.4,1.12h0Z" transform="translate(-89 -75.19)"/><path class="cls-1" d="M301.62,209.69c-0.05-.63-0.13-1.3-0.22-2-0.16-1.09-.37-2.23-0.64-3.4l-0.1-.44c-0.12-.5-0.25-1-0.39-1.49l-0.14-.51c-0.32.36-.67,0.71-1,1.05a17.9,17.9,0,0,1-4.82,3.16c-0.48.22-1,.42-1.58,0.63s-1,.34-1.6.5a26.64,26.64,0,0,1-3.91.77,34.1,34.1,0,0,1-11.07-.56,21.11,21.11,0,0,1-1.24,3.15A32.71,32.71,0,0,0,285.4,218c2.43,1,7.17,2.55,11.59,1a11.22,11.22,0,0,0,1.27-.53,11.08,11.08,0,0,0,1.22-.69,12.11,12.11,0,0,0,1.28-1C301.57,215.31,301.87,212.77,301.62,209.69Z" transform="translate(-89 -75.19)"/><path class="cls-1" d="M242.49,218.07a9.14,9.14,0,0,1-.84-0.71,25.81,25.81,0,0,1-3-2.51,53.81,53.81,0,0,0-25.4,9.88c-5.22,3.92-13.56,12.22-11.1,24l0.11,0.17,0.07,0.12a17.44,17.44,0,0,0,5.1,4.82,40.74,40.74,0,0,0,6.38,3.39,65.13,65.13,0,0,0,7.28,2.62c2.17,0.64,4.38,1.2,6.6,1.65-3.39-6.94-3.23-15.42.55-24.27A52.83,52.83,0,0,1,242.49,218.07Z" transform="translate(-89 -75.19)"/><path class="cls-1" d="M209.52,219.74a59.71,59.71,0,0,1,24.76-10.59,25.51,25.51,0,0,1-2.45-6,60.62,60.62,0,0,0-30.15-4.59c-7.36.89-20.28,4.33-24.52,17.35,0,0.1,0,.21,0,0.32v0.14a18.29,18.29,0,0,0,1.66,6.32,42.14,42.14,0,0,0,4.54,7.7,71.83,71.83,0,0,0,6,7.22c1.92,2,4,4,6.08,5.83C195.85,234.65,200.73,226.34,209.52,219.74Z" transform="translate(-89 -75.19)"/><path class="cls-1" d="M200.94,192.39a66.48,66.48,0,0,1,30,3.66,25.62,25.62,0,0,1,1.3-7.62,68.26,68.26,0,0,0-27-21.66c-7.73-3.3-22.38-7.25-33.94,3.2l-0.24.46,0,0.08a19.58,19.58,0,0,0-1.79,5.93,43.46,43.46,0,0,0-.2,10.2A78.78,78.78,0,0,0,171,198.2a99.61,99.61,0,0,0,2.92,9.81C179.07,199.39,188.52,193.89,200.94,192.39Z" transform="translate(-89 -75.19)"/><path class="cls-1" d="M250.52,242.5a47.72,47.72,0,0,1,2.24-20.58,25.5,25.5,0,0,1-3.91-.91A47.71,47.71,0,0,0,234,239.65c-2.25,5.27-5,15.25,2,23.09l0.07,0,0.13,0.07a17,17,0,0,0,7.32,1.47A38.81,38.81,0,0,0,249,264a58.43,58.43,0,0,0,6.39-1.18c1.74-.42,3.47-0.9,5.18-1.45C255,257.41,251.53,250.84,250.52,242.5Z" transform="translate(-89 -75.19)"/><path class="cls-1" d="M270.16,236.82A42.94,42.94,0,0,1,263,221.41a25.58,25.58,0,0,1-3.67.66,42.26,42.26,0,0,0-2.65,19.69c0.6,5,2.91,13.74,11.58,16.65h0.12a16.1,16.1,0,0,0,7.23-2.69,37.21,37.21,0,0,0,3.19-2.2,52.67,52.67,0,0,0,4.16-3.57q1.49-1.41,2.89-2.92C280,246.23,274.61,242.75,270.16,236.82Z" transform="translate(-89 -75.19)"/><path class="cls-1" d="M352.05,163.76c-13.34,10-31.06,17.47-48.61,20.46-0.72.12-1.44,0.22-2.16,0.33a40.4,40.4,0,0,1,5.08,16.11c19.37,8.92,43,12.77,63.34,10.31,26.48-3.2,44.61-16.26,51.07-36.79,0-.58,0-1.2,0-1.85a30.88,30.88,0,0,0-.77-5.07,48.41,48.41,0,0,0-3-8.63c-4.13-9.23-11.46-19.55-21.21-29.83a181.64,181.64,0,0,0-17.44-16.1C380.14,131.59,370.92,149.59,352.05,163.76Z" transform="translate(-89 -75.19)"/><path class="cls-1" d="M269.94,121.63a92.93,92.93,0,0,1-5.29,42l-0.2.52c0.63,0,1.25,0,1.89,0a40,40,0,0,1,11.93,1.82c12.91-9.72,24-23.66,30.09-37.84,8.22-19.28,6.49-36.73-4.86-49.18-0.35-.21-0.73-0.41-1.14-0.62a25.32,25.32,0,0,0-5.05-1.83,46.68,46.68,0,0,0-11-1.28,98.45,98.45,0,0,0-23.6,3,144.81,144.81,0,0,0-16.6,5.07C259.33,89.9,267.73,103.36,269.94,121.63Z" transform="translate(-89 -75.19)"/><path class="cls-1" d="M314.09,130.54c-5.87,13.75-16.27,27.47-28.55,37.65l-0.62.51a40.43,40.43,0,0,1,12.36,10c18.18-2.13,37-9.48,51-20,18.92-14.2,27.06-32.26,22.95-50.86-0.24-.43-0.51-0.87-0.82-1.33a28,28,0,0,0-3.31-4,47.32,47.32,0,0,0-7.89-6.35c-7.06-4.63-16.52-8.78-27.36-12A162.2,162.2,0,0,0,312,79.66C321.51,93.46,322.28,111.36,314.09,130.54Z" transform="translate(-89 -75.19)"/><path class="cls-1" d="M432.82,208a203.49,203.49,0,0,0-8.23-26.26c-8.59,19.7-27.65,32.21-54.14,35.42a110.25,110.25,0,0,1-13.21.77A133.29,133.29,0,0,1,312,209.8q-2-.74-3.95-1.55a40.54,40.54,0,0,1-1.6,17.88c6.16,9,13.24,15.61,21.59,20.21,16,8.79,34.83,9.17,53.08,9.54l0,1.56,0-1.56c17.5,0.35,35.57.71,51.62,8.33C438.52,252.33,438.56,232,432.82,208Z" transform="translate(-89 -75.19)"/><path class="cls-1" d="M231.75,134.3a83.33,83.33,0,0,1,14.73,35l0,0.1a39.8,39.8,0,0,1,10.79-4.23c5.7-13.27,8.11-29.08,6.46-42.77-1.29-10.68-6.32-29.47-25.44-35.56-0.33,0-.68,0-1.07,0a23.05,23.05,0,0,0-5.4,1,45.7,45.7,0,0,0-10.33,4.9,92.54,92.54,0,0,0-14.74,11.59,129.41,129.41,0,0,0-10.07,10.72l1.32,0C210.53,115.08,222.35,121.77,231.75,134.3Z" transform="translate(-89 -75.19)"/><path class="cls-1" d="M234,180.5a40.61,40.61,0,0,1,6.74-7.14,76.81,76.81,0,0,0-14-35.32c-5.71-7.61-17.86-19.77-35.15-16l-0.74.46a21.23,21.23,0,0,0-4.28,3.86,44.77,44.77,0,0,0-6,9.35,85.81,85.81,0,0,0-5.31,13.78,113.92,113.92,0,0,0-2.81,12,32.66,32.66,0,0,1,16.89-4.5A47.1,47.1,0,0,1,207.75,161,73.91,73.91,0,0,1,234,180.5Z" transform="translate(-89 -75.19)"/><path class="cls-1" d="M260.19,172.62a13.38,13.38,0,0,1,1,1.5,15.22,15.22,0,0,1,1.28,2.77l0,0.08c0.2,0.59.35,1.1,0.47,1.59,0,0.15.07,0.31,0.1,0.47l0,0.12q0.11,0.53.2,1.09l0,0.17c0,0.16,0,.32.07,0.48a23.75,23.75,0,0,1,.12,4,26.16,26.16,0,0,1-.41,3.4c0.38,0.08.76,0.18,1.13,0.28a21.94,21.94,0,0,0,4.58-6.69l0.07-.17c0.19-.45.35-0.9,0.49-1.34a13.56,13.56,0,0,0,.35-1.39,11.74,11.74,0,0,0,.17-1.17,10,10,0,0,0,0-1.12c0-.19,0-0.39,0-0.59a7.9,7.9,0,0,0-.24-1.36,7.18,7.18,0,0,0-.46-1.24,7.29,7.29,0,0,0-1-1.5,7,7,0,0,0-2.55-.48,16.1,16.1,0,0,0-1.79,0l-0.35,0c-0.51,0-1,.11-1.52.19l-0.17,0c-0.51.08-1,.19-1.58,0.31h-0.07l-0.34.08,0.21,0.26Z" transform="translate(-89 -75.19)"/><path class="cls-1" d="M271.35,192.89a25,25,0,0,0,8.49-4l0.24-.19,0.08-.06c0.38-.3.75-0.62,1.1-0.94s0.69-.67,1-1a13.52,13.52,0,0,0,1-1.24,11.39,11.39,0,0,0,.65-1c0.16-.28.3-0.57,0.42-0.85a9.06,9.06,0,0,0,.46-1.33,8.21,8.21,0,0,0,.24-1.35,8.49,8.49,0,0,0-.1-2.3,8.23,8.23,0,0,0-2.43-2.12,17.73,17.73,0,0,0-1.58-.87l-0.56-.26q-0.62-.29-1.31-0.55l-0.11,0c-0.65-.25-1.37-0.5-2.13-0.74l-0.12,0-0.35-.11h0l-0.5-.14,0.08,0.34c0.07,0.33.12,0.67,0.17,1a14.79,14.79,0,0,1,.12,1.8,16.69,16.69,0,0,1-.29,3.21l-0.05.25c-0.12.61-.26,1.17-0.42,1.69l-0.08.24c-0.13.43-.29,0.88-0.48,1.37l0,0.1c-0.09.24-.18,0.47-0.28,0.71a26.87,26.87,0,0,1-3.23,5.55c-0.44.58-.9,1.15-1.37,1.69A16,16,0,0,1,271.35,192.89Z" transform="translate(-89 -75.19)"/><path class="cls-1" d="M250.48,180.17l0.31,0.27,0.05,0c0.34,0.31.64,0.6,0.92,0.89s0.41,0.45.62,0.69,0.34,0.41.51,0.62l0.08,0.11,0.19,0.24a20.49,20.49,0,0,1,1.16,1.74,23.21,23.21,0,0,1,1.78,3.67l0.65-.15a19,19,0,0,0,.46-6.64v-0.05c-0.06-.45-0.13-0.89-0.23-1.34a11.73,11.73,0,0,0-.39-1.34c-0.09-.26-0.19-0.52-0.31-0.78a8.48,8.48,0,0,0-.48-0.91l0-.05-0.1-.17a6.83,6.83,0,0,0-.85-1,6,6,0,0,0-1-.8,6.22,6.22,0,0,0-1.16-.6,6.29,6.29,0,0,0-1.91.68,14.11,14.11,0,0,0-1.51.92l-0.13.09c-0.39.28-.79,0.58-1.18,0.9l-0.33.28h0l-0.64.56a12.34,12.34,0,0,1,1.34.64A13.82,13.82,0,0,1,250.48,180.17Z" transform="translate(-89 -75.19)"/><path class="cls-1" d="M245.58,196.92q0.18-.36.37-0.71a13.7,13.7,0,0,0-2-1.17L243.8,195l-0.2-.09c-0.31-.13-0.63-0.25-1-0.36a8.41,8.41,0,0,0-1.29-.31l-0.27,0a5.79,5.79,0,0,0-.58,0h-0.31a4.8,4.8,0,0,0-1,.14,4.14,4.14,0,0,0-1.07.44,4.19,4.19,0,0,0-.44.3,4.55,4.55,0,0,0-.18,1.1,10.35,10.35,0,0,0,0,1.53l0,0.2c0,0.35.08,0.69,0.14,1l0.12-.07a11.62,11.62,0,0,1,1.78-.89c0.37-.15.71-0.27,1-0.37l0.67-.18,0.44-.1c0.32-.07.65-0.13,1-0.18h0.09l0.23,0h0.11A17,17,0,0,1,245.58,196.92Z" transform="translate(-89 -75.19)"/><path class="cls-1" d="M240.41,187.91a12.58,12.58,0,0,1,2,.17l0.79,0.16q0.46,0.1.93,0.24c0.37,0.11.76,0.24,1.15,0.38l0.5,0.2,0.06,0,0.19,0.08,0.12,0.05a19.76,19.76,0,0,1,3.82,2.23l0.42-.33a16.52,16.52,0,0,0-2.14-4.17l-0.08-.11a12.24,12.24,0,0,0-.8-1,9.93,9.93,0,0,0-1-.94l-0.41-.32a7.13,7.13,0,0,0-.79-0.5,5.82,5.82,0,0,0-1.22-.5,5.07,5.07,0,0,0-1.21-.17,5.56,5.56,0,0,0-.9.05,5.27,5.27,0,0,0-1,1.18,12.21,12.21,0,0,0-.82,1.51c-0.21.45-.39,0.89-0.56,1.35l-0.16.46,0.77,0h0.28Z" transform="translate(-89 -75.19)"/><path class="cls-1" d="M296.23,190.58c-0.28-.52-0.59-1-0.93-1.55-0.17-.25-0.34-0.5-0.52-0.76s-0.43-.58-0.65-0.87l-0.24-.3c-0.56-.7-1.18-1.42-1.84-2.14l-0.32-.35-0.87-.88q-0.11.42-.25,0.85c-0.17.53-.34,1-0.52,1.41a16.11,16.11,0,0,1-.81,1.6,17.82,17.82,0,0,1-1.35,2c-0.31.4-.64,0.8-1,1.18l-0.1.11-0.24.26q-0.41.43-.86,0.85c-0.38.36-.8,0.73-1.28,1.12-0.29.24-.58,0.47-0.88,0.7a30.29,30.29,0,0,1-8.06,4.27l-0.74.24a15.8,15.8,0,0,1,.7,2.5,28.81,28.81,0,0,0,11,.95,20.41,20.41,0,0,0,2.73-.53c0.45-.12.91-0.26,1.36-0.42s0.93-.35,1.32-0.53a12.31,12.31,0,0,0,2.32-1.4,10.25,10.25,0,0,0,1.07-1,9.61,9.61,0,0,0,.92-1.07,10,10,0,0,0,1.34-2.57A9.52,9.52,0,0,0,296.23,190.58Z" transform="translate(-89 -75.19)"/><path class="cls-1" d="M106.32,334.56a101.38,101.38,0,0,1-6.87-7.66S100,333,100,337v23H89V304h2l28,26.41a57.45,57.45,0,0,1,6.15,7.65A74.16,74.16,0,0,1,124,328V305h11v56h-0.66Z" transform="translate(-89 -75.19)"/><path class="cls-1" d="M151,305h37v10H163v17h22v10H163v8h26v10H151V305Z" transform="translate(-89 -75.19)"/><path class="cls-1" d="M200.18,305h12.09l8.09,22.15c1.39,3.84,2.94,10,2.94,10a70.2,70.2,0,0,1,3.43-10.19L237.44,304h1.14l10.87,22.9a70.53,70.53,0,0,1,3.43,10.1s1.55-6,2.94-9.87l8-22.13h11.11l-20.18,56h-1.14l-12.5-26.93a82.41,82.41,0,0,1-3.1-8.32s-1.72,5.24-3.19,8.35l-13,26.9h-1.14Z" transform="translate(-89 -75.19)"/><path class="cls-1" d="M310,304h1.21l27.37,30.07,27-30.07H366v56H355V339.42c0-3.76.65-9.72,0.65-9.72a82.67,82.67,0,0,1-5.84,7.91L338.91,350h-1.06l-11-12.4c-2.61-2.94-6.09-7.88-6.09-7.88s0.28,5.93.28,9.69V360H310V304Z" transform="translate(-89 -75.19)"/><path class="cls-1" d="M403.36,304h1l25.41,56h-12l-2.61-6H392.58L390,360h-11ZM411,344l-4-9.44c-1.63-3.92-3.35-9.87-3.35-9.87s-1.63,5.9-3.27,9.82l-4,9.49H411Z" transform="translate(-89 -75.19)"/><path class="cls-1" d="M442,305h11v55H442V305Z" transform="translate(-89 -75.19)"/><path class="cls-1" d="M487,334.56a88,88,0,0,1-6.73-7.66S481,333,481,337v23H470V304h1.66l28,26.41a63.93,63.93,0,0,1,6.3,7.65A85,85,0,0,1,505,328V305h11v56h-1Z" transform="translate(-89 -75.19)"/><path class="cls-1" d="M190.15,390c4.13,0,6.18,2.6,6.18,5.66a4.32,4.32,0,0,1-3.37,4.47c2.78,0.61,4.31,2.05,4.31,5.05,0,3.4-2.26,5.82-6.61,5.82H180v-2h2V393h-2v-3h10.15Zm-0.4,9c2.39,0,3.37-1,3.37-3s-1.1-3-3.43-3H185v6h4.75Zm0.55,10c2.42,0,3.73-1.11,3.73-3.53s-1.47-3.47-3.79-3.47H185v7h5.3Z" transform="translate(-89 -75.19)"/><path class="cls-1" d="M213.22,390c4.31,0,7.56,2.23,7.56,6.79a5.92,5.92,0,0,1-4.22,6L220,409h2v2h-4.16l-4.5-8a5.11,5.11,0,0,1-.67,0H209v6h2v2h-7v-2h2V393h-2v-3h9.22Zm-0.12,11c2.75,0,4.38-1.25,4.38-4s-1.65-4-4.38-4H209v8h4.1Z" transform="translate(-89 -75.19)"/><path class="cls-1" d="M229,411v-2h1V393h-1v-3h15v6h-2.16l-0.46-3H234v7h7v2h-7v7h7.81l0.46-3H244v5H229Z" transform="translate(-89 -75.19)"/><path class="cls-1" d="M279,393h-1.33l-5.57,18h-1.71l-4.19-12.15c-0.37-1-.89-3.11-0.95-3.41-0.06.21-.64,2.34-1,3.38L260,411h-1.53l-5.66-18H251v-3h7v3h-2l2.85,9.55c0.31,1,.67,3,0.73,3.32a24.45,24.45,0,0,1,.89-3.6L264.67,390h1.5l4.19,12.39c0.34,1,.83,3.3.89,3.52a28.73,28.73,0,0,1,.7-3.27l2.81-9.64H272v-3h7v3Z" transform="translate(-89 -75.19)"/><path class="cls-1" d="M291,409h1v2h-6v-2h1V393h-1v-3h6v3h-1v16Z" transform="translate(-89 -75.19)"/><path class="cls-1" d="M316,393h-2v-3h6v3h-2v18h-1.37l-10.16-13.71a21.46,21.46,0,0,1-1.55-2.4s0.08,2,.08,3.32V409h2v2h-7v-2h2V393h-2v-3h5.12L315,403.74a19.43,19.43,0,0,1,1.35,2.45,19.43,19.43,0,0,1-.36-2.84V393Z" transform="translate(-89 -75.19)"/><path class="cls-1" d="M344.78,411l-0.31-1.56a9.58,9.58,0,0,1-6.18,2,10.13,10.13,0,0,1-10.49-10.52,10.32,10.32,0,0,1,10.53-10.72c3,0,4.71.9,5.54,2.09l0.24-2.32H346v7h-2.13c-0.64-3-2.75-3.94-5.35-3.94-4.65,0-7.37,3.63-7.37,7.91,0,4.44,2.12,8,7,8a6.67,6.67,0,0,0,4.85-1.63V403h-5v-2h9v10h-2.22Z" transform="translate(-89 -75.19)"/><path class="cls-1" d="M383.16,397c-0.61-3-2.66-3.94-5.48-3.94-4.47,0-7.22,3.6-7.22,7.85,0,4.41,2.78,8,7.37,8a6.79,6.79,0,0,0,6.06-3.38l2.39,1.58a9.59,9.59,0,0,1-8.6,4.46,10.16,10.16,0,0,1-10.56-10.5c0-6.39,4.62-10.8,10.37-10.8,3.12,0,4.71.86,5.66,2l0.24-2.3H385v7h-1.84Z" transform="translate(-89 -75.19)"/><path class="cls-1" d="M393.38,400.9a10.74,10.74,0,1,1,10.74,10.65A10.43,10.43,0,0,1,393.38,400.9Zm18.14,0c0-4.68-3.06-8-7.4-8s-7.4,3.3-7.4,8,3.06,8,7.4,8S411.53,405.58,411.53,400.9Z" transform="translate(-89 -75.19)"/><path class="cls-1" d="M420.84,409.37a2.11,2.11,0,1,1,2.11,2.14A2.14,2.14,0,0,1,420.84,409.37Z" transform="translate(-89 -75.19)"/></svg>