<svg xmlns="http://www.w3.org/2000/svg" viewBox="0 0 426.38 336.36"><defs><style>.cls-1{fill:#fff;}</style></defs><title>NewMain_Logo</title><g id="Layer_2" data-name="Layer 2"><g id="Layer_1-2" data-name="Layer 1"><path class="cls-1" d="M203.1,150.79a25.44,25.44,0,0,1-10-2.2,38.14,38.14,0,0,1-11.69-8,21.38,21.38,0,0,1-2.57,2.33,37.28,37.28,0,0,0,6.45,14.95c2.64,3.51,8.2,9.14,16,7.59l0,0c1.61-1,3.24-3.09,4.7-6,.38-.76.76-1.6,1.13-2.5.56-1.38,1.08-2.85,1.53-4.37.21-.7.41-1.44.61-2.24l.16-.67a18.46,18.46,0,0,1-6.4,1.11Z"/><path class="cls-1" d="M211.81,134.5c-.05-.63-.13-1.3-.22-2-.16-1.09-.37-2.23-.64-3.4l-.1-.44c-.12-.5-.25-1-.39-1.49l-.14-.51c-.32.36-.67.71-1,1.05a17.9,17.9,0,0,1-4.82,3.16c-.48.22-1,.42-1.58.63s-1,.34-1.6.5a26.64,26.64,0,0,1-3.91.77,34.1,34.1,0,0,1-11.07-.56,21.11,21.11,0,0,1-1.24,3.15,32.71,32.71,0,0,0,10.52,7.45c2.43,1,7.17,2.55,11.59,1a11.22,11.22,0,0,0,1.27-.53,11.08,11.08,0,0,0,1.22-.69,12.11,12.11,0,0,0,1.28-1C211.76,140.13,212.06,137.58,211.81,134.5Z"/><path class="cls-1" d="M152.68,142.88a9.14,9.14,0,0,1-.84-.71,25.81,25.81,0,0,1-3-2.51,53.81,53.81,0,0,0-25.4,9.88c-5.22,3.92-13.56,12.22-11.1,24l.11.17.07.12a17.44,17.44,0,0,0,5.1,4.82A40.74,40.74,0,0,0,124,182a65.13,65.13,0,0,0,7.28,2.62c2.17.64,4.38,1.2,6.6,1.65-3.39-6.94-3.23-15.42.55-24.27A52.83,52.83,0,0,1,152.68,142.88Z"/><path class="cls-1" d="M119.71,144.55A59.71,59.71,0,0,1,144.47,134a25.51,25.51,0,0,1-2.45-6,60.63,60.63,0,0,0-30.15-4.59c-7.36.89-20.28,4.33-24.52,17.35,0,.1,0,.21,0,.32v.14A18.29,18.29,0,0,0,89,147.51a42.14,42.14,0,0,0,4.54,7.7,71.83,71.83,0,0,0,6,7.22c1.92,2,4,4,6.08,5.83C106,159.46,110.92,151.15,119.71,144.55Z"/><path class="cls-1" d="M111.13,117.2a66.48,66.48,0,0,1,30,3.66,25.62,25.62,0,0,1,1.3-7.62,68.26,68.26,0,0,0-27-21.67c-7.73-3.3-22.38-7.25-33.94,3.2l-.24.46,0,.08a19.58,19.58,0,0,0-1.79,5.93,43.46,43.46,0,0,0-.2,10.2A78.78,78.78,0,0,0,81.21,123a99.61,99.61,0,0,0,2.92,9.81C89.26,124.2,98.71,118.7,111.13,117.2Z"/><path class="cls-1" d="M160.71,167.31A47.72,47.72,0,0,1,163,146.73a25.5,25.5,0,0,1-3.91-.91,47.71,47.71,0,0,0-14.86,18.64c-2.25,5.27-5,15.25,2,23.09l.07,0,.13.07a17,17,0,0,0,7.32,1.47,38.81,38.81,0,0,0,5.41-.32,58.43,58.43,0,0,0,6.39-1.18c1.74-.42,3.47-.9,5.18-1.45C165.23,182.22,161.72,175.65,160.71,167.31Z"/><path class="cls-1" d="M180.35,161.63a42.94,42.94,0,0,1-7.14-15.42,25.58,25.58,0,0,1-3.67.66,42.26,42.26,0,0,0-2.65,19.69c.6,5,2.91,13.74,11.58,16.65h.12a16.1,16.1,0,0,0,7.23-2.69,37.21,37.21,0,0,0,3.19-2.2,52.67,52.67,0,0,0,4.16-3.57q1.49-1.41,2.89-2.92C190.2,171,184.8,167.56,180.35,161.63Z"/><path class="cls-1" d="M262.25,88.57C248.9,98.59,231.18,106,213.63,109c-.72.12-1.44.22-2.16.33a40.4,40.4,0,0,1,5.08,16.11c19.37,8.92,43,12.77,63.34,10.31C306.37,132.58,324.5,119.51,331,99c0-.58,0-1.2,0-1.85a30.88,30.88,0,0,0-.77-5.07,48.41,48.41,0,0,0-3-8.63C323,74.2,315.69,63.89,305.94,53.6A181.65,181.65,0,0,0,288.5,37.5C290.33,56.4,281.12,74.4,262.25,88.57Z"/><path class="cls-1" d="M180.13,46.44a92.93,92.93,0,0,1-5.29,42l-.2.52c.63,0,1.25,0,1.89,0a40,40,0,0,1,11.93,1.82c12.91-9.72,24-23.66,30.09-37.84,8.23-19.28,6.5-36.73-4.86-49.18-.35-.21-.73-.41-1.14-.62a25.32,25.32,0,0,0-5.05-1.83,46.69,46.69,0,0,0-11-1.28,98.46,98.46,0,0,0-23.6,3,144.81,144.81,0,0,0-16.6,5.07C169.52,14.71,177.92,28.17,180.13,46.44Z"/><path class="cls-1" d="M224.29,55.35C218.42,69.1,208,82.82,195.74,93l-.62.51a40.43,40.43,0,0,1,12.36,10c18.18-2.13,37-9.48,51-20,18.92-14.2,27.06-32.26,22.95-50.86-.24-.43-.51-.87-.82-1.33a28,28,0,0,0-3.31-4A47.32,47.32,0,0,0,269.42,21c-7.06-4.63-16.52-8.78-27.36-12a162.2,162.2,0,0,0-19.85-4.53C231.7,18.27,232.47,36.17,224.29,55.35Z"/><path class="cls-1" d="M343,132.81a203.49,203.49,0,0,0-8.23-26.26c-8.59,19.7-27.65,32.22-54.14,35.42a110.26,110.26,0,0,1-13.21.77,133.3,133.3,0,0,1-45.22-8.13q-2-.74-3.95-1.55a40.54,40.54,0,0,1-1.6,17.88c6.16,9,13.24,15.61,21.59,20.21,16,8.79,34.84,9.17,53.08,9.54l0,1.56,0-1.56c17.5.35,35.57.71,51.62,8.33C348.72,177.14,348.76,156.8,343,132.81Z"/><path class="cls-1" d="M141.94,59.1a83.33,83.33,0,0,1,14.73,35l0,.1A39.8,39.8,0,0,1,167.48,90c5.7-13.28,8.11-29.08,6.46-42.77-1.29-10.68-6.32-29.47-25.44-35.56-.33,0-.68,0-1.07,0a23.05,23.05,0,0,0-5.4,1,45.71,45.71,0,0,0-10.33,4.9A92.54,92.54,0,0,0,117,29.2a129.41,129.41,0,0,0-10.07,10.72l1.32,0C120.72,39.89,132.54,46.58,141.94,59.1Z"/><path class="cls-1" d="M144.2,105.31a40.61,40.61,0,0,1,6.74-7.14,76.82,76.82,0,0,0-14-35.32c-5.71-7.61-17.86-19.77-35.16-16l-.74.46a21.23,21.23,0,0,0-4.28,3.86,44.77,44.77,0,0,0-6,9.35,85.82,85.82,0,0,0-5.31,13.78,113.93,113.93,0,0,0-2.81,12,32.66,32.66,0,0,1,16.89-4.5,47.1,47.1,0,0,1,18.41,4.07A73.92,73.92,0,0,1,144.2,105.31Z"/><path class="cls-1" d="M170.38,97.43a13.38,13.38,0,0,1,1,1.5,15.22,15.22,0,0,1,1.28,2.77l0,.08c.2.59.35,1.1.47,1.59,0,.15.07.31.1.47l0,.12q.11.53.2,1.09l0,.17c0,.16,0,.32.07.48a23.75,23.75,0,0,1,.12,4,26.16,26.16,0,0,1-.41,3.4c.38.08.76.18,1.13.28a21.94,21.94,0,0,0,4.58-6.69l.07-.17c.19-.45.35-.9.49-1.34a13.56,13.56,0,0,0,.35-1.39,11.74,11.74,0,0,0,.17-1.17,10,10,0,0,0,0-1.12c0-.19,0-.39,0-.59a7.9,7.9,0,0,0-.24-1.36,7.18,7.18,0,0,0-.46-1.24,7.29,7.29,0,0,0-1-1.5,7,7,0,0,0-2.55-.48,16.1,16.1,0,0,0-1.79,0l-.35,0c-.51,0-1,.11-1.52.19l-.17,0c-.51.08-1,.19-1.58.31h-.07l-.34.08.21.26Z"/><path class="cls-1" d="M181.54,117.7a25,25,0,0,0,8.49-4l.24-.19.08-.06c.38-.3.75-.62,1.1-.94s.69-.67,1-1a13.53,13.53,0,0,0,1-1.24,11.39,11.39,0,0,0,.65-1c.16-.28.3-.57.42-.85A9.06,9.06,0,0,0,195,107a8.21,8.21,0,0,0,.24-1.35,8.49,8.49,0,0,0-.1-2.3,8.23,8.23,0,0,0-2.43-2.12,17.73,17.73,0,0,0-1.58-.87l-.56-.26q-.62-.29-1.31-.55l-.11,0c-.65-.25-1.37-.5-2.13-.74l-.12,0-.35-.11h0l-.5-.14.08.34c.07.33.12.67.17,1a14.79,14.79,0,0,1,.12,1.8,16.69,16.69,0,0,1-.29,3.21l-.05.25c-.12.61-.26,1.17-.42,1.69l-.08.24c-.13.43-.29.88-.48,1.37l0,.1c-.09.24-.18.47-.28.71a26.87,26.87,0,0,1-3.23,5.55c-.44.58-.9,1.15-1.37,1.69A16,16,0,0,1,181.54,117.7Z"/><path class="cls-1" d="M160.67,105l.31.27.05,0c.34.31.64.6.92.89s.41.45.62.69.34.41.51.62l.08.11.19.24a20.49,20.49,0,0,1,1.16,1.74,23.21,23.21,0,0,1,1.78,3.67l.65-.15a19,19,0,0,0,.46-6.64v-.05c-.06-.45-.13-.89-.23-1.34a11.73,11.73,0,0,0-.39-1.34c-.09-.26-.19-.52-.31-.78a8.48,8.48,0,0,0-.48-.91l0-.05-.1-.17a6.83,6.83,0,0,0-.85-1,6,6,0,0,0-1-.8,6.22,6.22,0,0,0-1.16-.6,6.29,6.29,0,0,0-1.91.68,14.11,14.11,0,0,0-1.51.92l-.13.09c-.39.28-.79.58-1.18.9l-.33.28h0l-.64.56a12.34,12.34,0,0,1,1.34.64A13.82,13.82,0,0,1,160.67,105Z"/><path class="cls-1" d="M155.77,121.73q.18-.36.37-.71a13.7,13.7,0,0,0-2-1.17l-.12-.06-.2-.09c-.31-.13-.63-.25-1-.36a8.41,8.41,0,0,0-1.29-.31l-.27,0a5.79,5.79,0,0,0-.58,0h-.31a4.8,4.8,0,0,0-1,.14,4.14,4.14,0,0,0-1.07.44,4.19,4.19,0,0,0-.44.3,4.55,4.55,0,0,0-.18,1.1,10.35,10.35,0,0,0,0,1.53l0,.2c0,.35.08.69.14,1l.12-.07a11.62,11.62,0,0,1,1.78-.89c.37-.15.71-.27,1-.37l.67-.18.44-.1c.32-.07.65-.13,1-.18H153l.23,0h.11A17,17,0,0,1,155.77,121.73Z"/><path class="cls-1" d="M150.6,112.72a12.58,12.58,0,0,1,2,.17l.79.16q.46.1.93.24c.37.11.76.24,1.15.38l.5.2.06,0,.19.08.12.05a19.76,19.76,0,0,1,3.82,2.23l.42-.33a16.52,16.52,0,0,0-2.14-4.17l-.08-.11a12.24,12.24,0,0,0-.8-1,9.93,9.93,0,0,0-1-.94l-.41-.32a7.13,7.13,0,0,0-.79-.5,5.82,5.82,0,0,0-1.22-.5,5.07,5.07,0,0,0-1.21-.17,5.56,5.56,0,0,0-.9.05,5.27,5.27,0,0,0-1,1.18,12.21,12.21,0,0,0-.82,1.51c-.21.45-.39.89-.56,1.35l-.16.46.77,0Z"/><path class="cls-1" d="M206.42,115.39c-.28-.52-.59-1-.93-1.55-.17-.25-.34-.5-.52-.76s-.43-.58-.65-.87l-.24-.3c-.56-.7-1.18-1.42-1.84-2.14l-.32-.35-.87-.88q-.11.42-.25.85c-.17.53-.34,1-.52,1.41a16.11,16.11,0,0,1-.81,1.6,17.82,17.82,0,0,1-1.35,2c-.31.4-.64.8-1,1.18l-.1.11-.24.26q-.41.43-.86.85c-.38.36-.8.73-1.28,1.12-.29.24-.58.47-.88.7a30.29,30.29,0,0,1-8.06,4.27l-.74.24a15.8,15.8,0,0,1,.7,2.5,28.81,28.81,0,0,0,11,.95,20.41,20.41,0,0,0,2.73-.53c.45-.12.91-.26,1.36-.42s.93-.35,1.32-.53a12.31,12.31,0,0,0,2.32-1.4,10.25,10.25,0,0,0,1.07-1,9.61,9.61,0,0,0,.92-1.07,10,10,0,0,0,1.34-2.57A9.52,9.52,0,0,0,206.42,115.39Z"/><path class="cls-1" d="M16.5,259.24a82.51,82.51,0,0,1-6.62-7.6,97.83,97.83,0,0,1,.82,10.13v23.29H0V229H1.14l28,26.31a78.86,78.86,0,0,1,6.54,7.6S35,256.63,35,252.79V229.5h10.7v56H44.53Z"/><path class="cls-1" d="M62.17,229.5H98.94v10H73.61V257.2h22.3V267H73.61v8h26.47v10H62.17Z"/><path class="cls-1" d="M110.37,229.5h12.09l8.09,22.3c1.39,3.84,2.94,10,2.94,10a70.75,70.75,0,0,1,3.43-10l10.7-22.8h1.14l10.87,22.8a70.75,70.75,0,0,1,3.43,10s1.55-6.21,2.94-10l8-22.3h11.11l-20.18,56h-1.14l-12.5-26.8a83.71,83.71,0,0,1-3.1-8.25s-1.72,5.15-3.19,8.25l-13,26.8h-1.14Z"/><path class="cls-1" d="M220.5,228.93h.9L248.77,259l27-30.07h1v56.13h-11V264.23c0-3.76.41-9.72.41-9.72a98,98,0,0,1-6,7.84l-11,12.34H248l-11-12.34a98.14,98.14,0,0,1-6-7.84s.41,6,.41,9.72v20.83H220.5Z"/><path class="cls-1" d="M313.56,229h1l25.41,56h-12l-2.61-6.29H302.77l-2.61,6.29h-11Zm7.68,40.2-4-9.64c-1.63-3.92-3.35-10-3.35-10a100.64,100.64,0,0,1-3.27,10l-4,9.64Z"/><path class="cls-1" d="M352.6,229.5H364v55.56H352.6Z"/><path class="cls-1" d="M397.21,259.24a82.51,82.51,0,0,1-6.62-7.6,97.83,97.83,0,0,1,.82,10.13v23.29h-10.7V229h1.14l28,26.31a78.86,78.86,0,0,1,6.54,7.6s-.74-6.29-.74-10.13V229.5h10.7v56h-1.14Z"/><path class="cls-1" d="M100.34,315.3c4.13,0,6.18,2.36,6.18,5.42a4.19,4.19,0,0,1-3.37,4.34c2.78.61,4.31,2.14,4.31,5.14,0,3.4-2.26,5.91-6.61,5.91H91.13v-2.39h1.81v-16H91.13V315.3Zm-.4,8.78c2.39,0,3.37-1.16,3.37-3.12s-1.1-3.15-3.43-3.15H96.09v6.27Zm.55,9.52c2.42,0,3.73-1.19,3.73-3.61s-1.47-3.55-3.79-3.55H96.09v7.16Z"/><path class="cls-1" d="M123.41,315.3c4.31,0,7.56,2,7.56,6.55a5.76,5.76,0,0,1-4.22,5.81l3.49,6.12h2.11v2.33H128l-4.5-7.92a4.74,4.74,0,0,1-.67,0h-3.18v5.57h2v2.33h-7.07v-2.33h1.81V317.63h-1.81V315.3Zm-.12,10.5c2.75,0,4.38-1.22,4.38-3.95s-1.65-4-4.38-4h-3.61v8Z"/><path class="cls-1" d="M139.36,336.11v-2.33h1.81V317.63h-1.81V315.3h15v5.11H152l-.46-2.57h-7.16v6.55h7.53v2.54h-7.53v6.64H152l.46-2.75h2.36v5.29Z"/><path class="cls-1" d="M189.33,317.63h-1.47l-5.57,18.48h-1.71l-4.19-12.3a36,36,0,0,1-.95-3.49c-.06.21-.64,2.45-1,3.49l-4.28,12.3h-1.53L163,317.63h-1.47V315.3h6.73v2.33H166.2l2.85,9.64c.31,1,.67,3.06.73,3.37a23.23,23.23,0,0,1,.89-3.33l4.19-12h1.5l4.19,12.15c.34,1,.83,3.18.89,3.4a29.27,29.27,0,0,1,.7-3.43l2.81-9.79h-2.2V315.3h6.58Z"/><path class="cls-1" d="M201.33,333.79h1.84v2.33h-6.91v-2.33h1.87V317.63h-1.87V315.3h6.91v2.33h-1.84Z"/><path class="cls-1" d="M226.42,317.63h-2.08V315.3H231v2.33h-1.81v18.48h-2.36l-10.16-13.86a17,17,0,0,1-1.5-2.48s.12,1.9.12,3.24v10.77h2.05v2.33H210.7v-2.33h1.81V317.63H210.7V315.3h4.62l9.88,13.49c.61.83,1.41,2.23,1.47,2.33,0-.09-.24-1.84-.24-3Z"/><path class="cls-1" d="M255,336.11l-.31-1.71a9.59,9.59,0,0,1-6.18,2A10.16,10.16,0,0,1,238,325.8a10.33,10.33,0,0,1,10.53-10.74c3,0,4.71,1.13,5.54,2.33l.24-2.08h2.17v6.21h-2.42c-.64-2.6-2.75-3.79-5.35-3.79-4.65,0-7.37,3.7-7.37,8,0,4.44,2.57,8,7.47,8a8.07,8.07,0,0,0,5.29-1.59v-4h-5.45v-2.6h8.57v10.53Z"/><path class="cls-1" d="M293.35,321.52c-.61-2.45-2.66-3.79-5.48-3.79-4.47,0-7.22,3.67-7.22,7.92,0,4.41,2.78,8,7.37,8a6.77,6.77,0,0,0,6.06-3.37l2.39,1.59a9.6,9.6,0,0,1-8.6,4.47,10.16,10.16,0,0,1-10.56-10.49c0-6.39,4.62-10.8,10.37-10.8,3.12,0,4.71,1.1,5.66,2.29l.24-2.05h2.17v6.21Z"/><path class="cls-1" d="M303.58,325.71a10.74,10.74,0,1,1,10.74,10.65A10.43,10.43,0,0,1,303.58,325.71Zm18.14,0c0-4.68-3.06-8-7.4-8s-7.4,3.3-7.4,8,3.06,8,7.4,8S321.72,330.39,321.72,325.71Z"/><path class="cls-1" d="M331,334.18a2.11,2.11,0,1,1,2.11,2.14A2.14,2.14,0,0,1,331,334.18Z"/></g></g></svg>