<svg id="Layer_1" data-name="Layer 1" xmlns="http://www.w3.org/2000/svg" viewBox="0 0 30.75 30.75"><defs><style>.cls-1{fill:#fff;}</style></defs><title>snapchat</title><path class="cls-1" d="M3339,73.87a15.38,15.38,0,1,0,15.38,15.38A15.38,15.38,0,0,0,3339,73.87Zm8.94,20.19c-0.11.25-.59,0.6-2.27,0.86a0.64,0.64,0,0,0-.27.58c0,0.14-.06.22-0.1,0.36a0.19,0.19,0,0,1-.24.13h0a1.45,1.45,0,0,1-.38,0,5.22,5.22,0,0,0-1-.08,4.54,4.54,0,0,0-.73.07,3.52,3.52,0,0,0-1.39.71,3.93,3.93,0,0,1-2.4,1h-0.23a3.92,3.92,0,0,1-2.4-.95,3.5,3.5,0,0,0-1.39-.71,4.49,4.49,0,0,0-.73-0.06,5,5,0,0,0-1,.11,2.22,2.22,0,0,1-.38.05,0.24,0.24,0,0,1-.26-0.19c0-.14-0.07-0.28-0.1-0.42a0.66,0.66,0,0,0-.27-0.58c-1.68-.26-2.17-0.62-2.27-0.87a0.32,0.32,0,0,1,0-.11,0.19,0.19,0,0,1,.16-0.2,5.58,5.58,0,0,0,3.8-3.19h0a1,1,0,0,0,.09-0.83,1.75,1.75,0,0,0-1.14-.72l-0.25-.09c-0.77-.3-0.83-0.61-0.8-0.77a0.72,0.72,0,0,1,.7-0.46,0.49,0.49,0,0,1,.21,0,2.23,2.23,0,0,0,.92.24,0.76,0.76,0,0,0,.55-0.18c0-.18,0-0.36,0-0.55a9.06,9.06,0,0,1,.21-3.61,5.35,5.35,0,0,1,4.35-3.22s0.32-.42.32-0.42h0a5.36,5.36,0,0,1,4.36,3.22,10.16,10.16,0,0,1,.21,3.82v0.16c0,0.17-.13.39-0.14,0.55S3344,88,3344,88h0c1,0,.66-0.09,1-0.24a0.91,0.91,0,0,1,.32-0.05,1,1,0,0,1,.34.06h0a0.58,0.58,0,0,1,.44.47,0.94,0.94,0,0,1-.8.71L3345,89a1.75,1.75,0,0,0-1.14.72,1,1,0,0,0,.09.83h0a5.58,5.58,0,0,0,3.8,3.19,0.19,0.19,0,0,1,.16.2A0.32,0.32,0,0,1,3347.94,94.07Z" transform="translate(-3323.62 -73.87)"/></svg>