<svg id="Layer_1" data-name="Layer 1" xmlns="http://www.w3.org/2000/svg" viewBox="0 0 30.75 30.75"><defs><style>.cls-1{fill:#fff;}</style></defs><title>twitter</title><path class="cls-1" d="M3228,73.37a15.38,15.38,0,1,0,15.38,15.38A15.38,15.38,0,0,0,3228,73.37ZM3234.79,85v0.49c0,5-3.53,10.66-10,10.66a9.47,9.47,0,0,1-5.37-1.69,6.18,6.18,0,0,0,.84.05,6.75,6.75,0,0,0,4.35-1.6,3.55,3.55,0,0,1-3.28-2.61,3,3,0,0,0,.64.07,3.18,3.18,0,0,0,.88-0.13A3.77,3.77,0,0,1,3220,86.6V86.55a7.24,7.24,0,0,0,1.66.48,3.78,3.78,0,0,1-1.49-3.13,4,4,0,0,1,.48-1.88,9.76,9.76,0,0,0,7.22,3.91,4,4,0,0,1-.09-0.85,3.63,3.63,0,0,1,3.5-3.75,3.38,3.38,0,0,1,2.56,1.19,6.78,6.78,0,0,0,2.22-.91,3.7,3.7,0,0,1-1.54,2.07,6.68,6.68,0,0,0,2-.59A7.39,7.39,0,0,1,3234.79,85Z" transform="translate(-3212.62 -73.37)"/></svg>