<?xml version="1.0" encoding="utf-8"?>
<!-- Generator: Adobe Illustrator 19.2.0, SVG Export Plug-In . SVG Version: 6.00 Build 0)  -->
<svg version="1.1" id="Layer_1" xmlns="http://www.w3.org/2000/svg" xmlns:xlink="http://www.w3.org/1999/xlink" x="0px" y="0px"
	 viewBox="0 0 87.1 84.1" enable-background="new 0 0 87.1 84.1" xml:space="preserve">
<g>
	
		<radialGradient id="SVGID_1_" cx="3559.1394" cy="3023.6248" r="24.3132" gradientTransform="matrix(-0.2048 0.5573 -0.4842 -0.1721 2236.5154 -1421.0905)" gradientUnits="userSpaceOnUse">
		<stop  offset="2.424240e-02" style="stop-color:#FFFFFF"/>
		<stop  offset="1" style="stop-color:#FFFFFF;stop-opacity:0"/>
	</radialGradient>
	<path opacity="0.57" fill="url(#SVGID_1_)" d="M38.6,55.6c-6.5-2.3-9.6-10.3-6.8-17.7c2.8-7.5,10.2-11.7,16.8-9.4
		c6.5,2.3,9.5,10.3,6.8,17.7C52.6,53.7,45.1,57.9,38.6,55.6z"/>
	
		<radialGradient id="SVGID_2_" cx="902.2105" cy="-9018.0293" r="39.1582" gradientTransform="matrix(1.0604 1.1267 -3.390000e-02 3.100000e-02 -1218.6716 -695.0837)" gradientUnits="userSpaceOnUse">
		<stop  offset="2.424240e-02" style="stop-color:#FFFFFF"/>
		<stop  offset="1" style="stop-color:#FFFFFF;stop-opacity:0"/>
	</radialGradient>
	<path opacity="0.57" fill="url(#SVGID_2_)" d="M83.5,84.1c-0.8,0.7-20.8-19.3-44.7-44.8C14.8,13.9,17.9,15.1,7,3.9
		C-5.1-8.7,17.6,11.3,41.5,36.8C65.5,62.2,84.3,83.4,83.5,84.1z"/>
	
		<radialGradient id="SVGID_3_" cx="899.8318" cy="-7312.8667" r="39.1943" gradientTransform="matrix(-1.1668 1.0197 -3.060000e-02 -3.410000e-02 869.8892 -1124.6877)" gradientUnits="userSpaceOnUse">
		<stop  offset="2.424240e-02" style="stop-color:#FFFFFF"/>
		<stop  offset="1" style="stop-color:#FFFFFF;stop-opacity:0"/>
	</radialGradient>
	<path opacity="0.57" fill="url(#SVGID_3_)" d="M0,80.4c-0.7-0.8,20.1-20,46.4-43.1c26.3-23,25-20,36.7-30.5
		c13-11.7-7.8,10.3-34.2,33.3C22.6,63.2,0.7,81.2,0,80.4z"/>
	
		<radialGradient id="SVGID_4_" cx="2253.012" cy="2856.2529" r="18.2176" gradientTransform="matrix(-1.5603 -4.000000e-04 0 -4.560000e-02 3558.9373 173.2023)" gradientUnits="userSpaceOnUse">
		<stop  offset="2.424240e-02" style="stop-color:#FFFFFF"/>
		<stop  offset="1" style="stop-color:#FFFFFF;stop-opacity:0"/>
	</radialGradient>
	<path opacity="0.57" fill="url(#SVGID_4_)" d="M15.1,42c0-0.5,12.8-0.8,28.5-0.8c15.7,0,28.5,0.4,28.5,0.8c0,0.5-12.7,0.8-28.5,0.8
		C27.8,42.9,15.1,42.5,15.1,42z"/>
	
		<radialGradient id="SVGID_5_" cx="2233.1128" cy="1184.6312" r="18.2509" gradientTransform="matrix(2.900000e-03 1.5358 -4.630000e-02 1.000000e-04 91.9337 -3387.677)" gradientUnits="userSpaceOnUse">
		<stop  offset="2.424240e-02" style="stop-color:#FFFFFF"/>
		<stop  offset="1" style="stop-color:#FFFFFF;stop-opacity:0"/>
	</radialGradient>
	<path opacity="0.57" fill="url(#SVGID_5_)" d="M43.6,70.1c-0.5,0-0.9-12.6-0.9-28c0-15.5,0.3-28,0.8-28c0.5,0,0.9,12.5,0.9,28
		C44.4,57.5,44.1,70.1,43.6,70.1z"/>
	
		<radialGradient id="SVGID_6_" cx="3281.4331" cy="-133.1393" r="16.038" gradientTransform="matrix(-0.7443 0.6728 -0.2214 -0.2373 2456.4558 -2197.2861)" gradientUnits="userSpaceOnUse">
		<stop  offset="2.424240e-02" style="stop-color:#FFFFFF"/>
		<stop  offset="1" style="stop-color:#FFFFFF;stop-opacity:0"/>
	</radialGradient>
	<path opacity="0.88" fill="url(#SVGID_6_)" d="M31.6,52.8c-2-2.1,1.8-8.6,8.4-14.6c6.6-6,13.5-9.1,15.5-7c2,2.1-1.8,8.6-8.4,14.6
		C40.5,51.8,33.6,55,31.6,52.8z"/>
	
		<radialGradient id="SVGID_7_" cx="4919.3501" cy="-5416.3584" r="16.0395" gradientTransform="matrix(-0.7452 -0.6718 0.2211 -0.2375 4907.0186 2060.4897)" gradientUnits="userSpaceOnUse">
		<stop  offset="2.424240e-02" style="stop-color:#FFFFFF"/>
		<stop  offset="1" style="stop-color:#FFFFFF;stop-opacity:0"/>
	</radialGradient>
	<path opacity="0.88" fill="url(#SVGID_7_)" d="M31.6,31.3c2-2.1,8.9,1,15.5,7c6.6,5.9,10.4,12.5,8.4,14.6c-2,2.1-8.9-1-15.5-7
		C33.4,39.9,29.6,33.4,31.6,31.3z"/>
	
		<radialGradient id="SVGID_8_" cx="3509.3865" cy="-3125.8523" r="7.1648" gradientTransform="matrix(-1.0106 -3.000000e-04 1.000000e-04 -0.3221 3590.4614 -963.7283)" gradientUnits="userSpaceOnUse">
		<stop  offset="2.424240e-02" style="stop-color:#FFFFFF"/>
		<stop  offset="1" style="stop-color:#FFFFFF;stop-opacity:0"/>
	</radialGradient>
	<path opacity="0.88" fill="url(#SVGID_8_)" d="M36.3,42.1c0-1.3,3.2-2.3,7.2-2.3c4,0,7.2,1,7.2,2.3c0,1.3-3.2,2.3-7.2,2.3
		C39.6,44.4,36.3,43.3,36.3,42.1z"/>
	
		<radialGradient id="SVGID_9_" cx="1079.5417" cy="-2710.408" r="7.167" gradientTransform="matrix(-4.900000e-02 0.9936 -0.3267 -1.560000e-02 -789.0302 -1072.8591)" gradientUnits="userSpaceOnUse">
		<stop  offset="2.424240e-02" style="stop-color:#FFFFFF"/>
		<stop  offset="1" style="stop-color:#FFFFFF;stop-opacity:0"/>
	</radialGradient>
	<path opacity="0.88" fill="url(#SVGID_9_)" d="M43.2,49.2c-1.3-0.1-2.2-3.3-2-7.2c0.2-3.9,1.4-7.1,2.7-7c1.3,0.1,2.2,3.3,2,7.2
		C45.7,46.1,44.5,49.2,43.2,49.2z"/>
	
		<radialGradient id="SVGID_10_" cx="43.672" cy="41.3387" r="25.6808" gradientTransform="matrix(1.0171 0 0 1.0012 -0.8565 0.6678)" gradientUnits="userSpaceOnUse">
		<stop  offset="2.424240e-02" style="stop-color:#FFFFFF"/>
		<stop  offset="1" style="stop-color:#FFFFFF;stop-opacity:0"/>
	</radialGradient>
	<ellipse opacity="0.57" fill="url(#SVGID_10_)" cx="43.6" cy="42.1" rx="26.1" ry="25.7"/>
</g>
</svg>
