<svg xmlns="http://www.w3.org/2000/svg" width="73" height="50" viewBox="0 0 73 50"><style>.st0{opacity:0}.st1{fill:#2e2e2e}</style><path class="st0" d="M0 0h73v50H0z"/><path class="st1" d="M0 32.4V17.6h5.9c1.3 0 2.4.4 3.1 1.3.7.8 1.1 1.8 1.1 3.1v.2c0 .6-.1 1.2-.4 1.7-.2.5-.6.9-1 1.2.5.3.8.8 1.1 1.3s.4 1.1.4 1.7c0 1.2-.4 2.3-1.3 3.2-.8.7-1.9 1.1-3.1 1.1H0zm3-8.9h2.7c.4 0 .7-.1 1-.4.1-.3.3-.7.3-1.1 0-.4-.1-.8-.4-1.1-.2-.3-.6-.4-1-.4H3v3zm0 5.9h2.7c.4 0 .8-.1 1.1-.4s.4-.6.4-1.1c0-.4-.1-.8-.4-1-.3-.3-.6-.4-1.1-.4H3v2.9zM19.6 27.8c-.3-.9-.5-1.8-.5-2.8s.2-1.9.5-2.8c.3-.9.8-1.7 1.4-2.4.6-.7 1.4-1.3 2.4-1.7 1-.4 2.1-.7 3.3-.7 1.2 0 2.3.2 3.3.7s1.8 1 2.4 1.7c.6.7 1.1 1.5 1.4 2.4.3.9.5 1.8.5 2.8s-.2 1.9-.5 2.8c-.3.9-.8 1.7-1.4 2.4-.6.7-1.4 1.3-2.4 1.7s-2.1.7-3.3.7c-1.2 0-2.3-.2-3.3-.7-1-.4-1.8-1-2.4-1.7-.6-.7-1.1-1.5-1.4-2.4zm3-4.5c-.2.5-.3 1.1-.3 1.7 0 .6.1 1.1.3 1.7.2.5.5 1 .8 1.5.4.4.8.8 1.4 1 .6.3 1.2.4 1.9.4s1.4-.1 1.9-.4c.6-.3 1-.6 1.4-1 .4-.4.6-.9.8-1.5.2-.5.3-1.1.3-1.7 0-.6-.1-1.1-.3-1.7-.2-.5-.5-1-.8-1.5-.4-.4-.8-.8-1.4-1s-1.2-.4-1.9-.4-1.4.1-1.9.4c-.6.3-1 .6-1.4 1-.3.5-.6.9-.8 1.5zM44 32.4V17.3h.8l7.5 8.7v-8.4h3v15.1h-.8L47 24.3v8h-3zM65.4 32.4V17.6h7.4v3h-4.4v2.9h3.9v3h-3.9v3H73v3h-7.6z"/></svg>