<?xml version="1.0" encoding="utf-8"?>
<!-- Generator: Adobe Illustrator 17.1.0, SVG Export Plug-In . SVG Version: 6.00 Build 0)  -->
<!DOCTYPE svg PUBLIC "-//W3C//DTD SVG 1.1//EN" "http://www.w3.org/Graphics/SVG/1.1/DTD/svg11.dtd">
<svg version="1.1" id="Github" xmlns="http://www.w3.org/2000/svg" xmlns:xlink="http://www.w3.org/1999/xlink" x="0px" y="0px"
	 viewBox="0 0 128 128" enable-background="new 0 0 128 128" xml:space="preserve">
<g>
	<rect id="github-back" fill="#3F91CB" width="128" height="128"/>
	<g id="github-github">
		<path fill-rule="evenodd" clip-rule="evenodd" fill="#FFFFFF" d="M64,29.0449c-19.791,0-35.8398,16.0454-35.8398,35.8399
			c0,15.8349,10.2695,29.2695,24.5097,34.0088c1.791,0.331,2.4492-0.7784,2.4492-1.7247c0-0.8544-0.0332-3.6777-0.0488-6.6728
			c-9.9707,2.168-12.0752-4.2285-12.0752-4.2285c-1.6299-4.1426-3.9795-5.2442-3.9795-5.2442
			c-3.2519-2.2246,0.2461-2.1787,0.2461-2.1787c3.5977,0.253,5.4932,3.6944,5.4932,3.6944
			c3.1963,5.4785,8.3847,3.8945,10.4297,2.9785c0.3222-2.3164,1.2509-3.8975,2.2754-4.793
			c-7.96-0.9053-16.3291-3.9785-16.3291-17.7119c0-3.9126,1.4004-7.1099,3.6933-9.6196c-0.3721-0.9034-1.5996-4.5484,0.3477-9.4854
			c0,0,3.0088-0.9624,9.8574,3.6743c2.8594-0.7939,5.9258-1.1924,8.9707-1.206c3.0459,0.0136,6.1143,0.4121,8.9785,1.206
			c6.8408-4.6367,9.8467-3.6743,9.8467-3.6743c1.9502,4.937,0.7236,8.582,0.3516,9.4854c2.2978,2.5097,3.6884,5.707,3.6884,9.6196
			c0,13.7666-8.3847,16.7959-16.3652,17.6846c1.2852,1.1113,2.4307,3.2929,2.4307,6.6367c0,4.7949-0.0411,8.6543-0.0411,9.8349
			c0,0.9541,0.6456,2.0713,2.462,1.7198c14.2324-4.7442,24.4892-18.1739,24.4892-34.0039
			C99.8408,45.0903,83.7939,29.0449,64,29.0449z"/>
		<path fill="#FFFFFF" d="M41.7354,80.5029c-0.0791,0.1787-0.3594,0.2315-0.6153,0.1104c-0.2597-0.1172-0.4053-0.3604-0.3213-0.5391
			c0.0772-0.1836,0.3575-0.2344,0.6172-0.1113C41.6768,80.0801,41.8252,80.3242,41.7354,80.5029L41.7354,80.5029z M41.2939,80.1758"
			/>
		<path fill="#FFFFFF" d="M43.1865,82.123c-0.1709,0.1583-0.5049,0.084-0.7314-0.166c-0.2354-0.25-0.2783-0.584-0.1055-0.7451
			c0.1768-0.1582,0.5-0.084,0.7354,0.166C43.3193,81.6309,43.3652,81.9619,43.1865,82.123L43.1865,82.123z M42.8447,81.7559"/>
		<path fill="#FFFFFF" d="M44.5996,84.1865c-0.2197,0.1533-0.5791,0.0098-0.8008-0.3095c-0.2197-0.3184-0.2197-0.7012,0.0049-0.8536
			c0.2227-0.1533,0.5762-0.0156,0.8018,0.3008C44.8242,83.6484,44.8242,84.0303,44.5996,84.1865L44.5996,84.1865z M44.5996,84.1865"
			/>
		<path fill="#FFFFFF" d="M46.5352,86.1807c-0.1963,0.2168-0.6143,0.1582-0.9209-0.1377c-0.3135-0.2881-0.4004-0.6992-0.2041-0.916
			c0.2002-0.2168,0.6211-0.1553,0.9287,0.1386C46.6504,85.5537,46.7451,85.9668,46.5352,86.1807L46.5352,86.1807z M46.5352,86.1807"
			/>
		<path fill="#FFFFFF" d="M49.2061,87.3389c-0.087,0.2802-0.4893,0.4072-0.8956,0.2881c-0.4052-0.1231-0.6699-0.4512-0.5888-0.7344
			c0.084-0.2832,0.4892-0.416,0.8984-0.2881C49.0254,86.7266,49.29,87.0527,49.2061,87.3389L49.2061,87.3389z M49.2061,87.3389"/>
		<path fill="#FFFFFF" d="M52.1396,87.5527c0.0098,0.2959-0.3339,0.5411-0.7607,0.5469c-0.4277,0.0098-0.7754-0.2305-0.7793-0.5215
			c0-0.2978,0.3359-0.54,0.7647-0.5478C51.79,87.0225,52.1396,87.2598,52.1396,87.5527L52.1396,87.5527z M52.1396,87.5527"/>
		<path fill="#FFFFFF" d="M54.8691,87.0889c0.0508,0.2881-0.2451,0.5849-0.6679,0.6631c-0.417,0.0761-0.8018-0.1016-0.8545-0.3877
			c-0.0518-0.2959,0.25-0.5918,0.665-0.669C54.4355,86.623,54.8154,86.7959,54.8691,87.0889L54.8691,87.0889z M54.8691,87.0889"/>
	</g>
</g>
</svg>
