<?xml version="1.0" encoding="utf-8"?>
<!-- Generator: Adobe Illustrator 15.0.0, SVG Export Plug-In . SVG Version: 6.00 Build 0)  -->
<!DOCTYPE svg PUBLIC "-//W3C//DTD SVG 1.1//EN" "http://www.w3.org/Graphics/SVG/1.1/DTD/svg11.dtd">
<svg version="1.1" id="Layer_1" xmlns="http://www.w3.org/2000/svg" xmlns:xlink="http://www.w3.org/1999/xlink" x="0px" y="0px"
	 width="80px" height="80px" viewBox="0 0 80 80" enable-background="new 0 0 80 80" xml:space="preserve">
<g id="location_2_" display="none">
	<path display="inline" fill="#78CFCF" d="M40.002,57.503c-0.414,0-0.795-0.214-1.031-0.553L21.884,31.564
		c-4.788-8.29-3.424-18.713,3.281-25.415C29.126,2.179,34.399,0,40.002,0c5.609,0,10.885,2.179,14.854,6.149
		c6.705,6.702,8.062,17.125,3.312,25.337L41.05,56.95C40.816,57.289,40.426,57.503,40.002,57.503z M40.002,2.499
		c-4.931,0-9.58,1.924-13.072,5.416C21.024,13.821,19.821,23,24.009,30.232l15.994,23.776l16.049-23.84
		C60.193,23,58.99,13.821,53.09,7.915C49.598,4.423,44.949,2.499,40.002,2.499z"/>
	<path display="inline" fill="#78CFCF" d="M40.002,32.376c-3.04,0-5.891-1.187-8.041-3.334c-2.146-2.143-3.333-5.001-3.333-8.04
		c0-3.049,1.177-5.907,3.333-8.057c2.15-2.147,5.001-3.336,8.041-3.336s5.907,1.189,8.057,3.336c2.146,2.15,3.336,5.008,3.336,8.047
		c0,3.048-1.188,5.907-3.336,8.05C45.909,31.189,43.051,32.376,40.002,32.376z M40.002,12.111c-2.367,0-4.595,0.921-6.272,2.599
		c-1.681,1.682-2.603,3.909-2.603,6.282c0,2.376,0.922,4.604,2.603,6.282c3.358,3.353,9.202,3.353,12.563,0
		c1.678-1.678,2.594-3.906,2.594-6.282c0-2.373-0.922-4.601-2.594-6.282C44.611,13.032,42.387,12.111,40.002,12.111z"/>
	<path display="inline" fill="#78CFCF" d="M79.045,72.13c0,0-5.383-16.103-8.539-25.644c-1.086-3.286-3.656-4.922-8.002-6.765
		l-3.915-1.771l-1.419,2.108l4.336,1.953c4.303,1.837,5.913,3.109,6.624,5.259c3.159,9.549,8.542,25.658,8.556,25.666
		c1.182,3.48,0.736,4.25,0.697,4.322c-0.148,0.178-1.125,0.279-3.859-0.974l-16.985-8.267c-0.356-0.178-0.771-0.172-1.124,0.012
		l-15.417,7.986l-16.229-7.998c-0.349-0.178-0.763-0.172-1.115,0.012L6.485,76.284c-2.945,1.433-3.87,1.177-3.876,1.177
		c-0.023-0.025-0.53-0.669,0.728-4.533c0,0,5.389-16.109,8.548-25.658c0.695-2.088,2.062-3.174,6.657-5.273l4.319-1.92l-1.422-2.112
		L17.5,39.721c-4.688,2.151-6.955,3.632-7.986,6.765C6.359,56.027,0.96,72.13,0.96,72.143c-1.148,3.537-1.258,5.566-0.375,6.785
		c0.359,0.488,1.054,1.077,2.321,1.077c1.132,0,2.615-0.469,4.694-1.474l15.629-7.995l16.227,7.995
		c0.359,0.175,0.773,0.175,1.125-0.014l15.425-7.981l16.46,8.017c1.931,0.883,3.353,1.295,4.487,1.295
		c1.352,0,2.074-0.617,2.449-1.129C80.296,77.467,80.195,75.492,79.045,72.13z"/>
</g>
<g>
	<path fill="#78CFCF" d="M78.125,80.002H1.875c-0.698,0-1.251-0.562-1.251-1.248c0-0.699,0.553-1.252,1.251-1.252h76.25
		c0.695,0,1.251,0.553,1.251,1.252C79.376,79.439,78.82,80.002,78.125,80.002z"/>
</g>
<g>
	<path fill="#78CFCF" d="M23.748,61.807c-1.031,0-1.875-0.844-1.875-1.875v-9.637c0-1.025,0.844-1.875,1.875-1.875
		c1.041,0,1.875,0.85,1.875,1.875v9.637C25.623,60.963,24.789,61.807,23.748,61.807z"/>
</g>
<g>
	<path fill="#78CFCF" d="M52.501,72.666c-0.323,0-0.646-0.125-0.886-0.371c-0.491-0.488-0.491-1.273,0-1.762l12.502-12.424
		c0.488-0.492,1.279-0.482,1.765,0c0.491,0.494,0.485,1.293,0,1.771L53.381,72.295C53.135,72.541,52.812,72.666,52.501,72.666z"/>
	<path fill="#78CFCF" d="M58.75,72.656c-0.318,0-0.646-0.123-0.895-0.365c-0.482-0.494-0.482-1.289,0.013-1.768l6.249-6.217
		c0.488-0.486,1.279-0.486,1.765,0.01c0.485,0.49,0.485,1.279,0,1.768l-6.249,6.207C59.395,72.533,59.07,72.656,58.75,72.656z"/>
</g>
<g>
	<path fill="#78CFCF" d="M6.256,78.242c0,0.689,0.556,1.242,1.244,1.242c0.686,0,1.248-0.553,1.248-1.242V45.588
		c-0.854-0.119-1.694-0.297-2.492-0.562V78.242z"/>
	<path fill="#78CFCF" d="M28.947,45.607v32.635c0,0.689,0.553,1.242,1.241,1.242c0.686,0,1.248-0.553,1.248-1.242V45.617
		c-0.407,0.039-0.792,0.117-1.196,0.117C29.794,45.734,29.374,45.648,28.947,45.607z"/>
	<path fill="#78CFCF" d="M71.249,78.242c0,0.689,0.562,1.242,1.251,1.242s1.244-0.553,1.244-1.242V45.025
		c-0.799,0.266-1.639,0.441-2.495,0.562V78.242z"/>
</g>
<path fill="#78CFCF" d="M73.523,0H6.476L0,28.961v2.314c0,5.903,4.804,10.708,10.707,10.708c4.354,0,8.086-2.604,9.77-6.349
	c1.668,3.743,5.405,6.349,9.764,6.349c4.345,0,8.092-2.604,9.76-6.349c1.668,3.743,5.415,6.349,9.761,6.349
	c4.357,0,8.096-2.604,9.764-6.349c1.685,3.743,5.414,6.349,9.771,6.349c5.899,0,10.705-4.802,10.705-10.707v-2.307L73.523,0z
	 M18.912,31.276c0,4.529-3.683,8.205-8.205,8.205c-4.529,0-8.208-3.676-8.208-8.205v-0.798h16.413V31.276z M19.229,27.938H2.842
	l5.68-25.415H21.03L19.229,27.938z M38.445,31.276c0,4.529-3.686,8.205-8.205,8.205c-4.529,0-8.212-3.676-8.212-8.205v-0.795h16.417
	V31.276z M38.52,27.93H21.893l1.805-25.399H38.52V27.93z M57.968,31.276c0,4.529-3.679,8.205-8.208,8.205
	c-4.52,0-8.205-3.676-8.205-8.205v-0.77h16.413V31.276z M41.18,27.908V2.54h15.127l1.981,25.368H41.18z M58.898,2.52H71.48
	l5.685,25.418H60.895L58.898,2.52z M77.501,31.276c0,4.529-3.679,8.205-8.208,8.205c-4.521,0-8.208-3.676-8.208-8.205v-0.77l0,0
	v-0.028h16.416V31.276z"/>
</svg>
