<svg xmlns="http://www.w3.org/2000/svg" width="564.56" height="521.232" viewBox="0 0 564.56049 521.23248"><defs><clipPath id="a"><path d="M0 500h500V0H0v500z"/></clipPath></defs><path d="M191.176 253.88l-9.709-31.099h-.302l-9.71 31.099h19.721zm7.433 24.121h-34.59l-5.458 17.446h-30.19l39.139-107.71h27.611l38.99 107.71h-30.04l-5.463-17.446z" fill="#fff"/><g clip-path="url(#a)" transform="matrix(1.25 0 0 -1.25 -30.662 571.98)"><path d="M210.24 264.188c0 24.518 16.261 44.542 45.024 44.542 11.773 0 25.365-4.975 35.076-16.748l-16.87-14.444c-3.642 4.128-10.194 8.983-18.206 8.983-10.679 0-20.754-7.767-20.754-22.333 0-11.77 7.768-21.967 20.754-21.967 6.796 0 14.08 3.642 18.206 8.74l16.87-14.564c-7.404-9.103-19.783-16.385-35.076-16.385-24.03 0-45.025 15.413-45.025 44.176m132.039-9.708l-7.767 24.88h-.242l-7.768-24.88h15.777zm5.946-19.297h-27.67l-4.368-13.957h-24.152l31.311 86.17h22.09l31.191-86.17h-24.032l-4.37 13.957z" fill="#fff"/><path d="M407.007 316.65zm.001 0c5.1-15.978 7.796-32.878 7.796-50.227 0-90.678-73.773-164.45-164.451-164.45s-164.45 73.772-164.45 164.45c0 56.82 28.78 108.87 76.98 139.233l-32.707 51.928C64.023 415.916 24.53 344.456 24.53 266.424c0-124.522 101.305-225.826 225.823-225.826 34.633 0 67.459 7.857 96.82 21.851 81.087 81.858 89.826 181.18 59.835 254.201" fill="#f8b232"/><path d="M476.178 266.423c0 78.033-39.493 149.493-105.646 191.161l-32.708-51.928c33.483-21.093 57.581-52.655 69.183-89.006 29.991-73.022 21.253-172.343-59.834-254.2 76.204 36.317 129.005 114.086 129.005 203.973" fill="#fddca9"/></g></svg>