<?xml version="1.0" encoding="utf-8"?>
<!-- Generator: Adobe Illustrator 17.1.0, SVG Export Plug-In . SVG Version: 6.00 Build 0)  -->
<!DOCTYPE svg PUBLIC "-//W3C//DTD SVG 1.1//EN" "http://www.w3.org/Graphics/SVG/1.1/DTD/svg11.dtd">
<svg version="1.1" id="Google_x2B_" xmlns="http://www.w3.org/2000/svg" xmlns:xlink="http://www.w3.org/1999/xlink" x="0px"
	 y="0px" viewBox="0 0 128 128" enable-background="new 0 0 128 128" xml:space="preserve">
<g>
	<rect id="google--back" fill="#262626" width="128" height="128"/>
	<g id="google--google-">
		<g>
			<path fill="#FFFFFF" d="M28.1738,64.0293c-0.4472-11.7427,9.8399-22.5938,21.5938-22.7354
				c5.9912-0.5112,11.8183,1.8145,16.3554,5.6114c-1.8603,2.0425-3.7558,4.0654-5.7744,5.9585
				c-3.9931-2.4253-8.7978-4.273-13.4619-2.6324c-7.5273,2.1426-12.0791,11.0259-9.2988,18.3877
				c2.3066,7.6856,11.6592,11.9043,18.9863,8.6739c3.7969-1.3575,6.294-4.8594,7.3916-8.6211
				c-4.3486-0.086-8.6992-0.0332-13.0478-0.1543c-0.0078-2.5869-0.0225-5.1626-0.0078-7.7505
				c7.2509-0.0108,14.5156-0.0317,21.7783,0.0347c0.4443,6.3369-0.4903,13.123-4.6094,18.2099
				c-5.6445,7.2637-16.0723,9.3946-24.5527,6.5469C34.5215,82.6016,27.9785,73.5332,28.1738,64.0293"/>
			<path fill="#FFFFFF" d="M86.8232,54.2437h6.4698c0.0107,2.1645,0.0312,4.3374,0.042,6.5024
				c2.165,0.021,4.3398,0.0298,6.5048,0.0439v6.4795c-2.165,0.0098-4.3398,0.0215-6.5048,0.0313
				c-0.0186,2.1738-0.0313,4.3388-0.042,6.5137c-2.1641-0.0098-4.3291,0-6.4825,0c-0.0214-2.1749-0.0214-4.3399-0.041-6.502
				c-2.164-0.0215-4.3398-0.0332-6.5009-0.043V60.79c2.1611-0.0141,4.3242-0.0229,6.5009-0.0439
				C86.7803,58.5811,86.8018,56.4082,86.8232,54.2437"/>
		</g>
	</g>
</g>
</svg>
