<?xml version="1.0" encoding="utf-8"?>
<!-- Generator: Adobe Illustrator 17.1.0, SVG Export Plug-In . SVG Version: 6.00 Build 0)  -->
<!DOCTYPE svg PUBLIC "-//W3C//DTD SVG 1.1//EN" "http://www.w3.org/Graphics/SVG/1.1/DTD/svg11.dtd">
<svg version="1.1" id="WhatsApp" xmlns="http://www.w3.org/2000/svg" xmlns:xlink="http://www.w3.org/1999/xlink" x="0px" y="0px"
	 viewBox="0 0 128 128" enable-background="new 0 0 128 128" xml:space="preserve">
<g>
	<rect id="whatsapp-back" fill="#262626" width="128" height="128"/>
	<g id="whatsapp-whatsapp">
		<path fill="#FFFFFF" d="M28.1602,100.0127l5.0634-18.4951c-3.124-5.4121-4.7666-11.5518-4.7646-17.8418
			c0.0078-19.6787,16.0185-35.6885,35.6904-35.6885c9.5479,0.0039,18.5088,3.7207,25.2471,10.4678
			c6.7383,6.7451,10.4473,15.7119,10.4433,25.249C99.832,83.3818,83.8203,99.3936,64.1504,99.3936c-0.001,0,0.001,0,0,0h-0.0156
			c-5.9727-0.002-11.8418-1.501-17.0547-4.3448L28.1602,100.0127z M47.9561,88.5879l1.0839,0.6426
			c4.5538,2.7031,9.7754,4.1328,15.0977,4.1357h0.0127c16.3496,0,29.6572-13.3076,29.6641-29.665
			c0.0029-7.9258-3.0801-15.3789-8.6807-20.9864c-5.6006-5.6064-13.0488-8.6962-20.9717-8.6992
			c-16.3633,0-29.6709,13.3067-29.6767,29.6621c-0.003,5.6045,1.5654,11.0635,4.5351,15.7862l0.7051,1.123l-2.9961,10.9463
			L47.9561,88.5879z"/>
		<path fill-rule="evenodd" clip-rule="evenodd" fill="#FFFFFF" d="M82.1309,72.1904c-0.2237-0.372-0.8174-0.5947-1.709-1.042
			c-0.8926-0.4463-5.2764-2.6035-6.0938-2.9013c-0.8174-0.2969-1.4121-0.4463-2.0068,0.4463
			c-0.5947,0.8935-2.3037,2.9023-2.8233,3.497c-0.5205,0.5948-1.041,0.67-1.9326,0.2237c-0.8916-0.4463-3.7646-1.3887-7.1709-4.4268
			c-2.6513-2.3643-4.4414-5.2852-4.9609-6.1777c-0.5205-0.8926-0.0557-1.375,0.3906-1.8194
			c0.4014-0.4004,0.8916-1.042,1.3379-1.5625c0.4453-0.5205,0.5938-0.8935,0.8916-1.4882c0.2969-0.5948,0.1484-1.1163-0.0742-1.5625
			c-0.2236-0.4463-2.0068-4.836-2.75-6.6211c-0.7236-1.7383-1.459-1.503-2.0059-1.5313c-0.5195-0.0254-1.1152-0.0312-1.7099-0.0312
			c-0.5938,0-1.5606,0.2236-2.378,1.1162c-0.8173,0.8925-3.1211,3.0498-3.1211,7.4394c0,4.3897,3.1954,8.6299,3.6417,9.2246
			c0.4453,0.5957,6.288,9.6035,15.2343,13.4659c2.127,0.9189,3.7881,1.4677,5.084,1.8789c2.1358,0.6787,4.0801,0.583,5.6162,0.3535
			c1.7139-0.2569,5.2764-2.1573,6.0196-4.2403C82.3535,74.3477,82.3535,72.5625,82.1309,72.1904z"/>
	</g>
</g>
</svg>
