<?xml version="1.0" encoding="utf-8"?>
<!-- Generator: Adobe Illustrator 15.0.0, SVG Export Plug-In . SVG Version: 6.00 Build 0)  -->
<!DOCTYPE svg PUBLIC "-//W3C//DTD SVG 1.1//EN" "http://www.w3.org/Graphics/SVG/1.1/DTD/svg11.dtd">
<svg version="1.1" id="Layer_1" xmlns="http://www.w3.org/2000/svg" xmlns:xlink="http://www.w3.org/1999/xlink" x="0px" y="0px"
	 width="80px" height="80px" viewBox="0 0 80 80" enable-background="new 0 0 80 80" xml:space="preserve">
<path fill="#78CFCF" d="M73.754,5.933H6.25C2.805,5.933,0,8.739,0,12.185v40.006c0,3.445,2.805,6.252,6.25,6.252h31.708v-2.502H6.25
	c-2.07,0-3.75-1.688-3.75-3.75V12.185c0-2.072,1.68-3.75,3.75-3.75h67.503c2.069,0,3.75,1.678,3.75,3.75v25.358
	c0.435,0,2.103-0.1,2.496,0V12.185C80,8.739,77.197,5.933,73.754,5.933z"/>
<g>
	<rect x="8.75" y="19.989" fill="#78CFCF" width="6.251" height="3.391"/>
	<path fill="#78CFCF" d="M8.75,25.604v1.112c0,1.38,1.117,2.499,2.501,2.499h5.969v-3.611H8.75z"/>
	<path fill="#78CFCF" d="M28.751,17.771v-1.058c0-1.38-1.116-2.499-2.5-2.499h-5.978v3.557H28.751z"/>
	<path fill="#78CFCF" d="M17.22,14.215h-5.97c-1.384,0-2.501,1.119-2.501,2.499v1.058h8.47v-3.557H17.22z"/>
	<rect x="22.501" y="19.989" fill="#78CFCF" width="6.25" height="3.391"/>
	<path fill="#78CFCF" d="M20.273,29.216h5.978c1.384,0,2.5-1.119,2.5-2.499v-1.112h-8.478V29.216L20.273,29.216z"/>
</g>
<path fill="#78CFCF" d="M36.252,48.438H10.117c-0.698,0-1.25-0.562-1.25-1.254c0-0.695,0.551-1.248,1.25-1.248h26.135
	c0.694,0,1.249,0.553,1.249,1.248C37.501,47.876,36.946,48.438,36.252,48.438z"/>
<g>
	<path fill="#78CFCF" d="M42.501,36.341h-12.5c-0.688,0-1.25,0.562-1.25,1.251c0,0.695,0.562,1.248,1.25,1.248h12.5
		c0.688,0,1.251-0.553,1.251-1.248C43.752,36.903,43.189,36.341,42.501,36.341z"/>
	<path fill="#78CFCF" d="M22.98,36.341H10.29c-0.688,0-1.251,0.562-1.251,1.251c0,0.695,0.562,1.248,1.251,1.248h12.69
		c0.688,0,1.251-0.553,1.251-1.248C24.231,36.903,23.669,36.341,22.98,36.341z"/>
</g>
<path fill="#78CFCF" d="M78.752,41.704h-4.531v-7.1c0-7.364-6-13.357-13.365-13.357c-7.373,0-13.354,5.993-13.354,13.357v7.1h-4.544
	c-0.687,0-1.249,0.55-1.249,1.244v30.684c0,3.519,2.846,6.368,6.363,6.368h25.572C77.148,80,80,77.148,80,73.632V42.948
	C80,42.254,79.447,41.704,78.752,41.704z M49.993,34.604c0-5.987,4.875-10.859,10.862-10.859c5.99,0,10.865,4.872,10.865,10.859v7.1
	H49.993V34.604z M77.504,73.632c0,2.138-1.732,3.873-3.859,3.873H48.072c-2.135,0-3.864-1.735-3.864-3.873V44.2h33.296V73.632z"/>
<path fill="#78CFCF" d="M60.855,51.083c-3.513,0-6.362,2.851-6.362,6.358c0,1.816,0.79,3.543,2.127,4.742v4.219
	c0,2.324,1.899,4.216,4.235,4.216c2.326,0,4.229-1.892,4.229-4.216v-4.219c1.348-1.199,2.137-2.936,2.137-4.742
	C67.221,53.934,64.359,51.083,60.855,51.083z M63.096,60.574l-0.515,0.375v5.453c0,0.947-0.774,1.714-1.726,1.714
	c-0.957,0-1.736-0.767-1.736-1.714v-5.453l-0.514-0.375c-1.01-0.725-1.61-1.897-1.61-3.133c0-2.121,1.728-3.856,3.86-3.856
	c2.127,0,3.865,1.735,3.865,3.856C64.723,58.67,64.107,59.84,63.096,60.574z"/>
</svg>
