<?xml version="1.0" encoding="utf-8"?>
<!-- Generator: Adobe Illustrator 21.0.0, SVG Export Plug-In . SVG Version: 6.00 Build 0)  -->
<svg version="1.1" id="Layer_1" xmlns="http://www.w3.org/2000/svg" xmlns:xlink="http://www.w3.org/1999/xlink" x="0px" y="0px"
	 viewBox="0 0 150 150" style="enable-background:new 0 0 150 150;" xml:space="preserve">
<style type="text/css">
	.st0{fill:#D6D5D5;}
	.st1{fill:#F3DAC9;}
	.st2{fill-rule:evenodd;clip-rule:evenodd;fill:#8F8F95;}
	.st3{fill:#FFFFFF;stroke:#777777;stroke-width:0.2161;stroke-miterlimit:10;}
	.st4{fill:#98C673;}
	.st5{fill:#DB575D;}
	.st6{fill:#8ABD5C;}
	.st7{fill:none;stroke:#8F8F95;stroke-width:0.8928;stroke-miterlimit:10;}
	.st8{fill:#71B044;}
	.st9{fill:#5F605F;}
	.st10{fill:#FFFFFF;}
	.st11{fill:#FFFFFF;stroke:#BBBBBB;stroke-width:0.217;stroke-miterlimit:10;}
	.st12{fill:#D3C19C;}
	.st13{fill:#C5B292;}
	.st14{fill:#FDF1E8;}
	.st15{fill:#C2AD8C;}
	.st16{fill:#B26B6B;}
	.st17{fill:#FFFFFF;stroke:#BBBBBB;stroke-width:0.2307;stroke-miterlimit:10;}
	.st18{fill:none;stroke:#BBBBBB;stroke-width:0.1519;stroke-miterlimit:10;}
	.st19{fill:#F3DAC9;stroke:#BBBBBB;stroke-width:0.2053;stroke-miterlimit:10;}
	.st20{fill:none;stroke:#BBBBBB;stroke-width:0.219;stroke-miterlimit:10;}
	.st21{fill:none;}
	.st22{fill:none;stroke:#DB575D;stroke-width:8.335615e-02;stroke-miterlimit:10;}
	.st23{fill:#CE515E;}
	.st24{fill:#F3DAC9;stroke:#BBBBBB;stroke-width:0.2149;stroke-miterlimit:10;}
</style>
<ellipse transform="matrix(1 -4.398729e-03 4.398729e-03 1 -0.3611 0.3234)" class="st0" cx="73.3" cy="82.3" rx="64" ry="64"/>
<ellipse transform="matrix(1 -4.398729e-03 4.398729e-03 1 -0.3574 0.3239)" class="st10" cx="73.5" cy="81.4" rx="54.7" ry="54.7"/>
<path class="st21" d="M58.8,90.1l0.5,0.9l0-4.2c-0.2,1.1-0.5,2.2-0.8,3.4C58.6,90.1,58.7,90.1,58.8,90.1z"/>
<path class="st21" d="M59.2,67l0-3.2c-0.2,0.2-0.4,0.4-0.6,0.6C58.7,65.3,59,66.2,59.2,67z"/>
<path class="st12" d="M78.6,79.2l25-31.8c0,0,7.3,4.9,10.6,11.6s5,15.2,5,15.2L78.6,79.2z"/>
<path class="st12" d="M69.9,36.3l4.9,40.3L100,44.8C100,44.8,89.8,33.8,69.9,36.3z"/>
<path class="st12" d="M38,52.4l32.4,24.9l-5-40.5C65.3,36.8,49.3,37.3,38,52.4z"/>
<path class="st12" d="M67.5,84.4l-24.8,32.3c0,0-14.8-12.2-15.3-27.1L67.5,84.4z"/>
<path class="st12" d="M76.1,84l4.9,39.8c0,0,16.9-1.4,27.1-15.4L76.1,84z"/>
<path class="st12" d="M85.6,85.3l40.5-4.8c0,0,5.8,18.5-7.7,29.9L85.6,85.3z"/>
<path class="st12" d="M22.1,83.7l41.1-4.6L29.9,52.9C29.9,52.9,20.5,62.1,22.1,83.7z"/>
<path class="st12" d="M47,117.7l4.2-5.4l20.9-26.7l4.2,32.9l1,7.6C77.2,126.1,57.1,128.6,47,117.7z"/>
<path class="st22" d="M79.9,55.4c0,0-2.4-1.6-0.7-2.3c1.6-0.7,3.1-0.4,3.1-0.4s1.4,0.2,0.4,1.2c-1,1-0.9,1.4-0.9,1.4
	s1.1,0.8,1.4,0.5"/>
<g>
	
		<ellipse transform="matrix(0.9986 -5.324957e-02 5.324957e-02 0.9986 -2.8672 4.3312)" class="st5" cx="79.8" cy="56" rx="5.6" ry="5.6"/>
	<path class="st23" d="M80.2,52.4l-0.2,2c0,0-0.1,1,0.5,0.4c0.3-0.3,0.1-0.5,0.4-0.5c0,0,0.4,0,0.5,0.8c0.2,0.7-0.1,1-0.1,1
		s0,0.1-0.1,0c-0.1-0.1-0.4,0.1-0.3,0.2c0.1,0.1,0.2,0.4,0.2,0.4l1.9,1.9c0,0,0.4,0.2,0.6-0.2s0.9-2.3,0.4-3.6s-1.6-2.6-3.1-3.1
		C80,51.5,80.2,52.4,80.2,52.4z"/>
	<path class="st23" d="M79.1,52.2l0.2,2.4c0,0,0.1,0.3-0.1,0.3s-0.3,0-0.3-0.1c0-0.1-0.1-0.4-0.3-0.2c-0.1,0.1-0.8,0.6-1,1.3
		c0,0,0.1,0.1,0.4,0.1c0.3,0,0.4,0.3,0.2,0.4s-2,0.9-2,0.9s-0.8,0.4-0.9-0.2c-0.1-0.6-0.2-2.6,0.7-3.7s2-1.7,2.6-1.8
		C79,51.6,79,51.9,79.1,52.2z"/>
	<path class="st23" d="M76.2,58.2l2.1-1.2c0,0,0.4-0.2,0.6-0.1s0.1,0.3,0,0.4c-0.1,0.1-0.4,0.4,0,0.4c0.4,0,0.6,0.2,0.7,0.2
		s0.5,0.2,0.8,0c0.2-0.2,0.1-0.5,0.1-0.5s-0.1-0.3,0.1-0.1c0.2,0.2,1.5,1.6,1.5,1.6s0.4,0.5,0,0.8c-0.5,0.3-1.2,1-3.4,0.7
		c-2.1-0.3-2.6-1.7-2.6-1.7S76.1,58.3,76.2,58.2z"/>
</g>
<g>
	<ellipse transform="matrix(0.3895 -0.921 0.921 0.3895 -59.4588 104.754)" class="st5" cx="49.3" cy="97.2" rx="5.7" ry="5.7"/>
	<path class="st23" d="M51.2,94l-1.1,1.8c0,0-0.5,0.9,0.3,0.6c0.4-0.1,0.3-0.4,0.5-0.3c0,0,0.3,0.2,0.1,0.9
		c-0.2,0.7-0.5,0.8-0.5,0.8s-0.1,0-0.1,0C50.4,97.8,50,97.8,50,98c0,0.1,0,0.5,0,0.5L51,101c0,0,0.3,0.4,0.7,0.1s1.8-1.7,2-3.1
		s-0.3-3.1-1.4-4.2C51.5,93.2,51.2,94,51.2,94z"/>
	<path class="st23" d="M50.2,93.4l-0.9,2.3c0,0,0,0.3-0.3,0.2c-0.2-0.1-0.3-0.2-0.3-0.2c0-0.1,0-0.4-0.1-0.3s-1,0.2-1.5,0.7
		c0,0,0,0.1,0.3,0.3c0.3,0.1,0.3,0.5,0,0.4c-0.3-0.1-2.2,0-2.2,0s-1,0-0.8-0.6c0.2-0.6,1-2.5,2.3-3.1c1.3-0.6,2.6-0.7,3.2-0.5
		S50.4,93.1,50.2,93.4z"/>
	<path class="st23" d="M45,97.6l2.5-0.2c0,0,0.5,0,0.6,0.1c0.1,0.1,0,0.3-0.2,0.3c-0.2,0-0.6,0.1-0.2,0.3c0.4,0.2,0.5,0.5,0.5,0.5
		c0,0.1,0.4,0.4,0.7,0.4c0.3-0.1,0.3-0.4,0.3-0.4s0.1-0.3,0.1,0c0.1,0.2,0.6,2.2,0.6,2.2s0.2,0.7-0.4,0.7c-0.6,0.1-1.6,0.3-3.4-0.9
		c-1.8-1.2-1.6-2.7-1.6-2.7S44.8,97.6,45,97.6z"/>
</g>
<g>
	<ellipse transform="matrix(0.3895 -0.921 0.921 0.3895 -42.0386 142.0517)" class="st5" cx="86.1" cy="102.7" rx="5.7" ry="5.7"/>
	<path class="st23" d="M88,99.6l-1.1,1.8c0,0-0.5,0.9,0.3,0.6c0.4-0.1,0.3-0.4,0.5-0.3c0,0,0.3,0.2,0.1,0.9
		c-0.2,0.7-0.5,0.8-0.5,0.8s-0.1,0-0.1,0c-0.1-0.1-0.4-0.1-0.4,0.1c0,0.1,0,0.5,0,0.5l0.9,2.6c0,0,0.3,0.4,0.7,0.1s1.8-1.7,2-3.1
		c0.1-1.4-0.3-3.1-1.4-4.2C88.3,98.7,88,99.6,88,99.6z"/>
	<path class="st23" d="M87.1,98.9l-0.9,2.3c0,0,0,0.3-0.3,0.2c-0.2-0.1-0.3-0.2-0.3-0.2s0-0.4-0.1-0.3c-0.2,0.1-1,0.2-1.5,0.7
		c0,0,0,0.1,0.3,0.3s0.3,0.5,0,0.4s-2.2,0-2.2,0s-1,0-0.8-0.6c0.2-0.6,1-2.5,2.3-3.1c1.3-0.6,2.6-0.7,3.2-0.5
		C87.3,98.3,87.2,98.6,87.1,98.9z"/>
	<path class="st23" d="M81.8,103.1l2.5-0.2c0,0,0.5,0,0.6,0.1c0.1,0.1,0,0.3-0.2,0.3c-0.2,0-0.6,0.1-0.2,0.3
		c0.4,0.2,0.5,0.5,0.5,0.5c0,0.1,0.4,0.4,0.7,0.4c0.3-0.1,0.3-0.4,0.3-0.4s0.1-0.3,0.1,0c0.1,0.2,0.6,2.2,0.6,2.2s0.2,0.7-0.4,0.7
		s-1.6,0.3-3.4-0.9c-1.8-1.2-1.6-2.7-1.6-2.7S81.6,103.1,81.8,103.1z"/>
</g>
<g>
	<ellipse transform="matrix(0.3895 -0.921 0.921 0.3895 -18.0277 155.3132)" class="st5" cx="108.1" cy="91.3" rx="5.7" ry="5.7"/>
	<path class="st23" d="M110,88.1l-1.1,1.8c0,0-0.5,0.9,0.3,0.6c0.4-0.1,0.3-0.4,0.5-0.3c0,0,0.3,0.2,0.1,0.9
		c-0.2,0.7-0.5,0.8-0.5,0.8s-0.1,0-0.1,0c-0.1-0.1-0.4-0.1-0.4,0.1c0,0.1,0,0.5,0,0.5l0.9,2.6c0,0,0.3,0.4,0.7,0.1
		c0.4-0.2,1.8-1.7,2-3.1c0.1-1.4-0.3-3.1-1.4-4.2C110.3,87.2,110,88.1,110,88.1z"/>
	<path class="st23" d="M109.1,87.5l-0.9,2.3c0,0,0,0.3-0.3,0.2s-0.3-0.2-0.3-0.2s0-0.4-0.1-0.3c-0.2,0.1-1,0.2-1.5,0.7
		c0,0,0,0.1,0.3,0.3c0.3,0.1,0.3,0.5,0,0.4s-2.2,0-2.2,0s-1,0-0.8-0.6c0.2-0.6,1-2.5,2.3-3.1c1.3-0.6,2.6-0.7,3.2-0.5
		C109.3,86.8,109.2,87.2,109.1,87.5z"/>
	<path class="st23" d="M103.8,91.7l2.5-0.2c0,0,0.5,0,0.6,0.1s0,0.3-0.2,0.3c-0.2,0-0.6,0.1-0.2,0.3s0.5,0.5,0.5,0.5
		c0,0.1,0.4,0.4,0.7,0.4c0.3-0.1,0.3-0.4,0.3-0.4s0.1-0.3,0.1,0c0.1,0.2,0.6,2.2,0.6,2.2s0.2,0.7-0.4,0.7c-0.6,0.1-1.6,0.3-3.4-0.9
		c-1.8-1.2-1.6-2.7-1.6-2.7S103.6,91.7,103.8,91.7z"/>
</g>
<g>
	<ellipse transform="matrix(0.9067 -0.4217 0.4217 0.9067 -20.0011 48.7551)" class="st5" cx="100.2" cy="69.6" rx="5.5" ry="5.5"/>
	<path class="st23" d="M99.2,66.2l0.6,1.9c0,0,0.3,0.9,0.6,0.2c0.1-0.3-0.1-0.5,0.2-0.6c0,0,0.3-0.1,0.7,0.5
		c0.4,0.6,0.3,0.9,0.3,0.9s0,0.1-0.1,0s-0.3,0.2-0.2,0.3c0.1,0.1,0.3,0.3,0.3,0.3l2.5,1c0,0,0.4,0,0.5-0.4c0.1-0.4,0-2.4-0.9-3.4
		c-0.9-1-2.4-1.8-3.9-1.7C98.8,65.5,99.2,66.2,99.2,66.2z"/>
	<path class="st23" d="M98.1,66.5l1,2.1c0,0,0.2,0.2,0,0.4c-0.2,0.1-0.3,0.1-0.3,0s-0.3-0.3-0.3-0.1c-0.1,0.2-0.5,0.9-0.4,1.5
		c0,0,0.1,0.1,0.4,0c0.3-0.1,0.5,0.1,0.3,0.3c-0.2,0.2-1.4,1.6-1.4,1.6s-0.6,0.7-0.9,0.1c-0.3-0.5-1.1-2.3-0.7-3.6
		c0.4-1.3,1.2-2.3,1.7-2.6C97.8,65.9,98,66.2,98.1,66.5z"/>
	<path class="st23" d="M97.7,72.9l1.5-1.9c0,0,0.3-0.3,0.5-0.3c0.1,0,0.2,0.2,0.1,0.4c-0.1,0.1-0.3,0.5,0.1,0.3s0.7-0.1,0.7,0
		c0.1,0,0.6,0,0.7-0.3s-0.1-0.4-0.1-0.4s-0.2-0.2,0.1-0.1c0.2,0.1,1.9,0.9,1.9,0.9s0.6,0.3,0.3,0.8c-0.3,0.5-0.8,1.3-2.8,1.8
		c-2,0.5-3-0.6-3-0.6S97.6,73.1,97.7,72.9z"/>
</g>
<g>
	<ellipse transform="matrix(0.9067 -0.4217 0.4217 0.9067 -26.8006 24.9753)" class="st5" cx="43.1" cy="73.1" rx="5.5" ry="5.5"/>
	<path class="st23" d="M42,69.7l0.6,1.9c0,0,0.3,0.9,0.6,0.2c0.1-0.3-0.1-0.5,0.2-0.6c0,0,0.3-0.1,0.7,0.5c0.4,0.6,0.3,0.9,0.3,0.9
		s0,0.1-0.1,0c-0.1,0-0.3,0.2-0.2,0.3c0.1,0.1,0.3,0.3,0.3,0.3l2.5,1c0,0,0.4,0,0.5-0.4c0.1-0.4,0-2.4-0.9-3.4
		c-0.9-1-2.4-1.8-3.9-1.7C41.6,68.9,42,69.7,42,69.7z"/>
	<path class="st23" d="M41,70l1,2.1c0,0,0.2,0.2,0,0.4s-0.3,0.1-0.3,0s-0.3-0.3-0.3-0.1c-0.1,0.2-0.5,0.9-0.4,1.5c0,0,0.1,0.1,0.4,0
		c0.3-0.1,0.5,0.1,0.3,0.3s-1.4,1.6-1.4,1.6s-0.6,0.7-0.9,0.1c-0.3-0.5-1.1-2.3-0.7-3.6c0.4-1.3,1.2-2.3,1.7-2.6S40.8,69.7,41,70z"
		/>
	<path class="st23" d="M40.6,76.4l1.5-1.9c0,0,0.3-0.3,0.5-0.3s0.2,0.2,0.1,0.4c-0.1,0.1-0.3,0.5,0.1,0.3s0.7-0.1,0.7,0
		c0.1,0,0.6,0,0.7-0.3s-0.1-0.4-0.1-0.4s-0.2-0.2,0.1-0.1c0.2,0.1,1.9,0.9,1.9,0.9s0.6,0.3,0.3,0.8c-0.3,0.5-0.8,1.3-2.8,1.8
		c-2,0.5-3-0.6-3-0.6S40.5,76.5,40.6,76.4z"/>
</g>
<g>
	<ellipse transform="matrix(0.3895 -0.921 0.921 0.3895 -54.8803 125.0191)" class="st5" cx="66.9" cy="103.9" rx="5.7" ry="5.7"/>
	<path class="st23" d="M68.8,100.7l-1.1,1.8c0,0-0.5,0.9,0.3,0.6c0.4-0.1,0.3-0.4,0.5-0.3c0,0,0.3,0.2,0.1,0.9
		c-0.2,0.7-0.5,0.8-0.5,0.8s-0.1,0-0.1,0c-0.1-0.1-0.4-0.1-0.4,0.1c0,0.1,0,0.5,0,0.5l0.9,2.6c0,0,0.3,0.4,0.7,0.1s1.8-1.7,2-3.1
		c0.1-1.4-0.3-3.1-1.4-4.2C69,99.9,68.8,100.7,68.8,100.7z"/>
	<path class="st23" d="M67.8,100.1l-0.9,2.3c0,0,0,0.3-0.3,0.2c-0.2-0.1-0.3-0.2-0.3-0.2c0-0.1,0-0.4-0.1-0.3
		c-0.2,0.1-1,0.2-1.5,0.7c0,0,0,0.1,0.3,0.3c0.3,0.1,0.3,0.5,0,0.4c-0.3-0.1-2.2,0-2.2,0s-1,0-0.8-0.6c0.2-0.6,1-2.5,2.3-3.1
		c1.3-0.6,2.6-0.7,3.2-0.5C68,99.5,67.9,99.8,67.8,100.1z"/>
	<path class="st23" d="M62.6,104.3l2.5-0.2c0,0,0.5,0,0.6,0.1c0.1,0.1,0,0.3-0.2,0.3c-0.2,0-0.6,0.1-0.2,0.3
		c0.4,0.2,0.5,0.5,0.5,0.5c0,0.1,0.4,0.4,0.7,0.4c0.3-0.1,0.3-0.4,0.3-0.4s0.1-0.3,0.1,0c0.1,0.2,0.6,2.2,0.6,2.2s0.2,0.7-0.4,0.7
		c-0.6,0.1-1.6,0.3-3.4-0.9s-1.6-2.7-1.6-2.7S62.3,104.3,62.6,104.3z"/>
</g>
<path class="st5" d="M34.6,88.6c0,0,1.5,14.3,12.7,22l-1.7,2.2c0,0-13.5-11.4-13.2-24L34.6,88.6z"/>
<path class="st5" d="M41.7,55.3c0,0,10.7-12.8,24.3-13.1l0.3,2.3c0,0-13.1,0.6-22.4,12.4L41.7,55.3z"/>
<path class="st5" d="M28.3,82.9c0,0-3.2-16.4,5.2-27.1l2,1.2c0,0-7.9,10.9-4.5,25.6L28.3,82.9z"/>
<path class="st5" d="M70.5,41.4c0,0,14.8-2.1,26.2,7.5L95.1,51c0,0-8.6-8.9-24.2-7.1L70.5,41.4z"/>
<path class="st5" d="M100.3,51.6c0,0,12.3,8.7,13.4,23.3l0,0l-2.4,0.3c0,0-2.1-13.7-12.4-21.9L100.3,51.6z"/>
<path class="st5" d="M118.3,81.5c0,0,1.6,14.3-6.3,23.9l1.7,1.3c0,0,9.5-11.8,7.1-25.6L118.3,81.5z"/>
<path class="st5" d="M80.1,116.4c0,0,13.2-0.9,21.7-12.8l1.8,1.4c0,0-8.5,12.1-23.2,13.7L80.1,116.4z"/>
<path class="st5" d="M51.2,112.3c0,0,9.2,7.7,25.1,6.2l0.3,2.6c0,0-15.4,1.5-26.7-7.2L51.2,112.3z"/>
<g>
	<ellipse transform="matrix(0.3895 -0.921 0.921 0.3895 -14.199 86.8686)" class="st5" cx="58.4" cy="54.1" rx="5.7" ry="5.7"/>
	<path class="st23" d="M60.3,51l-1.1,1.8c0,0-0.5,0.9,0.3,0.6c0.4-0.1,0.3-0.4,0.5-0.3c0,0,0.3,0.2,0.1,0.9
		c-0.2,0.7-0.5,0.8-0.5,0.8s-0.1,0-0.1,0c-0.1-0.1-0.4-0.1-0.4,0.1c0,0.1,0,0.5,0,0.5l0.9,2.6c0,0,0.3,0.4,0.7,0.1
		c0.4-0.2,1.8-1.7,2-3.1c0.1-1.4-0.3-3.1-1.4-4.2C60.6,50.1,60.3,51,60.3,51z"/>
	<path class="st23" d="M59.4,50.3l-0.9,2.3c0,0,0,0.3-0.3,0.2c-0.2-0.1-0.3-0.2-0.3-0.2c0-0.1,0-0.4-0.1-0.3s-1,0.2-1.5,0.7
		c0,0,0,0.1,0.3,0.3c0.3,0.1,0.3,0.5,0,0.4c-0.3-0.1-2.2,0-2.2,0s-1,0-0.8-0.6s1-2.5,2.3-3.1s2.6-0.7,3.2-0.5
		C59.6,49.7,59.5,50,59.4,50.3z"/>
	<path class="st23" d="M54.1,54.5l2.5-0.2c0,0,0.5,0,0.6,0.1c0.1,0.1,0,0.3-0.2,0.3c-0.2,0-0.6,0.1-0.2,0.3c0.4,0.2,0.5,0.5,0.5,0.5
		s0.4,0.4,0.7,0.4c0.3-0.1,0.3-0.4,0.3-0.4s0.1-0.3,0.1,0c0.1,0.2,0.6,2.2,0.6,2.2s0.2,0.7-0.4,0.7s-1.6,0.3-3.4-0.9
		s-1.6-2.7-1.6-2.7S53.9,54.6,54.1,54.5z"/>
</g>
<g>
	<path class="st24" d="M14.9,51.7l12.4-7.6c0,0,6.6,8.9,6,13.9s-1.9,6.2-1.9,6.2s-1.5,4.7-1.2,8.1c0.3,3.4,1,8.4-2,8.4
		s-4.2-1.2-4.3-4.2c-0.2-3,0.6-11.1-2.9-14.3c0,0,2,1.4,2.9,8.5c0.2,1.9-0.9,12.8-0.9,12.8l-6.8-7.2c0,0-2.3-2.4-1.3-5.6
		S16.5,55.1,14.9,51.7z"/>
	<polygon class="st6" points="1.5,35.1 13,55.4 30.6,45 19.5,30.5 1.3,31.6 	"/>
</g>
<g>
	<path class="st24" d="M122.8,120.9l13.3-7.8l0.6-17c0,0-0.4-3.7-1.9-5.4s-8.7-10.2-8.7-10.2l0.5,15c0,0,2.5,4.9,3,8.4
		c0,0-2.1-6.9-3.2-9c0,0-0.5-3.8-0.3-4.6c0.1-0.8,0.3-4.8-2.9-4.7s-3.1,3-3,4.3s1.3,5.2-0.6,10.5c-1.9,5.3-2.8,9.3-1,13.3
		C118.5,113.6,121,118.3,122.8,120.9z"/>
	<polygon class="st6" points="118.4,120.8 137.2,108.5 141.8,115.1 122.2,126.6 	"/>
	<polygon class="st6" points="131.2,138.1 123.1,124.9 140,114.1 150,130 150,137 	"/>
</g>
</svg>
