<?xml version="1.0" standalone="no"?>
<!DOCTYPE svg PUBLIC "-//W3C//DTD SVG 1.1//EN" "http://www.w3.org/Graphics/SVG/1.1/DTD/svg11.dtd" >
<svg xmlns="http://www.w3.org/2000/svg" xmlns:xlink="http://www.w3.org/1999/xlink" version="1.1">
<metadata></metadata>
<defs>
<font id="radon_decoregular" horiz-adv-x="547" >
<font-face units-per-em="1000" ascent="750" descent="-250" />
<missing-glyph horiz-adv-x="500" />
<glyph horiz-adv-x="0" />
<glyph horiz-adv-x="333" />
<glyph unicode=" "  horiz-adv-x="500" />
<glyph unicode="&#x09;" horiz-adv-x="500" />
<glyph unicode="&#xa0;" horiz-adv-x="500" />
<glyph unicode="!" horiz-adv-x="300" d="M0 201v499h165v-499h-165zM101 265v371h-37v-371h37zM0 0v165h165v-165h-165zM101 64v37h-37v-37h37z" />
<glyph unicode="$" horiz-adv-x="800" d="M258 424v366h64v-194h37v105h299v-169h-336v-120zM422 596h173v41h-173v-41zM616 315q21 -18 31 -40t11 -45t-6 -45t-21 -38q-18 -21 -45.5 -32t-59.5 -10h-104v-194h-63v194h-37v-105h-314v169h351v144l-37 7v-125h-64v136q-41 7 -74 13q-29 5 -54.5 9.5t-31.5 6.5 q-74 22 -88 90q-6 30 1 57t24.5 47t44 31.5t60.5 10.5h91v-64h-95q-34 0 -51.5 -19t-11.5 -51q1 -3 2.5 -8t6 -11t12.5 -12t22 -10q1 0 12.5 -2.5t29 -5.5t39 -6.5t44.5 -7.5q53 -10 118 -21v127h63v-336h105q38 -2 56 20q12 14 12 37t-20 40q-5 4 -9.5 6.5t-16.5 5.5t-35 7 t-65 12v65q47 -9 75 -14t45.5 -9.5t27 -10t19.5 -13.5zM258 105h-186v-42h186v42z" />
<glyph unicode="&#x26;" horiz-adv-x="808" d="M305 370l256 -370h-348q-47 0 -81.5 24.5t-51 61t-12 79t36.5 77.5l100 111l37 -53l-90 -101q-18 -20 -20.5 -43.5t7 -43.5t29 -34t45.5 -14h227l-440 636h77l191 -276l26 29l-166 248h239q34 0 58.5 -18t36.5 -44t8.5 -56.5t-25.5 -55.5zM338 502l60 67q9 10 10 21.5 t-3.5 22t-14.5 17.5t-23 7h-120zM391 423l284 -423h-77l-251 374z" />
<glyph unicode="(" horiz-adv-x="429" d="M310 515h-240v-330h46v300h70v-415h52v45h-22v70h93v-185h-193v115h-116v470h116v115h194v-185zM186 630v-45h54v45h-54z" />
<glyph unicode=")" horiz-adv-x="429" d="M0 186h240v329h-46v-300h-70v415h-52v-45h22v-70h-93v185h193v-115h116v-470h-116v-115h-194v186zM124 70v45h-54v-45h54z" />
<glyph unicode="+" d="M376 414v-167h-104v-104h-168v104h-104v167h104v104h168v-104h104zM167 455v-41h41v41h-41zM208 351h-41v-41h41v41zM63 310h41v41h-41v-41zM208 206v41h-41v-41h41zM313 310v41h-41v-41h41z" />
<glyph unicode="," horiz-adv-x="316" d="M167 167v-167l-46 -71h-76l47 71h-92v167h167zM63 104v-41h41v41h-41z" />
<glyph unicode="-" d="M0 247v167h376v-167h-376zM313 310v41h-250v-41h250z" />
<glyph unicode="." horiz-adv-x="316" d="M0 -1v168h167v-168h-167zM104 63v41h-41v-41h41z" />
<glyph unicode="/" horiz-adv-x="934" d="M0 0l586 701h223l-585 -701h-224zM194 64l479 573h-57l-480 -573h58z" />
<glyph unicode="0" horiz-adv-x="710" d="M282 701q58 0 109.5 -22.5t89.5 -60.5t60.5 -89.5t22.5 -109.5v-137q0 -59 -22.5 -110t-60.5 -89.5t-89.5 -60.5t-109.5 -22q-57 0 -108 21t-91 61l-23 23l74 74q-11 16 -18 31l-78 -78l-18 45q-20 51 -20 105v137q0 58 22 109.5t60.5 89.5t89.5 60.5t110 22.5zM500 419 q0 45 -17 84.5t-47 69.5t-69.5 47t-84.5 17t-84.5 -17t-69.5 -47t-47 -69.5t-17 -84.5v-137v-16t2 -16l181 181l90 90q-26 14 -55 14q-24 0 -45.5 -9.5t-37.5 -25.5t-25.5 -37.5t-9.5 -45.5v-30l-64 -63v93q0 37 14.5 70t39 58t57.5 39t71 14q18 0 35 -3.5t34 -9.5 q20 -8 34 -18t24 -20q11 -11 20 -23l-263 -263q2 -10 5.5 -21.5t18.5 -29.5q19 -23 42.5 -33.5t49.5 -10.5q24 0 45.5 9.5t37.5 25.5t25.5 37.5t9.5 45.5l-1 68l-149 -148q-12 4 -25.5 13.5t-23.5 27.5l246 244q6 -8 11 -22t5 -31v-152q0 -38 -14 -71t-39 -57.5t-58 -39 t-70 -14.5q-57 0 -103 32l-27 -27q57 -43 130 -43q45 0 84.5 17t69.5 47t47 69.5t17 84.5v137z" />
<glyph unicode="1" horiz-adv-x="527" d="M292 557l96 108v-665h-161v359l60 68l1 -367h39v445l-122 -138h-205l292 334v-144zM179 427l53 61v53l-99 -114h46z" />
<glyph unicode="2" horiz-adv-x="809" d="M240 169h420v-169h-660v286q123 53 226 97q44 19 87.5 37.5t80.5 35t64 28.5t38 17h46q14 -3 18.5 -12.5t5.5 -20.5q-26 -16 -67 -36t-89.5 -41.5t-100 -44t-98.5 -42t-86 -35.5t-61 -26v-51q9 4 41.5 18t78 33.5t99 42.5t103.5 45t91.5 40.5t63.5 28.5q45 22 53 55 q10 32 -7 54.5t-59 22.5h-525v169h480q30 0 56 -9t44.5 -24.5t29.5 -37.5t11 -48v-11t-1 -13q20 -20 29.5 -46t6.5 -54q-3 -36 -27 -66t-64 -49q-17 -8 -47.5 -21.5t-69 -30.5t-82.5 -36t-87 -38q-101 -44 -218 -94v-59h533v41h-505zM66 596h201t136 -0.5t84.5 -0.5 t45.5 -0.5t19.5 -1t6.5 -0.5q-6 20 -26.5 32t-49.5 12h-417v-41z" />
<glyph unicode="3" horiz-adv-x="807" d="M467 425q11 0 24 -3q11 -2 26.5 -7.5t33.5 -15.5q44 -25 69.5 -71t25.5 -112q0 -45 -17 -84t-46.5 -68.5t-68.5 -46.5t-84 -17h-430v167h430q20 0 34.5 14.5t14.5 34.5t-14.5 34.5t-34.5 14.5h-324l139 104h-181l184 138h105l-100 -75h76l135 101h-463v168h609l-138 -104 h181l-358 -269h135q23 0 43.5 -9t35.5 -24t24 -35.5t9 -43.5t-9 -43.5t-24 -35.5t-35.5 -24t-43.5 -9h-367v-41h367q31 0 59 12t49 33t33 48.5t12 59.5t-12 60t-33 48.5t-49 32.5t-59 12h-36zM421 638h-357v-41h303z" />
<glyph unicode="4" horiz-adv-x="855" d="M703 371h-105v-41h105v-330h-169v239h64v-175h41v202h-593l93 105h-139l291 330h227l-330 -371h346v371h169v-330zM598 637v-202h41v202h-41zM141 435h55l180 202h-56zM260 371l58 64h189v-64h-247z" />
<glyph unicode="5" horiz-adv-x="810" d="M444 434q45 0 84.5 -17t69 -46.5t46.5 -69t17 -84.5t-17 -84.5t-46.5 -69t-69 -46.5t-84.5 -17h-444v168h444q20 0 34.5 14.5t14.5 34.5t-14.5 34.5t-34.5 14.5h-339v105h-105v225h105v105h549v-168h-460v63h397v41h-423l-1 -176h-62v72h-42v-99h381zM444 63q32 0 60 12 t49 33t33 49t12 60t-12 60t-33 49t-49 33t-60 12h-276v-41h276q23 0 43.5 -9t35.5 -24.5t24 -36t9 -43.5t-9 -43.5t-24 -35.5t-35.5 -24t-43.5 -9h-381v-42h381z" />
<glyph unicode="6" horiz-adv-x="761" d="M384 436q54 0 97 -18.5t72.5 -49t45 -69.5t15.5 -81q0 -45 -17 -84.5t-47 -69.5t-69.5 -47t-84.5 -17h-178q-45 0 -84.5 17t-69.5 47t-47 69.5t-17 84.5q0 40 14 77t39.5 65.5t61 48t78.5 25.5q13 2 21.5 2h29.5l155 201h-57l-130 -171q-55 -3 -95 -20l193 255h218 l-285 -370h141q31 0 54.5 -10t39.5 -25.5t23.5 -36t7.5 -41.5q0 -23 -9 -43.5t-24.5 -36t-36 -24.5t-43.5 -9h-178q-23 0 -43.5 9t-36 24.5t-24.5 36t-9 43.5q0 37 25 71l63 81q-27 -5 -51 -18t-41 -33.5t-27 -46t-10 -54.5q0 -32 12 -60t33 -49t49 -33t60 -12h178 q32 0 60 12t49 33t33 49t12 60t-12 60t-33 49t-49 33t-60 12h-81l48 64h21zM218 267q-25 0 -38 -18q-11 -14 -11 -31q0 -20 14.5 -34.5t34.5 -14.5h178q20 0 34.5 14.5t14.5 34.5t-14.5 34.5t-34.5 14.5h-178z" />
<glyph unicode="7" horiz-adv-x="842" d="M579 598h130l-489 -598h-220l423 508h82l-372 -445h57l387 472h-541v166h629zM497 598l34 40h-432v-40h398z" />
<glyph unicode="8" horiz-adv-x="728" d="M440 86q30 0 42 0.5t26 3.5q-7 -39 -36 -64.5t-70 -25.5h-243q-26 0 -46.5 10t-35 27t-21 39t-3.5 45q-33 14 -47 48q-11 26 -6 53t25 47l4 4t11 7.5t33 22t71 47.5l-125 87q-20 20 -25.5 47.5t5.5 53.5q15 36 56 52q5 1 10.5 2t19 2t36.5 1h61.5h96h139.5 q-1 -6 -5.5 -13.5t-17.5 -14.5q-16 -10 -30.5 -19t-25.5 -17h-165l106 -76q35 26 64 46q24 17 45.5 32t24.5 17q31 20 31 45q-1 17 -12.5 29.5t-30.5 12.5h-230q-22 0 -37 -15q-23 0 -35.5 0.5t-20 0.5h-11t-8.5 -1q13 36 44 57.5t68 21.5h230q33 0 59.5 -17.5t39.5 -48.5 q9 -24 8 -47q36 -12 53 -50q12 -29 4.5 -58t-28.5 -47l-121 -83l119 -81q17 -18 23 -39.5t2 -42.5t-17 -38.5t-34 -27.5q-16 -5 -32 -6.5t-26 -1.5h-20.5t-38 -0.5t-49 -0.5h-53.5h-142q1 8 5.5 13.5t14 12.5t24 15.5t35.5 22.5h150l-98 70l-51 -37l-15 -9.5t-32 -21 t-32 -21t-15 -10.5q-14 -12 -17.5 -26t0.5 -27t15 -21.5t26 -8.5h243q17 0 26 8t12 14zM79 178q2 2 3 3.5t5 4.5t14.5 10.5t32 23t57 40.5t89.5 64q2 -1 17.5 -12t37.5 -26.5t47 -33.5t47 -34t36.5 -27t16.5 -13q11 5 15.5 19t-5.5 26l-188 126l195 135q10 11 5.5 25.5 t-17.5 19.5l-4.5 -6t-6 -6t-15.5 -12t-33 -23.5t-57.5 -41t-90.5 -64.5l-197 142q-7 7 -9 11q-13 -5 -17.5 -19.5t5.5 -25.5l195 -135l-188 -126q-10 -12 -5.5 -26t15.5 -19z" />
<glyph unicode="9" horiz-adv-x="761" d="M229 265q-54 0 -96.5 18.5t-72 48.5t-45 69.5t-15.5 81.5q0 45 17 84.5t47 69.5t69.5 47t84.5 17h178q45 0 84.5 -17t69.5 -47t47 -69.5t17 -84.5q0 -32 -9 -61.5t-25 -55.5q-2 -2 -9 -12t-19.5 -23t-30.5 -26.5t-41 -22.5q-22 -8 -49 -13t-61 -4l-155 -201h57l130 171 q28 1 51.5 6.5t43.5 13.5l-193 -255h-219l286 370h-142q-31 0 -54.5 10t-39 25.5t-23 36t-7.5 41.5q0 23 9 43.5t24.5 36t36 24.5t43.5 9h178q23 0 43.5 -9t36 -24.5t24.5 -36t9 -43.5q0 -19 -7 -36.5t-18 -34.5l-63 -81q27 4 51 17.5t41 34t27 46t10 54.5q0 32 -12 60 t-33 49t-49 33t-60 12h-178q-32 0 -60 -12t-49 -33t-33 -49t-12 -60t12 -60t33 -49t49 -33.5t60 -12.5h81l-48 -63h-22zM396 433q24 0 38 19q11 14 11 31q0 20 -14.5 34.5t-34.5 14.5h-178q-20 0 -34.5 -14.5t-14.5 -34.5t14.5 -35t34.5 -15h178z" />
<glyph unicode=":" horiz-adv-x="316" d="M0 248v167h167v-167h-167zM104 311v41h-41v-41h41zM0 0v168h167v-168h-167zM104 64v41h-41v-41h41z" />
<glyph unicode=";" horiz-adv-x="316" d="M0 247v167h167v-167h-167zM104 310v41h-41v-41h41zM167 167v-167l-46 -71h-76l47 71h-92v167h167zM63 104v-41h41v41h-41z" />
<glyph unicode="=" d="M0 38v185h417v-185h-417zM347 108v45h-277v-45h277zM0 275v185h417v-185h-417zM347 345v45h-277v-45h277z" />
<glyph unicode="?" horiz-adv-x="699" d="M314 0h-168v169h168v-169zM209 64h42v41h-42v-41zM483 583q38 -17 55.5 -49.5t9.5 -77.5q-5 -23 -17 -40t-25 -29t-23.5 -18t-11.5 -6q-19 -9 -40 -18q-18 -8 -41.5 -17.5t-47.5 -20.5q-14 -6 -22 -18.5t-8 -27.5v-38h-164v62q0 59 32.5 107.5t87.5 71.5q31 13 51.5 21.5 t34 15t22.5 12t17 11.5q17 11 22.5 26t5.5 27q-1 23 -20 41.5t-60 18.5h-277v-41h323q6 -12 4.5 -22.5t-7.5 -19t-15 -14t-17 -8.5h-352v169h341q30 0 56 -8.5t44.5 -24.5t29.5 -37.5t12 -47.5zM485 468q3 17 -1.5 29.5t-13.5 18.5q-3 -7 -7 -13t-9 -11q-11 -11 -28.5 -23.5 t-29.5 -17.5q-17 -9 -42.5 -20t-60.5 -26q-37 -15 -59 -47.5t-22 -71.5h39q6 26 23 47t43 32q47 20 78 34t50.5 25.5t28.5 21.5t11 22z" />
<glyph unicode="@" horiz-adv-x="1010" d="M781 675v-371h-103v-102h-165v102h-39v-102h-96q-35 0 -66 14.5t-54.5 38.5t-37.5 56.5t-14 68.5v11q0 37 14 69.5t37.5 57.5t54.5 39.5t66 14.5h198v-178h-63v116h-135q-22 0 -42 -9.5t-35 -26t-24 -38t-9 -45.5v-11q0 -23 9 -44t24 -37t35 -25.5t42 -9.5h33v143h-20 q-8 0 -14 -6t-6 -14q0 -16 14 -19v-63q-32 2 -54.5 25.5t-22.5 56.5q0 34 24 58t59 24h82v-102h116v-63h-13v-40h40v322h62v-219h41v245h-355q-40 0 -76 -17t-63.5 -46.5t-43.5 -68t-16 -80.5v-28q0 -42 16 -80t43.5 -67.5t63.5 -46.5t76 -17h304v-164h-337q-68 0 -128 28 t-105 75.5t-71.5 111t-26.5 134.5v80q0 70 27 133.5t72.5 112t105.5 77t126 28.5h347v-102h103zM616 675v40h-285q-54 0 -102.5 -23.5t-85.5 -63.5t-59 -92t-22 -110v-80q0 -57 22 -109t59 -91.5t85.5 -63t102.5 -23.5h274v40h-241q-53 0 -100.5 22t-83 59t-56.5 86.5 t-21 105.5v28q0 56 21 106t56.5 87.5t83 59.5t100.5 22h252z" />
<glyph unicode="A" horiz-adv-x="880" d="M640 197l87 -198h-186l-58 135h-354l-31 -71h46l19 44h70l-47 -108h-186l87 199h115l19 42h-115l203 460l55 -128l55 126l204 -458h-117l77 -177h46l-31 70h-17l-26 64h85zM204 304h44l81 187l-21 50zM347 304h178l-105 236l-21 -49l69 -161h-69l-35 81l-92 -213l184 -1 l-19 43h-118z" />
<glyph unicode="B" horiz-adv-x="810" d="M443 700q45 -1 82.5 -17t66 -43t46 -62t21.5 -73.5t-6.5 -78.5t-37.5 -76q26 -35 37 -74t7.5 -77t-20.5 -73t-45 -62.5t-66 -45t-85 -19.5h-338v105h-105v226h105v40h-105v225h105v105h338zM528 351q9 8 20.5 19.5t22.5 27t18.5 36.5t7.5 49q0 32 -12 60t-33 49t-49 33 t-60 12h-275v-42h275q23 0 43.5 -9t36 -24t24.5 -35.5t9 -43.5q0 -24 -9 -44.5t-24.5 -35.5t-36 -24t-43.5 -9h-248v63h248q20 0 34.5 14.5t14.5 35.5q0 20 -14.5 34.5t-34.5 14.5h-379v-99h41v72h63v-175h275q23 0 43.5 -9t36 -24.5t24.5 -36t9 -43.5t-9 -43.5t-24.5 -36 t-36 -24.5t-43.5 -9h-248v64h248q20 0 34.5 14.5t14.5 34.5t-14.5 34.5t-34.5 14.5h-379v-98h41v70h63v-175h275q32 0 60 12t49 33t33 49t12 60q0 27 -7.5 48t-18.5 37t-22.5 27.5t-20.5 19.5l1 1z" />
<glyph unicode="C" horiz-adv-x="804" d="M655 424h-171v78h65v-14h41v42h-234q-33 0 -62.5 -9.5t-53 -27.5t-40.5 -43t-24 -55q-12 -45 0 -90q7 -30 24 -55t40.5 -43t53 -27.5t62.5 -9.5h101v-65h-101q-44 0 -83.5 13.5t-71.5 37.5t-55 58t-33 75q-8 30 -7.5 61t7.5 61q10 41 33 74.5t55 57.5t71.5 37.5 t83.5 13.5h128v42h-134q-49 0 -94 -16t-81.5 -44.5t-63 -68t-38.5 -87.5q-8 -34 -8.5 -69.5t8.5 -70.5q12 -48 38.5 -87.5t63 -68t81.5 -44.5t94 -16h134v212h171v-170h-106v-107h-199q-60 0 -115.5 19.5t-100.5 54.5t-77 84t-47 108q-21 84 0 170q15 58 47.5 107t77.5 84 t100 54.5t115 19.5h199v-106h106v-170zM549 170h41v42h-41v-42z" />
<glyph unicode="D" horiz-adv-x="804" d="M644 435q21 -86 0 -170q-15 -59 -47 -108t-77 -84t-100.5 -54.5t-115.5 -19.5h-198v107h-106v488h106v106h198q60 0 115.5 -19.5t100.5 -54.5t77 -84t47 -107zM582 280q17 70 0 140q-12 48 -38.5 87.5t-63 68t-82 44.5t-94.5 16h-134v-42h129q44 0 83.5 -13.5t71.5 -37.5 t54.5 -57.5t32.5 -74.5q15 -63 0 -122q-10 -41 -32.5 -75t-54.5 -58t-71.5 -37.5t-83.5 -13.5h-101v65h101q33 0 62 9.5t53 27.5t40.5 43t24.5 55q11 46 0 90q-8 30 -24.5 55t-40.5 43t-53 27.5t-62 9.5h-235v-360h42v332h64v-438h134q49 0 94.5 16t82 44.5t63 68t38.5 87.5 z" />
<glyph unicode="E" horiz-adv-x="811" d="M637 700v-169h-441v64h377v42h-404v-176h-64v70h-41v-97h439v-169h-307v64h243v42h-270v-176h-64v70h-41v-97h573v-169h-532v106h-105v224h105v42h-105v224h105v105h532zM169 105v-42h404v42h-404z" />
<glyph unicode="F" horiz-adv-x="811" d="M637 700v-169h-442v64h378v42h-404v-176h-64v70h-41v-97h439v-169h-308v64h244v42h-270v-372h-169v330h105v42h-105v224h105v105h532zM105 63v202h-41v-202h41z" />
<glyph unicode="G" horiz-adv-x="804" d="M657 436v-330h-106v-107h-199q-60 0 -115.5 19.5t-100.5 54.5t-77 84t-47 108q-10 38 -10.5 81.5t10.5 88.5q15 58 47.5 107t77.5 84t100 54.5t115 19.5h199v-170h-193q-33 0 -62.5 -9.5t-53 -27.5t-40.5 -43t-24 -55q-6 -21 -6.5 -44t6.5 -46q7 -30 24 -55t40.5 -43 t53 -27.5t62.5 -9.5h101v-65h-101q-44 0 -83.5 13.5t-71.5 37.5t-55 58t-33 75q-15 60 0 122q10 41 33 74.5t55 57.5t71.5 37.5t83.5 13.5h128v42h-134q-49 0 -94 -16t-81.5 -44.5t-63 -68t-38.5 -87.5q-18 -67 0 -140q12 -48 38.5 -87.5t63 -68t81.5 -44.5t94 -16h134v372 h171zM592 371h-41v-201h41v201z" />
<glyph unicode="H" horiz-adv-x="803" d="M105 239h64v-240h-169v330h105v42h-105v329h169v-371h271v-64h-376v-202h41v176zM64 434h41v203h-41v-203zM468 700h169v-329h-106v-42h106v-330h-169v372h-273v63h378v203h-42v-175h-63v238zM573 265h-42v-202h42v202z" />
<glyph unicode="I" horiz-adv-x="305" d="M0 0v701h169v-701h-169zM105 64v574h-41v-574h41z" />
<glyph unicode="J" horiz-adv-x="811" d="M468 701h169v-595h-1h-105v-106h-362h-64v106h-105v227h169v-269h299v42h-272v63h377v469h-42v-441h-63v504zM105 169v100h-41v-100h41z" />
<glyph unicode="K" horiz-adv-x="830" d="M313 330h122l293 -330h-224l-214 240h85l157 -176h55l-180 202h-212v64h53v42h-79v-372h-169v330h105v42h-105v329h169v-238h-64v175h-41v-203h343l180 203h-55l-156 -175h-85l213 238h224l-293 -329h-123zM105 64v202h-41v-202h41z" />
<glyph unicode="L" horiz-adv-x="803" d="M196 168h445v-169h-536v106h-105v0v595h169v-637h409v42h-382v63zM105 168v469h-41v-469h41z" />
<glyph unicode="M" horiz-adv-x="818" d="M552 538l103 116v-655h-166v335l63 71v-343h40v428l-265 -297l-136 152v94l136 -152l162 181v65l-164 -186l-160 185v-533h-165v655l103 -116v162l223 -258l226 257v-161zM103 62v382l-41 46v-428h41z" />
<glyph unicode="N" horiz-adv-x="820" d="M481 700h163v-646l-101 103v-158l-482 506v-444h40v357l62 -63v-356h-163v658l101 -104v147l354 -367v-88l-292 305v-61l318 -338v549zM583 204v439h-40v-399z" />
<glyph unicode="O" horiz-adv-x="848" d="M597 371q3 -21 0 -41h107q-3 -31 -6.5 -52.5t-13.5 -48.5q-18 -51 -51 -93.5t-76.5 -72.5t-95.5 -46.5t-109 -16.5q-58 0 -111 17t-96.5 48.5t-76.5 75.5t-50 97q-17 47 -18 92h106q-1 20 0 41h-106q2 24 6 47t14 50q19 51 52 94t76.5 74t95 48t108.5 17q56 0 107 -16.5 t94 -47t75.5 -72.5t51.5 -93q11 -27 16.5 -49.5t7.5 -51.5h-107zM219 266q-12 17 -16.5 34t-6.5 30h338q5 26 -1.5 52.5t-18.5 51.5q-23 45 -66 72t-96 27q-45 0 -82.5 -19t-63.5 -52h-74q31 61 89.5 98t130.5 37q39 0 75.5 -12t67 -33.5t53.5 -51.5t36 -66h42 q-14 45 -40.5 82.5t-62.5 64t-79.5 41.5t-91.5 15t-92 -15t-80 -41.5t-62.5 -63.5t-40.5 -82l407 -1q13 -17 17.5 -34.5t6.5 -28.5h-338q-3 -29 2.5 -55.5t16.5 -49.5q21 -42 65 -70.5t98 -28.5q44 0 81.5 19.5t63.5 52.5h75q-32 -62 -90.5 -98.5t-129.5 -36.5 q-39 0 -75.5 11.5t-67 33t-53.5 51.5t-36 66h-43q14 -45 40.5 -82t62.5 -64t80 -42t92 -15t91.5 15t79.5 42t62.5 64t40.5 82h-407z" />
<glyph unicode="P" horiz-adv-x="805" d="M418 701q45 0 84.5 -17t69.5 -47t47 -69.5t17 -84.5t-17 -84.5t-47 -69.5t-69.5 -47t-84.5 -17h-222v64h222q32 0 60 12t49 33t33 49t12 60t-12 60t-33 49t-49 33t-60 12h-250v-177h-63v72h-41v-98h354q20 0 34.5 14.5t14.5 34.5t-14.5 34.5t-34.5 14.5h-222v64h222 q23 0 43.5 -9t36 -24.5t24.5 -36t9 -43.5t-9 -43.5t-24.5 -36t-36 -24.5t-43.5 -9h-250v-370h-168v329h105v41h-105v226h105v105h313zM105 265h-41v-202h41v202z" />
<glyph unicode="Q" horiz-adv-x="995" d="M870 0h-198q-25 34 -49 66q-20 27 -42 56t-37 49q-11 -11 -20 -17.5t-18 -12.5l63 -84q-15 -8 -34 -18t-43 -18.5t-53 -14.5t-64 -6q-84 0 -156.5 36.5t-123.5 103.5q-31 41 -49 87.5t-22 95t5 96.5t32 92q22 42 45.5 65.5t41.5 40.5q10 -14 15 -19.5t9.5 -12t12.5 -17.5 t26 -34q9 8 16 13.5t18 11.5q-8 11 -19 24.5t-21 26.5q-11 15 -23 30q17 11 34.5 21.5t37.5 18.5q43 16 96 20t107 -9t105.5 -44.5t92.5 -85.5q27 -36 43.5 -77.5t22.5 -85t1 -88t-21 -86.5zM585 222l60 -80t59 -79h39l-114 152q40 91 31 168t-56 140q-30 39 -68.5 65 t-81.5 38t-88.5 10.5t-87.5 -16.5q1 -1 15.5 -19.5t36 -46.5t48.5 -63t54 -69.5t51 -66.5t41 -53q-5 -20 -15 -35t-20 -24q-59 77 -112 145.5t-93 120.5q-32 -18 -53 -45t-28 -51q-16 -44 -9.5 -89.5t34.5 -83.5q26 -35 64 -53.5t81 -19.5l45 -59q-11 -2 -21.5 -3t-21.5 -1 q-59 0 -110.5 25t-86.5 73q-24 31 -36 67.5t-13.5 73.5t8.5 73.5t31 68.5q-7 10 -13.5 18t-11.5 16q-28 -38 -41.5 -81.5t-13.5 -88.5t14 -89t43 -82q42 -55 101.5 -85t128.5 -30q49 0 97 17q-55 74 -103 138q-21 27 -42 55t-40 53.5t-35 46t-25 33.5q7 20 17.5 34t19.5 22 q31 -42 63 -83.5t59.5 -78t48.5 -65t32 -43.5q26 14 48 40t32 55h-1q16 43 10 89t-35 84q-26 34 -62 52.5t-78 20.5l-48 60q66 10 130 -13t109 -82q23 -30 35 -65t13.5 -71.5t-7.5 -72t-28 -67.5z" />
<glyph unicode="R" horiz-adv-x="838" d="M672 0h-220q-47 53 -91 103q-19 21 -38.5 43.5t-38.5 44t-36.5 40.5t-30.5 34l-22 2v64l50 -2q46 -52 90 -100q19 -21 39 -43t39.5 -44t37 -42t32.5 -36h49l-233 267h118q38 1 66.5 15t48 35.5t29.5 48.5t10 54q0 32 -12 60t-33 48.5t-49 32.5t-60 12h-249v-175h-64v71 h-41v-98h354q20 0 34.5 14.5t14.5 34.5t-14.5 34.5t-34.5 14.5h-222v63h222q23 0 43.5 -9t35.5 -24t24 -35.5t9 -43.5t-9 -43.5t-24 -35.5t-35.5 -24t-43.5 -9h-249v-372h-168v331h104v41h-104v224h104v105h313q45 0 84.5 -17t69 -46.5t46.5 -69t17 -84.5q0 -36 -13 -72 t-37.5 -66t-61 -51t-84.5 -26zM104 267h-41v-204h41v204z" />
<glyph unicode="S" horiz-adv-x="814" d="M648 250q8 -38 -8.5 -73t-50.5 -55q-2 -34 -20 -61q-19 -27 -51.5 -44t-67.5 -17h-464v169h462q14 -5 21 -8t13 -7q15 -9 15.5 -23.5t-10.5 -25.5h-437v-41h400q24 0 42 11t26.5 27t6.5 34.5t-18 32.5q-8 8 -21 13.5t-26 10.5q-28 12 -68 29.5t-84 36.5t-87 37.5 t-77.5 33t-56.5 24l-22 9.5q-1 0 -11.5 5.5t-23.5 16t-25.5 26.5t-16.5 39q-8 45 10 80.5t55 52.5q1 25 12 47t30 37.5t44.5 24.5t55.5 9h454v-169h-530q-17 0 -28.5 -3.5t-18.5 -7.5q-12 -7 -18 -20.5t-4.5 -28.5t11 -28.5t28.5 -21.5q103 -44 178.5 -76t125.5 -54 t75.5 -33t30.5 -13q23 -10 39.5 -20.5t32.5 -36.5q15 17 15.5 37t-10.5 34q-7 9 -18 14.5t-28 12.5q-5 2 -28 11t-57.5 23t-76.5 31t-83.5 34.5t-79.5 34t-65 29.5q-12 6 -29.5 18t-28.5 25q6 5 13.5 8t19.5 3h61q95 -45 166 -74t121.5 -48.5t83.5 -33t53.5 -26.5t31 -29.5 t16.5 -42.5zM195 637q-29 0 -49 -11t-26 -30h465v41h-390z" />
<glyph unicode="T" horiz-adv-x="809" d="M341 701h299v-170h-341v-467h42v440h64v-504h-170v637h-171v-42h144v-64h-208v170h299v-106h42v106zM576 595v42h-171v-42h171z" />
<glyph unicode="U" horiz-adv-x="817" d="M472 701h170v-595h-105v-106h-431v106h-106v595h170v-637h302v42h-274v64h380v467h-41v-439h-65v503zM106 170v467h-42v-467h42z" />
<glyph unicode="V" horiz-adv-x="880" d="M540 701h187l-309 -701l-55 129l-55 -128l-308 700h187l176 -411zM307 161l21 49l-183 427h-47zM398 210l21 -50l210 477h-47z" />
<glyph unicode="W" horiz-adv-x="1195" d="M847 701h187l-309 -701l-56 129l-55 -128l-97 222l-99 -223l-55 129l-55 -128l-308 700h187l176 -411l153 355l153 -355zM307 161l21 49l-183 427h-47zM614 161l21 49l-119 274l-118 -274l21 -50l98 222zM704 210l22 -50l210 477h-47z" />
<glyph unicode="X" horiz-adv-x="871" d="M463 534v-212l293 -322h-227l-130 141v100h13l51 -60v-15l94 -102h55l-184 204h-70v-127l-129 -141h-229l262 286v-94l-118 -128h56l94 102v212l-294 323h229l129 -142v-100h-13l-51 60v15l-94 103h-55l183 -205h71v127l130 141h229l-262 -288v95l118 130h-57zM399 331 v37h-41v-37h41z" />
<glyph unicode="Y" horiz-adv-x="908" d="M472 482v-482h-169v266h64v-202h41v229h-88l-320 408h214l153 -197v-147h41v147l154 197h213l-276 -355v104l146 187h-52zM303 416v66l-121 155h-51z" />
<glyph unicode="Z" horiz-adv-x="815" d="M277 105l59 64h341v-169h-619l96 105h-154l364 400h86l-306 -336h69l331 363h-542v169h625l-95 -105h157l-486 -532h411v41h-337zM445 596l38 41h-405v-41h367z" />
<glyph unicode="\" horiz-adv-x="934" d="M223 701l586 -701h-224l-585 701h223zM136 637l479 -573h58l-480 573h-57z" />
<glyph unicode="a" horiz-adv-x="880" d="M640 197l87 -198h-186l-58 135h-354l-31 -71h46l19 44h70l-47 -108h-186l87 199h115l19 42h-115l203 460l55 -128l55 126l204 -458h-117l77 -177h46l-31 70h-17l-26 64h85zM204 304h44l81 187l-21 50zM347 304h178l-105 236l-21 -49l69 -161h-69l-35 81l-92 -213l184 -1 l-19 43h-118z" />
<glyph unicode="b" horiz-adv-x="810" d="M443 700q45 -1 82.5 -17t66 -43t46 -62t21.5 -73.5t-6.5 -78.5t-37.5 -76q26 -35 37 -74t7.5 -77t-20.5 -73t-45 -62.5t-66 -45t-85 -19.5h-338v105h-105v226h105v40h-105v225h105v105h338zM528 351q9 8 20.5 19.5t22.5 27t18.5 36.5t7.5 49q0 32 -12 60t-33 49t-49 33 t-60 12h-275v-42h275q23 0 43.5 -9t36 -24t24.5 -35.5t9 -43.5q0 -24 -9 -44.5t-24.5 -35.5t-36 -24t-43.5 -9h-248v63h248q20 0 34.5 14.5t14.5 35.5q0 20 -14.5 34.5t-34.5 14.5h-379v-99h41v72h63v-175h275q23 0 43.5 -9t36 -24.5t24.5 -36t9 -43.5t-9 -43.5t-24.5 -36 t-36 -24.5t-43.5 -9h-248v64h248q20 0 34.5 14.5t14.5 34.5t-14.5 34.5t-34.5 14.5h-379v-98h41v70h63v-175h275q32 0 60 12t49 33t33 49t12 60q0 27 -7.5 48t-18.5 37t-22.5 27.5t-20.5 19.5l1 1z" />
<glyph unicode="c" horiz-adv-x="804" d="M655 424h-171v78h65v-14h41v42h-234q-33 0 -62.5 -9.5t-53 -27.5t-40.5 -43t-24 -55q-12 -45 0 -90q7 -30 24 -55t40.5 -43t53 -27.5t62.5 -9.5h101v-65h-101q-44 0 -83.5 13.5t-71.5 37.5t-55 58t-33 75q-8 30 -7.5 61t7.5 61q10 41 33 74.5t55 57.5t71.5 37.5 t83.5 13.5h128v42h-134q-49 0 -94 -16t-81.5 -44.5t-63 -68t-38.5 -87.5q-8 -34 -8.5 -69.5t8.5 -70.5q12 -48 38.5 -87.5t63 -68t81.5 -44.5t94 -16h134v212h171v-170h-106v-107h-199q-60 0 -115.5 19.5t-100.5 54.5t-77 84t-47 108q-21 84 0 170q15 58 47.5 107t77.5 84 t100 54.5t115 19.5h199v-106h106v-170zM549 170h41v42h-41v-42z" />
<glyph unicode="d" horiz-adv-x="804" d="M644 435q21 -86 0 -170q-15 -59 -47 -108t-77 -84t-100.5 -54.5t-115.5 -19.5h-198v107h-106v488h106v106h198q60 0 115.5 -19.5t100.5 -54.5t77 -84t47 -107zM582 280q17 70 0 140q-12 48 -38.5 87.5t-63 68t-82 44.5t-94.5 16h-134v-42h129q44 0 83.5 -13.5t71.5 -37.5 t54.5 -57.5t32.5 -74.5q15 -63 0 -122q-10 -41 -32.5 -75t-54.5 -58t-71.5 -37.5t-83.5 -13.5h-101v65h101q33 0 62 9.5t53 27.5t40.5 43t24.5 55q11 46 0 90q-8 30 -24.5 55t-40.5 43t-53 27.5t-62 9.5h-235v-360h42v332h64v-438h134q49 0 94.5 16t82 44.5t63 68t38.5 87.5 z" />
<glyph unicode="e" horiz-adv-x="811" d="M637 700v-169h-441v64h377v42h-404v-176h-64v70h-41v-97h439v-169h-307v64h243v42h-270v-176h-64v70h-41v-97h573v-169h-532v106h-105v224h105v42h-105v224h105v105h532zM169 105v-42h404v42h-404z" />
<glyph unicode="f" horiz-adv-x="811" d="M637 700v-169h-442v64h378v42h-404v-176h-64v70h-41v-97h439v-169h-308v64h244v42h-270v-372h-169v330h105v42h-105v224h105v105h532zM105 63v202h-41v-202h41z" />
<glyph unicode="g" horiz-adv-x="804" d="M657 436v-330h-106v-107h-199q-60 0 -115.5 19.5t-100.5 54.5t-77 84t-47 108q-10 38 -10.5 81.5t10.5 88.5q15 58 47.5 107t77.5 84t100 54.5t115 19.5h199v-170h-193q-33 0 -62.5 -9.5t-53 -27.5t-40.5 -43t-24 -55q-6 -21 -6.5 -44t6.5 -46q7 -30 24 -55t40.5 -43 t53 -27.5t62.5 -9.5h101v-65h-101q-44 0 -83.5 13.5t-71.5 37.5t-55 58t-33 75q-15 60 0 122q10 41 33 74.5t55 57.5t71.5 37.5t83.5 13.5h128v42h-134q-49 0 -94 -16t-81.5 -44.5t-63 -68t-38.5 -87.5q-18 -67 0 -140q12 -48 38.5 -87.5t63 -68t81.5 -44.5t94 -16h134v372 h171zM592 371h-41v-201h41v201z" />
<glyph unicode="h" horiz-adv-x="803" d="M105 239h64v-240h-169v330h105v42h-105v329h169v-371h271v-64h-376v-202h41v176zM64 434h41v203h-41v-203zM468 700h169v-329h-106v-42h106v-330h-169v372h-273v63h378v203h-42v-175h-63v238zM573 265h-42v-202h42v202z" />
<glyph unicode="i" horiz-adv-x="305" d="M0 0v701h169v-701h-169zM105 64v574h-41v-574h41z" />
<glyph unicode="j" horiz-adv-x="811" d="M468 701h169v-595h-1h-105v-106h-362h-64v106h-105v227h169v-269h299v42h-272v63h377v469h-42v-441h-63v504zM105 169v100h-41v-100h41z" />
<glyph unicode="k" horiz-adv-x="830" d="M313 330h122l293 -330h-224l-214 240h85l157 -176h55l-180 202h-212v64h53v42h-79v-372h-169v330h105v42h-105v329h169v-238h-64v175h-41v-203h343l180 203h-55l-156 -175h-85l213 238h224l-293 -329h-123zM105 64v202h-41v-202h41z" />
<glyph unicode="l" horiz-adv-x="803" d="M196 168h445v-169h-536v106h-105v0v595h169v-637h409v42h-382v63zM105 168v469h-41v-469h41z" />
<glyph unicode="m" horiz-adv-x="818" d="M552 538l103 116v-655h-166v335l63 71v-343h40v428l-265 -297l-136 152v94l136 -152l162 181v65l-164 -186l-160 185v-533h-165v655l103 -116v162l223 -258l226 257v-161zM103 62v382l-41 46v-428h41z" />
<glyph unicode="n" horiz-adv-x="820" d="M481 700h163v-646l-101 103v-158l-482 506v-444h40v357l62 -63v-356h-163v658l101 -104v147l354 -367v-88l-292 305v-61l318 -338v549zM583 204v439h-40v-399z" />
<glyph unicode="o" horiz-adv-x="849" d="M598 371q3 -21 0 -41h107q-3 -31 -6.5 -52.5t-13.5 -48.5q-18 -51 -51 -93.5t-76.5 -72.5t-95.5 -46.5t-109 -16.5q-58 0 -111 17t-96.5 48.5t-76.5 75.5t-50 97q-17 47 -18 92h106q-1 20 0 41h-106q2 24 6 47t14 50q19 51 52 94t76.5 74t95 48t108.5 17q56 0 107 -16.5 t94 -47t75.5 -72.5t51.5 -93q11 -27 16.5 -49.5t7.5 -51.5h-107zM220 266q-12 17 -16.5 34t-6.5 30h338q5 26 -1.5 52.5t-18.5 51.5q-23 45 -66 72t-96 27q-45 0 -82.5 -19t-63.5 -52h-74q31 61 89.5 98t130.5 37q39 0 75.5 -12t67 -33.5t53.5 -51.5t36 -66h42 q-14 45 -40.5 82.5t-62.5 64t-79.5 41.5t-91.5 15t-92 -15t-80 -41.5t-62.5 -63.5t-40.5 -82l407 -1q13 -17 17.5 -34.5t6.5 -28.5h-338q-3 -29 2.5 -55.5t16.5 -49.5q21 -42 65 -70.5t98 -28.5q44 0 81.5 19.5t63.5 52.5h75q-32 -62 -90.5 -98.5t-129.5 -36.5 q-39 0 -75.5 11.5t-67 33t-53.5 51.5t-36 66h-43q14 -45 40.5 -82t62.5 -64t80 -42t92 -15t91.5 15t79.5 42t62.5 64t40.5 82h-407z" />
<glyph unicode="p" horiz-adv-x="805" d="M418 701q45 0 84.5 -17t69.5 -47t47 -69.5t17 -84.5t-17 -84.5t-47 -69.5t-69.5 -47t-84.5 -17h-222v64h222q32 0 60 12t49 33t33 49t12 60t-12 60t-33 49t-49 33t-60 12h-250v-177h-63v72h-41v-98h354q20 0 34.5 14.5t14.5 34.5t-14.5 34.5t-34.5 14.5h-222v64h222 q23 0 43.5 -9t36 -24.5t24.5 -36t9 -43.5t-9 -43.5t-24.5 -36t-36 -24.5t-43.5 -9h-250v-370h-168v329h105v41h-105v226h105v105h313zM105 265h-41v-202h41v202z" />
<glyph unicode="q" horiz-adv-x="995" d="M870 0h-198q-25 34 -49 66q-20 27 -42 56t-37 49q-11 -11 -20 -17.5t-18 -12.5l63 -84q-15 -8 -34 -18t-43 -18.5t-53 -14.5t-64 -6q-84 0 -156.5 36.5t-123.5 103.5q-31 41 -49 87.5t-22 95t5 96.5t32 92q22 42 45.5 65.5t41.5 40.5q10 -14 15 -19.5t9.5 -12t12.5 -17.5 t26 -34q9 8 16 13.5t18 11.5q-8 11 -19 24.5t-21 26.5q-11 15 -23 30q17 11 34.5 21.5t37.5 18.5q43 16 96 20t107 -9t105.5 -44.5t92.5 -85.5q27 -36 43.5 -77.5t22.5 -85t1 -88t-21 -86.5zM585 222l60 -80t59 -79h39l-114 152q40 91 31 168t-56 140q-30 39 -68.5 65 t-81.5 38t-88.5 10.5t-87.5 -16.5q1 -1 15.5 -19.5t36 -46.5t48.5 -63t54 -69.5t51 -66.5t41 -53q-5 -20 -15 -35t-20 -24q-59 77 -112 145.5t-93 120.5q-32 -18 -53 -45t-28 -51q-16 -44 -9.5 -89.5t34.5 -83.5q26 -35 64 -53.5t81 -19.5l45 -59q-11 -2 -21.5 -3t-21.5 -1 q-59 0 -110.5 25t-86.5 73q-24 31 -36 67.5t-13.5 73.5t8.5 73.5t31 68.5q-7 10 -13.5 18t-11.5 16q-28 -38 -41.5 -81.5t-13.5 -88.5t14 -89t43 -82q42 -55 101.5 -85t128.5 -30q49 0 97 17q-55 74 -103 138q-21 27 -42 55t-40 53.5t-35 46t-25 33.5q7 20 17.5 34t19.5 22 q31 -42 63 -83.5t59.5 -78t48.5 -65t32 -43.5q26 14 48 40t32 55h-1q16 43 10 89t-35 84q-26 34 -62 52.5t-78 20.5l-48 60q66 10 130 -13t109 -82q23 -30 35 -65t13.5 -71.5t-7.5 -72t-28 -67.5z" />
<glyph unicode="r" horiz-adv-x="838" d="M672 0h-220q-47 53 -91 103q-19 21 -38.5 43.5t-38.5 44t-36.5 40.5t-30.5 34l-22 2v64l50 -2q46 -52 90 -100q19 -21 39 -43t39.5 -44t37 -42t32.5 -36h49l-233 267h118q38 1 66.5 15t48 35.5t29.5 48.5t10 54q0 32 -12 60t-33 48.5t-49 32.5t-60 12h-249v-175h-64v71 h-41v-98h354q20 0 34.5 14.5t14.5 34.5t-14.5 34.5t-34.5 14.5h-222v63h222q23 0 43.5 -9t35.5 -24t24 -35.5t9 -43.5t-9 -43.5t-24 -35.5t-35.5 -24t-43.5 -9h-249v-372h-168v331h104v41h-104v224h104v105h313q45 0 84.5 -17t69 -46.5t46.5 -69t17 -84.5q0 -36 -13 -72 t-37.5 -66t-61 -51t-84.5 -26zM104 267h-41v-204h41v204z" />
<glyph unicode="s" horiz-adv-x="814" d="M648 250q8 -38 -8.5 -73t-50.5 -55q-2 -34 -20 -61q-19 -27 -51.5 -44t-67.5 -17h-464v169h462q14 -5 21 -8t13 -7q15 -9 15.5 -23.5t-10.5 -25.5h-437v-41h400q24 0 42 11t26.5 27t6.5 34.5t-18 32.5q-8 8 -21 13.5t-26 10.5q-28 12 -68 29.5t-84 36.5t-87 37.5 t-77.5 33t-56.5 24l-22 9.5q-1 0 -11.5 5.5t-23.5 16t-25.5 26.5t-16.5 39q-8 45 10 80.5t55 52.5q1 25 12 47t30 37.5t44.5 24.5t55.5 9h454v-169h-530q-17 0 -28.5 -3.5t-18.5 -7.5q-12 -7 -18 -20.5t-4.5 -28.5t11 -28.5t28.5 -21.5q103 -44 178.5 -76t125.5 -54 t75.5 -33t30.5 -13q23 -10 39.5 -20.5t32.5 -36.5q15 17 15.5 37t-10.5 34q-7 9 -18 14.5t-28 12.5q-5 2 -28 11t-57.5 23t-76.5 31t-83.5 34.5t-79.5 34t-65 29.5q-12 6 -29.5 18t-28.5 25q6 5 13.5 8t19.5 3h61q95 -45 166 -74t121.5 -48.5t83.5 -33t53.5 -26.5t31 -29.5 t16.5 -42.5zM195 637q-29 0 -49 -11t-26 -30h465v41h-390z" />
<glyph unicode="t" horiz-adv-x="809" d="M341 701h299v-170h-341v-467h42v440h64v-504h-170v637h-171v-42h144v-64h-208v170h299v-106h42v106zM576 595v42h-171v-42h171z" />
<glyph unicode="u" horiz-adv-x="817" d="M472 701h170v-595h-105v-106h-431v106h-106v595h170v-637h302v42h-274v64h380v467h-41v-439h-65v503zM106 170v467h-42v-467h42z" />
<glyph unicode="v" horiz-adv-x="880" d="M540 701h187l-309 -701l-55 129l-55 -128l-308 700h187l176 -411zM307 161l21 49l-183 427h-47zM398 210l21 -50l210 477h-47z" />
<glyph unicode="w" horiz-adv-x="1195" d="M847 701h187l-309 -701l-56 129l-55 -128l-97 222l-99 -223l-55 129l-55 -128l-308 700h187l176 -411l153 355l153 -355zM307 161l21 49l-183 427h-47zM614 161l21 49l-119 274l-118 -274l21 -50l98 222zM704 210l22 -50l210 477h-47z" />
<glyph unicode="x" horiz-adv-x="871" d="M463 534v-212l293 -322h-227l-130 141v100h13l51 -60v-15l94 -102h55l-184 204h-70v-127l-129 -141h-229l262 286v-94l-118 -128h56l94 102v212l-294 323h229l129 -142v-100h-13l-51 60v15l-94 103h-55l183 -205h71v127l130 141h229l-262 -288v95l118 130h-57zM399 331 v37h-41v-37h41z" />
<glyph unicode="y" horiz-adv-x="908" d="M472 482v-482h-169v266h64v-202h41v229h-88l-320 408h214l153 -197v-147h41v147l154 197h213l-276 -355v104l146 187h-52zM303 416v66l-121 155h-51z" />
<glyph unicode="z" horiz-adv-x="815" d="M277 105l59 64h341v-169h-619l96 105h-154l364 400h86l-306 -336h69l331 363h-542v169h625l-95 -105h157l-486 -532h411v41h-337zM445 596l38 41h-405v-41h367z" />
<glyph unicode="&#xad;" d="M0 247v167h376v-167h-376zM313 310v41h-250v-41h250z" />
<glyph unicode="&#xff;" horiz-adv-x="833" />
<glyph unicode="&#x2000;" horiz-adv-x="395" />
<glyph unicode="&#x2001;" horiz-adv-x="790" />
<glyph unicode="&#x2002;" horiz-adv-x="395" />
<glyph unicode="&#x2003;" horiz-adv-x="790" />
<glyph unicode="&#x2004;" horiz-adv-x="263" />
<glyph unicode="&#x2005;" horiz-adv-x="197" />
<glyph unicode="&#x2006;" horiz-adv-x="131" />
<glyph unicode="&#x2007;" horiz-adv-x="131" />
<glyph unicode="&#x2008;" horiz-adv-x="98" />
<glyph unicode="&#x2009;" horiz-adv-x="158" />
<glyph unicode="&#x200a;" horiz-adv-x="43" />
<glyph unicode="&#x2010;" d="M0 247v167h376v-167h-376zM313 310v41h-250v-41h250z" />
<glyph unicode="&#x2011;" d="M0 247v167h376v-167h-376zM313 310v41h-250v-41h250z" />
<glyph unicode="&#x2012;" d="M0 247v167h376v-167h-376zM313 310v41h-250v-41h250z" />
<glyph unicode="&#x2013;" horiz-adv-x="671" d="M0 247v167h500v-167h-500zM416 310v41h-332v-41h332z" />
<glyph unicode="&#x2014;" horiz-adv-x="1171" d="M0 247v167h1000v-167h-1000zM832 310v41h-664v-41h664z" />
<glyph unicode="&#x202f;" horiz-adv-x="158" />
<glyph unicode="&#x205f;" horiz-adv-x="197" />
<glyph unicode="&#x20ac;" horiz-adv-x="744" d="M359 530q-45 0 -83 -17.5t-64 -49.5h-76q31 60 90 95.5t133 35.5h222v42h-232q-48 0 -91.5 -14.5t-79.5 -41t-62.5 -63.5t-39.5 -82h377v-170h-221q-9 11 -16.5 27t-10.5 37h183v42h-214q-5 -41 7.5 -77.5t37.5 -64t61 -43.5t79 -16h286v-170h-296q-65 0 -123 21.5 t-103.5 60.5t-77 92.5t-41.5 117.5l-4 37h110q-2 21 0 42h-110l4 37q10 64 41.5 117.5t77 92.5t103.5 60.5t123 21.5h296v-170h-286zM76 265q13 -45 39.5 -82t62.5 -63.5t79.5 -41t91.5 -14.5h232v42h-222q-41 0 -78 11.5t-67.5 32t-53.5 50t-36 65.5h-48z" />
<glyph unicode="&#x25fc;" horiz-adv-x="700" d="M0 700h700v-700h-700v700z" />
</font>
</defs>
</svg>
