<?xml version="1.0" encoding="utf-8"?>
<!-- Generator: Adobe Illustrator 21.0.0, SVG Export Plug-In . SVG Version: 6.00 Build 0)  -->
<svg version="1.1" id="Layer_1" xmlns="http://www.w3.org/2000/svg" xmlns:xlink="http://www.w3.org/1999/xlink" x="0px" y="0px"
	 viewBox="0 0 150 150" style="enable-background:new 0 0 150 150;" xml:space="preserve">
<style type="text/css">
	.st0{fill:#D6D5D5;}
	.st1{fill:#F3DAC9;}
	.st2{fill-rule:evenodd;clip-rule:evenodd;fill:#8F8F95;}
	.st3{fill:#FFFFFF;stroke:#777777;stroke-width:0.2161;stroke-miterlimit:10;}
	.st4{fill:#98C673;}
	.st5{fill:#DB575D;}
	.st6{fill:#8ABD5C;}
	.st7{fill:none;stroke:#8F8F95;stroke-width:0.8928;stroke-miterlimit:10;}
	.st8{fill:#71B044;}
	.st9{fill:#5F605F;}
	.st10{fill:#FFFFFF;}
	.st11{fill:#FFFFFF;stroke:#BBBBBB;stroke-width:0.217;stroke-miterlimit:10;}
	.st12{fill:#D3C19C;}
	.st13{fill:#C5B292;}
	.st14{fill:#FDF1E8;}
	.st15{fill:#C2AD8C;}
	.st16{fill:#B26B6B;}
	.st17{fill:#FFFFFF;stroke:#BBBBBB;stroke-width:0.2307;stroke-miterlimit:10;}
	.st18{fill:none;stroke:#BBBBBB;stroke-width:0.1519;stroke-miterlimit:10;}
	.st19{fill:#F3DAC9;stroke:#BBBBBB;stroke-width:0.2053;stroke-miterlimit:10;}
	.st20{fill:none;stroke:#BBBBBB;stroke-width:0.219;stroke-miterlimit:10;}
	.st21{fill:none;}
	.st22{fill:none;stroke:#DB575D;stroke-width:8.335615e-02;stroke-miterlimit:10;}
	.st23{fill:#CE515E;}
	.st24{fill:#F3DAC9;stroke:#BBBBBB;stroke-width:0.2149;stroke-miterlimit:10;}
</style>
<g>
	<circle class="st0" cx="75.2" cy="79.2" r="64"/>
	<path class="st1" d="M27,121.3c0,0,13.5-9.9,15.6-24.6c2.2-14.7,0.7-22.6,0.7-22.6s-0.7-6.3,4.5-9.6c5.3-3.3,12.5-10.5,13.6-12.3
		s4.7-7.6,11.2-2c6.5,5.6,8.3,6.3,9.6,6.9c1.3,0.5,6.2,5.8,0,7.2c-6.2,1.4-9.4,0.4-12.7-1.8s-2.9,1.6-2.9,1.6s0.5,4.7,0,5.4
		c-0.5,0.7-0.3,32.9-0.3,32.9l33.5,0.6c0,0-7.6,13.7-15.9,15s-7.2-0.7-8.5,2.7c-1.3,3.4-5.7,17.8-8.8,22c0,0-7.4-1.4-12.7-3.2
		c-3.6-1.2-8.7-3.8-12.8-6.2c-7.2-4.2-14-11.9-14-11.9C27,121.3,27.1,121.6,27,121.3z"/>
	<path class="st2" d="M115.9,99.5c0,3.1-2.5,5.6-5.6,5.6H69.4c-3.1,0-5.6-2.5-5.6-5.6V12.4c0-3.1,2.5-5.6,5.6-5.6h40.9
		c3.1,0,5.6,2.5,5.6,5.6V99.5z"/>
	<path class="st3" d="M107.2,96.3H72.5c-2.6,0-4.7-2.5-4.7-5.6V16.8c0-3.1,2.1-2.2,4.7-2.2h34.6c2.6,0,4.7-0.9,4.7,2.2v73.9
		C111.9,93.8,109.8,96.3,107.2,96.3z"/>
	<g>
		<path class="st4" d="M91.3,42.3c0,0-0.7-3.3,1.6-4.7c0,0-0.1-2.2-1.7-1.2c0,0-2.9,4.1-2,5.8L91.3,42.3z"/>
		<path class="st5" d="M74.5,55.4c0-6.9,4.7-12.8,11.2-14.6c1.4-0.4,2.8,0.7,4.3,0.7c1.5,0,2.9-1.1,4.3-0.7
			c6.5,1.8,11.2,7.7,11.2,14.6c0,8.4-6.9,15.2-15.5,15.2S74.5,63.7,74.5,55.4z"/>
		<path class="st4" d="M79,43.8c0,0,3.6-1.6,5.6-1.6c0.3,0,2.7-0.6,5,1.8c0,0,6.6-2.8,9.9-1.3c0,0-2.6-2.4-5.1-2.4
			c-1.7,0-2.8,0.7-4.8,0.9C87.6,41.5,85.1,38.4,79,43.8z"/>
	</g>
	<path class="st1" d="M43.7,77.5c0,0-2.1-10.6,3.2-13.9c5.3-3.3,12.5-10.5,13.6-12.3s4.7-7.6,11.2-2c6.5,5.6,8.3,6.3,9.6,6.9
		c1.3,0.5,6.2,5.8,0,7.2c-6.2,1.4-9.6,0.6-12.7-1.8c-1.4-1.1-2.9,1.6-2.9,1.6s-7.9,13.4-8.5,14.2"/>
	<path class="st1" d="M114.6,49.8c0,0,6.2-6.2,9.6-0.2s-12.1,13.4-12.1,13.4s-2.8,1.7-4.6-1.6C105.2,57.5,114.6,49.8,114.6,49.8z"/>
	<path class="st6" d="M105.1,89H74.5c-1.1,0-2-0.9-2-2v-1.5c0-1.1,0.9-2,2-2h30.6c1.1,0,2,0.9,2,2V87C107.1,88.1,106.2,89,105.1,89z
		"/>
	<path class="st1" d="M106.8,90c0.4-0.2,9.1-4.9,9.1-4.9s4.2-1.2,5.9,1.4c1.7,2.5,0.6,6-2.6,7.5c-3.3,1.5-10.1,4.4-10.1,4.4
		s-4.4,1.6-5.7-1.8C101.9,92.9,106.8,90,106.8,90z"/>
	<line class="st7" x1="72.5" y1="77.4" x2="107.1" y2="77.4"/>
	<line class="st7" x1="72.5" y1="79.4" x2="107.1" y2="79.4"/>
	<path class="st1" d="M101.3,70.8c0.4-0.2,13.8-7.6,13.8-7.6s4.2-1.2,5.9,1.4c1.7,2.5,0.6,6-2.6,7.5c-3.3,1.5-14.8,7.1-14.8,7.1
		s-4.1,2.2-5.7-1.8C96.3,73.7,101.3,70.8,101.3,70.8z"/>
	<path class="st1" d="M100,82c0.4-0.2,13.8-7.6,13.8-7.6s4.2-1.2,5.9,1.4c1.7,2.5,0.6,6-2.6,7.5s-14.8,7.1-14.8,7.1
		s-4.4,1.6-5.7-1.8C95.1,84.9,100,82,100,82z"/>
	<g>
		<circle class="st8" cx="81.5" cy="24.7" r="4.5"/>
		<path class="st9" d="M98,23.4h-1.6V26h0.6v-1h0.6l0.6,0c0.2-0.1,0.3-0.2,0.3-0.4v-0.7C98.4,23.6,98.2,23.4,98,23.4z M97.9,24.4h-1
			v-0.5h1V24.4z"/>
		<path class="st9" d="M89.6,23.4h-1.2c-0.3,0-0.5,0.2-0.5,0.5v0.6c0,0.3,0.2,0.5,0.5,0.5h1.1v0.5h-1H88v0.1c0,0.3,0.2,0.5,0.5,0.5
			h1.2c0.3,0,0.5-0.2,0.5-0.5v-0.6c0-0.3-0.2-0.5-0.5-0.5h-1.1v-0.5h1.5v-0.1C90.1,23.6,89.9,23.4,89.6,23.4z"/>
		<path class="st9" d="M95.1,23.8c0-0.3-0.2-0.5-0.5-0.5h-0.1V26h0.6L95.1,23.8L95.1,23.8z"/>
		<path class="st9" d="M100.9,23.4h-0.4H100h-0.7v0.6h0.4h0.3v2h0.6v-2h0.3h0.6v-0.1C101.4,23.6,101.2,23.4,100.9,23.4z"/>
		<path class="st9" d="M93.4,23.8c0-0.3-0.2-0.5-0.5-0.5h-0.1v1.1l0,0h-1v-1.1h-0.6v0.4V24v2h0.6v-1h1v1h0.6L93.4,23.8L93.4,23.8z"
			/>
		<g>
			<path class="st10" d="M78,24.2c0.7,0.2,1.4,0.4,2.2,0.4h2.7c0.8-0.1,1.5-0.2,2.2-0.4v-0.1H78V24.2z"/>
			<path class="st10" d="M81.5,22.7c-0.5,0-1,0.2-1.2,0.6h2.5C82.5,22.9,82,22.7,81.5,22.7z"/>
			<polygon class="st10" points="80.9,25 82.1,25 82.4,24.8 80.6,24.8 			"/>
			<polygon class="st10" points="81.5,27.4 81.7,25.4 81.3,25.4 			"/>
			<polygon class="st10" points="79.3,26.9 80.4,25.2 80.1,25.1 			"/>
			<polygon class="st10" points="82.7,25.2 83.7,26.9 83,25.1 			"/>
			<path class="st10" d="M84.4,23.7C84.4,23.7,84.4,23.7,84.4,23.7c0,0.1,0,0.1-0.1,0.1c-0.1,0-0.1,0-0.1-0.1c0,0,0-0.1,0-0.1
				c-0.4-0.1-0.9-0.2-1.3-0.2h-2.7c-0.4,0-0.9,0.1-1.3,0.2c0,0,0,0,0,0.1c0,0.1,0,0.1-0.1,0.1c-0.1,0-0.1,0-0.1-0.1c0,0,0,0,0,0
				c-0.2,0.1-0.5,0.1-0.7,0.2V24h7.1v-0.1C84.8,23.8,84.6,23.7,84.4,23.7z M79.3,23.8c-0.1,0-0.1,0-0.1-0.1c0-0.1,0-0.1,0.1-0.1
				c0.1,0,0.1,0,0.1,0.1C79.4,23.8,79.4,23.8,79.3,23.8z M79.9,23.8c-0.1,0-0.1,0-0.1-0.1c0-0.1,0-0.1,0.1-0.1c0.1,0,0.1,0,0.1,0.1
				C80,23.8,79.9,23.8,79.9,23.8z M80.4,23.8c-0.1,0-0.1,0-0.1-0.1c0-0.1,0-0.1,0.1-0.1c0.1,0,0.1,0,0.1,0.1
				C80.5,23.8,80.5,23.8,80.4,23.8z M81,23.8c-0.1,0-0.1,0-0.1-0.1c0-0.1,0-0.1,0.1-0.1c0.1,0,0.1,0,0.1,0.1
				C81.1,23.8,81,23.8,81,23.8z M81.5,23.8c-0.1,0-0.1,0-0.1-0.1c0-0.1,0-0.1,0.1-0.1c0.1,0,0.1,0,0.1,0.1
				C81.6,23.8,81.6,23.8,81.5,23.8z M82.1,23.8c-0.1,0-0.1,0-0.1-0.1c0-0.1,0-0.1,0.1-0.1c0.1,0,0.1,0,0.1,0.1
				C82.2,23.8,82.1,23.8,82.1,23.8z M82.6,23.8c-0.1,0-0.1,0-0.1-0.1c0-0.1,0-0.1,0.1-0.1c0.1,0,0.1,0,0.1,0.1
				C82.7,23.8,82.7,23.8,82.6,23.8z M83.2,23.8c-0.1,0-0.1,0-0.1-0.1c0-0.1,0-0.1,0.1-0.1c0.1,0,0.1,0,0.1,0.1
				C83.3,23.8,83.2,23.8,83.2,23.8z M83.7,23.8c-0.1,0-0.1,0-0.1-0.1c0-0.1,0-0.1,0.1-0.1c0.1,0,0.1,0,0.1,0.1
				C83.8,23.8,83.8,23.8,83.7,23.8z"/>
		</g>
	</g>
</g>
</svg>
