<?xml version="1.0" encoding="utf-8"?>
<!-- Generator: Adobe Illustrator 21.0.0, SVG Export Plug-In . SVG Version: 6.00 Build 0)  -->
<svg version="1.1" id="Layer_1" xmlns="http://www.w3.org/2000/svg" xmlns:xlink="http://www.w3.org/1999/xlink" x="0px" y="0px"
	 viewBox="0 0 150 150" style="enable-background:new 0 0 150 150;" xml:space="preserve">
<style type="text/css">
	.st0{fill:#D6D5D5;}
	.st1{fill:#F3DAC9;}
	.st2{fill-rule:evenodd;clip-rule:evenodd;fill:#8F8F95;}
	.st3{fill:#FFFFFF;stroke:#777777;stroke-width:0.2161;stroke-miterlimit:10;}
	.st4{fill:#98C673;}
	.st5{fill:#DB575D;}
	.st6{fill:#8ABD5C;}
	.st7{fill:none;stroke:#8F8F95;stroke-width:0.8928;stroke-miterlimit:10;}
	.st8{fill:#71B044;}
	.st9{fill:#5F605F;}
	.st10{fill:#FFFFFF;}
	.st11{fill:#FFFFFF;stroke:#BBBBBB;stroke-width:0.217;stroke-miterlimit:10;}
	.st12{fill:#D3C19C;}
	.st13{fill:#C5B292;}
	.st14{fill:#FDF1E8;}
	.st15{fill:#C2AD8C;}
	.st16{fill:#B26B6B;}
	.st17{fill:#FFFFFF;stroke:#BBBBBB;stroke-width:0.2307;stroke-miterlimit:10;}
	.st18{fill:none;stroke:#BBBBBB;stroke-width:0.1519;stroke-miterlimit:10;}
	.st19{fill:#F3DAC9;stroke:#BBBBBB;stroke-width:0.2053;stroke-miterlimit:10;}
	.st20{fill:none;stroke:#BBBBBB;stroke-width:0.219;stroke-miterlimit:10;}
	.st21{fill:none;}
	.st22{fill:none;stroke:#DB575D;stroke-width:8.335615e-02;stroke-miterlimit:10;}
	.st23{fill:#CE515E;}
	.st24{fill:#F3DAC9;stroke:#BBBBBB;stroke-width:0.2149;stroke-miterlimit:10;}
</style>
<g>
	<circle class="st0" cx="75.6" cy="82.2" r="64"/>
	<g>
		<path class="st10" d="M50.4,91.5c0,0-1.7,5.9,4.4,10.5s-1.5,26.5-1.5,26.5s-3.1,7.4-3.4,13.4c0,0,9.5,5.1,24.1,5.1
			c8.5,0,18,0.2,28-6.1c0,0,0.7-3.7-2.8-13.6c-3.4-9.9-2.2-54-2.2-54s-5.5-7.5-15.9-9.8l-22.2,1.6"/>
		<path class="st1" d="M62.9,47.1c0,0,5.2,7.3,12.9,6.5S85.9,43,85.9,43s6-14.6-3.5-27.9L55.7,26.7c0,0-5.4,6.3-2.4,10.7
			S61,47,61,47s4.1,16.4-5.6,18.9c0,0,22.6,21.7,27.8,0.7c0,0-0.1-2.9-1.9-3.3c0,0-7.3-1.8-5.4-9.8"/>
		<path class="st15" d="M58,34.2c0,0-0.1-7,7.2-7.4c7.2-0.4,14.8-0.3,16.2-5.2s0.7-6.1,0.7-6.1s8.1,8.8,3.7,27.4
			c0,0-0.3,0.8,1.5,2.7c1.8,1.9,2.3,2.7,1.1,5.8s-4,5.8-4,5.8s4.6-1.4,7.4-5.9c2.8-4.5-0.6-7.2-0.6-7.2s-2.8-1.6-1.2-5.8
			c1.6-4.2,4.8-8.8,3-12.9S89.2,14.1,78.4,8.2S63.8,4.6,61.5,5.4S42.7,18.8,46.2,31.9S61,47,61,47s0.3-2.9-1.7-6.9
			c0,0-3.1,1.7-4.4-1.4C53.6,35.6,55.6,33.4,58,34.2z"/>
		
			<ellipse transform="matrix(4.587770e-02 -0.9989 0.9989 4.587770e-02 36.8448 106.5348)" class="st15" cx="74.2" cy="34" rx="1.1" ry="1.1"/>
		
			<ellipse transform="matrix(4.587770e-02 -0.9989 0.9989 4.587770e-02 45.8478 114.4646)" class="st15" cx="82.8" cy="33.2" rx="1.1" ry="1.1"/>
		<path class="st16" d="M73.7,45.5c0,0,3.3,8.4,7.5,0.1"/>
		<path class="st1" d="M102.6,119.9c-0.8,2.9-3,4.5-5,3.5c-2-1-3-4.1-2.3-7c0.8-2.9,3-4.5,5-3.5C102.3,113.8,103.4,117,102.6,119.9z
			"/>
		<g>
			<g>
				<path class="st4" d="M68.9,74.5c0,0,0.1-1.4,1.2-1.8c0,0,0.2-0.9-0.6-0.7c0,0-1.6,1.4-1.4,2.2L68.9,74.5z"/>
				<path class="st5" d="M60.6,78.2c0.7-2.9,3.3-4.8,6.2-4.9c0.6,0,1.1,0.6,1.7,0.7c0.6,0.2,1.3-0.1,1.9,0.2
					c2.5,1.4,3.9,4.3,3.2,7.2c-0.9,3.5-4.4,5.6-8,4.7C61.9,85.3,59.7,81.7,60.6,78.2z"/>
				<path class="st4" d="M63.6,73.9c0,0,1.7-0.3,2.5-0.1c0.1,0,1.2,0,1.9,1.3c0,0,3-0.5,4.2,0.5c0,0-0.8-1.3-1.9-1.5
					c-0.7-0.2-1.2,0-2.1-0.1S66.7,72.2,63.6,73.9z"/>
			</g>
			<polygon class="st6" points="74.5,76.4 66.4,125.6 52.2,122.7 60.3,78.4 64.5,83.1 			"/>
			<g>
				<polygon class="st17" points="98.7,69.3 96.9,64 82.7,58.6 77.3,62.5 67,90.7 80.7,98.3 87.7,97.4 				"/>
				<polyline class="st17" points="96.2,64.6 92.5,68.5 78.3,62.9 				"/>
				<line class="st17" x1="92.5" y1="68.5" x2="80.9" y2="97.7"/>
				
					<rect x="82.7" y="58.3" transform="matrix(0.9295 0.3689 -0.3689 0.9295 28.478 -29.1176)" class="st17" width="15.4" height="3.2"/>
			</g>
			<g>
				<path class="st4" d="M93.4,72.5c0,0,0.1-1.4,1.2-1.8c0,0,0.2-0.9-0.6-0.7c0,0-1.6,1.4-1.4,2.2L93.4,72.5z"/>
				<path class="st5" d="M85,76.3c0.7-2.9,3.3-4.8,6.2-4.9c0.6,0,1.1,0.6,1.7,0.7c0.6,0.2,1.3-0.1,1.9,0.2c2.5,1.4,3.9,4.3,3.2,7.2
					c-0.9,3.5-4.4,5.6-8,4.7C86.4,83.3,84.2,79.7,85,76.3z"/>
				<path class="st4" d="M88.1,71.9c0,0,1.7-0.3,2.5-0.1c0.1,0,1.2,0,1.9,1.3c0,0,3-0.5,4.2,0.5c0,0-0.8-1.3-1.9-1.5
					c-0.7-0.2-1.2,0-2.1-0.1S91.2,70.3,88.1,71.9z"/>
			</g>
			<path class="st12" d="M83.8,97.4l2.8,2.5c1.7,1.4,4.1,1.1,5.6-0.8l27.9-37.3c1.4-1.9,1.2-4.6-0.5-6l-2.8-2.5
				c-1.7-1.4-4.1-1.1-5.6,0.8L83.3,91.4C81.9,93.3,82.2,96,83.8,97.4z"/>
			<path class="st13" d="M109.4,63l-2.3-1.9c-0.2-0.2-0.3-0.6-0.1-0.8l0.3-0.5c0.2-0.3,0.5-0.3,0.8-0.1l2.3,1.9
				c0.2,0.2,0.3,0.6,0.1,0.8l-0.3,0.5C110,63.2,109.6,63.2,109.4,63z"/>
			<path class="st13" d="M105.7,68.5l-2.3-1.9c-0.2-0.2-0.3-0.6-0.1-0.8l0.3-0.5c0.2-0.3,0.5-0.3,0.8-0.1l2.3,1.9
				c0.2,0.2,0.3,0.6,0.1,0.8l-0.3,0.5C106.3,68.7,105.9,68.7,105.7,68.5z"/>
			<path class="st13" d="M101.8,74.1l-2.3-1.9c-0.2-0.2-0.3-0.6-0.1-0.8l0.3-0.5c0.2-0.3,0.5-0.3,0.8-0.1l2.3,1.9
				c0.2,0.2,0.3,0.6,0.1,0.8l-0.3,0.5C102.4,74.2,102.1,74.3,101.8,74.1z"/>
			<path class="st13" d="M97,80.1l-2.3-1.9c-0.2-0.2-0.3-0.6-0.1-0.8l0.3-0.5c0.2-0.3,0.5-0.3,0.8-0.1l2.3,1.9
				c0.2,0.2,0.3,0.6,0.1,0.8L97.8,80C97.6,80.3,97.3,80.3,97,80.1z"/>
			<path class="st4" d="M60.3,78.4l4.3,4.6l9.6-6.7l30.6,6c0,0,2.6,29.4-11.5,48.5l-26.8-5.2l-14.2-2.9L60.3,78.4z"/>
			<g>
				<path class="st10" d="M88.2,100.9c-0.1,0-0.2,0.1-0.2,0.2c0,0.1,0.1,0.2,0.2,0.2c0.1,0,0.2-0.1,0.2-0.2
					C88.3,101.1,88.3,101,88.2,100.9L88.2,100.9z"/>
				<path class="st10" d="M89.1,101.1c-0.1,0-0.2,0.1-0.2,0.2c0,0.1,0.1,0.2,0.2,0.2c0.1,0,0.2-0.1,0.2-0.2
					C89.3,101.2,89.2,101.1,89.1,101.1L89.1,101.1z"/>
				<path class="st10" d="M90.1,101.3c-0.1,0-0.2,0.1-0.2,0.2c0,0.1,0.1,0.2,0.2,0.2c0.1,0,0.2-0.1,0.2-0.2
					C90.3,101.4,90.2,101.3,90.1,101.3L90.1,101.3z"/>
				<path class="st10" d="M85.2,100.5c-0.1,0-0.2,0.1-0.2,0.2c0,0.1,0.1,0.2,0.2,0.2c0.1,0,0.2-0.1,0.2-0.2
					C85.4,100.6,85.3,100.5,85.2,100.5L85.2,100.5z"/>
				<path class="st10" d="M87.2,100.8c-0.1,0-0.2,0.1-0.2,0.2c0,0.1,0.1,0.2,0.2,0.2c0.1,0,0.2-0.1,0.2-0.2
					C87.4,100.9,87.3,100.8,87.2,100.8L87.2,100.8z"/>
				<path class="st10" d="M84.3,100.3c-0.1,0-0.2,0.1-0.2,0.2c0,0.1,0.1,0.2,0.2,0.2c0.1,0,0.2-0.1,0.2-0.2
					C84.4,100.4,84.4,100.3,84.3,100.3L84.3,100.3z"/>
				<path class="st10" d="M86.2,100.6c-0.1,0-0.2,0.1-0.2,0.2c0,0.1,0.1,0.2,0.2,0.2c0.1,0,0.2-0.1,0.2-0.2
					C86.4,100.7,86.3,100.7,86.2,100.6L86.2,100.6z"/>
				<path class="st10" d="M91.1,101.4c-0.1,0-0.2,0.1-0.2,0.2c0,0.1,0.1,0.2,0.2,0.2c0.1,0,0.2-0.1,0.2-0.2
					C91.3,101.5,91.2,101.4,91.1,101.4L91.1,101.4z"/>
				<path class="st10" d="M80.8,100.6l12.6,2l0,0.2c-1.3,0.2-2.7,0.2-4,0.2l-4.8-0.8c-1.3-0.4-2.6-0.8-3.8-1.4L80.8,100.6
					L80.8,100.6z M80.8,100.2c0.4-0.1,0.9-0.1,1.3-0.1c0,0,0,0,0,0.1c0,0.1,0.1,0.2,0.2,0.2c0.1,0,0.2-0.1,0.2-0.2
					c0-0.1,0-0.1,0-0.1c0.8,0,1.6-0.1,2.4,0l4.8,0.8c0.8,0.2,1.5,0.5,2.3,0.8c0,0-0.1,0.1-0.1,0.1c0,0.1,0.1,0.2,0.2,0.2
					c0.1,0,0.2-0.1,0.2-0.2c0,0,0-0.1,0-0.1c0.4,0.2,0.8,0.4,1.2,0.5l0,0.1l-12.6-2L80.8,100.2L80.8,100.2z M87.5,99.1
					c0.9,0.1,1.6,0.7,2,1.4l-4.3-0.7C85.7,99.3,86.6,99,87.5,99.1L87.5,99.1z M88.7,104l0.6-0.2l0.8,3.5L88.7,104L88.7,104z
					 M87.9,103.3l-2.2-0.4l-0.4-0.3l3.2,0.5L87.9,103.3L87.9,103.3z M86.1,107.5l0.2-3.6L87,104L86.1,107.5L86.1,107.5z M82.3,106
					l1.8-3.1l0.5,0.4L82.3,106L82.3,106z M85.6,110.7c4.4,0.7,8.5-2.3,9.2-6.6c0.7-4.4-2.3-8.5-6.6-9.2c-4.4-0.7-8.5,2.3-9.2,6.6
					C78.2,105.9,81.2,110,85.6,110.7L85.6,110.7z"/>
				<path class="st10" d="M83.3,100.2c-0.1,0-0.2,0.1-0.2,0.2c0,0.1,0.1,0.2,0.2,0.2c0.1,0,0.2-0.1,0.2-0.2
					C83.5,100.3,83.4,100.2,83.3,100.2L83.3,100.2z"/>
				<path class="st10" d="M88.8,115.2l-1.1-0.2l0.1-0.6l1.1,0.2L88.8,115.2L88.8,115.2z M89.1,114l-1.9-0.3l-0.5,3l0.6,0.1l0.2-1.1
					l0.7,0.1l0.7,0.1c0.2,0,0.4-0.2,0.5-0.5l0.1-0.8C89.6,114.3,89.4,114,89.1,114L89.1,114z"/>
				<path class="st10" d="M79.4,112.4l-1.3-0.2c-0.3,0-0.6,0.2-0.6,0.5l-0.1,0.7c0,0.3,0.2,0.6,0.5,0.6l1.2,0.2l-0.1,0.5l-1.1-0.2
					l-0.6-0.1l0,0.1c0,0.3,0.2,0.6,0.5,0.6l1.3,0.2c0.3,0,0.6-0.2,0.6-0.5l0.1-0.7c0-0.3-0.2-0.6-0.5-0.6l-1.2-0.2l0.1-0.5l1.8,0.3
					l0-0.1C79.9,112.8,79.7,112.5,79.4,112.4L79.4,112.4z"/>
				<path class="st10" d="M85.7,114c0-0.3-0.2-0.6-0.5-0.6l-0.1,0l-0.5,3l0.6,0.1l0.4-2.4L85.7,114L85.7,114z"/>
				<path class="st10" d="M92.5,114.5l-1.9-0.3l-0.1,0.6l0.8,0.1l-0.4,2.4l0.6,0.1l0.4-2.4l1,0.2l0-0.1
					C93,114.9,92.8,114.6,92.5,114.5L92.5,114.5z"/>
				<path class="st10" d="M83.6,113.7c0-0.3-0.2-0.6-0.5-0.6l-0.1,0l-0.2,1.3l0,0l-1.1-0.2l0.2-1.3l-0.6-0.1l-0.5,3l0.6,0.1l0.2-1.1
					l1.1,0.2l-0.2,1.1l0.6,0.1l0.4-2.4L83.6,113.7L83.6,113.7z"/>
			</g>
			<polygon class="st6" points="97.5,82.1 95.7,90.8 83.6,88.4 85.3,79.7 83.4,79.3 81.4,89.5 97.3,92.7 99.3,82.5 			"/>
		</g>
		<g>
			<path class="st1" d="M101,123.3C101,123.2,101,123.2,101,123.3C101,123.2,101,123.3,101,123.3C101,123.3,101,123.3,101,123.3
				L101,123.3c-0.3,0.4-0.6,0.9-0.9,1.4c-0.4,0.6-0.7,1.1-1.1,1.6c-0.3,0.5-0.8,0.9-1,1.4c-0.3,0.6-0.6,1.2-1.2,1.6
				c-0.4,0.3-1,0.5-1.5,0.7c-0.6,0.2-1.1,0.6-1.7,0.8c-0.4,0.2-1.2,0.2-0.8-0.5c0.1-0.3,0.3-0.5,0.5-0.7c0,0,0.1-0.1,0.1-0.1
				c-0.6,0.2-1.3,0.3-1.9,0.5c-0.3,0.1-1.3,0.7-1.5,0.4c-0.3-0.3,0.2-0.9,0.6-1.3c-0.1,0-0.2,0-0.3,0.1c-0.2,0.1-0.5,0-0.7,0.1
				c-0.2,0-0.5,0.2-0.7,0.2c-0.7,0.1-0.1-0.7,0.2-0.9c0.8-0.7,1.7-0.9,2.5-1.4c0.4-0.3,0.8-0.6,1.1-1.1c0.4-0.5,0.8-1.1,1.1-1.7
				c-0.2,0.2-0.5,0.3-0.8,0.4c-0.5,0.2-1,0.2-1.5,0.4c-1.1,0.4-2.1,0.9-3.1,1.5c-0.6,0.3-1,0.1-0.6-0.6c0.3-0.5,0.6-1,1.1-1.3
				c0.9-0.8,2-1.1,3-1.7c0.5-0.3,0.9-0.6,1.3-1c0.5-0.5,0.9-1.1,1.4-1.7l0,0c0.3-0.6,0.6-1.1,1-1.6c-0.1-0.1-0.2-0.1-0.3-0.2
				c-0.4-0.2-0.8-0.3-1.2-0.5c-0.9-0.4-2.3-0.8-2.2-2.2c0-0.8,0.7-0.8,1.1-0.7c0.5,0.2,1,0.5,1.6,0.5c0.5,0,1.1-0.1,1.6-0.2
				c0.6-0.1,1.2,0,1.9,0c0.7,0,1.2,0.2,1.8,0.5c0.4,0.2,0.8,0.5,1.1,0.7c0.2,0.1,0.4,0.2,0.5,0.3c0,0,0,0,0,0l0,0
				c0.2,0.2,0.5,0.4,0.6,0.7c0,0,0.2,0.3,0.4,0.6c0.2,0.4,0.2,0.9,0.2,0.9S102.2,121.4,101,123.3z"/>
			<path class="st18" d="M97,126c-1.1,0.6-1.5,2.1-2.5,3c-0.8,0.7-1.9,0.8-2.8,1c-0.3,0.1-1.3,0.7-1.5,0.4c-0.5-0.6,0.5-1.2,0.8-1.4
				"/>
			<path class="st18" d="M94.1,124.1c-0.3,0.7-0.8,1.3-1.2,1.9c-0.3,0.5-0.7,0.8-1.1,1.1c-0.8,0.5-1.7,0.8-2.5,1.4
				c-0.3,0.2-0.9,1-0.2,0.9c0.2,0,0.5-0.2,0.7-0.2c0.2,0,0.5,0,0.7-0.1c0.9-0.2,1.9-0.3,2.7-0.8c0.5-0.3,0.8-0.8,1.1-1.3
				c0.5-0.6,1-1.1,1.7-1.5"/>
			<path class="st18" d="M96.6,119.8c-0.5-0.6-0.5-1.1-1.2-1.3c-0.4-0.2-0.8-0.3-1.2-0.5c-0.9-0.4-2.4-0.9-2.3-2.3
				c0-0.8,0.8-0.7,1.2-0.5c0.5,0.2,1,0.5,1.6,0.5c0.5,0,1.1-0.1,1.6-0.2c0.6-0.1,1.2,0,1.9,0c0.7,0,1.5,0.3,2.1,0.6"/>
		</g>
		<path class="st19" d="M82.9,128.8c2.3-1.9,4.4-4.2,7.1-5.4c1.3-0.6,2.7-0.7,4-1.4c1-0.5,2.5-2,3.4-1.1c0.4-0.4,0.8-0.9,1.4-1.1
			c0.5,0.8-1.5,3.7-1.9,4.7c-0.7,1.8-1.8,3-2.6,4.6c-0.9,1.6-1.6,3.3-3.2,4.2c-1.5,0.8-3.3,1.2-4.8,1.8c-3.7,1.4-28.2-5.9-37.8-12.5
			c-3.4-2.3-3.4-6.5-3.6-10.6c-0.2-3.7-2.6-29.7,5.5-40.8c1-1.4,2.9-3.4,4.5-3.2c2.3,0.3,4.2,1.3,5.1,3.5c1.1,2.6,0.6,7.5,0.1,10.3
			c-0.6,3.5-0.8,6.8-1.3,10.3c-0.4,3-0.9,6-1.3,9c-0.4,2.5-0.7,4.9-0.9,7.4c-0.1,1.3-0.1,2.6-0.2,3.9c1.5,0.9,3,2.2,4.5,3.3
			c1.9,1.3,4.1,2.2,6.1,3.4c1.9,1.2,9.5,5.8,11.4,7c1.1,0.7,2.7,2.2,4.1,2.4c0.2,0,0.3,0,0.5,0"/>
		<path class="st20" d="M97.5,120.9c-0.9,2.6-4,3.1-5.5,5.1"/>
		<g>
			<path class="st10" d="M53.9,69.6c-1.7,4-2.9,8.3-3.5,12.6c-0.8,5.5-1.5,13.4,1.7,18c1.8,2.4,4.6,3.2,7.4,3.7
				c1.8-7.1,7.4-31.8-1.8-37.4c0,0-0.1-0.1-0.3-0.2c-0.3,0-0.6,0-0.9,0.2C55.2,66.9,54.4,68.3,53.9,69.6z M54.3,83.9
				c0.3,1.9,0.7,4.4,2,5.6c1.5,1.4,2.8-0.2,3.3-2.1c0.5-2.2,1.2-14.8-1.8-15.4c3,0.6,2.3,13.1,1.8,15.4c-0.5,1.9-1.8,3.5-3.3,2.1
				C54.9,88.3,54.6,85.8,54.3,83.9c-0.5-3.5,0-10.3,3.8-11.7C54.3,73.6,53.7,80.5,54.3,83.9z"/>
			<path class="st10" d="M52.1,100.1c-3.3-4.5-2.5-12.5-1.7-18c0.6-4.2,1.8-8.6,3.5-12.6c0.5-1.3,1.3-2.7,2.6-3.2
				c0.3-0.1,0.6-0.2,0.9-0.2c-1-0.6-7.3-1.4-11.3,7.4c0,0-6.2,13.2-4.2,32.5c0,0,12.6,3.1,17.2-0.3c0,0,0.2-0.7,0.5-1.9
				C56.6,103.4,53.8,102.6,52.1,100.1z"/>
		</g>
	</g>
</g>
</svg>
