<svg xmlns="http://www.w3.org/2000/svg" width="564.561" height="523.038" viewBox="0 0 564.5611 523.03827"><defs><clipPath id="a"><path d="M0 500h500V0H0v500z"/></clipPath></defs><path d="M478.097 177.972h.002-.001z" fill="#f8b232"/><g clip-path="url(#a)" transform="matrix(1.25 0 0 -1.25 -30.22 573.785)"><path d="M406.654 316.65c5.1-15.979 7.796-32.878 7.796-50.227 0-90.678-73.774-164.452-164.452-164.452-90.677 0-164.448 73.774-164.448 164.452 0 56.82 28.778 108.868 76.98 139.233l-32.708 51.928C63.668 415.916 24.175 344.456 24.175 266.424c0-124.522 101.305-225.827 225.823-225.827 34.634 0 67.46 7.86 96.821 21.852 81.086 81.858 89.825 181.18 59.835 254.201" fill="#f8b232"/><path d="M475.824 266.423c0 78.033-39.493 149.493-105.646 191.161l-32.708-51.928c33.483-21.093 57.581-52.655 69.183-89.006 29.991-73.022 21.253-172.343-59.834-254.2 76.204 36.317 129.005 114.086 129.005 203.973" fill="#fddca9"/><path d="M316.853 216h-38.56l-6.586 44.103h-46.9L218.233 216h-35.086l38.887 243.028h55.903L316.853 216z" fill="#4ebdec"/><path d="M278.294 216h38.559l-38.915 243.028-16.394-.028V260.103h10.164L278.294 216z" fill="#94d6ed"/></g></svg>