<?xml version="1.0" encoding="utf-8"?>
<!-- Generator: Adobe Illustrator 17.1.0, SVG Export Plug-In . SVG Version: 6.00 Build 0)  -->
<!DOCTYPE svg PUBLIC "-//W3C//DTD SVG 1.1//EN" "http://www.w3.org/Graphics/SVG/1.1/DTD/svg11.dtd">
<svg version="1.1" id="Tumblr" xmlns="http://www.w3.org/2000/svg" xmlns:xlink="http://www.w3.org/1999/xlink" x="0px" y="0px"
	 viewBox="0 0 128 128" enable-background="new 0 0 128 128" xml:space="preserve">
<g>
	<rect id="tumblr-back" fill="#3B445C" width="128" height="128"/>
	<g id="tumblr-tumblr">
		<path fill="none" stroke="#FFEA00" stroke-width="4" stroke-miterlimit="10" d="M47.3672,46.8057"/>
		<path fill="#FFFFFF" d="M73.625,102.4004c7.6846,0,15.2988-2.7363,17.8184-6.0508l0.5039-0.6641l-4.7637-14.1191
			c-0.044-0.1309-0.166-0.2187-0.3047-0.2187h-0.8984h-0.4082h-9.334c-0.1445,0-0.2754-0.0918-0.3115-0.2315
			c-0.1241-0.4707-0.1983-1.0459-0.21-1.7578V62.0908c0-0.1777,0.1445-0.3213,0.3223-0.3213h12.5195
			c0.1777,0,0.3223-0.1435,0.3223-0.3213v-17.666c0-0.1767-0.1446-0.3213-0.3223-0.3213H76.0918
			c-0.1768,0-0.3203-0.1435-0.3203-0.3213V25.9209c0-0.1768-0.1445-0.3213-0.3223-0.3213h-9.751h-3.4086h-8.7027
			c-1.5635,0-3.3677,1.1602-3.6313,3.3096c-1.0918,8.8877-5.168,14.2207-12.8286,16.7803l-0.8545,0.2851
			c-0.1314,0.044-0.2198,0.167-0.2198,0.3047v15.1689c0,0.1778,0.1441,0.3213,0.3213,0.3213h5.9512l0,0h1.8726
			c0,0,0,14.1582,0,18.6817C44.1978,95.3652,54.5273,102.4004,73.625,102.4004z M88.2676,95.1914
			c-2.3975,2.3066-7.3194,4.0195-12.0371,4.0986c-0.1778,0.003-0.3516,0.0049-0.5274,0.0049h-0.0019
			c-15.5157-0.001-19.6553-11.8447-19.6553-18.8437V58.9453c0-0.1777-0.144-0.3213-0.3213-0.3213h-7.5024
			c-0.1778,0-0.3213-0.1435-0.3213-0.3213v-9.7968c0-0.1309,0.082-0.2481,0.2041-0.295c8.0185-3.122,12.4966-9.3242,13.6748-18.9179
			c0.0654-0.5332,0.5054-0.5479,0.5098-0.5479h10.0151c0.1777,0,0.3213,0.1436,0.3213,0.3213v17.2188
			c0,0.1777,0.1435,0.3212,0.3213,0.3212h12.4668c0.1777,0,0.3203,0.1436,0.3203,0.3213v11.375
			c0,0.1778-0.1426,0.3213-0.3203,0.3213H72.8936c-0.1778,0-0.3213,0.1436-0.3213,0.3213v20.4385
			c0.0742,4.6025,2.3007,6.9355,6.6201,6.9355c1.7402,0,3.7334-0.4052,5.5537-1.1005c0.1699-0.0645,0.3574,0.0214,0.416,0.1943
			l3.1846,9.4404C88.3867,94.9727,88.3594,95.1045,88.2676,95.1914z"/>
	</g>
</g>
</svg>
